<svg width="155" height="56" viewBox="0 0 155 56" fill="none" xmlns="http://www.w3.org/2000/svg">
<g filter="url(#filter0_d)">
<rect width="147" height="48" transform="translate(4)" fill="white"/>
<rect x="4" width="147" height="48" rx="8" fill="#F9F8F8"/>
<path d="M65.6016 35.0312H60.8359L59.7656 38H58.2188L62.5625 26.625H63.875L68.2266 38H66.6875L65.6016 35.0312ZM61.2891 33.7969H65.1562L63.2188 28.4766L61.2891 33.7969ZM71.0984 29.5469L71.1453 30.6094C71.7911 29.7969 72.6349 29.3906 73.6766 29.3906C75.463 29.3906 76.3641 30.3984 76.3797 32.4141V38H74.9344V32.4062C74.9292 31.7969 74.7885 31.3464 74.5125 31.0547C74.2417 30.763 73.8172 30.6172 73.2391 30.6172C72.7703 30.6172 72.3589 30.7422 72.0047 30.9922C71.6505 31.2422 71.3745 31.5703 71.1766 31.9766V38H69.7312V29.5469H71.0984ZM78.4078 33.7031C78.4078 32.4062 78.7151 31.3646 79.3297 30.5781C79.9443 29.7865 80.749 29.3906 81.7437 29.3906C82.7333 29.3906 83.5172 29.7292 84.0953 30.4062V26H85.5406V38H84.2125L84.1422 37.0938C83.5641 37.8021 82.7594 38.1562 81.7281 38.1562C80.749 38.1562 79.9495 37.7552 79.3297 36.9531C78.7151 36.151 78.4078 35.1042 78.4078 33.8125V33.7031ZM79.8531 33.8672C79.8531 34.8255 80.051 35.5755 80.4469 36.1172C80.8427 36.6589 81.3896 36.9297 82.0875 36.9297C83.0042 36.9297 83.6734 36.5182 84.0953 35.6953V31.8125C83.663 31.0156 82.999 30.6172 82.1031 30.6172C81.3948 30.6172 80.8427 30.8906 80.4469 31.4375C80.051 31.9844 79.8531 32.7943 79.8531 33.8672ZM92.0766 30.8438C91.8578 30.8073 91.6208 30.7891 91.3656 30.7891C90.4177 30.7891 89.7745 31.1927 89.4359 32V38H87.9906V29.5469H89.3969L89.4203 30.5234C89.8943 29.7682 90.5661 29.3906 91.4359 29.3906C91.7172 29.3906 91.9307 29.4271 92.0766 29.5V30.8438ZM93.0734 33.6953C93.0734 32.8672 93.2349 32.1224 93.5578 31.4609C93.8859 30.7995 94.3391 30.2891 94.9172 29.9297C95.5005 29.5703 96.1646 29.3906 96.9094 29.3906C98.0604 29.3906 98.9901 29.7891 99.6984 30.5859C100.412 31.3828 100.769 32.4427 100.769 33.7656V33.8672C100.769 34.6901 100.61 35.4297 100.292 36.0859C99.9797 36.737 99.5292 37.2448 98.9406 37.6094C98.3573 37.974 97.6854 38.1562 96.925 38.1562C95.7792 38.1562 94.8495 37.7578 94.1359 36.9609C93.4276 36.1641 93.0734 35.1094 93.0734 33.7969V33.6953ZM94.5266 33.8672C94.5266 34.8047 94.7427 35.5573 95.175 36.125C95.6125 36.6927 96.1958 36.9766 96.925 36.9766C97.6594 36.9766 98.2427 36.6901 98.675 36.1172C99.1073 35.5391 99.3234 34.7318 99.3234 33.6953C99.3234 32.7682 99.1021 32.0182 98.6594 31.4453C98.2219 30.8672 97.6385 30.5781 96.9094 30.5781C96.1958 30.5781 95.6203 30.862 95.1828 31.4297C94.7453 31.9974 94.5266 32.8099 94.5266 33.8672ZM104.352 38H102.906V29.5469H104.352V38ZM102.789 27.3047C102.789 27.0703 102.859 26.8724 103 26.7109C103.146 26.5495 103.359 26.4688 103.641 26.4688C103.922 26.4688 104.135 26.5495 104.281 26.7109C104.427 26.8724 104.5 27.0703 104.5 27.3047C104.5 27.5391 104.427 27.7344 104.281 27.8906C104.135 28.0469 103.922 28.125 103.641 28.125C103.359 28.125 103.146 28.0469 103 27.8906C102.859 27.7344 102.789 27.5391 102.789 27.3047ZM106.52 33.7031C106.52 32.4062 106.828 31.3646 107.442 30.5781C108.057 29.7865 108.861 29.3906 109.856 29.3906C110.846 29.3906 111.63 29.7292 112.208 30.4062V26H113.653V38H112.325L112.255 37.0938C111.677 37.8021 110.872 38.1562 109.841 38.1562C108.861 38.1562 108.062 37.7552 107.442 36.9531C106.828 36.151 106.52 35.1042 106.52 33.8125V33.7031ZM107.966 33.8672C107.966 34.8255 108.164 35.5755 108.559 36.1172C108.955 36.6589 109.502 36.9297 110.2 36.9297C111.117 36.9297 111.786 36.5182 112.208 35.6953V31.8125C111.776 31.0156 111.111 30.6172 110.216 30.6172C109.507 30.6172 108.955 30.8906 108.559 31.4375C108.164 31.9844 107.966 32.7943 107.966 33.8672Z" fill="#111B47"/>
<path d="M66.4424 17.8174C66.1507 18.2321 65.6927 18.5557 65.0684 18.7881C64.4486 19.0205 63.7536 19.1367 62.9834 19.1367C62.2041 19.1367 61.5114 18.9499 60.9053 18.5762C60.2992 18.2025 59.8298 17.6738 59.4971 16.9902C59.1644 16.3066 58.9958 15.5228 58.9912 14.6387V13.3809C58.9912 12 59.3398 10.9108 60.0371 10.1133C60.7344 9.3112 61.6709 8.91016 62.8467 8.91016C63.8721 8.91016 64.6969 9.1722 65.3213 9.69629C65.9456 10.2158 66.3171 10.9336 66.4355 11.8496H65.5947C65.4717 11.1204 65.1732 10.569 64.6992 10.1953C64.2298 9.81706 63.6146 9.62793 62.8535 9.62793C61.9238 9.62793 61.1878 9.95833 60.6455 10.6191C60.1032 11.2799 59.832 12.2119 59.832 13.415V14.5908C59.832 15.3473 59.9596 16.0173 60.2148 16.6006C60.4746 17.1794 60.8438 17.6283 61.3223 17.9473C61.8053 18.2663 62.359 18.4258 62.9834 18.4258C63.708 18.4258 64.3301 18.3118 64.8496 18.084C65.1868 17.9336 65.4375 17.7581 65.6016 17.5576V14.9873H62.9287V14.2764H66.4424V17.8174ZM71.751 19.1367C71.1221 19.1367 70.5524 18.9818 70.042 18.6719C69.5361 18.362 69.1419 17.9313 68.8594 17.3799C68.5768 16.8239 68.4355 16.2018 68.4355 15.5137V15.2197C68.4355 14.5088 68.5723 13.8685 68.8457 13.2988C69.1237 12.7292 69.5088 12.2826 70.001 11.959C70.4932 11.6309 71.0264 11.4668 71.6006 11.4668C72.4984 11.4668 73.2093 11.7744 73.7334 12.3896C74.262 13.0003 74.5264 13.8366 74.5264 14.8984V15.3564H69.249V15.5137C69.249 16.3522 69.4883 17.0518 69.9668 17.6123C70.4499 18.1683 71.056 18.4463 71.7852 18.4463C72.2227 18.4463 72.6077 18.3665 72.9404 18.207C73.2777 18.0475 73.583 17.7923 73.8564 17.4414L74.3691 17.8311C73.7676 18.7015 72.8949 19.1367 71.751 19.1367ZM71.6006 12.1641C70.9854 12.1641 70.4658 12.3896 70.042 12.8408C69.6227 13.292 69.3675 13.8981 69.2764 14.6592H73.7129V14.5703C73.6901 13.8594 73.4873 13.2806 73.1045 12.834C72.7217 12.3874 72.2204 12.1641 71.6006 12.1641ZM77.6406 9.70996V11.6035H79.1719V12.2734H77.6406V17.2021C77.6406 17.6123 77.7135 17.9176 77.8594 18.1182C78.0098 18.3187 78.2581 18.4189 78.6045 18.4189C78.7412 18.4189 78.9622 18.3962 79.2676 18.3506L79.3018 19.0205C79.0876 19.098 78.7959 19.1367 78.4268 19.1367C77.8662 19.1367 77.4583 18.9749 77.2031 18.6514C76.9479 18.3232 76.8203 17.8424 76.8203 17.209V12.2734H75.46V11.6035H76.8203V9.70996H77.6406ZM85.6875 19H84.8672V11.6035H85.6875V19ZM84.7236 9.46387C84.7236 9.30892 84.7738 9.17904 84.874 9.07422C84.9743 8.96484 85.111 8.91016 85.2842 8.91016C85.4574 8.91016 85.5941 8.96484 85.6943 9.07422C85.7992 9.17904 85.8516 9.30892 85.8516 9.46387C85.8516 9.61882 85.7992 9.7487 85.6943 9.85352C85.5941 9.95833 85.4574 10.0107 85.2842 10.0107C85.111 10.0107 84.9743 9.95833 84.874 9.85352C84.7738 9.7487 84.7236 9.61882 84.7236 9.46387ZM89.4375 9.70996V11.6035H90.9688V12.2734H89.4375V17.2021C89.4375 17.6123 89.5104 17.9176 89.6562 18.1182C89.8066 18.3187 90.055 18.4189 90.4014 18.4189C90.5381 18.4189 90.7591 18.3962 91.0645 18.3506L91.0986 19.0205C90.8844 19.098 90.5928 19.1367 90.2236 19.1367C89.6631 19.1367 89.2552 18.9749 89 18.6514C88.7448 18.3232 88.6172 17.8424 88.6172 17.209V12.2734H87.2568V11.6035H88.6172V9.70996H89.4375ZM96.1172 15.1924C96.1172 14.4814 96.2539 13.8411 96.5273 13.2715C96.8053 12.7018 97.195 12.2598 97.6963 11.9453C98.2021 11.6263 98.7741 11.4668 99.4121 11.4668C100.396 11.4668 101.194 11.8132 101.805 12.5059C102.415 13.194 102.721 14.1077 102.721 15.2471V15.418C102.721 16.1335 102.582 16.7783 102.304 17.3525C102.03 17.9222 101.643 18.362 101.142 18.6719C100.64 18.9818 100.068 19.1367 99.4258 19.1367C98.446 19.1367 97.6484 18.7926 97.0332 18.1045C96.4225 17.4118 96.1172 16.4958 96.1172 15.3564V15.1924ZM96.9375 15.418C96.9375 16.3021 97.1654 17.029 97.6211 17.5986C98.0814 18.1637 98.6829 18.4463 99.4258 18.4463C100.164 18.4463 100.761 18.1637 101.217 17.5986C101.677 17.029 101.907 16.2793 101.907 15.3496V15.1924C101.907 14.6273 101.802 14.11 101.593 13.6406C101.383 13.1712 101.089 12.8089 100.711 12.5537C100.333 12.2939 99.8997 12.1641 99.4121 12.1641C98.6829 12.1641 98.0882 12.4512 97.6279 13.0254C97.1676 13.5951 96.9375 14.3424 96.9375 15.2676V15.418ZM105.445 11.6035L105.473 12.8682C105.751 12.4124 106.097 12.0661 106.512 11.8291C106.926 11.5876 107.384 11.4668 107.886 11.4668C108.679 11.4668 109.269 11.6901 109.656 12.1367C110.044 12.5833 110.24 13.2533 110.244 14.1465V19H109.431V14.1396C109.426 13.4788 109.285 12.9867 109.007 12.6631C108.733 12.3395 108.294 12.1777 107.688 12.1777C107.182 12.1777 106.733 12.3372 106.341 12.6562C105.953 12.9707 105.666 13.3968 105.479 13.9346V19H104.666V11.6035H105.445Z" fill="#111B47"/>
<path d="M39.6 15.8356H38.4V14.6691H39.6V15.8356ZM33.6 15.8356H32.4V14.6691H33.6V15.8356ZM40.236 12.5227L41.808 10.9945C42.036 10.7728 42.036 10.3995 41.808 10.1662C41.568 9.94459 41.184 9.94459 40.956 10.1662L39.18 11.8927C38.22 11.4378 37.14 11.1695 36 11.1695C34.848 11.1695 33.768 11.4378 32.808 11.9044L31.02 10.1662C30.792 9.94459 30.408 9.94459 30.18 10.1662C29.94 10.3995 29.94 10.7728 30.18 10.9945L31.752 12.5227C29.964 13.8059 28.8 15.8356 28.8 18.1687H43.2C43.2 15.8356 42 13.7942 40.236 12.5227ZM46.2 19.3353C45.7226 19.3353 45.2648 19.5196 44.9272 19.8478C44.5896 20.1759 44.4 20.621 44.4 21.0851V29.2509C44.4 29.715 44.5896 30.1601 44.9272 30.4882C45.2648 30.8164 45.7226 31.0007 46.2 31.0007C46.6774 31.0007 47.1352 30.8164 47.4728 30.4882C47.8104 30.1601 48 29.715 48 29.2509V21.0851C48 20.621 47.8104 20.1759 47.4728 19.8478C47.1352 19.5196 46.6774 19.3353 46.2 19.3353ZM25.8 19.3353C25.3226 19.3353 24.8648 19.5196 24.5272 19.8478C24.1896 20.1759 24 20.621 24 21.0851V29.2509C24 29.715 24.1896 30.1601 24.5272 30.4882C24.8648 30.8164 25.3226 31.0007 25.8 31.0007C26.2774 31.0007 26.7352 30.8164 27.0728 30.4882C27.4104 30.1601 27.6 29.715 27.6 29.2509V21.0851C27.6 20.621 27.4104 20.1759 27.0728 19.8478C26.7352 19.5196 26.2774 19.3353 25.8 19.3353ZM28.8 31.0007C28.8 31.3101 28.9264 31.6068 29.1515 31.8256C29.3765 32.0444 29.6817 32.1673 30 32.1673H31.2V36.2502C31.2 36.7143 31.3896 37.1593 31.7272 37.4875C32.0648 37.8156 32.5226 38 33 38C33.4774 38 33.9352 37.8156 34.2728 37.4875C34.6104 37.1593 34.8 36.7143 34.8 36.2502V32.1673H37.2V36.2502C37.2 36.7143 37.3896 37.1593 37.7272 37.4875C38.0648 37.8156 38.5226 38 39 38C39.4774 38 39.9352 37.8156 40.2728 37.4875C40.6104 37.1593 40.8 36.7143 40.8 36.2502V32.1673H42C42.3183 32.1673 42.6235 32.0444 42.8485 31.8256C43.0736 31.6068 43.2 31.3101 43.2 31.0007V19.3353H28.8V31.0007Z" fill="#FF0000"/>
</g>
<defs>
<filter id="filter0_d" x="0" y="0" width="155" height="56" filterUnits="userSpaceOnUse" color-interpolation-filters="sRGB">
<feFlood flood-opacity="0" result="BackgroundImageFix"/>
<feColorMatrix in="SourceAlpha" type="matrix" values="0 0 0 0 0 0 0 0 0 0 0 0 0 0 0 0 0 0 127 0"/>
<feOffset dy="4"/>
<feGaussianBlur stdDeviation="2"/>
<feColorMatrix type="matrix" values="0 0 0 0 0 0 0 0 0 0 0 0 0 0 0 0 0 0 0.12 0"/>
<feBlend mode="normal" in2="BackgroundImageFix" result="effect1_dropShadow"/>
<feBlend mode="normal" in="SourceGraphic" in2="effect1_dropShadow" result="shape"/>
</filter>
</defs>
</svg>
