<svg width="155" height="56" viewBox="0 0 155 56" fill="none" xmlns="http://www.w3.org/2000/svg">
<g filter="url(#filter0_d)">
<rect width="147" height="48" transform="translate(4)" fill="#F9F8F8"/>
<rect width="147" height="48" transform="translate(4)" fill="#F9F8F8"/>
<rect x="4" width="147" height="48" rx="8" fill="#F9F8F8"/>
<path d="M55.6016 35.0312H50.8359L49.7656 38H48.2188L52.5625 26.625H53.875L58.2266 38H56.6875L55.6016 35.0312ZM51.2891 33.7969H55.1562L53.2188 28.4766L51.2891 33.7969ZM66.8719 33.8672C66.8719 35.1536 66.5776 36.1901 65.9891 36.9766C65.4005 37.763 64.6036 38.1562 63.5984 38.1562C62.5724 38.1562 61.7651 37.8307 61.1766 37.1797V41.25H59.7312V29.5469H61.0516L61.1219 30.4844C61.7104 29.7552 62.5281 29.3906 63.575 29.3906C64.5906 29.3906 65.3927 29.7734 65.9812 30.5391C66.575 31.3047 66.8719 32.3698 66.8719 33.7344V33.8672ZM65.4266 33.7031C65.4266 32.75 65.2234 31.9974 64.8172 31.4453C64.4109 30.8932 63.8536 30.6172 63.1453 30.6172C62.2703 30.6172 61.6141 31.0052 61.1766 31.7812V35.8203C61.6089 36.5911 62.2703 36.9766 63.1609 36.9766C63.8536 36.9766 64.4031 36.7031 64.8094 36.1562C65.2208 35.6042 65.4266 34.7865 65.4266 33.7031ZM76.0562 33.8672C76.0562 35.1536 75.762 36.1901 75.1734 36.9766C74.5849 37.763 73.788 38.1562 72.7828 38.1562C71.7568 38.1562 70.9495 37.8307 70.3609 37.1797V41.25H68.9156V29.5469H70.2359L70.3062 30.4844C70.8948 29.7552 71.7125 29.3906 72.7594 29.3906C73.775 29.3906 74.5771 29.7734 75.1656 30.5391C75.7594 31.3047 76.0562 32.3698 76.0562 33.7344V33.8672ZM74.6109 33.7031C74.6109 32.75 74.4078 31.9974 74.0016 31.4453C73.5953 30.8932 73.038 30.6172 72.3297 30.6172C71.4547 30.6172 70.7984 31.0052 70.3609 31.7812V35.8203C70.7932 36.5911 71.4547 36.9766 72.3453 36.9766C73.038 36.9766 73.5875 36.7031 73.9937 36.1562C74.4052 35.6042 74.6109 34.7865 74.6109 33.7031ZM85.8469 32.9297C84.5604 32.5599 83.6229 32.1068 83.0344 31.5703C82.451 31.0286 82.1594 30.362 82.1594 29.5703C82.1594 28.6745 82.5161 27.9349 83.2297 27.3516C83.9484 26.763 84.8807 26.4688 86.0266 26.4688C86.8078 26.4688 87.5031 26.6198 88.1125 26.9219C88.7271 27.224 89.201 27.6406 89.5344 28.1719C89.8729 28.7031 90.0422 29.2839 90.0422 29.9141H88.5344C88.5344 29.2266 88.3156 28.6875 87.8781 28.2969C87.4406 27.901 86.8234 27.7031 86.0266 27.7031C85.287 27.7031 84.7089 27.8672 84.2922 28.1953C83.8807 28.5182 83.675 28.9688 83.675 29.5469C83.675 30.0104 83.8703 30.4036 84.2609 30.7266C84.6568 31.0443 85.326 31.3359 86.2687 31.6016C87.2167 31.8672 87.9562 32.1615 88.4875 32.4844C89.024 32.8021 89.4198 33.1745 89.675 33.6016C89.9354 34.0286 90.0656 34.5312 90.0656 35.1094C90.0656 36.0312 89.7062 36.7708 88.9875 37.3281C88.2687 37.8802 87.3078 38.1562 86.1047 38.1562C85.3234 38.1562 84.5943 38.0078 83.9172 37.7109C83.2401 37.4089 82.7167 36.9974 82.3469 36.4766C81.9823 35.9557 81.8 35.3646 81.8 34.7031H83.3078C83.3078 35.3906 83.5604 35.9349 84.0656 36.3359C84.576 36.7318 85.2557 36.9297 86.1047 36.9297C86.8964 36.9297 87.5031 36.7682 87.925 36.4453C88.3469 36.1224 88.5578 35.6823 88.5578 35.125C88.5578 34.5677 88.3625 34.138 87.9719 33.8359C87.5812 33.5286 86.8729 33.2266 85.8469 32.9297ZM93.9297 27.5V29.5469H95.5078V30.6641H93.9297V35.9062C93.9297 36.2448 94 36.5 94.1406 36.6719C94.2812 36.8385 94.5208 36.9219 94.8594 36.9219C95.026 36.9219 95.2552 36.8906 95.5469 36.8281V38C95.1667 38.1042 94.7969 38.1562 94.4375 38.1562C93.7917 38.1562 93.3047 37.9609 92.9766 37.5703C92.6484 37.1797 92.4844 36.625 92.4844 35.9062V30.6641H90.9453V29.5469H92.4844V27.5H93.9297ZM96.8641 33.6953C96.8641 32.8672 97.0255 32.1224 97.3484 31.4609C97.6766 30.7995 98.1297 30.2891 98.7078 29.9297C99.2911 29.5703 99.9552 29.3906 100.7 29.3906C101.851 29.3906 102.781 29.7891 103.489 30.5859C104.203 31.3828 104.559 32.4427 104.559 33.7656V33.8672C104.559 34.6901 104.401 35.4297 104.083 36.0859C103.77 36.737 103.32 37.2448 102.731 37.6094C102.148 37.974 101.476 38.1562 100.716 38.1562C99.5698 38.1562 98.6401 37.7578 97.9266 36.9609C97.2182 36.1641 96.8641 35.1094 96.8641 33.7969V33.6953ZM98.3172 33.8672C98.3172 34.8047 98.5333 35.5573 98.9656 36.125C99.4031 36.6927 99.9865 36.9766 100.716 36.9766C101.45 36.9766 102.033 36.6901 102.466 36.1172C102.898 35.5391 103.114 34.7318 103.114 33.6953C103.114 32.7682 102.893 32.0182 102.45 31.4453C102.013 30.8672 101.429 30.5781 100.7 30.5781C99.9865 30.5781 99.4109 30.862 98.9734 31.4297C98.5359 31.9974 98.3172 32.8099 98.3172 33.8672ZM110.658 30.8438C110.439 30.8073 110.202 30.7891 109.947 30.7891C108.999 30.7891 108.356 31.1927 108.017 32V38H106.572V29.5469H107.978L108.002 30.5234C108.476 29.7682 109.147 29.3906 110.017 29.3906C110.298 29.3906 110.512 29.4271 110.658 29.5V30.8438ZM115.545 38.1562C114.399 38.1562 113.467 37.7812 112.748 37.0312C112.03 36.276 111.67 35.2682 111.67 34.0078V33.7422C111.67 32.9036 111.829 32.1562 112.147 31.5C112.47 30.8385 112.918 30.3229 113.491 29.9531C114.069 29.5781 114.694 29.3906 115.366 29.3906C116.465 29.3906 117.319 29.7526 117.928 30.4766C118.537 31.2005 118.842 32.237 118.842 33.5859V34.1875H113.116C113.136 35.0208 113.379 35.6953 113.842 36.2109C114.311 36.7214 114.905 36.9766 115.623 36.9766C116.134 36.9766 116.566 36.8724 116.92 36.6641C117.274 36.4557 117.584 36.1797 117.85 35.8359L118.733 36.5234C118.024 37.612 116.962 38.1562 115.545 38.1562ZM115.366 30.5781C114.782 30.5781 114.293 30.7917 113.897 31.2188C113.501 31.6406 113.256 32.2344 113.162 33H117.397V32.8906C117.355 32.1562 117.157 31.5885 116.803 31.1875C116.449 30.7812 115.97 30.5781 115.366 30.5781Z" fill="#111B47"/>
<path d="M56.4424 17.8174C56.1507 18.2321 55.6927 18.5557 55.0684 18.7881C54.4486 19.0205 53.7536 19.1367 52.9834 19.1367C52.2041 19.1367 51.5114 18.9499 50.9053 18.5762C50.2992 18.2025 49.8298 17.6738 49.4971 16.9902C49.1644 16.3066 48.9958 15.5228 48.9912 14.6387V13.3809C48.9912 12 49.3398 10.9108 50.0371 10.1133C50.7344 9.3112 51.6709 8.91016 52.8467 8.91016C53.8721 8.91016 54.6969 9.1722 55.3213 9.69629C55.9456 10.2158 56.3171 10.9336 56.4355 11.8496H55.5947C55.4717 11.1204 55.1732 10.569 54.6992 10.1953C54.2298 9.81706 53.6146 9.62793 52.8535 9.62793C51.9238 9.62793 51.1878 9.95833 50.6455 10.6191C50.1032 11.2799 49.832 12.2119 49.832 13.415V14.5908C49.832 15.3473 49.9596 16.0173 50.2148 16.6006C50.4746 17.1794 50.8438 17.6283 51.3223 17.9473C51.8053 18.2663 52.359 18.4258 52.9834 18.4258C53.708 18.4258 54.3301 18.3118 54.8496 18.084C55.1868 17.9336 55.4375 17.7581 55.6016 17.5576V14.9873H52.9287V14.2764H56.4424V17.8174ZM61.751 19.1367C61.1221 19.1367 60.5524 18.9818 60.042 18.6719C59.5361 18.362 59.1419 17.9313 58.8594 17.3799C58.5768 16.8239 58.4355 16.2018 58.4355 15.5137V15.2197C58.4355 14.5088 58.5723 13.8685 58.8457 13.2988C59.1237 12.7292 59.5088 12.2826 60.001 11.959C60.4932 11.6309 61.0264 11.4668 61.6006 11.4668C62.4984 11.4668 63.2093 11.7744 63.7334 12.3896C64.262 13.0003 64.5264 13.8366 64.5264 14.8984V15.3564H59.249V15.5137C59.249 16.3522 59.4883 17.0518 59.9668 17.6123C60.4499 18.1683 61.056 18.4463 61.7852 18.4463C62.2227 18.4463 62.6077 18.3665 62.9404 18.207C63.2777 18.0475 63.583 17.7923 63.8564 17.4414L64.3691 17.8311C63.7676 18.7015 62.8949 19.1367 61.751 19.1367ZM61.6006 12.1641C60.9854 12.1641 60.4658 12.3896 60.042 12.8408C59.6227 13.292 59.3675 13.8981 59.2764 14.6592H63.7129V14.5703C63.6901 13.8594 63.4873 13.2806 63.1045 12.834C62.7217 12.3874 62.2204 12.1641 61.6006 12.1641ZM67.6406 9.70996V11.6035H69.1719V12.2734H67.6406V17.2021C67.6406 17.6123 67.7135 17.9176 67.8594 18.1182C68.0098 18.3187 68.2581 18.4189 68.6045 18.4189C68.7412 18.4189 68.9622 18.3962 69.2676 18.3506L69.3018 19.0205C69.0876 19.098 68.7959 19.1367 68.4268 19.1367C67.8662 19.1367 67.4583 18.9749 67.2031 18.6514C66.9479 18.3232 66.8203 17.8424 66.8203 17.209V12.2734H65.46V11.6035H66.8203V9.70996H67.6406ZM75.6875 19H74.8672V11.6035H75.6875V19ZM74.7236 9.46387C74.7236 9.30892 74.7738 9.17904 74.874 9.07422C74.9743 8.96484 75.111 8.91016 75.2842 8.91016C75.4574 8.91016 75.5941 8.96484 75.6943 9.07422C75.7992 9.17904 75.8516 9.30892 75.8516 9.46387C75.8516 9.61882 75.7992 9.7487 75.6943 9.85352C75.5941 9.95833 75.4574 10.0107 75.2842 10.0107C75.111 10.0107 74.9743 9.95833 74.874 9.85352C74.7738 9.7487 74.7236 9.61882 74.7236 9.46387ZM79.4375 9.70996V11.6035H80.9688V12.2734H79.4375V17.2021C79.4375 17.6123 79.5104 17.9176 79.6562 18.1182C79.8066 18.3187 80.055 18.4189 80.4014 18.4189C80.5381 18.4189 80.7591 18.3962 81.0645 18.3506L81.0986 19.0205C80.8844 19.098 80.5928 19.1367 80.2236 19.1367C79.6631 19.1367 79.2552 18.9749 79 18.6514C78.7448 18.3232 78.6172 17.8424 78.6172 17.209V12.2734H77.2568V11.6035H78.6172V9.70996H79.4375ZM87.1562 19V12.2734H85.9326V11.6035H87.1562V10.708C87.1562 9.9515 87.3477 9.37044 87.7305 8.96484C88.1178 8.55924 88.6556 8.35645 89.3438 8.35645C89.6536 8.35645 89.943 8.39518 90.2119 8.47266L90.1504 9.15625C89.9225 9.10156 89.6742 9.07422 89.4053 9.07422C88.9541 9.07422 88.6032 9.21549 88.3525 9.49805C88.1019 9.77604 87.9766 10.1725 87.9766 10.6875V11.6035H89.7402V12.2734H87.9766V19H87.1562ZM94.8711 12.3008C94.6979 12.2689 94.5133 12.2529 94.3174 12.2529C93.807 12.2529 93.374 12.3965 93.0186 12.6836C92.6676 12.9661 92.417 13.3786 92.2666 13.9209V19H91.4531V11.6035H92.2529L92.2666 12.7793C92.6995 11.9043 93.3945 11.4668 94.3516 11.4668C94.5794 11.4668 94.7594 11.4964 94.8916 11.5557L94.8711 12.3008ZM95.832 15.1924C95.832 14.4814 95.9688 13.8411 96.2422 13.2715C96.5202 12.7018 96.9098 12.2598 97.4111 11.9453C97.917 11.6263 98.4889 11.4668 99.127 11.4668C100.111 11.4668 100.909 11.8132 101.52 12.5059C102.13 13.194 102.436 14.1077 102.436 15.2471V15.418C102.436 16.1335 102.297 16.7783 102.019 17.3525C101.745 17.9222 101.358 18.362 100.856 18.6719C100.355 18.9818 99.7832 19.1367 99.1406 19.1367C98.1608 19.1367 97.3633 18.7926 96.748 18.1045C96.1374 17.4118 95.832 16.4958 95.832 15.3564V15.1924ZM96.6523 15.418C96.6523 16.3021 96.8802 17.029 97.3359 17.5986C97.7962 18.1637 98.3978 18.4463 99.1406 18.4463C99.8789 18.4463 100.476 18.1637 100.932 17.5986C101.392 17.029 101.622 16.2793 101.622 15.3496V15.1924C101.622 14.6273 101.517 14.11 101.308 13.6406C101.098 13.1712 100.804 12.8089 100.426 12.5537C100.048 12.2939 99.6146 12.1641 99.127 12.1641C98.3978 12.1641 97.8031 12.4512 97.3428 13.0254C96.8825 13.5951 96.6523 14.3424 96.6523 15.2676V15.418ZM105.126 11.6035L105.153 12.8066C105.427 12.36 105.769 12.0251 106.179 11.8018C106.589 11.5785 107.045 11.4668 107.546 11.4668C108.713 11.4668 109.453 11.9453 109.768 12.9023C110.032 12.4421 110.385 12.0889 110.827 11.8428C111.269 11.5921 111.757 11.4668 112.29 11.4668C113.876 11.4668 114.685 12.3327 114.717 14.0645V19H113.896V14.126C113.892 13.4652 113.748 12.9753 113.466 12.6562C113.188 12.3372 112.732 12.1777 112.099 12.1777C111.511 12.1868 111.014 12.3783 110.608 12.752C110.203 13.1211 109.977 13.5723 109.932 14.1055V19H109.111V14.0645C109.107 13.431 108.956 12.9593 108.66 12.6494C108.368 12.335 107.917 12.1777 107.307 12.1777C106.792 12.1777 106.35 12.3258 105.98 12.6221C105.611 12.9137 105.338 13.349 105.16 13.9277V19H104.34V11.6035H105.126Z" fill="#111B47"/>
<path d="M36.0438 34.4984C34.8673 36.2343 33.6199 37.9281 31.7204 37.9561C29.8209 37.9981 29.2114 36.8502 27.0568 36.8502C24.888 36.8502 24.2218 37.9281 22.4215 37.9981C20.5646 38.0681 19.1612 36.1503 17.9705 34.4564C15.5466 30.9986 13.6896 24.629 16.1845 20.3453C17.4177 18.2175 19.629 16.8735 22.0246 16.8315C23.839 16.8035 25.5684 18.0495 26.6882 18.0495C27.7939 18.0495 29.8918 16.5516 32.089 16.7755C33.0104 16.8175 35.5902 17.1395 37.2487 19.5474C37.1211 19.6314 34.1727 21.3392 34.2011 24.881C34.2436 29.1087 37.9575 30.5226 38 30.5366C37.9575 30.6346 37.4046 32.5525 36.0438 34.4984ZM27.9498 12.0999C28.9846 10.9379 30.6998 10.056 32.1173 10C32.3016 11.6379 31.6354 13.2898 30.6431 14.4657C29.665 15.6556 28.0491 16.5796 26.4614 16.4536C26.2488 14.8437 27.0426 13.1638 27.9498 12.0999Z" fill="#EB1C23" fill-opacity="0.99"/>
</g>
<defs>
<filter id="filter0_d" x="0" y="0" width="155" height="56" filterUnits="userSpaceOnUse" color-interpolation-filters="sRGB">
<feFlood flood-opacity="0" result="BackgroundImageFix"/>
<feColorMatrix in="SourceAlpha" type="matrix" values="0 0 0 0 0 0 0 0 0 0 0 0 0 0 0 0 0 0 127 0"/>
<feOffset dy="4"/>
<feGaussianBlur stdDeviation="2"/>
<feColorMatrix type="matrix" values="0 0 0 0 0 0 0 0 0 0 0 0 0 0 0 0 0 0 0.13 0"/>
<feBlend mode="normal" in2="BackgroundImageFix" result="effect1_dropShadow"/>
<feBlend mode="normal" in="SourceGraphic" in2="effect1_dropShadow" result="shape"/>
</filter>
</defs>
</svg>
