<svg width="282" height="448" viewBox="0 0 282 448" fill="none" xmlns="http://www.w3.org/2000/svg">
<g filter="url(#filter0_d)">
<g filter="url(#filter1_bd)">
<rect x="5" y="1" width="270" height="438" rx="5" fill="white" fill-opacity="0.46"/>
<rect x="4.5" y="0.5" width="271" height="439" rx="5.5" stroke="#FDFBFB"/>
</g>
</g>
<path d="M240.324 115.621C240.292 116.988 240.145 118.209 239.885 119.283C239.624 120.39 239.25 121.415 238.762 122.359C238.273 123.336 237.671 124.247 236.955 125.094C236.239 125.973 235.425 126.868 234.514 127.779L230.51 125.924C230.77 125.631 231.031 125.289 231.291 124.898C231.519 124.54 231.763 124.101 232.023 123.58C232.284 123.059 232.512 122.473 232.707 121.822C231.958 121.692 231.258 121.432 230.607 121.041C229.956 120.683 229.403 120.227 228.947 119.674C228.459 119.12 228.085 118.502 227.824 117.818C227.531 117.135 227.385 116.402 227.385 115.621C227.385 114.71 227.564 113.847 227.922 113.033C228.247 112.252 228.703 111.568 229.289 110.982C229.875 110.396 230.575 109.924 231.389 109.566C232.17 109.241 233 109.078 233.879 109.078C234.758 109.078 235.588 109.241 236.369 109.566C237.15 109.924 237.834 110.396 238.42 110.982C239.006 111.568 239.478 112.252 239.836 113.033C240.161 113.847 240.324 114.71 240.324 115.621ZM255.803 115.621C255.77 116.988 255.624 118.209 255.363 119.283C255.103 120.39 254.729 121.415 254.24 122.359C253.752 123.336 253.166 124.247 252.482 125.094C251.766 125.973 250.936 126.868 249.992 127.779L245.988 125.924C246.281 125.631 246.558 125.289 246.818 124.898C247.046 124.54 247.29 124.101 247.551 123.58C247.779 123.059 247.99 122.473 248.186 121.822C247.437 121.692 246.753 121.432 246.135 121.041C245.484 120.683 244.93 120.227 244.475 119.674C243.986 119.12 243.612 118.502 243.352 117.818C243.059 117.135 242.912 116.402 242.912 115.621C242.912 114.71 243.091 113.847 243.449 113.033C243.775 112.252 244.23 111.568 244.816 110.982C245.402 110.396 246.086 109.924 246.867 109.566C247.648 109.241 248.495 109.078 249.406 109.078C250.285 109.078 251.115 109.241 251.896 109.566C252.678 109.924 253.361 110.396 253.947 110.982C254.501 111.568 254.956 112.252 255.314 113.033C255.64 113.847 255.803 114.71 255.803 115.621Z" fill="#1298D0"/>
<path d="M39.6758 40.3789C39.7083 39.0117 39.8548 37.791 40.1152 36.7168C40.3757 35.61 40.75 34.5846 41.2383 33.6406C41.7266 32.6641 42.3288 31.7526 43.0449 30.9062C43.7611 30.0273 44.5749 29.1322 45.4863 28.2207L49.4902 30.0762C49.2298 30.3691 48.9694 30.7109 48.709 31.1016C48.4811 31.4596 48.237 31.8991 47.9766 32.4199C47.7161 32.9408 47.4883 33.5267 47.293 34.1777C48.0417 34.3079 48.7415 34.5684 49.3926 34.959C50.0436 35.3171 50.597 35.7728 51.0527 36.3262C51.541 36.8796 51.9154 37.498 52.1758 38.1816C52.4688 38.8652 52.6152 39.5977 52.6152 40.3789C52.6152 41.2904 52.4362 42.153 52.0781 42.9668C51.7526 43.748 51.2969 44.4316 50.7109 45.0176C50.125 45.6035 49.4251 46.0755 48.6113 46.4336C47.8301 46.7591 47 46.9219 46.1211 46.9219C45.2422 46.9219 44.4121 46.7591 43.6309 46.4336C42.8496 46.0755 42.166 45.6035 41.5801 45.0176C40.9941 44.4316 40.5221 43.748 40.1641 42.9668C39.8385 42.153 39.6758 41.2904 39.6758 40.3789ZM24.1973 40.3789C24.2298 39.0117 24.3763 37.791 24.6367 36.7168C24.8971 35.61 25.2715 34.5846 25.7598 33.6406C26.248 32.6641 26.834 31.7526 27.5176 30.9062C28.2337 30.0273 29.0638 29.1322 30.0078 28.2207L34.0117 30.0762C33.7188 30.3691 33.4421 30.7109 33.1816 31.1016C32.9538 31.4596 32.7096 31.8991 32.4492 32.4199C32.2214 32.9408 32.0098 33.5267 31.8145 34.1777C32.5632 34.3079 33.2467 34.5684 33.8652 34.959C34.5163 35.3171 35.0697 35.7728 35.5254 36.3262C36.0137 36.8796 36.388 37.498 36.6484 38.1816C36.9414 38.8652 37.0879 39.5977 37.0879 40.3789C37.0879 41.2904 36.9089 42.153 36.5508 42.9668C36.2253 43.748 35.7695 44.4316 35.1836 45.0176C34.5977 45.6035 33.9141 46.0755 33.1328 46.4336C32.3516 46.7591 31.5052 46.9219 30.5938 46.9219C29.7148 46.9219 28.8848 46.7591 28.1035 46.4336C27.3223 46.0755 26.6387 45.6035 26.0527 45.0176C25.4993 44.4316 25.0436 43.748 24.6855 42.9668C24.36 42.153 24.1973 41.2904 24.1973 40.3789Z" fill="#1298D0"/>
<path d="M78.7008 70.8V84H75.2608V70.8H78.7008ZM85.1098 84.2C84.1098 84.2 83.1832 84.04 82.3298 83.72C81.4765 83.3867 80.7632 82.9133 80.1898 82.3L81.7898 80.42C82.1232 80.8467 82.5632 81.2067 83.1098 81.5C83.6698 81.78 84.2898 81.92 84.9698 81.92C85.3832 81.92 85.7232 81.86 85.9898 81.74C86.2565 81.62 86.3898 81.4333 86.3898 81.18C86.3898 81.0067 86.3232 80.86 86.1898 80.74C86.0565 80.62 85.7898 80.52 85.3898 80.44L83.9898 80.16C82.7365 79.9067 81.8432 79.5333 81.3098 79.04C80.7898 78.5333 80.5298 77.8733 80.5298 77.06C80.5298 76.5133 80.6965 75.9933 81.0298 75.5C81.3632 75.0067 81.8765 74.6 82.5698 74.28C83.2632 73.96 84.1498 73.8 85.2298 73.8C87.2965 73.8 88.8032 74.3733 89.7498 75.52L88.1298 77.36C87.8098 76.96 87.3965 76.6467 86.8898 76.42C86.3832 76.1933 85.8765 76.08 85.3698 76.08C84.3965 76.08 83.9098 76.3267 83.9098 76.82C83.9098 76.9933 83.9898 77.1467 84.1498 77.28C84.3232 77.4133 84.6365 77.52 85.0898 77.6L86.9098 77.96C87.9365 78.16 88.6765 78.5067 89.1298 79C89.5832 79.48 89.8098 80.0667 89.8098 80.76C89.8098 81.7333 89.4165 82.5533 88.6298 83.22C87.8565 83.8733 86.6832 84.2 85.1098 84.2ZM100.177 81.34H106.797V84H96.7366V70.8H100.177V81.34ZM112.771 73.8C113.824 73.8 114.744 74.0067 115.531 74.42C116.331 74.8333 116.951 75.4267 117.391 76.2C117.844 76.9733 118.071 77.9067 118.071 79C118.071 80.0933 117.844 81.0267 117.391 81.8C116.951 82.5733 116.331 83.1667 115.531 83.58C114.744 83.9933 113.824 84.2 112.771 84.2C111.731 84.2 110.811 83.9933 110.011 83.58C109.224 83.1667 108.604 82.5733 108.151 81.8C107.711 81.0267 107.491 80.0933 107.491 79C107.491 77.9067 107.711 76.9733 108.151 76.2C108.604 75.4267 109.224 74.8333 110.011 74.42C110.811 74.0067 111.731 73.8 112.771 73.8ZM112.771 76.22C112.184 76.22 111.724 76.44 111.391 76.88C111.071 77.3067 110.911 78.0133 110.911 79C110.911 79.9733 111.071 80.68 111.391 81.12C111.724 81.56 112.184 81.78 112.771 81.78C113.371 81.78 113.831 81.56 114.151 81.12C114.484 80.68 114.651 79.9733 114.651 79C114.651 78.0133 114.484 77.3067 114.151 76.88C113.831 76.44 113.371 76.22 112.771 76.22ZM119.583 84V74H122.583L122.723 76.16C122.963 75.4267 123.33 74.8533 123.823 74.44C124.33 74.0133 124.977 73.8 125.763 73.8C126.017 73.8 126.23 73.8267 126.403 73.88C126.59 73.92 126.737 73.9667 126.843 74.02L126.503 76.82C126.37 76.78 126.197 76.74 125.983 76.7C125.783 76.66 125.537 76.64 125.243 76.64C124.63 76.64 124.097 76.8333 123.643 77.22C123.203 77.6067 122.983 78.1867 122.983 78.96V84H119.583ZM132.54 84.2C130.873 84.2 129.553 83.7467 128.58 82.84C127.62 81.9333 127.14 80.6533 127.14 79C127.14 77.9067 127.36 76.9733 127.8 76.2C128.253 75.4133 128.867 74.82 129.64 74.42C130.427 74.0067 131.34 73.8 132.38 73.8C133.433 73.8 134.327 74.0067 135.06 74.42C135.807 74.82 136.373 75.38 136.76 76.1C137.147 76.8067 137.34 77.62 137.34 78.54C137.34 78.7933 137.327 79.04 137.3 79.28C137.287 79.5067 137.273 79.7 137.26 79.86H130.44C130.533 80.5533 130.76 81.0533 131.12 81.36C131.48 81.6533 131.953 81.8 132.54 81.8C133.047 81.8 133.447 81.7 133.74 81.5C134.047 81.3 134.273 81.02 134.42 80.66L137.14 81.56C136.953 82.1333 136.627 82.62 136.16 83.02C135.707 83.4067 135.16 83.7 134.52 83.9C133.893 84.1 133.233 84.2 132.54 84.2ZM132.38 76.18C131.3 76.18 130.66 76.8 130.46 78.04H134.12C133.973 76.8 133.393 76.18 132.38 76.18ZM150.928 74V76.42H148.088V84H144.688V76.42H143.088V74H144.688V73.08C144.688 72.2267 144.868 71.54 145.228 71.02C145.602 70.4867 146.088 70.1 146.688 69.86C147.302 69.6067 147.962 69.48 148.668 69.48C149.215 69.48 149.695 69.54 150.108 69.66C150.522 69.7667 150.828 69.8933 151.028 70.04L150.688 72.16C150.542 72.08 150.375 72.0133 150.188 71.96C150.002 71.8933 149.768 71.86 149.488 71.86C149.008 71.86 148.622 71.9667 148.328 72.18C148.035 72.3933 147.888 72.7667 147.888 73.3V74H150.928ZM151.909 84V74H154.909L155.049 76.16C155.289 75.4267 155.656 74.8533 156.149 74.44C156.656 74.0133 157.302 73.8 158.089 73.8C158.342 73.8 158.556 73.8267 158.729 73.88C158.916 73.92 159.062 73.9667 159.169 74.02L158.829 76.82C158.696 76.78 158.522 76.74 158.309 76.7C158.109 76.66 157.862 76.64 157.569 76.64C156.956 76.64 156.422 76.8333 155.969 77.22C155.529 77.6067 155.309 78.1867 155.309 78.96V84H151.909ZM164.866 84.2C163.199 84.2 161.879 83.7467 160.906 82.84C159.946 81.9333 159.466 80.6533 159.466 79C159.466 77.9067 159.686 76.9733 160.126 76.2C160.579 75.4133 161.192 74.82 161.966 74.42C162.752 74.0067 163.666 73.8 164.706 73.8C165.759 73.8 166.652 74.0067 167.386 74.42C168.132 74.82 168.699 75.38 169.086 76.1C169.472 76.8067 169.666 77.62 169.666 78.54C169.666 78.7933 169.652 79.04 169.626 79.28C169.612 79.5067 169.599 79.7 169.586 79.86H162.766C162.859 80.5533 163.086 81.0533 163.446 81.36C163.806 81.6533 164.279 81.8 164.866 81.8C165.372 81.8 165.772 81.7 166.066 81.5C166.372 81.3 166.599 81.02 166.746 80.66L169.466 81.56C169.279 82.1333 168.952 82.62 168.486 83.02C168.032 83.4067 167.486 83.7 166.846 83.9C166.219 84.1 165.559 84.2 164.866 84.2ZM164.706 76.18C163.626 76.18 162.986 76.8 162.786 78.04H166.446C166.299 76.8 165.719 76.18 164.706 76.18ZM176.048 84.2C174.381 84.2 173.061 83.7467 172.088 82.84C171.128 81.9333 170.648 80.6533 170.648 79C170.648 77.9067 170.868 76.9733 171.308 76.2C171.761 75.4133 172.374 74.82 173.148 74.42C173.934 74.0067 174.848 73.8 175.888 73.8C176.941 73.8 177.834 74.0067 178.568 74.42C179.314 74.82 179.881 75.38 180.268 76.1C180.654 76.8067 180.848 77.62 180.848 78.54C180.848 78.7933 180.834 79.04 180.808 79.28C180.794 79.5067 180.781 79.7 180.768 79.86H173.948C174.041 80.5533 174.268 81.0533 174.628 81.36C174.988 81.6533 175.461 81.8 176.048 81.8C176.554 81.8 176.954 81.7 177.248 81.5C177.554 81.3 177.781 81.02 177.928 80.66L180.648 81.56C180.461 82.1333 180.134 82.62 179.668 83.02C179.214 83.4067 178.668 83.7 178.028 83.9C177.401 84.1 176.741 84.2 176.048 84.2ZM175.888 76.18C174.808 76.18 174.168 76.8 173.968 78.04H177.628C177.481 76.8 176.901 76.18 175.888 76.18ZM194.676 74V76.42H191.696V80.44C191.696 80.92 191.809 81.2667 192.036 81.48C192.276 81.68 192.603 81.78 193.016 81.78C193.336 81.78 193.609 81.7467 193.836 81.68C194.063 81.6 194.276 81.4867 194.476 81.34L194.836 83.44C194.503 83.6667 194.076 83.8533 193.556 84C193.049 84.1333 192.536 84.2 192.016 84.2C190.869 84.2 189.963 83.96 189.296 83.48C188.643 82.9867 188.309 82.16 188.296 81V76.42H186.576V74H188.296V71.76L191.696 70.82V74H194.676ZM200.607 73.8C201.66 73.8 202.58 74.0067 203.367 74.42C204.167 74.8333 204.787 75.4267 205.227 76.2C205.68 76.9733 205.907 77.9067 205.907 79C205.907 80.0933 205.68 81.0267 205.227 81.8C204.787 82.5733 204.167 83.1667 203.367 83.58C202.58 83.9933 201.66 84.2 200.607 84.2C199.567 84.2 198.647 83.9933 197.847 83.58C197.06 83.1667 196.44 82.5733 195.987 81.8C195.547 81.0267 195.327 80.0933 195.327 79C195.327 77.9067 195.547 76.9733 195.987 76.2C196.44 75.4267 197.06 74.8333 197.847 74.42C198.647 74.0067 199.567 73.8 200.607 73.8ZM200.607 76.22C200.02 76.22 199.56 76.44 199.227 76.88C198.907 77.3067 198.747 78.0133 198.747 79C198.747 79.9733 198.907 80.68 199.227 81.12C199.56 81.56 200.02 81.78 200.607 81.78C201.207 81.78 201.667 81.56 201.987 81.12C202.32 80.68 202.487 79.9733 202.487 79C202.487 78.0133 202.32 77.3067 201.987 76.88C201.667 76.44 201.207 76.22 200.607 76.22ZM122.583 107.2C121.569 107.2 120.743 106.927 120.103 106.38C119.463 105.833 119.143 104.933 119.143 103.68V97H122.543V102.88C122.543 103.52 122.669 103.967 122.923 104.22C123.176 104.473 123.536 104.6 124.003 104.6C124.483 104.6 124.889 104.427 125.223 104.08C125.569 103.72 125.743 103.147 125.743 102.36V97H129.143V107H126.103L126.003 105.12C125.683 105.827 125.236 106.353 124.663 106.7C124.089 107.033 123.396 107.2 122.583 107.2ZM135.386 107.2C134.386 107.2 133.459 107.04 132.606 106.72C131.752 106.387 131.039 105.913 130.466 105.3L132.066 103.42C132.399 103.847 132.839 104.207 133.386 104.5C133.946 104.78 134.566 104.92 135.246 104.92C135.659 104.92 135.999 104.86 136.266 104.74C136.532 104.62 136.666 104.433 136.666 104.18C136.666 104.007 136.599 103.86 136.466 103.74C136.332 103.62 136.066 103.52 135.666 103.44L134.266 103.16C133.012 102.907 132.119 102.533 131.586 102.04C131.066 101.533 130.806 100.873 130.806 100.06C130.806 99.5133 130.972 98.9933 131.306 98.5C131.639 98.0067 132.152 97.6 132.846 97.28C133.539 96.96 134.426 96.8 135.506 96.8C137.572 96.8 139.079 97.3733 140.026 98.52L138.406 100.36C138.086 99.96 137.672 99.6467 137.166 99.42C136.659 99.1933 136.152 99.08 135.646 99.08C134.672 99.08 134.186 99.3267 134.186 99.82C134.186 99.9933 134.266 100.147 134.426 100.28C134.599 100.413 134.912 100.52 135.366 100.6L137.186 100.96C138.212 101.16 138.952 101.507 139.406 102C139.859 102.48 140.086 103.067 140.086 103.76C140.086 104.733 139.692 105.553 138.906 106.22C138.132 106.873 136.959 107.2 135.386 107.2ZM146.271 107.2C144.604 107.2 143.284 106.747 142.311 105.84C141.351 104.933 140.871 103.653 140.871 102C140.871 100.907 141.091 99.9733 141.531 99.2C141.984 98.4133 142.598 97.82 143.371 97.42C144.158 97.0067 145.071 96.8 146.111 96.8C147.164 96.8 148.058 97.0067 148.791 97.42C149.538 97.82 150.104 98.38 150.491 99.1C150.878 99.8067 151.071 100.62 151.071 101.54C151.071 101.793 151.058 102.04 151.031 102.28C151.018 102.507 151.004 102.7 150.991 102.86H144.171C144.264 103.553 144.491 104.053 144.851 104.36C145.211 104.653 145.684 104.8 146.271 104.8C146.778 104.8 147.178 104.7 147.471 104.5C147.778 104.3 148.004 104.02 148.151 103.66L150.871 104.56C150.684 105.133 150.358 105.62 149.891 106.02C149.438 106.407 148.891 106.7 148.251 106.9C147.624 107.1 146.964 107.2 146.271 107.2ZM146.111 99.18C145.031 99.18 144.391 99.8 144.191 101.04H147.851C147.704 99.8 147.124 99.18 146.111 99.18ZM156.029 93.6C157.002 93.6 157.875 93.74 158.649 94.02C159.435 94.2867 160.049 94.6933 160.489 95.24C160.942 95.7867 161.169 96.4667 161.169 97.28C161.169 98.1067 160.995 98.78 160.649 99.3C160.315 99.82 159.855 100.213 159.269 100.48C158.695 100.747 158.062 100.92 157.369 101L157.169 102.72H154.169L154.189 99.68C155.402 99.5733 156.255 99.36 156.749 99.04C157.255 98.7067 157.509 98.2733 157.509 97.74C157.509 97.3133 157.369 96.98 157.089 96.74C156.809 96.4867 156.375 96.36 155.789 96.36C154.629 96.36 153.962 97.0333 153.789 98.38L150.509 97.24C150.669 96.5467 150.969 95.9267 151.409 95.38C151.849 94.8333 152.449 94.4 153.209 94.08C153.969 93.76 154.909 93.6 156.029 93.6ZM155.729 103.78C156.329 103.78 156.795 103.933 157.129 104.24C157.475 104.533 157.649 104.94 157.649 105.46C157.649 105.993 157.475 106.413 157.129 106.72C156.795 107.013 156.329 107.16 155.729 107.16C155.115 107.16 154.635 107.013 154.289 106.72C153.955 106.413 153.789 105.993 153.789 105.46C153.789 104.94 153.955 104.533 154.289 104.24C154.635 103.933 155.115 103.78 155.729 103.78Z" fill="black"/>
<path d="M28.66 167L29.86 161.84L27.2 153.8H28.92L30.36 158.38L30.9 160.34L32.4 158.26L35.92 153.8H37.84L31.44 161.98L30.26 167H28.66ZM40.3153 167.18C39.3953 167.18 38.602 166.98 37.9353 166.58C37.282 166.18 36.782 165.64 36.4353 164.96C36.0886 164.28 35.9153 163.52 35.9153 162.68C35.9153 161.64 36.122 160.673 36.5353 159.78C36.9486 158.887 37.5486 158.173 38.3353 157.64C39.1353 157.093 40.102 156.82 41.2353 156.82C42.0486 156.82 42.742 156.987 43.3153 157.32C43.902 157.653 44.3486 158.113 44.6553 158.7C44.962 159.273 45.1153 159.927 45.1153 160.66C45.1153 161.18 45.022 161.753 44.8353 162.38H37.5353C37.5353 162.5 37.5353 162.62 37.5353 162.74C37.5353 163.633 37.802 164.367 38.3353 164.94C38.882 165.513 39.602 165.8 40.4953 165.8C41.1753 165.787 41.7353 165.64 42.1753 165.36C42.6153 165.08 42.9753 164.713 43.2553 164.26L44.5153 165.1C44.0753 165.74 43.502 166.247 42.7953 166.62C42.0886 166.993 41.262 167.18 40.3153 167.18ZM41.1353 158.2C40.1753 158.2 39.422 158.473 38.8753 159.02C38.342 159.567 37.9686 160.22 37.7553 160.98H43.5353C43.5486 160.847 43.5553 160.72 43.5553 160.6C43.5553 159.88 43.342 159.3 42.9153 158.86C42.4886 158.42 41.8953 158.2 41.1353 158.2ZM50.8806 167.22C49.7206 167.22 48.7406 166.953 47.9406 166.42C47.1406 165.887 46.5673 165.173 46.2206 164.28L47.7406 163.62C48.2473 165.087 49.3206 165.82 50.9606 165.82C51.6673 165.82 52.2006 165.667 52.5606 165.36C52.934 165.04 53.1206 164.653 53.1206 164.2C53.1206 163.853 53.0206 163.58 52.8206 163.38C52.6206 163.18 52.3073 163.02 51.8806 162.9L50.1006 162.4C49.274 162.173 48.654 161.833 48.2406 161.38C47.8273 160.913 47.6206 160.38 47.6206 159.78C47.6206 159.22 47.774 158.72 48.0806 158.28C48.3873 157.827 48.8273 157.467 49.4006 157.2C49.974 156.933 50.654 156.8 51.4406 156.8C52.3873 156.8 53.2206 157.013 53.9406 157.44C54.6606 157.867 55.174 158.487 55.4806 159.3L54.0206 160C53.834 159.44 53.5073 159 53.0406 158.68C52.574 158.347 52.0073 158.18 51.3406 158.18C50.6073 158.18 50.0606 158.313 49.7006 158.58C49.354 158.847 49.1806 159.2 49.1806 159.64C49.1806 160.013 49.3073 160.313 49.5606 160.54C49.8273 160.753 50.154 160.913 50.5406 161.02L52.5006 161.58C53.1806 161.767 53.714 162.073 54.1006 162.5C54.5006 162.927 54.7006 163.42 54.7006 163.98C54.7006 164.647 54.534 165.227 54.2006 165.72C53.8673 166.2 53.414 166.573 52.8406 166.84C52.2673 167.093 51.614 167.22 50.8806 167.22ZM57.515 162.84L57.995 159.52L59.315 153.8H61.035L59.715 159.52L58.675 162.84H57.515ZM57.355 167.2C57.0217 167.2 56.7417 167.1 56.515 166.9C56.3017 166.687 56.195 166.413 56.195 166.08C56.195 165.627 56.3283 165.267 56.595 165C56.8617 164.733 57.1817 164.6 57.555 164.6C57.8883 164.6 58.1617 164.707 58.375 164.92C58.6017 165.12 58.715 165.387 58.715 165.72C58.715 166.173 58.5817 166.533 58.315 166.8C58.0617 167.067 57.7417 167.2 57.355 167.2ZM69.8253 165.5H77.2453L76.8853 167H67.8853L70.9453 153.8H72.5453L69.8253 165.5ZM83.5134 167.18C82.5534 167.18 81.7334 166.98 81.0534 166.58C80.3868 166.167 79.8734 165.62 79.5134 164.94C79.1668 164.247 78.9934 163.493 78.9934 162.68C78.9934 161.533 79.2134 160.52 79.6534 159.64C80.0934 158.76 80.7001 158.073 81.4734 157.58C82.2468 157.073 83.1401 156.82 84.1534 156.82C85.1268 156.82 85.9468 157.027 86.6134 157.44C87.2801 157.84 87.7868 158.38 88.1334 159.06C88.4801 159.727 88.6534 160.473 88.6534 161.3C88.6534 162.433 88.4334 163.447 87.9934 164.34C87.5668 165.22 86.9668 165.913 86.1934 166.42C85.4201 166.927 84.5268 167.18 83.5134 167.18ZM83.5734 165.8C84.2268 165.8 84.8134 165.62 85.3334 165.26C85.8534 164.887 86.2668 164.367 86.5734 163.7C86.8801 163.033 87.0334 162.253 87.0334 161.36C87.0334 160.773 86.9268 160.247 86.7134 159.78C86.5134 159.3 86.1934 158.92 85.7534 158.64C85.3268 158.347 84.7734 158.2 84.0934 158.2C83.4534 158.2 82.8668 158.387 82.3334 158.76C81.8134 159.12 81.3934 159.633 81.0734 160.3C80.7668 160.953 80.6134 161.727 80.6134 162.62C80.6134 163.193 80.7201 163.727 80.9334 164.22C81.1468 164.7 81.4734 165.087 81.9134 165.38C82.3534 165.66 82.9068 165.8 83.5734 165.8ZM89.988 167L92.308 157H93.608L93.448 158.58C93.8213 158.02 94.3013 157.587 94.888 157.28C95.488 156.96 96.0946 156.8 96.708 156.8C97.1346 156.8 97.4746 156.86 97.728 156.98L97.248 158.5C97.1146 158.433 96.9613 158.387 96.788 158.36C96.628 158.32 96.4346 158.3 96.208 158.3C95.448 158.3 94.7613 158.567 94.148 159.1C93.548 159.62 93.1146 160.447 92.848 161.58L91.588 167H89.988ZM101.929 167.18C101.009 167.18 100.216 166.98 99.5494 166.58C98.896 166.18 98.396 165.64 98.0494 164.96C97.7027 164.28 97.5294 163.52 97.5294 162.68C97.5294 161.64 97.736 160.673 98.1494 159.78C98.5627 158.887 99.1627 158.173 99.9494 157.64C100.749 157.093 101.716 156.82 102.849 156.82C103.663 156.82 104.356 156.987 104.929 157.32C105.516 157.653 105.963 158.113 106.269 158.7C106.576 159.273 106.729 159.927 106.729 160.66C106.729 161.18 106.636 161.753 106.449 162.38H99.1494C99.1494 162.5 99.1494 162.62 99.1494 162.74C99.1494 163.633 99.416 164.367 99.9494 164.94C100.496 165.513 101.216 165.8 102.109 165.8C102.789 165.787 103.349 165.64 103.789 165.36C104.229 165.08 104.589 164.713 104.869 164.26L106.129 165.1C105.689 165.74 105.116 166.247 104.409 166.62C103.703 166.993 102.876 167.18 101.929 167.18ZM102.749 158.2C101.789 158.2 101.036 158.473 100.489 159.02C99.956 159.567 99.5827 160.22 99.3694 160.98H105.149C105.163 160.847 105.169 160.72 105.169 160.6C105.169 159.88 104.956 159.3 104.529 158.86C104.103 158.42 103.509 158.2 102.749 158.2ZM118.133 155.08C117.813 155.08 117.553 154.987 117.353 154.8C117.153 154.6 117.053 154.347 117.053 154.04C117.053 153.627 117.173 153.3 117.413 153.06C117.667 152.807 117.967 152.68 118.313 152.68C118.633 152.68 118.893 152.78 119.093 152.98C119.293 153.167 119.393 153.413 119.393 153.72C119.393 154.133 119.267 154.467 119.013 154.72C118.773 154.96 118.48 155.08 118.133 155.08ZM118.313 157L115.993 167H114.393L116.713 157H118.313ZM123.57 167.22C122.41 167.22 121.43 166.953 120.63 166.42C119.83 165.887 119.256 165.173 118.91 164.28L120.43 163.62C120.936 165.087 122.01 165.82 123.65 165.82C124.356 165.82 124.89 165.667 125.25 165.36C125.623 165.04 125.81 164.653 125.81 164.2C125.81 163.853 125.71 163.58 125.51 163.38C125.31 163.18 124.996 163.02 124.57 162.9L122.79 162.4C121.963 162.173 121.343 161.833 120.93 161.38C120.516 160.913 120.31 160.38 120.31 159.78C120.31 159.22 120.463 158.72 120.77 158.28C121.076 157.827 121.516 157.467 122.09 157.2C122.663 156.933 123.343 156.8 124.13 156.8C125.076 156.8 125.91 157.013 126.63 157.44C127.35 157.867 127.863 158.487 128.17 159.3L126.71 160C126.523 159.44 126.196 159 125.73 158.68C125.263 158.347 124.696 158.18 124.03 158.18C123.296 158.18 122.75 158.313 122.39 158.58C122.043 158.847 121.87 159.2 121.87 159.64C121.87 160.013 121.996 160.313 122.25 160.54C122.516 160.753 122.843 160.913 123.23 161.02L125.19 161.58C125.87 161.767 126.403 162.073 126.79 162.5C127.19 162.927 127.39 163.42 127.39 163.98C127.39 164.647 127.223 165.227 126.89 165.72C126.556 166.2 126.103 166.573 125.53 166.84C124.956 167.093 124.303 167.22 123.57 167.22ZM135.712 167L137.712 158.38H135.672L135.992 157H138.032L138.452 155.14C138.678 154.153 139.078 153.433 139.652 152.98C140.238 152.527 140.992 152.3 141.912 152.3C142.285 152.3 142.632 152.347 142.952 152.44C143.272 152.52 143.518 152.633 143.692 152.78L143.152 154.08C143.032 153.987 142.858 153.907 142.632 153.84C142.405 153.773 142.165 153.74 141.912 153.74C141.352 153.74 140.918 153.873 140.612 154.14C140.305 154.407 140.078 154.88 139.932 155.56L139.612 157H142.712L142.392 158.38H139.312L137.312 167H135.712ZM142.129 167L144.449 157H145.749L145.589 158.58C145.963 158.02 146.443 157.587 147.029 157.28C147.629 156.96 148.236 156.8 148.849 156.8C149.276 156.8 149.616 156.86 149.869 156.98L149.389 158.5C149.256 158.433 149.103 158.387 148.929 158.36C148.769 158.32 148.576 158.3 148.349 158.3C147.589 158.3 146.903 158.567 146.289 159.1C145.689 159.62 145.256 160.447 144.989 161.58L143.729 167H142.129ZM154.071 167.18C153.151 167.18 152.357 166.98 151.691 166.58C151.037 166.18 150.537 165.64 150.191 164.96C149.844 164.28 149.671 163.52 149.671 162.68C149.671 161.64 149.877 160.673 150.291 159.78C150.704 158.887 151.304 158.173 152.091 157.64C152.891 157.093 153.857 156.82 154.991 156.82C155.804 156.82 156.497 156.987 157.071 157.32C157.657 157.653 158.104 158.113 158.411 158.7C158.717 159.273 158.871 159.927 158.871 160.66C158.871 161.18 158.777 161.753 158.591 162.38H151.291C151.291 162.5 151.291 162.62 151.291 162.74C151.291 163.633 151.557 164.367 152.091 164.94C152.637 165.513 153.357 165.8 154.251 165.8C154.931 165.787 155.491 165.64 155.931 165.36C156.371 165.08 156.731 164.713 157.011 164.26L158.271 165.1C157.831 165.74 157.257 166.247 156.551 166.62C155.844 166.993 155.017 167.18 154.071 167.18ZM154.891 158.2C153.931 158.2 153.177 158.473 152.631 159.02C152.097 159.567 151.724 160.22 151.511 160.98H157.291C157.304 160.847 157.311 160.72 157.311 160.6C157.311 159.88 157.097 159.3 156.671 158.86C156.244 158.42 155.651 158.2 154.891 158.2ZM165.018 167.18C164.098 167.18 163.305 166.98 162.638 166.58C161.985 166.18 161.485 165.64 161.138 164.96C160.792 164.28 160.618 163.52 160.618 162.68C160.618 161.64 160.825 160.673 161.238 159.78C161.652 158.887 162.252 158.173 163.038 157.64C163.838 157.093 164.805 156.82 165.938 156.82C166.752 156.82 167.445 156.987 168.018 157.32C168.605 157.653 169.052 158.113 169.358 158.7C169.665 159.273 169.818 159.927 169.818 160.66C169.818 161.18 169.725 161.753 169.538 162.38H162.238C162.238 162.5 162.238 162.62 162.238 162.74C162.238 163.633 162.505 164.367 163.038 164.94C163.585 165.513 164.305 165.8 165.198 165.8C165.878 165.787 166.438 165.64 166.878 165.36C167.318 165.08 167.678 164.713 167.958 164.26L169.218 165.1C168.778 165.74 168.205 166.247 167.498 166.62C166.792 166.993 165.965 167.18 165.018 167.18ZM165.838 158.2C164.878 158.2 164.125 158.473 163.578 159.02C163.045 159.567 162.672 160.22 162.458 160.98H168.238C168.252 160.847 168.258 160.72 168.258 160.6C168.258 159.88 168.045 159.3 167.618 158.86C167.192 158.42 166.598 158.2 165.838 158.2ZM181.172 167.16C180.212 167.16 179.472 166.88 178.952 166.32C178.432 165.76 178.285 164.973 178.512 163.96L179.792 158.38H177.772L178.092 157H180.112L180.612 154.8L182.352 154.3L181.712 157H184.812L184.492 158.38H181.392L180.072 164.04C179.939 164.653 180.019 165.093 180.312 165.36C180.619 165.613 180.999 165.74 181.452 165.74C181.785 165.74 182.079 165.693 182.332 165.6C182.585 165.507 182.805 165.387 182.992 165.24L183.312 166.56C182.979 166.787 182.639 166.94 182.292 167.02C181.945 167.113 181.572 167.16 181.172 167.16ZM189.759 167.18C188.799 167.18 187.979 166.98 187.299 166.58C186.632 166.167 186.119 165.62 185.759 164.94C185.412 164.247 185.239 163.493 185.239 162.68C185.239 161.533 185.459 160.52 185.899 159.64C186.339 158.76 186.945 158.073 187.719 157.58C188.492 157.073 189.385 156.82 190.399 156.82C191.372 156.82 192.192 157.027 192.859 157.44C193.525 157.84 194.032 158.38 194.379 159.06C194.725 159.727 194.899 160.473 194.899 161.3C194.899 162.433 194.679 163.447 194.239 164.34C193.812 165.22 193.212 165.913 192.439 166.42C191.665 166.927 190.772 167.18 189.759 167.18ZM189.819 165.8C190.472 165.8 191.059 165.62 191.579 165.26C192.099 164.887 192.512 164.367 192.819 163.7C193.125 163.033 193.279 162.253 193.279 161.36C193.279 160.773 193.172 160.247 192.959 159.78C192.759 159.3 192.439 158.92 191.999 158.64C191.572 158.347 191.019 158.2 190.339 158.2C189.699 158.2 189.112 158.387 188.579 158.76C188.059 159.12 187.639 159.633 187.319 160.3C187.012 160.953 186.859 161.727 186.859 162.62C186.859 163.193 186.965 163.727 187.179 164.22C187.392 164.7 187.719 165.087 188.159 165.38C188.599 165.66 189.152 165.8 189.819 165.8ZM206.492 167.16C205.772 167.16 205.132 167 204.572 166.68C204.025 166.347 203.625 165.873 203.372 165.26C203.132 164.633 203.112 163.887 203.312 163.02L204.712 157H206.312L204.932 162.98C204.719 163.873 204.799 164.56 205.172 165.04C205.559 165.52 206.139 165.76 206.912 165.76C208.725 165.76 209.905 164.593 210.452 162.26L211.672 157H213.272L210.952 167H209.552L209.792 165.56C209.445 166.107 208.979 166.513 208.392 166.78C207.805 167.033 207.172 167.16 206.492 167.16ZM218.525 167.22C217.365 167.22 216.385 166.953 215.585 166.42C214.785 165.887 214.212 165.173 213.865 164.28L215.385 163.62C215.892 165.087 216.965 165.82 218.605 165.82C219.312 165.82 219.845 165.667 220.205 165.36C220.578 165.04 220.765 164.653 220.765 164.2C220.765 163.853 220.665 163.58 220.465 163.38C220.265 163.18 219.952 163.02 219.525 162.9L217.745 162.4C216.918 162.173 216.298 161.833 215.885 161.38C215.472 160.913 215.265 160.38 215.265 159.78C215.265 159.22 215.418 158.72 215.725 158.28C216.032 157.827 216.472 157.467 217.045 157.2C217.618 156.933 218.298 156.8 219.085 156.8C220.032 156.8 220.865 157.013 221.585 157.44C222.305 157.867 222.818 158.487 223.125 159.3L221.665 160C221.478 159.44 221.152 159 220.685 158.68C220.218 158.347 219.652 158.18 218.985 158.18C218.252 158.18 217.705 158.313 217.345 158.58C216.998 158.847 216.825 159.2 216.825 159.64C216.825 160.013 216.952 160.313 217.205 160.54C217.472 160.753 217.798 160.913 218.185 161.02L220.145 161.58C220.825 161.767 221.358 162.073 221.745 162.5C222.145 162.927 222.345 163.42 222.345 163.98C222.345 164.647 222.178 165.227 221.845 165.72C221.512 166.2 221.058 166.573 220.485 166.84C219.912 167.093 219.258 167.22 218.525 167.22ZM228.644 167.18C227.724 167.18 226.931 166.98 226.264 166.58C225.611 166.18 225.111 165.64 224.764 164.96C224.418 164.28 224.244 163.52 224.244 162.68C224.244 161.64 224.451 160.673 224.864 159.78C225.278 158.887 225.878 158.173 226.664 157.64C227.464 157.093 228.431 156.82 229.564 156.82C230.378 156.82 231.071 156.987 231.644 157.32C232.231 157.653 232.678 158.113 232.984 158.7C233.291 159.273 233.444 159.927 233.444 160.66C233.444 161.18 233.351 161.753 233.164 162.38H225.864C225.864 162.5 225.864 162.62 225.864 162.74C225.864 163.633 226.131 164.367 226.664 164.94C227.211 165.513 227.931 165.8 228.824 165.8C229.504 165.787 230.064 165.64 230.504 165.36C230.944 165.08 231.304 164.713 231.584 164.26L232.844 165.1C232.404 165.74 231.831 166.247 231.124 166.62C230.418 166.993 229.591 167.18 228.644 167.18ZM229.464 158.2C228.504 158.2 227.751 158.473 227.204 159.02C226.671 159.567 226.298 160.22 226.084 160.98H231.864C231.878 160.847 231.884 160.72 231.884 160.6C231.884 159.88 231.671 159.3 231.244 158.86C230.818 158.42 230.224 158.2 229.464 158.2ZM27.6 190L26.52 180H28.06L28.82 188L33.04 180H34.64L35.66 188.12L39.98 180H41.68L36.16 190H34.56L33.46 182.06L29.22 190H27.6ZM45.0147 178.08C44.6947 178.08 44.4347 177.987 44.2347 177.8C44.0347 177.6 43.9347 177.347 43.9347 177.04C43.9347 176.627 44.0547 176.3 44.2947 176.06C44.548 175.807 44.848 175.68 45.1947 175.68C45.5147 175.68 45.7747 175.78 45.9747 175.98C46.1747 176.167 46.2747 176.413 46.2747 176.72C46.2747 177.133 46.148 177.467 45.8947 177.72C45.6547 177.96 45.3614 178.08 45.0147 178.08ZM45.1947 180L42.8747 190H41.2747L43.5947 180H45.1947ZM50.1109 190.16C49.1509 190.16 48.4109 189.88 47.8909 189.32C47.3709 188.76 47.2243 187.973 47.4509 186.96L48.7309 181.38H46.7109L47.0309 180H49.0509L49.5509 177.8L51.2909 177.3L50.6509 180H53.7509L53.4309 181.38H50.3309L49.0109 187.04C48.8776 187.653 48.9576 188.093 49.2509 188.36C49.5576 188.613 49.9376 188.74 50.3909 188.74C50.7243 188.74 51.0176 188.693 51.2709 188.6C51.5243 188.507 51.7443 188.387 51.9309 188.24L52.2509 189.56C51.9176 189.787 51.5776 189.94 51.2309 190.02C50.8843 190.113 50.5109 190.16 50.1109 190.16ZM53.6778 190L57.0578 175.4H58.6578L57.3178 181.22C57.6911 180.74 58.1645 180.387 58.7378 180.16C59.3111 179.92 59.9178 179.8 60.5578 179.8C61.3045 179.8 61.9445 179.967 62.4778 180.3C63.0245 180.633 63.4111 181.113 63.6378 181.74C63.8645 182.353 63.8778 183.1 63.6778 183.98L62.2778 190H60.6778L62.0778 183.96C62.2778 183.093 62.1911 182.42 61.8178 181.94C61.4578 181.447 60.8845 181.2 60.0978 181.2C59.1645 181.2 58.3978 181.507 57.7978 182.12C57.1978 182.72 56.7645 183.593 56.4978 184.74L55.2778 190H53.6778ZM75.2781 190.16C74.3181 190.16 73.5781 189.88 73.0581 189.32C72.5381 188.76 72.3915 187.973 72.6181 186.96L73.8981 181.38H71.8781L72.1981 180H74.2181L74.7181 177.8L76.4581 177.3L75.8181 180H78.9181L78.5981 181.38H75.4981L74.1781 187.04C74.0448 187.653 74.1248 188.093 74.4181 188.36C74.7248 188.613 75.1048 188.74 75.5581 188.74C75.8915 188.74 76.1848 188.693 76.4381 188.6C76.6915 188.507 76.9115 188.387 77.0981 188.24L77.4181 189.56C77.0848 189.787 76.7448 189.94 76.3981 190.02C76.0515 190.113 75.6781 190.16 75.2781 190.16ZM78.845 190L82.225 175.4H83.825L82.485 181.22C82.8583 180.74 83.3317 180.387 83.905 180.16C84.4783 179.92 85.085 179.8 85.725 179.8C86.4717 179.8 87.1117 179.967 87.645 180.3C88.1917 180.633 88.5783 181.113 88.805 181.74C89.0317 182.353 89.045 183.1 88.845 183.98L87.445 190H85.845L87.245 183.96C87.445 183.093 87.3583 182.42 86.985 181.94C86.625 181.447 86.0517 181.2 85.265 181.2C84.3317 181.2 83.565 181.507 82.965 182.12C82.365 182.72 81.9317 183.593 81.665 184.74L80.445 190H78.845ZM95.2395 190.18C94.3195 190.18 93.5262 189.98 92.8595 189.58C92.2062 189.18 91.7062 188.64 91.3595 187.96C91.0129 187.28 90.8395 186.52 90.8395 185.68C90.8395 184.64 91.0462 183.673 91.4595 182.78C91.8729 181.887 92.4729 181.173 93.2595 180.64C94.0595 180.093 95.0262 179.82 96.1595 179.82C96.9729 179.82 97.6662 179.987 98.2395 180.32C98.8262 180.653 99.2729 181.113 99.5795 181.7C99.8862 182.273 100.04 182.927 100.04 183.66C100.04 184.18 99.9462 184.753 99.7595 185.38H92.4595C92.4595 185.5 92.4595 185.62 92.4595 185.74C92.4595 186.633 92.7262 187.367 93.2595 187.94C93.8062 188.513 94.5262 188.8 95.4195 188.8C96.0995 188.787 96.6595 188.64 97.0995 188.36C97.5395 188.08 97.8995 187.713 98.1795 187.26L99.4395 188.1C98.9995 188.74 98.4262 189.247 97.7195 189.62C97.0129 189.993 96.1862 190.18 95.2395 190.18ZM96.0595 181.2C95.0995 181.2 94.3462 181.473 93.7995 182.02C93.2662 182.567 92.8929 183.22 92.6795 183.98H98.4595C98.4729 183.847 98.4795 183.72 98.4795 183.6C98.4795 182.88 98.2662 182.3 97.8395 181.86C97.4129 181.42 96.8195 181.2 96.0595 181.2ZM107.704 190L110.024 180H111.424L111.184 181.46C111.53 180.9 112.01 180.487 112.624 180.22C113.237 179.94 113.89 179.8 114.584 179.8C115.357 179.8 116.01 179.967 116.544 180.3C117.077 180.633 117.45 181.113 117.664 181.74C117.89 182.353 117.904 183.1 117.704 183.98L116.304 190H114.704L116.104 183.96C116.304 183.093 116.217 182.42 115.844 181.94C115.484 181.447 114.91 181.2 114.124 181.2C113.19 181.2 112.424 181.507 111.824 182.12C111.224 182.72 110.79 183.593 110.524 184.74L109.304 190H107.704ZM124.218 190.18C123.258 190.18 122.438 189.98 121.758 189.58C121.091 189.167 120.578 188.62 120.218 187.94C119.871 187.247 119.698 186.493 119.698 185.68C119.698 184.533 119.918 183.52 120.358 182.64C120.798 181.76 121.405 181.073 122.178 180.58C122.951 180.073 123.845 179.82 124.858 179.82C125.831 179.82 126.651 180.027 127.318 180.44C127.985 180.84 128.491 181.38 128.838 182.06C129.185 182.727 129.358 183.473 129.358 184.3C129.358 185.433 129.138 186.447 128.698 187.34C128.271 188.22 127.671 188.913 126.898 189.42C126.125 189.927 125.231 190.18 124.218 190.18ZM124.278 188.8C124.931 188.8 125.518 188.62 126.038 188.26C126.558 187.887 126.971 187.367 127.278 186.7C127.585 186.033 127.738 185.253 127.738 184.36C127.738 183.773 127.631 183.247 127.418 182.78C127.218 182.3 126.898 181.92 126.458 181.64C126.031 181.347 125.478 181.2 124.798 181.2C124.158 181.2 123.571 181.387 123.038 181.76C122.518 182.12 122.098 182.633 121.778 183.3C121.471 183.953 121.318 184.727 121.318 185.62C121.318 186.193 121.425 186.727 121.638 187.22C121.851 187.7 122.178 188.087 122.618 188.38C123.058 188.66 123.611 188.8 124.278 188.8ZM138.802 180H140.582L134.322 190H132.702L130.962 180H132.542L133.842 188.22L138.802 180ZM143.505 178.08C143.185 178.08 142.925 177.987 142.725 177.8C142.525 177.6 142.425 177.347 142.425 177.04C142.425 176.627 142.545 176.3 142.785 176.06C143.039 175.807 143.339 175.68 143.685 175.68C144.005 175.68 144.265 175.78 144.465 175.98C144.665 176.167 144.765 176.413 144.765 176.72C144.765 177.133 144.639 177.467 144.385 177.72C144.145 177.96 143.852 178.08 143.505 178.08ZM143.685 180L141.365 190H139.765L142.085 180H143.685ZM149.442 190.18C148.522 190.18 147.728 189.98 147.062 189.58C146.408 189.167 145.908 188.62 145.562 187.94C145.215 187.247 145.042 186.487 145.042 185.66C145.042 184.513 145.262 183.507 145.702 182.64C146.142 181.76 146.755 181.073 147.542 180.58C148.328 180.073 149.242 179.82 150.282 179.82C151.415 179.82 152.335 180.113 153.042 180.7C153.748 181.287 154.188 182.02 154.362 182.9L152.682 183.3C152.628 182.713 152.395 182.22 151.982 181.82C151.582 181.407 150.988 181.2 150.202 181.2C149.522 181.2 148.915 181.387 148.382 181.76C147.848 182.133 147.428 182.653 147.122 183.32C146.815 183.973 146.662 184.747 146.662 185.64C146.662 186.52 146.908 187.267 147.402 187.88C147.908 188.493 148.642 188.8 149.602 188.8C150.122 188.8 150.608 188.667 151.062 188.4C151.528 188.133 151.855 187.74 152.042 187.22L153.602 187.78C153.255 188.553 152.708 189.147 151.962 189.56C151.228 189.973 150.388 190.18 149.442 190.18ZM159.686 190.18C158.766 190.18 157.972 189.98 157.306 189.58C156.652 189.18 156.152 188.64 155.806 187.96C155.459 187.28 155.286 186.52 155.286 185.68C155.286 184.64 155.492 183.673 155.906 182.78C156.319 181.887 156.919 181.173 157.706 180.64C158.506 180.093 159.472 179.82 160.606 179.82C161.419 179.82 162.112 179.987 162.686 180.32C163.272 180.653 163.719 181.113 164.026 181.7C164.332 182.273 164.486 182.927 164.486 183.66C164.486 184.18 164.392 184.753 164.206 185.38H156.906C156.906 185.5 156.906 185.62 156.906 185.74C156.906 186.633 157.172 187.367 157.706 187.94C158.252 188.513 158.972 188.8 159.866 188.8C160.546 188.787 161.106 188.64 161.546 188.36C161.986 188.08 162.346 187.713 162.626 187.26L163.886 188.1C163.446 188.74 162.872 189.247 162.166 189.62C161.459 189.993 160.632 190.18 159.686 190.18ZM160.506 181.2C159.546 181.2 158.792 181.473 158.246 182.02C157.712 182.567 157.339 183.22 157.126 183.98H162.906C162.919 183.847 162.926 183.72 162.926 183.6C162.926 182.88 162.712 182.3 162.286 181.86C161.859 181.42 161.266 181.2 160.506 181.2ZM25.62 213L27.94 203H29.34L29.1 204.44C29.4467 203.893 29.92 203.487 30.52 203.22C31.12 202.94 31.7667 202.8 32.46 202.8C33.1933 202.8 33.82 202.98 34.34 203.34C34.8733 203.687 35.2333 204.187 35.42 204.84C35.8467 204.16 36.4 203.653 37.08 203.32C37.76 202.973 38.48 202.8 39.24 202.8C39.96 202.8 40.5733 202.967 41.08 203.3C41.6 203.633 41.9667 204.113 42.18 204.74C42.3933 205.367 42.3933 206.127 42.18 207.02L40.8 213H39.2L40.58 207C40.78 206.12 40.7133 205.433 40.38 204.94C40.0467 204.447 39.5133 204.2 38.78 204.2C37.9133 204.2 37.1933 204.467 36.62 205C36.0467 205.533 35.62 206.3 35.34 207.3L34 213H32.4L33.8 207C34.0133 206.12 33.9467 205.433 33.6 204.94C33.2667 204.447 32.7333 204.2 32 204.2C31.0667 204.2 30.3067 204.507 29.72 205.12C29.1333 205.72 28.7067 206.593 28.44 207.74L27.22 213H25.62ZM48.6942 213.18C47.7742 213.18 46.9809 212.98 46.3142 212.58C45.6609 212.18 45.1609 211.64 44.8142 210.96C44.4676 210.28 44.2942 209.52 44.2942 208.68C44.2942 207.64 44.5009 206.673 44.9142 205.78C45.3276 204.887 45.9276 204.173 46.7142 203.64C47.5142 203.093 48.4809 202.82 49.6142 202.82C50.4276 202.82 51.1209 202.987 51.6942 203.32C52.2809 203.653 52.7276 204.113 53.0342 204.7C53.3409 205.273 53.4942 205.927 53.4942 206.66C53.4942 207.18 53.4009 207.753 53.2142 208.38H45.9142C45.9142 208.5 45.9142 208.62 45.9142 208.74C45.9142 209.633 46.1809 210.367 46.7142 210.94C47.2609 211.513 47.9809 211.8 48.8742 211.8C49.5542 211.787 50.1142 211.64 50.5542 211.36C50.9942 211.08 51.3542 210.713 51.6342 210.26L52.8942 211.1C52.4542 211.74 51.8809 212.247 51.1742 212.62C50.4676 212.993 49.6409 213.18 48.6942 213.18ZM49.5142 204.2C48.5542 204.2 47.8009 204.473 47.2542 205.02C46.7209 205.567 46.3476 206.22 46.1342 206.98H51.9142C51.9276 206.847 51.9342 206.72 51.9342 206.6C51.9342 205.88 51.7209 205.3 51.2942 204.86C50.8676 204.42 50.2742 204.2 49.5142 204.2ZM54.8395 213L57.1595 203H58.5595L58.3195 204.44C58.6662 203.893 59.1395 203.487 59.7395 203.22C60.3395 202.94 60.9862 202.8 61.6795 202.8C62.4129 202.8 63.0395 202.98 63.5595 203.34C64.0929 203.687 64.4529 204.187 64.6395 204.84C65.0662 204.16 65.6195 203.653 66.2995 203.32C66.9795 202.973 67.6995 202.8 68.4595 202.8C69.1795 202.8 69.7929 202.967 70.2995 203.3C70.8195 203.633 71.1862 204.113 71.3995 204.74C71.6129 205.367 71.6129 206.127 71.3995 207.02L70.0195 213H68.4195L69.7995 207C69.9995 206.12 69.9329 205.433 69.5995 204.94C69.2662 204.447 68.7329 204.2 67.9995 204.2C67.1329 204.2 66.4129 204.467 65.8395 205C65.2662 205.533 64.8395 206.3 64.5595 207.3L63.2195 213H61.6195L63.0195 207C63.2329 206.12 63.1662 205.433 62.8195 204.94C62.4862 204.447 61.9529 204.2 61.2195 204.2C60.2862 204.2 59.5262 204.507 58.9395 205.12C58.3529 205.72 57.9262 206.593 57.6595 207.74L56.4395 213H54.8395ZM79.9314 202.84C80.6514 202.84 81.2981 203.013 81.8714 203.36C82.4447 203.707 82.8914 204.213 83.2114 204.88C83.5447 205.533 83.7114 206.333 83.7114 207.28C83.7114 208.387 83.4847 209.393 83.0314 210.3C82.5914 211.193 81.9847 211.9 81.2114 212.42C80.4514 212.94 79.5847 213.2 78.6114 213.2C77.6781 213.2 76.9181 212.96 76.3314 212.48C75.7447 212 75.3781 211.42 75.2314 210.74L74.7114 213H73.1114L76.4914 198.4H78.0914L76.6514 204.6C76.9581 204.093 77.4047 203.673 77.9914 203.34C78.5781 203.007 79.2247 202.84 79.9314 202.84ZM78.5914 211.82C79.2447 211.82 79.8381 211.627 80.3714 211.24C80.9047 210.84 81.3314 210.293 81.6514 209.6C81.9714 208.907 82.1314 208.12 82.1314 207.24C82.1314 206.227 81.8781 205.473 81.3714 204.98C80.8647 204.473 80.2314 204.22 79.4714 204.22C78.7647 204.22 78.1381 204.42 77.5914 204.82C77.0581 205.22 76.6381 205.773 76.3314 206.48C76.0247 207.187 75.8714 207.993 75.8714 208.9C75.8714 209.767 76.0981 210.473 76.5514 211.02C77.0181 211.553 77.6981 211.82 78.5914 211.82ZM89.9356 213.18C89.0156 213.18 88.2223 212.98 87.5556 212.58C86.9023 212.18 86.4023 211.64 86.0556 210.96C85.709 210.28 85.5356 209.52 85.5356 208.68C85.5356 207.64 85.7423 206.673 86.1556 205.78C86.569 204.887 87.169 204.173 87.9556 203.64C88.7556 203.093 89.7223 202.82 90.8556 202.82C91.669 202.82 92.3623 202.987 92.9356 203.32C93.5223 203.653 93.969 204.113 94.2756 204.7C94.5823 205.273 94.7356 205.927 94.7356 206.66C94.7356 207.18 94.6423 207.753 94.4556 208.38H87.1556C87.1556 208.5 87.1556 208.62 87.1556 208.74C87.1556 209.633 87.4223 210.367 87.9556 210.94C88.5023 211.513 89.2223 211.8 90.1156 211.8C90.7956 211.787 91.3556 211.64 91.7956 211.36C92.2356 211.08 92.5956 210.713 92.8756 210.26L94.1356 211.1C93.6956 211.74 93.1223 212.247 92.4156 212.62C91.709 212.993 90.8823 213.18 89.9356 213.18ZM90.7556 204.2C89.7956 204.2 89.0423 204.473 88.4956 205.02C87.9623 205.567 87.589 206.22 87.3756 206.98H93.1556C93.169 206.847 93.1756 206.72 93.1756 206.6C93.1756 205.88 92.9623 205.3 92.5356 204.86C92.109 204.42 91.5156 204.2 90.7556 204.2ZM96.0809 213L98.4009 203H99.7009L99.5409 204.58C99.9143 204.02 100.394 203.587 100.981 203.28C101.581 202.96 102.188 202.8 102.801 202.8C103.228 202.8 103.568 202.86 103.821 202.98L103.341 204.5C103.208 204.433 103.054 204.387 102.881 204.36C102.721 204.32 102.528 204.3 102.301 204.3C101.541 204.3 100.854 204.567 100.241 205.1C99.6409 205.62 99.2076 206.447 98.9409 207.58L97.6809 213H96.0809ZM107.425 213.22C106.265 213.22 105.285 212.953 104.485 212.42C103.685 211.887 103.112 211.173 102.765 210.28L104.285 209.62C104.792 211.087 105.865 211.82 107.505 211.82C108.212 211.82 108.745 211.667 109.105 211.36C109.478 211.04 109.665 210.653 109.665 210.2C109.665 209.853 109.565 209.58 109.365 209.38C109.165 209.18 108.852 209.02 108.425 208.9L106.645 208.4C105.818 208.173 105.198 207.833 104.785 207.38C104.372 206.913 104.165 206.38 104.165 205.78C104.165 205.22 104.318 204.72 104.625 204.28C104.932 203.827 105.372 203.467 105.945 203.2C106.518 202.933 107.198 202.8 107.985 202.8C108.932 202.8 109.765 203.013 110.485 203.44C111.205 203.867 111.718 204.487 112.025 205.3L110.565 206C110.378 205.44 110.052 205 109.585 204.68C109.118 204.347 108.552 204.18 107.885 204.18C107.152 204.18 106.605 204.313 106.245 204.58C105.898 204.847 105.725 205.2 105.725 205.64C105.725 206.013 105.852 206.313 106.105 206.54C106.372 206.753 106.698 206.913 107.085 207.02L109.045 207.58C109.725 207.767 110.258 208.073 110.645 208.5C111.045 208.927 111.245 209.42 111.245 209.98C111.245 210.647 111.078 211.227 110.745 211.72C110.412 212.2 109.958 212.573 109.385 212.84C108.812 213.093 108.158 213.22 107.425 213.22ZM112.84 213L116.22 198.4H117.82L116.48 204.22C116.853 203.74 117.326 203.387 117.9 203.16C118.473 202.92 119.08 202.8 119.72 202.8C120.466 202.8 121.106 202.967 121.64 203.3C122.186 203.633 122.573 204.113 122.8 204.74C123.026 205.353 123.04 206.1 122.84 206.98L121.44 213H119.84L121.24 206.96C121.44 206.093 121.353 205.42 120.98 204.94C120.62 204.447 120.046 204.2 119.26 204.2C118.326 204.2 117.56 204.507 116.96 205.12C116.36 205.72 115.926 206.593 115.66 207.74L114.44 213H112.84ZM128.172 201.08C127.852 201.08 127.592 200.987 127.392 200.8C127.192 200.6 127.092 200.347 127.092 200.04C127.092 199.627 127.212 199.3 127.452 199.06C127.705 198.807 128.005 198.68 128.352 198.68C128.672 198.68 128.932 198.78 129.132 198.98C129.332 199.167 129.432 199.413 129.432 199.72C129.432 200.133 129.305 200.467 129.052 200.72C128.812 200.96 128.518 201.08 128.172 201.08ZM128.352 203L126.032 213H124.432L126.752 203H128.352ZM128.228 217.2L131.508 203H132.908L132.588 204.74C132.935 204.14 133.415 203.673 134.028 203.34C134.641 203.007 135.321 202.84 136.068 202.84C136.775 202.84 137.408 203.013 137.968 203.36C138.528 203.707 138.968 204.207 139.288 204.86C139.621 205.513 139.788 206.293 139.788 207.2C139.788 208.347 139.561 209.373 139.108 210.28C138.655 211.187 138.041 211.9 137.268 212.42C136.495 212.94 135.621 213.2 134.648 213.2C133.795 213.2 133.068 212.98 132.468 212.54C131.881 212.087 131.495 211.487 131.308 210.74L129.828 217.2H128.228ZM134.668 211.82C135.321 211.82 135.915 211.62 136.448 211.22C136.981 210.82 137.408 210.273 137.728 209.58C138.048 208.873 138.208 208.08 138.208 207.2C138.208 206.24 137.955 205.507 137.448 205C136.955 204.48 136.315 204.22 135.528 204.22C134.848 204.22 134.235 204.42 133.688 204.82C133.155 205.22 132.728 205.773 132.408 206.48C132.101 207.187 131.948 207.993 131.948 208.9C131.948 209.767 132.175 210.473 132.628 211.02C133.095 211.553 133.775 211.82 134.668 211.82ZM150.171 213.14C149.251 213.14 148.611 212.867 148.251 212.32C147.891 211.76 147.818 211.033 148.031 210.14L150.751 198.4H152.351L149.611 210.2C149.478 210.747 149.518 211.14 149.731 211.38C149.944 211.62 150.311 211.74 150.831 211.74C151.231 211.74 151.544 211.713 151.771 211.66L151.371 212.94C151.158 213.02 150.964 213.073 150.791 213.1C150.618 213.127 150.411 213.14 150.171 213.14ZM157.79 213.18C156.87 213.18 156.077 212.98 155.41 212.58C154.757 212.18 154.257 211.64 153.91 210.96C153.564 210.28 153.39 209.52 153.39 208.68C153.39 207.64 153.597 206.673 154.01 205.78C154.424 204.887 155.024 204.173 155.81 203.64C156.61 203.093 157.577 202.82 158.71 202.82C159.524 202.82 160.217 202.987 160.79 203.32C161.377 203.653 161.824 204.113 162.13 204.7C162.437 205.273 162.59 205.927 162.59 206.66C162.59 207.18 162.497 207.753 162.31 208.38H155.01C155.01 208.5 155.01 208.62 155.01 208.74C155.01 209.633 155.277 210.367 155.81 210.94C156.357 211.513 157.077 211.8 157.97 211.8C158.65 211.787 159.21 211.64 159.65 211.36C160.09 211.08 160.45 210.713 160.73 210.26L161.99 211.1C161.55 211.74 160.977 212.247 160.27 212.62C159.564 212.993 158.737 213.18 157.79 213.18ZM158.61 204.2C157.65 204.2 156.897 204.473 156.35 205.02C155.817 205.567 155.444 206.22 155.23 206.98H161.01C161.024 206.847 161.03 206.72 161.03 206.6C161.03 205.88 160.817 205.3 160.39 204.86C159.964 204.42 159.37 204.2 158.61 204.2ZM172.162 203H173.942L167.682 213H166.062L164.322 203H165.902L167.202 211.22L172.162 203ZM178.416 213.18C177.496 213.18 176.703 212.98 176.036 212.58C175.383 212.18 174.883 211.64 174.536 210.96C174.189 210.28 174.016 209.52 174.016 208.68C174.016 207.64 174.223 206.673 174.636 205.78C175.049 204.887 175.649 204.173 176.436 203.64C177.236 203.093 178.203 202.82 179.336 202.82C180.149 202.82 180.843 202.987 181.416 203.32C182.003 203.653 182.449 204.113 182.756 204.7C183.063 205.273 183.216 205.927 183.216 206.66C183.216 207.18 183.123 207.753 182.936 208.38H175.636C175.636 208.5 175.636 208.62 175.636 208.74C175.636 209.633 175.903 210.367 176.436 210.94C176.983 211.513 177.703 211.8 178.596 211.8C179.276 211.787 179.836 211.64 180.276 211.36C180.716 211.08 181.076 210.713 181.356 210.26L182.616 211.1C182.176 211.74 181.603 212.247 180.896 212.62C180.189 212.993 179.363 213.18 178.416 213.18ZM179.236 204.2C178.276 204.2 177.523 204.473 176.976 205.02C176.443 205.567 176.069 206.22 175.856 206.98H181.636C181.649 206.847 181.656 206.72 181.656 206.6C181.656 205.88 181.443 205.3 181.016 204.86C180.589 204.42 179.996 204.2 179.236 204.2ZM187.301 213.14C186.381 213.14 185.741 212.867 185.381 212.32C185.021 211.76 184.948 211.033 185.161 210.14L187.881 198.4H189.481L186.741 210.2C186.608 210.747 186.648 211.14 186.861 211.38C187.075 211.62 187.441 211.74 187.961 211.74C188.361 211.74 188.675 211.713 188.901 211.66L188.501 212.94C188.288 213.02 188.095 213.073 187.921 213.1C187.748 213.127 187.541 213.14 187.301 213.14ZM191.216 213.2C190.883 213.2 190.603 213.1 190.376 212.9C190.163 212.687 190.056 212.413 190.056 212.08C190.056 211.627 190.189 211.267 190.456 211C190.723 210.733 191.043 210.6 191.416 210.6C191.749 210.6 192.023 210.707 192.236 210.92C192.463 211.12 192.576 211.387 192.576 211.72C192.576 212.173 192.443 212.533 192.176 212.8C191.923 213.067 191.603 213.2 191.216 213.2ZM38.12 222.8L37.76 224.3H33.3L30.6 236H29L31.7 224.3H27.16L27.52 222.8H38.12ZM36.6653 236L40.0453 221.4H41.6453L40.3053 227.22C40.6786 226.74 41.152 226.387 41.7253 226.16C42.2986 225.92 42.9053 225.8 43.5453 225.8C44.292 225.8 44.932 225.967 45.4653 226.3C46.012 226.633 46.3986 227.113 46.6253 227.74C46.852 228.353 46.8653 229.1 46.6653 229.98L45.2653 236H43.6653L45.0653 229.96C45.2653 229.093 45.1786 228.42 44.8053 227.94C44.4453 227.447 43.872 227.2 43.0853 227.2C42.152 227.2 41.3853 227.507 40.7853 228.12C40.1853 228.72 39.752 229.593 39.4853 230.74L38.2653 236H36.6653ZM53.0598 236.18C52.1398 236.18 51.3465 235.98 50.6798 235.58C50.0265 235.18 49.5265 234.64 49.1798 233.96C48.8332 233.28 48.6598 232.52 48.6598 231.68C48.6598 230.64 48.8665 229.673 49.2798 228.78C49.6932 227.887 50.2932 227.173 51.0798 226.64C51.8798 226.093 52.8465 225.82 53.9798 225.82C54.7932 225.82 55.4865 225.987 56.0598 226.32C56.6465 226.653 57.0932 227.113 57.3998 227.7C57.7065 228.273 57.8598 228.927 57.8598 229.66C57.8598 230.18 57.7665 230.753 57.5798 231.38H50.2798C50.2798 231.5 50.2798 231.62 50.2798 231.74C50.2798 232.633 50.5465 233.367 51.0798 233.94C51.6265 234.513 52.3465 234.8 53.2398 234.8C53.9198 234.787 54.4798 234.64 54.9198 234.36C55.3598 234.08 55.7198 233.713 55.9998 233.26L57.2598 234.1C56.8198 234.74 56.2465 235.247 55.5398 235.62C54.8332 235.993 54.0065 236.18 53.0598 236.18ZM53.8798 227.2C52.9198 227.2 52.1665 227.473 51.6198 228.02C51.0865 228.567 50.7132 229.22 50.4998 229.98H56.2798C56.2932 229.847 56.2998 229.72 56.2998 229.6C56.2998 228.88 56.0865 228.3 55.6598 227.86C55.2332 227.42 54.6398 227.2 53.8798 227.2ZM59.2052 236L61.5252 226H62.8252L62.6652 227.58C63.0385 227.02 63.5185 226.587 64.1052 226.28C64.7052 225.96 65.3118 225.8 65.9252 225.8C66.3518 225.8 66.6918 225.86 66.9452 225.98L66.4652 227.5C66.3318 227.433 66.1785 227.387 66.0052 227.36C65.8452 227.32 65.6518 227.3 65.4252 227.3C64.6652 227.3 63.9785 227.567 63.3652 228.1C62.7652 228.62 62.3318 229.447 62.0652 230.58L60.8052 236H59.2052ZM71.1466 236.18C70.2266 236.18 69.4332 235.98 68.7666 235.58C68.1132 235.18 67.6132 234.64 67.2666 233.96C66.9199 233.28 66.7466 232.52 66.7466 231.68C66.7466 230.64 66.9532 229.673 67.3666 228.78C67.7799 227.887 68.3799 227.173 69.1666 226.64C69.9666 226.093 70.9332 225.82 72.0666 225.82C72.8799 225.82 73.5732 225.987 74.1466 226.32C74.7332 226.653 75.1799 227.113 75.4866 227.7C75.7932 228.273 75.9466 228.927 75.9466 229.66C75.9466 230.18 75.8532 230.753 75.6666 231.38H68.3666C68.3666 231.5 68.3666 231.62 68.3666 231.74C68.3666 232.633 68.6332 233.367 69.1666 233.94C69.7132 234.513 70.4332 234.8 71.3266 234.8C72.0066 234.787 72.5666 234.64 73.0066 234.36C73.4466 234.08 73.8066 233.713 74.0866 233.26L75.3466 234.1C74.9066 234.74 74.3332 235.247 73.6266 235.62C72.9199 235.993 72.0932 236.18 71.1466 236.18ZM71.9666 227.2C71.0066 227.2 70.2532 227.473 69.7066 228.02C69.1732 228.567 68.7999 229.22 68.5866 229.98H74.3666C74.3799 229.847 74.3866 229.72 74.3866 229.6C74.3866 228.88 74.1732 228.3 73.7466 227.86C73.3199 227.42 72.7266 227.2 71.9666 227.2ZM88.0106 236.16C87.2373 236.16 86.5573 235.973 85.9706 235.6C85.384 235.227 84.924 234.713 84.5906 234.06C84.2573 233.393 84.0906 232.627 84.0906 231.76C84.0906 230.653 84.3106 229.653 84.7506 228.76C85.1906 227.853 85.7906 227.133 86.5506 226.6C87.324 226.067 88.204 225.8 89.1906 225.8C90.0706 225.8 90.8106 226.027 91.4106 226.48C92.0106 226.92 92.3973 227.513 92.5706 228.26L93.0906 226H94.6906L92.3706 236H90.9706L91.3106 234.14C90.9906 234.753 90.5306 235.247 89.9306 235.62C89.344 235.98 88.704 236.16 88.0106 236.16ZM88.4306 234.8C89.0573 234.8 89.6373 234.593 90.1706 234.18C90.704 233.767 91.1306 233.207 91.4506 232.5C91.7706 231.793 91.9306 231.007 91.9306 230.14C91.9306 229.233 91.6906 228.513 91.2106 227.98C90.7306 227.447 90.0906 227.18 89.2906 227.18C88.584 227.18 87.9573 227.387 87.4106 227.8C86.864 228.2 86.4373 228.747 86.1306 229.44C85.824 230.12 85.6706 230.887 85.6706 231.74C85.6706 232.713 85.904 233.467 86.3706 234C86.8506 234.533 87.5373 234.8 88.4306 234.8ZM95.5348 236L97.8548 226H99.1548L98.9948 227.58C99.3682 227.02 99.8482 226.587 100.435 226.28C101.035 225.96 101.642 225.8 102.255 225.8C102.682 225.8 103.022 225.86 103.275 225.98L102.795 227.5C102.662 227.433 102.508 227.387 102.335 227.36C102.175 227.32 101.982 227.3 101.755 227.3C100.995 227.3 100.308 227.567 99.6948 228.1C99.0948 228.62 98.6615 229.447 98.3948 230.58L97.1348 236H95.5348ZM107.476 236.18C106.556 236.18 105.763 235.98 105.096 235.58C104.443 235.18 103.943 234.64 103.596 233.96C103.25 233.28 103.076 232.52 103.076 231.68C103.076 230.64 103.283 229.673 103.696 228.78C104.11 227.887 104.71 227.173 105.496 226.64C106.296 226.093 107.263 225.82 108.396 225.82C109.21 225.82 109.903 225.987 110.476 226.32C111.063 226.653 111.51 227.113 111.816 227.7C112.123 228.273 112.276 228.927 112.276 229.66C112.276 230.18 112.183 230.753 111.996 231.38H104.696C104.696 231.5 104.696 231.62 104.696 231.74C104.696 232.633 104.963 233.367 105.496 233.94C106.043 234.513 106.763 234.8 107.656 234.8C108.336 234.787 108.896 234.64 109.336 234.36C109.776 234.08 110.136 233.713 110.416 233.26L111.676 234.1C111.236 234.74 110.663 235.247 109.956 235.62C109.25 235.993 108.423 236.18 107.476 236.18ZM108.296 227.2C107.336 227.2 106.583 227.473 106.036 228.02C105.503 228.567 105.13 229.22 104.916 229.98H110.696C110.71 229.847 110.716 229.72 110.716 229.6C110.716 228.88 110.503 228.3 110.076 227.86C109.65 227.42 109.056 227.2 108.296 227.2ZM119.94 236L122.26 226H123.66L123.42 227.44C123.767 226.893 124.24 226.487 124.84 226.22C125.44 225.94 126.087 225.8 126.78 225.8C127.514 225.8 128.14 225.98 128.66 226.34C129.194 226.687 129.554 227.187 129.74 227.84C130.167 227.16 130.72 226.653 131.4 226.32C132.08 225.973 132.8 225.8 133.56 225.8C134.28 225.8 134.894 225.967 135.4 226.3C135.92 226.633 136.287 227.113 136.5 227.74C136.714 228.367 136.714 229.127 136.5 230.02L135.12 236H133.52L134.9 230C135.1 229.12 135.034 228.433 134.7 227.94C134.367 227.447 133.834 227.2 133.1 227.2C132.234 227.2 131.514 227.467 130.94 228C130.367 228.533 129.94 229.3 129.66 230.3L128.32 236H126.72L128.12 230C128.334 229.12 128.267 228.433 127.92 227.94C127.587 227.447 127.054 227.2 126.32 227.2C125.387 227.2 124.627 227.507 124.04 228.12C123.454 228.72 123.027 229.593 122.76 230.74L121.54 236H119.94ZM143.135 236.18C142.175 236.18 141.355 235.98 140.675 235.58C140.008 235.167 139.495 234.62 139.135 233.94C138.788 233.247 138.615 232.493 138.615 231.68C138.615 230.533 138.835 229.52 139.275 228.64C139.715 227.76 140.321 227.073 141.095 226.58C141.868 226.073 142.761 225.82 143.775 225.82C144.748 225.82 145.568 226.027 146.235 226.44C146.901 226.84 147.408 227.38 147.755 228.06C148.101 228.727 148.275 229.473 148.275 230.3C148.275 231.433 148.055 232.447 147.615 233.34C147.188 234.22 146.588 234.913 145.815 235.42C145.041 235.927 144.148 236.18 143.135 236.18ZM143.195 234.8C143.848 234.8 144.435 234.62 144.955 234.26C145.475 233.887 145.888 233.367 146.195 232.7C146.501 232.033 146.655 231.253 146.655 230.36C146.655 229.773 146.548 229.247 146.335 228.78C146.135 228.3 145.815 227.92 145.375 227.64C144.948 227.347 144.395 227.2 143.715 227.2C143.075 227.2 142.488 227.387 141.955 227.76C141.435 228.12 141.015 228.633 140.695 229.3C140.388 229.953 140.235 230.727 140.235 231.62C140.235 232.193 140.341 232.727 140.555 233.22C140.768 233.7 141.095 234.087 141.535 234.38C141.975 234.66 142.528 234.8 143.195 234.8ZM149.609 236L151.929 226H153.229L153.069 227.58C153.442 227.02 153.922 226.587 154.509 226.28C155.109 225.96 155.716 225.8 156.329 225.8C156.756 225.8 157.096 225.86 157.349 225.98L156.869 227.5C156.736 227.433 156.582 227.387 156.409 227.36C156.249 227.32 156.056 227.3 155.829 227.3C155.069 227.3 154.382 227.567 153.769 228.1C153.169 228.62 152.736 229.447 152.469 230.58L151.209 236H149.609ZM161.55 236.18C160.63 236.18 159.837 235.98 159.17 235.58C158.517 235.18 158.017 234.64 157.67 233.96C157.324 233.28 157.15 232.52 157.15 231.68C157.15 230.64 157.357 229.673 157.77 228.78C158.184 227.887 158.784 227.173 159.57 226.64C160.37 226.093 161.337 225.82 162.47 225.82C163.284 225.82 163.977 225.987 164.55 226.32C165.137 226.653 165.584 227.113 165.89 227.7C166.197 228.273 166.35 228.927 166.35 229.66C166.35 230.18 166.257 230.753 166.07 231.38H158.77C158.77 231.5 158.77 231.62 158.77 231.74C158.77 232.633 159.037 233.367 159.57 233.94C160.117 234.513 160.837 234.8 161.73 234.8C162.41 234.787 162.97 234.64 163.41 234.36C163.85 234.08 164.21 233.713 164.49 233.26L165.75 234.1C165.31 234.74 164.737 235.247 164.03 235.62C163.324 235.993 162.497 236.18 161.55 236.18ZM162.37 227.2C161.41 227.2 160.657 227.473 160.11 228.02C159.577 228.567 159.204 229.22 158.99 229.98H164.77C164.784 229.847 164.79 229.72 164.79 229.6C164.79 228.88 164.577 228.3 164.15 227.86C163.724 227.42 163.13 227.2 162.37 227.2ZM174.423 236L176.423 227.38H174.383L174.703 226H176.743L177.163 224.14C177.39 223.153 177.79 222.433 178.363 221.98C178.95 221.527 179.703 221.3 180.623 221.3C180.997 221.3 181.343 221.347 181.663 221.44C181.983 221.52 182.23 221.633 182.403 221.78L181.863 223.08C181.743 222.987 181.57 222.907 181.343 222.84C181.117 222.773 180.877 222.74 180.623 222.74C180.063 222.74 179.63 222.873 179.323 223.14C179.017 223.407 178.79 223.88 178.643 224.56L178.323 226H181.423L181.103 227.38H178.023L176.023 236H174.423ZM185.761 236.18C184.841 236.18 184.047 235.98 183.381 235.58C182.727 235.18 182.227 234.64 181.881 233.96C181.534 233.28 181.361 232.52 181.361 231.68C181.361 230.64 181.567 229.673 181.981 228.78C182.394 227.887 182.994 227.173 183.781 226.64C184.581 226.093 185.547 225.82 186.681 225.82C187.494 225.82 188.187 225.987 188.761 226.32C189.347 226.653 189.794 227.113 190.101 227.7C190.407 228.273 190.561 228.927 190.561 229.66C190.561 230.18 190.467 230.753 190.281 231.38H182.981C182.981 231.5 182.981 231.62 182.981 231.74C182.981 232.633 183.247 233.367 183.781 233.94C184.327 234.513 185.047 234.8 185.941 234.8C186.621 234.787 187.181 234.64 187.621 234.36C188.061 234.08 188.421 233.713 188.701 233.26L189.961 234.1C189.521 234.74 188.947 235.247 188.241 235.62C187.534 235.993 186.707 236.18 185.761 236.18ZM186.581 227.2C185.621 227.2 184.867 227.473 184.321 228.02C183.787 228.567 183.414 229.22 183.201 229.98H188.981C188.994 229.847 189.001 229.72 189.001 229.6C189.001 228.88 188.787 228.3 188.361 227.86C187.934 227.42 187.341 227.2 186.581 227.2ZM196.208 236.16C195.435 236.16 194.755 235.973 194.168 235.6C193.582 235.227 193.122 234.713 192.788 234.06C192.455 233.393 192.288 232.627 192.288 231.76C192.288 230.653 192.508 229.653 192.948 228.76C193.388 227.853 193.988 227.133 194.748 226.6C195.522 226.067 196.402 225.8 197.388 225.8C198.268 225.8 199.008 226.027 199.608 226.48C200.208 226.92 200.595 227.513 200.768 228.26L201.288 226H202.888L200.568 236H199.168L199.508 234.14C199.188 234.753 198.728 235.247 198.128 235.62C197.542 235.98 196.902 236.16 196.208 236.16ZM196.628 234.8C197.255 234.8 197.835 234.593 198.368 234.18C198.902 233.767 199.328 233.207 199.648 232.5C199.968 231.793 200.128 231.007 200.128 230.14C200.128 229.233 199.888 228.513 199.408 227.98C198.928 227.447 198.288 227.18 197.488 227.18C196.782 227.18 196.155 227.387 195.608 227.8C195.062 228.2 194.635 228.747 194.328 229.44C194.022 230.12 193.868 230.887 193.868 231.74C193.868 232.713 194.102 233.467 194.568 234C195.048 234.533 195.735 234.8 196.628 234.8ZM207.813 236.16C206.853 236.16 206.113 235.88 205.593 235.32C205.073 234.76 204.926 233.973 205.153 232.96L206.433 227.38H204.413L204.733 226H206.753L207.253 223.8L208.993 223.3L208.353 226H211.453L211.133 227.38H208.033L206.713 233.04C206.579 233.653 206.659 234.093 206.953 234.36C207.259 234.613 207.639 234.74 208.093 234.74C208.426 234.74 208.719 234.693 208.973 234.6C209.226 234.507 209.446 234.387 209.633 234.24L209.953 235.56C209.619 235.787 209.279 235.94 208.933 236.02C208.586 236.113 208.213 236.16 207.813 236.16ZM215.319 236.16C214.599 236.16 213.959 236 213.399 235.68C212.853 235.347 212.453 234.873 212.199 234.26C211.959 233.633 211.939 232.887 212.139 232.02L213.539 226H215.139L213.759 231.98C213.546 232.873 213.626 233.56 213.999 234.04C214.386 234.52 214.966 234.76 215.739 234.76C217.553 234.76 218.733 233.593 219.279 231.26L220.499 226H222.099L219.779 236H218.379L218.619 234.56C218.273 235.107 217.806 235.513 217.219 235.78C216.633 236.033 215.999 236.16 215.319 236.16ZM222.933 236L225.252 226H226.553L226.393 227.58C226.766 227.02 227.246 226.587 227.833 226.28C228.433 225.96 229.039 225.8 229.653 225.8C230.079 225.8 230.419 225.86 230.673 225.98L230.193 227.5C230.059 227.433 229.906 227.387 229.733 227.36C229.573 227.32 229.379 227.3 229.153 227.3C228.393 227.3 227.706 227.567 227.093 228.1C226.493 228.62 226.059 229.447 225.793 230.58L224.533 236H222.933ZM234.874 236.18C233.954 236.18 233.161 235.98 232.494 235.58C231.841 235.18 231.341 234.64 230.994 233.96C230.647 233.28 230.474 232.52 230.474 231.68C230.474 230.64 230.681 229.673 231.094 228.78C231.507 227.887 232.107 227.173 232.894 226.64C233.694 226.093 234.661 225.82 235.794 225.82C236.607 225.82 237.301 225.987 237.874 226.32C238.461 226.653 238.907 227.113 239.214 227.7C239.521 228.273 239.674 228.927 239.674 229.66C239.674 230.18 239.581 230.753 239.394 231.38H232.094C232.094 231.5 232.094 231.62 232.094 231.74C232.094 232.633 232.361 233.367 232.894 233.94C233.441 234.513 234.161 234.8 235.054 234.8C235.734 234.787 236.294 234.64 236.734 234.36C237.174 234.08 237.534 233.713 237.814 233.26L239.074 234.1C238.634 234.74 238.061 235.247 237.354 235.62C236.647 235.993 235.821 236.18 234.874 236.18ZM235.694 227.2C234.734 227.2 233.981 227.473 233.434 228.02C232.901 228.567 232.527 229.22 232.314 229.98H238.094C238.107 229.847 238.114 229.72 238.114 229.6C238.114 228.88 237.901 228.3 237.474 227.86C237.047 227.42 236.454 227.2 235.694 227.2ZM245.439 236.22C244.279 236.22 243.299 235.953 242.499 235.42C241.699 234.887 241.126 234.173 240.779 233.28L242.299 232.62C242.806 234.087 243.879 234.82 245.519 234.82C246.226 234.82 246.759 234.667 247.119 234.36C247.493 234.04 247.679 233.653 247.679 233.2C247.679 232.853 247.579 232.58 247.379 232.38C247.179 232.18 246.866 232.02 246.439 231.9L244.659 231.4C243.833 231.173 243.213 230.833 242.799 230.38C242.386 229.913 242.179 229.38 242.179 228.78C242.179 228.22 242.333 227.72 242.639 227.28C242.946 226.827 243.386 226.467 243.959 226.2C244.533 225.933 245.213 225.8 245.999 225.8C246.946 225.8 247.779 226.013 248.499 226.44C249.219 226.867 249.733 227.487 250.039 228.3L248.579 229C248.393 228.44 248.066 228 247.599 227.68C247.133 227.347 246.566 227.18 245.899 227.18C245.166 227.18 244.619 227.313 244.259 227.58C243.913 227.847 243.739 228.2 243.739 228.64C243.739 229.013 243.866 229.313 244.119 229.54C244.386 229.753 244.713 229.913 245.099 230.02L247.059 230.58C247.739 230.767 248.273 231.073 248.659 231.5C249.059 231.927 249.259 232.42 249.259 232.98C249.259 233.647 249.093 234.227 248.759 234.72C248.426 235.2 247.973 235.573 247.399 235.84C246.826 236.093 246.173 236.22 245.439 236.22ZM29.7 259.16C28.74 259.16 28 258.88 27.48 258.32C26.96 257.76 26.8133 256.973 27.04 255.96L28.32 250.38H26.3L26.62 249H28.64L29.14 246.8L30.88 246.3L30.24 249H33.34L33.02 250.38H29.92L28.6 256.04C28.4667 256.653 28.5467 257.093 28.84 257.36C29.1467 257.613 29.5267 257.74 29.98 257.74C30.3133 257.74 30.6067 257.693 30.86 257.6C31.1133 257.507 31.3333 257.387 31.52 257.24L31.84 258.56C31.5067 258.787 31.1667 258.94 30.82 259.02C30.4733 259.113 30.1 259.16 29.7 259.16ZM38.2869 259.18C37.3269 259.18 36.5069 258.98 35.8269 258.58C35.1602 258.167 34.6469 257.62 34.2869 256.94C33.9402 256.247 33.7669 255.493 33.7669 254.68C33.7669 253.533 33.9869 252.52 34.4269 251.64C34.8669 250.76 35.4735 250.073 36.2469 249.58C37.0202 249.073 37.9135 248.82 38.9269 248.82C39.9002 248.82 40.7202 249.027 41.3869 249.44C42.0535 249.84 42.5602 250.38 42.9069 251.06C43.2535 251.727 43.4269 252.473 43.4269 253.3C43.4269 254.433 43.2069 255.447 42.7669 256.34C42.3402 257.22 41.7402 257.913 40.9669 258.42C40.1935 258.927 39.3002 259.18 38.2869 259.18ZM38.3469 257.8C39.0002 257.8 39.5869 257.62 40.1069 257.26C40.6269 256.887 41.0402 256.367 41.3469 255.7C41.6535 255.033 41.8069 254.253 41.8069 253.36C41.8069 252.773 41.7002 252.247 41.4869 251.78C41.2869 251.3 40.9669 250.92 40.5269 250.64C40.1002 250.347 39.5469 250.2 38.8669 250.2C38.2269 250.2 37.6402 250.387 37.1069 250.76C36.5869 251.12 36.1669 251.633 35.8469 252.3C35.5402 252.953 35.3869 253.727 35.3869 254.62C35.3869 255.193 35.4935 255.727 35.7069 256.22C35.9202 256.7 36.2469 257.087 36.6869 257.38C37.1269 257.66 37.6802 257.8 38.3469 257.8ZM52.6109 259L51.5309 249H53.0709L53.8309 257L58.0509 249H59.6509L60.6709 257.12L64.9909 249H66.6909L61.1709 259H59.5709L58.4709 251.06L54.2309 259H52.6109ZM70.0256 247.08C69.7056 247.08 69.4456 246.987 69.2456 246.8C69.0456 246.6 68.9456 246.347 68.9456 246.04C68.9456 245.627 69.0656 245.3 69.3056 245.06C69.559 244.807 69.859 244.68 70.2056 244.68C70.5256 244.68 70.7856 244.78 70.9856 244.98C71.1856 245.167 71.2856 245.413 71.2856 245.72C71.2856 246.133 71.159 246.467 70.9056 246.72C70.6656 246.96 70.3723 247.08 70.0256 247.08ZM70.2056 249L67.8856 259H66.2856L68.6056 249H70.2056ZM75.1219 259.16C74.1619 259.16 73.4219 258.88 72.9019 258.32C72.3819 257.76 72.2352 256.973 72.4619 255.96L73.7419 250.38H71.7219L72.0419 249H74.0619L74.5619 246.8L76.3019 246.3L75.6619 249H78.7619L78.4419 250.38H75.3419L74.0219 256.04C73.8885 256.653 73.9685 257.093 74.2619 257.36C74.5685 257.613 74.9485 257.74 75.4019 257.74C75.7352 257.74 76.0285 257.693 76.2819 257.6C76.5352 257.507 76.7552 257.387 76.9419 257.24L77.2619 258.56C76.9285 258.787 76.5885 258.94 76.2419 259.02C75.8952 259.113 75.5219 259.16 75.1219 259.16ZM78.6887 259L82.0687 244.4H83.6687L82.3287 250.22C82.7021 249.74 83.1754 249.387 83.7487 249.16C84.3221 248.92 84.9287 248.8 85.5687 248.8C86.3154 248.8 86.9554 248.967 87.4887 249.3C88.0354 249.633 88.4221 250.113 88.6487 250.74C88.8754 251.353 88.8887 252.1 88.6887 252.98L87.2887 259H85.6887L87.0887 252.96C87.2887 252.093 87.2021 251.42 86.8287 250.94C86.4687 250.447 85.8954 250.2 85.1087 250.2C84.1754 250.2 83.4087 250.507 82.8087 251.12C82.2087 251.72 81.7754 252.593 81.5087 253.74L80.2887 259H78.6887ZM98.1305 259L97.0505 249H98.5905L99.3505 257L103.57 249H105.17L106.19 257.12L110.51 249H112.21L106.69 259H105.09L103.99 251.06L99.7505 259H98.1305ZM111.805 259L115.185 244.4H116.785L115.445 250.22C115.818 249.74 116.292 249.387 116.865 249.16C117.438 248.92 118.045 248.8 118.685 248.8C119.432 248.8 120.072 248.967 120.605 249.3C121.152 249.633 121.538 250.113 121.765 250.74C121.992 251.353 122.005 252.1 121.805 252.98L120.405 259H118.805L120.205 252.96C120.405 252.093 120.318 251.42 119.945 250.94C119.585 250.447 119.012 250.2 118.225 250.2C117.292 250.2 116.525 250.507 115.925 251.12C115.325 251.72 114.892 252.593 114.625 253.74L113.405 259H111.805ZM127.137 247.08C126.817 247.08 126.557 246.987 126.357 246.8C126.157 246.6 126.057 246.347 126.057 246.04C126.057 245.627 126.177 245.3 126.417 245.06C126.671 244.807 126.971 244.68 127.317 244.68C127.637 244.68 127.897 244.78 128.097 244.98C128.297 245.167 128.397 245.413 128.397 245.72C128.397 246.133 128.271 246.467 128.017 246.72C127.777 246.96 127.484 247.08 127.137 247.08ZM127.317 249L124.997 259H123.397L125.717 249H127.317ZM133.074 259.18C132.154 259.18 131.36 258.98 130.694 258.58C130.04 258.167 129.54 257.62 129.194 256.94C128.847 256.247 128.674 255.487 128.674 254.66C128.674 253.513 128.894 252.507 129.334 251.64C129.774 250.76 130.387 250.073 131.174 249.58C131.96 249.073 132.874 248.82 133.914 248.82C135.047 248.82 135.967 249.113 136.674 249.7C137.38 250.287 137.82 251.02 137.994 251.9L136.314 252.3C136.26 251.713 136.027 251.22 135.614 250.82C135.214 250.407 134.62 250.2 133.834 250.2C133.154 250.2 132.547 250.387 132.014 250.76C131.48 251.133 131.06 251.653 130.754 252.32C130.447 252.973 130.294 253.747 130.294 254.64C130.294 255.52 130.54 256.267 131.034 256.88C131.54 257.493 132.274 257.8 133.234 257.8C133.754 257.8 134.24 257.667 134.694 257.4C135.16 257.133 135.487 256.74 135.674 256.22L137.234 256.78C136.887 257.553 136.34 258.147 135.594 258.56C134.86 258.973 134.02 259.18 133.074 259.18ZM138.515 259L141.895 244.4H143.495L142.155 250.22C142.529 249.74 143.002 249.387 143.575 249.16C144.149 248.92 144.755 248.8 145.395 248.8C146.142 248.8 146.782 248.967 147.315 249.3C147.862 249.633 148.249 250.113 148.475 250.74C148.702 251.353 148.715 252.1 148.515 252.98L147.115 259H145.515L146.915 252.96C147.115 252.093 147.029 251.42 146.655 250.94C146.295 250.447 145.722 250.2 144.935 250.2C144.002 250.2 143.235 250.507 142.635 251.12C142.035 251.72 141.602 252.593 141.335 253.74L140.115 259H138.515ZM160.116 259.16C159.156 259.16 158.416 258.88 157.896 258.32C157.376 257.76 157.229 256.973 157.456 255.96L158.736 250.38H156.716L157.036 249H159.056L159.556 246.8L161.296 246.3L160.656 249H163.756L163.436 250.38H160.336L159.016 256.04C158.882 256.653 158.962 257.093 159.256 257.36C159.562 257.613 159.942 257.74 160.396 257.74C160.729 257.74 161.022 257.693 161.276 257.6C161.529 257.507 161.749 257.387 161.936 257.24L162.256 258.56C161.922 258.787 161.582 258.94 161.236 259.02C160.889 259.113 160.516 259.16 160.116 259.16ZM168.703 259.18C167.743 259.18 166.923 258.98 166.243 258.58C165.576 258.167 165.063 257.62 164.703 256.94C164.356 256.247 164.183 255.493 164.183 254.68C164.183 253.533 164.403 252.52 164.843 251.64C165.283 250.76 165.889 250.073 166.663 249.58C167.436 249.073 168.329 248.82 169.343 248.82C170.316 248.82 171.136 249.027 171.803 249.44C172.469 249.84 172.976 250.38 173.323 251.06C173.669 251.727 173.843 252.473 173.843 253.3C173.843 254.433 173.623 255.447 173.183 256.34C172.756 257.22 172.156 257.913 171.383 258.42C170.609 258.927 169.716 259.18 168.703 259.18ZM168.763 257.8C169.416 257.8 170.003 257.62 170.523 257.26C171.043 256.887 171.456 256.367 171.763 255.7C172.069 255.033 172.223 254.253 172.223 253.36C172.223 252.773 172.116 252.247 171.903 251.78C171.703 251.3 171.383 250.92 170.943 250.64C170.516 250.347 169.963 250.2 169.283 250.2C168.643 250.2 168.056 250.387 167.523 250.76C167.003 251.12 166.583 251.633 166.263 252.3C165.956 252.953 165.803 253.727 165.803 254.62C165.803 255.193 165.909 255.727 166.123 256.22C166.336 256.7 166.663 257.087 167.103 257.38C167.543 257.66 168.096 257.8 168.763 257.8ZM180.536 263.2L183.816 249H185.216L184.896 250.74C185.242 250.14 185.722 249.673 186.336 249.34C186.949 249.007 187.629 248.84 188.376 248.84C189.082 248.84 189.716 249.013 190.276 249.36C190.836 249.707 191.276 250.207 191.596 250.86C191.929 251.513 192.096 252.293 192.096 253.2C192.096 254.347 191.869 255.373 191.416 256.28C190.962 257.187 190.349 257.9 189.576 258.42C188.802 258.94 187.929 259.2 186.956 259.2C186.102 259.2 185.376 258.98 184.776 258.54C184.189 258.087 183.802 257.487 183.616 256.74L182.136 263.2H180.536ZM186.976 257.82C187.629 257.82 188.222 257.62 188.756 257.22C189.289 256.82 189.716 256.273 190.036 255.58C190.356 254.873 190.516 254.08 190.516 253.2C190.516 252.24 190.262 251.507 189.756 251C189.262 250.48 188.622 250.22 187.836 250.22C187.156 250.22 186.542 250.42 185.996 250.82C185.462 251.22 185.036 251.773 184.716 252.48C184.409 253.187 184.256 253.993 184.256 254.9C184.256 255.767 184.482 256.473 184.936 257.02C185.402 257.553 186.082 257.82 186.976 257.82ZM196.16 259.14C195.24 259.14 194.6 258.867 194.24 258.32C193.88 257.76 193.807 257.033 194.02 256.14L196.74 244.4H198.34L195.6 256.2C195.467 256.747 195.507 257.14 195.72 257.38C195.933 257.62 196.3 257.74 196.82 257.74C197.22 257.74 197.533 257.713 197.76 257.66L197.36 258.94C197.147 259.02 196.953 259.073 196.78 259.1C196.607 259.127 196.4 259.14 196.16 259.14ZM203.279 259.16C202.506 259.16 201.826 258.973 201.239 258.6C200.653 258.227 200.193 257.713 199.859 257.06C199.526 256.393 199.359 255.627 199.359 254.76C199.359 253.653 199.579 252.653 200.019 251.76C200.459 250.853 201.059 250.133 201.819 249.6C202.593 249.067 203.473 248.8 204.459 248.8C205.339 248.8 206.079 249.027 206.679 249.48C207.279 249.92 207.666 250.513 207.839 251.26L208.359 249H209.959L207.639 259H206.239L206.579 257.14C206.259 257.753 205.799 258.247 205.199 258.62C204.613 258.98 203.973 259.16 203.279 259.16ZM203.699 257.8C204.326 257.8 204.906 257.593 205.439 257.18C205.973 256.767 206.399 256.207 206.719 255.5C207.039 254.793 207.199 254.007 207.199 253.14C207.199 252.233 206.959 251.513 206.479 250.98C205.999 250.447 205.359 250.18 204.559 250.18C203.853 250.18 203.226 250.387 202.679 250.8C202.133 251.2 201.706 251.747 201.399 252.44C201.093 253.12 200.939 253.887 200.939 254.74C200.939 255.713 201.173 256.467 201.639 257C202.119 257.533 202.806 257.8 203.699 257.8ZM210.424 263.3C209.917 263.3 209.484 263.24 209.124 263.12C208.75 263 208.444 262.833 208.204 262.62L208.844 261.28C209.297 261.693 209.804 261.9 210.364 261.9C210.79 261.9 211.164 261.78 211.484 261.54C211.817 261.3 212.144 260.927 212.464 260.42L213.404 258.92L211.644 249H213.224L214.144 254.72L214.544 257.22L215.944 254.88L219.484 249H221.304L213.744 260.96C213.224 261.773 212.684 262.367 212.124 262.74C211.577 263.113 211.01 263.3 210.424 263.3ZM220.57 256.6C220.97 256.6 221.29 256.753 221.53 257.06C221.77 257.353 221.89 257.74 221.89 258.22C221.89 258.727 221.757 259.24 221.49 259.76C221.237 260.293 220.863 260.76 220.37 261.16C219.877 261.56 219.283 261.833 218.59 261.98L218.09 261.02C218.877 260.913 219.477 260.673 219.89 260.3C220.303 259.94 220.577 259.52 220.71 259.04L220.69 259.02C220.623 259.073 220.55 259.107 220.47 259.12C220.403 259.147 220.297 259.16 220.15 259.16C219.83 259.16 219.583 259.047 219.41 258.82C219.25 258.58 219.17 258.32 219.17 258.04C219.17 257.613 219.303 257.267 219.57 257C219.85 256.733 220.183 256.6 220.57 256.6ZM234.668 259.16C233.894 259.16 233.214 258.973 232.628 258.6C232.041 258.227 231.581 257.713 231.248 257.06C230.914 256.393 230.748 255.627 230.748 254.76C230.748 253.653 230.968 252.653 231.408 251.76C231.848 250.853 232.448 250.133 233.208 249.6C233.981 249.067 234.861 248.8 235.848 248.8C236.728 248.8 237.468 249.027 238.068 249.48C238.668 249.92 239.054 250.513 239.228 251.26L239.748 249H241.348L239.028 259H237.628L237.968 257.14C237.648 257.753 237.188 258.247 236.588 258.62C236.001 258.98 235.361 259.16 234.668 259.16ZM235.088 257.8C235.714 257.8 236.294 257.593 236.828 257.18C237.361 256.767 237.788 256.207 238.108 255.5C238.428 254.793 238.588 254.007 238.588 253.14C238.588 252.233 238.348 251.513 237.868 250.98C237.388 250.447 236.748 250.18 235.948 250.18C235.241 250.18 234.614 250.387 234.068 250.8C233.521 251.2 233.094 251.747 232.788 252.44C232.481 253.12 232.328 253.887 232.328 254.74C232.328 255.713 232.561 256.467 233.028 257C233.508 257.533 234.194 257.8 235.088 257.8ZM246.272 259.16C245.312 259.16 244.572 258.88 244.052 258.32C243.532 257.76 243.385 256.973 243.612 255.96L244.892 250.38H242.872L243.192 249H245.212L245.712 246.8L247.452 246.3L246.812 249H249.912L249.592 250.38H246.492L245.172 256.04C245.039 256.653 245.119 257.093 245.412 257.36C245.719 257.613 246.099 257.74 246.552 257.74C246.885 257.74 247.179 257.693 247.432 257.6C247.685 257.507 247.905 257.387 248.092 257.24L248.412 258.56C248.079 258.787 247.739 258.94 247.392 259.02C247.045 259.113 246.672 259.16 246.272 259.16ZM25.62 282L29 267.4H30.6L29.26 273.22C29.6333 272.74 30.1067 272.387 30.68 272.16C31.2533 271.92 31.86 271.8 32.5 271.8C33.2467 271.8 33.8867 271.967 34.42 272.3C34.9667 272.633 35.3533 273.113 35.58 273.74C35.8067 274.353 35.82 275.1 35.62 275.98L34.22 282H32.62L34.02 275.96C34.22 275.093 34.1333 274.42 33.76 273.94C33.4 273.447 32.8267 273.2 32.04 273.2C31.1067 273.2 30.34 273.507 29.74 274.12C29.14 274.72 28.7067 275.593 28.44 276.74L27.22 282H25.62ZM40.9522 270.08C40.6322 270.08 40.3722 269.987 40.1722 269.8C39.9722 269.6 39.8722 269.347 39.8722 269.04C39.8722 268.627 39.9922 268.3 40.2322 268.06C40.4855 267.807 40.7855 267.68 41.1322 267.68C41.4522 267.68 41.7122 267.78 41.9122 267.98C42.1122 268.167 42.2122 268.413 42.2122 268.72C42.2122 269.133 42.0855 269.467 41.8322 269.72C41.5922 269.96 41.2989 270.08 40.9522 270.08ZM41.1322 272L38.8122 282H37.2122L39.5322 272H41.1322ZM45.6084 286.3C44.4484 286.3 43.4751 286.007 42.6884 285.42C41.9018 284.833 41.4151 284.053 41.2284 283.08L42.8284 282.52C42.9751 283.267 43.2618 283.847 43.6884 284.26C44.1284 284.687 44.8084 284.9 45.7284 284.9C46.2351 284.9 46.7151 284.807 47.1684 284.62C47.6218 284.447 48.0218 284.133 48.3684 283.68C48.7151 283.24 48.9751 282.613 49.1484 281.8L49.5084 280.22C49.1884 280.7 48.7551 281.08 48.2084 281.36C47.6751 281.64 47.0818 281.78 46.4284 281.78C45.6551 281.78 44.9618 281.587 44.3484 281.2C43.7351 280.813 43.2551 280.293 42.9084 279.64C42.5618 278.973 42.3884 278.247 42.3884 277.46C42.3884 276.34 42.6084 275.36 43.0484 274.52C43.4884 273.667 44.0884 273 44.8484 272.52C45.6218 272.04 46.4884 271.8 47.4484 271.8C48.3284 271.8 49.0684 272.027 49.6684 272.48C50.2818 272.92 50.6818 273.513 50.8684 274.26L51.3884 272H52.9884L50.6484 281.98C50.2884 283.513 49.6618 284.613 48.7684 285.28C47.8751 285.96 46.8218 286.3 45.6084 286.3ZM46.8484 280.4C47.4751 280.4 48.0418 280.213 48.5484 279.84C49.0551 279.467 49.4551 278.96 49.7484 278.32C50.0551 277.667 50.2084 276.927 50.2084 276.1C50.2084 275.207 49.9684 274.5 49.4884 273.98C49.0218 273.447 48.3751 273.18 47.5484 273.18C46.8551 273.18 46.2418 273.36 45.7084 273.72C45.1751 274.067 44.7551 274.56 44.4484 275.2C44.1418 275.827 43.9884 276.567 43.9884 277.42C43.9884 278.287 44.2418 279 44.7484 279.56C45.2551 280.12 45.9551 280.4 46.8484 280.4ZM53.8341 282L57.2141 267.4H58.8141L57.4741 273.22C57.8474 272.74 58.3207 272.387 58.8941 272.16C59.4674 271.92 60.0741 271.8 60.7141 271.8C61.4607 271.8 62.1007 271.967 62.6341 272.3C63.1807 272.633 63.5674 273.113 63.7941 273.74C64.0207 274.353 64.0341 275.1 63.8341 275.98L62.4341 282H60.8341L62.2341 275.96C62.4341 275.093 62.3474 274.42 61.9741 273.94C61.6141 273.447 61.0407 273.2 60.2541 273.2C59.3207 273.2 58.5541 273.507 57.9541 274.12C57.3541 274.72 56.9207 275.593 56.6541 276.74L55.4341 282H53.8341ZM70.2286 282.18C69.3086 282.18 68.5153 281.98 67.8486 281.58C67.1953 281.18 66.6953 280.64 66.3486 279.96C66.0019 279.28 65.8286 278.52 65.8286 277.68C65.8286 276.64 66.0353 275.673 66.4486 274.78C66.8619 273.887 67.4619 273.173 68.2486 272.64C69.0486 272.093 70.0153 271.82 71.1486 271.82C71.9619 271.82 72.6553 271.987 73.2286 272.32C73.8153 272.653 74.2619 273.113 74.5686 273.7C74.8753 274.273 75.0286 274.927 75.0286 275.66C75.0286 276.18 74.9353 276.753 74.7486 277.38H67.4486C67.4486 277.5 67.4486 277.62 67.4486 277.74C67.4486 278.633 67.7153 279.367 68.2486 279.94C68.7953 280.513 69.5153 280.8 70.4086 280.8C71.0886 280.787 71.6486 280.64 72.0886 280.36C72.5286 280.08 72.8886 279.713 73.1686 279.26L74.4286 280.1C73.9886 280.74 73.4153 281.247 72.7086 281.62C72.0019 281.993 71.1753 282.18 70.2286 282.18ZM71.0486 273.2C70.0886 273.2 69.3353 273.473 68.7886 274.02C68.2553 274.567 67.8819 275.22 67.6686 275.98H73.4486C73.4619 275.847 73.4686 275.72 73.4686 275.6C73.4686 274.88 73.2553 274.3 72.8286 273.86C72.4019 273.42 71.8086 273.2 71.0486 273.2ZM76.3739 282L78.6939 272H79.9939L79.8339 273.58C80.2072 273.02 80.6872 272.587 81.2739 272.28C81.8739 271.96 82.4806 271.8 83.0939 271.8C83.5206 271.8 83.8606 271.86 84.1139 271.98L83.6339 273.5C83.5006 273.433 83.3472 273.387 83.1739 273.36C83.0139 273.32 82.8206 273.3 82.5939 273.3C81.8339 273.3 81.1472 273.567 80.5339 274.1C79.9339 274.62 79.5006 275.447 79.2339 276.58L77.9739 282H76.3739ZM88.6178 286.2L91.8978 272H93.2978L92.9778 273.74C93.3245 273.14 93.8045 272.673 94.4178 272.34C95.0311 272.007 95.7111 271.84 96.4578 271.84C97.1645 271.84 97.7978 272.013 98.3578 272.36C98.9178 272.707 99.3578 273.207 99.6778 273.86C100.011 274.513 100.178 275.293 100.178 276.2C100.178 277.347 99.9511 278.373 99.4978 279.28C99.0445 280.187 98.4311 280.9 97.6578 281.42C96.8845 281.94 96.0111 282.2 95.0378 282.2C94.1845 282.2 93.4578 281.98 92.8578 281.54C92.2711 281.087 91.8845 280.487 91.6978 279.74L90.2178 286.2H88.6178ZM95.0578 280.82C95.7111 280.82 96.3045 280.62 96.8378 280.22C97.3711 279.82 97.7978 279.273 98.1178 278.58C98.4378 277.873 98.5978 277.08 98.5978 276.2C98.5978 275.24 98.3445 274.507 97.8378 274C97.3445 273.48 96.7045 273.22 95.9178 273.22C95.2378 273.22 94.6245 273.42 94.0778 273.82C93.5445 274.22 93.1178 274.773 92.7978 275.48C92.4911 276.187 92.3378 276.993 92.3378 277.9C92.3378 278.767 92.5645 279.473 93.0178 280.02C93.4845 280.553 94.1645 280.82 95.0578 280.82ZM105.902 282.16C105.129 282.16 104.449 281.973 103.862 281.6C103.275 281.227 102.815 280.713 102.482 280.06C102.149 279.393 101.982 278.627 101.982 277.76C101.982 276.653 102.202 275.653 102.642 274.76C103.082 273.853 103.682 273.133 104.442 272.6C105.215 272.067 106.095 271.8 107.082 271.8C107.962 271.8 108.702 272.027 109.302 272.48C109.902 272.92 110.289 273.513 110.462 274.26L110.982 272H112.582L110.262 282H108.862L109.202 280.14C108.882 280.753 108.422 281.247 107.822 281.62C107.235 281.98 106.595 282.16 105.902 282.16ZM106.322 280.8C106.949 280.8 107.529 280.593 108.062 280.18C108.595 279.767 109.022 279.207 109.342 278.5C109.662 277.793 109.822 277.007 109.822 276.14C109.822 275.233 109.582 274.513 109.102 273.98C108.622 273.447 107.982 273.18 107.182 273.18C106.475 273.18 105.849 273.387 105.302 273.8C104.755 274.2 104.329 274.747 104.022 275.44C103.715 276.12 103.562 276.887 103.562 277.74C103.562 278.713 103.795 279.467 104.262 280C104.742 280.533 105.429 280.8 106.322 280.8ZM117.166 270.08C116.846 270.08 116.586 269.987 116.386 269.8C116.186 269.6 116.086 269.347 116.086 269.04C116.086 268.627 116.206 268.3 116.446 268.06C116.7 267.807 117 267.68 117.346 267.68C117.666 267.68 117.926 267.78 118.126 267.98C118.326 268.167 118.426 268.413 118.426 268.72C118.426 269.133 118.3 269.467 118.046 269.72C117.806 269.96 117.513 270.08 117.166 270.08ZM117.346 272L115.026 282H113.426L115.746 272H117.346ZM122.583 282.16C121.809 282.16 121.129 281.973 120.543 281.6C119.956 281.227 119.496 280.713 119.163 280.06C118.829 279.393 118.663 278.627 118.663 277.76C118.663 276.653 118.883 275.653 119.323 274.76C119.763 273.853 120.363 273.133 121.123 272.6C121.896 272.067 122.776 271.8 123.763 271.8C124.643 271.8 125.383 272.027 125.983 272.48C126.583 272.92 126.969 273.513 127.143 274.26L128.723 267.4H130.323L126.943 282H125.543L125.883 280.14C125.563 280.753 125.103 281.247 124.503 281.62C123.916 281.98 123.276 282.16 122.583 282.16ZM122.983 280.8C123.623 280.8 124.209 280.593 124.743 280.18C125.276 279.767 125.703 279.207 126.023 278.5C126.343 277.793 126.503 277.007 126.503 276.14C126.503 275.233 126.263 274.513 125.783 273.98C125.303 273.447 124.663 273.18 123.863 273.18C123.156 273.18 122.529 273.387 121.983 273.8C121.436 274.2 121.009 274.747 120.703 275.44C120.396 276.12 120.243 276.887 120.243 277.74C120.243 278.713 120.476 279.467 120.943 280C121.423 280.533 122.103 280.8 122.983 280.8ZM136.425 282L138.745 272H140.145L139.905 273.44C140.252 272.893 140.725 272.487 141.325 272.22C141.925 271.94 142.572 271.8 143.265 271.8C143.999 271.8 144.625 271.98 145.145 272.34C145.679 272.687 146.039 273.187 146.225 273.84C146.652 273.16 147.205 272.653 147.885 272.32C148.565 271.973 149.285 271.8 150.045 271.8C150.765 271.8 151.379 271.967 151.885 272.3C152.405 272.633 152.772 273.113 152.985 273.74C153.199 274.367 153.199 275.127 152.985 276.02L151.605 282H150.005L151.385 276C151.585 275.12 151.519 274.433 151.185 273.94C150.852 273.447 150.319 273.2 149.585 273.2C148.719 273.2 147.999 273.467 147.425 274C146.852 274.533 146.425 275.3 146.145 276.3L144.805 282H143.205L144.605 276C144.819 275.12 144.752 274.433 144.405 273.94C144.072 273.447 143.539 273.2 142.805 273.2C141.872 273.2 141.112 273.507 140.525 274.12C139.939 274.72 139.512 275.593 139.245 276.74L138.025 282H136.425ZM159.5 282.18C158.58 282.18 157.786 281.98 157.12 281.58C156.466 281.18 155.966 280.64 155.62 279.96C155.273 279.28 155.1 278.52 155.1 277.68C155.1 276.64 155.306 275.673 155.72 274.78C156.133 273.887 156.733 273.173 157.52 272.64C158.32 272.093 159.286 271.82 160.42 271.82C161.233 271.82 161.926 271.987 162.5 272.32C163.086 272.653 163.533 273.113 163.84 273.7C164.146 274.273 164.3 274.927 164.3 275.66C164.3 276.18 164.206 276.753 164.02 277.38H156.72C156.72 277.5 156.72 277.62 156.72 277.74C156.72 278.633 156.986 279.367 157.52 279.94C158.066 280.513 158.786 280.8 159.68 280.8C160.36 280.787 160.92 280.64 161.36 280.36C161.8 280.08 162.16 279.713 162.44 279.26L163.7 280.1C163.26 280.74 162.686 281.247 161.98 281.62C161.273 281.993 160.446 282.18 159.5 282.18ZM160.32 273.2C159.36 273.2 158.606 273.473 158.06 274.02C157.526 274.567 157.153 275.22 156.94 275.98H162.72C162.733 275.847 162.74 275.72 162.74 275.6C162.74 274.88 162.526 274.3 162.1 273.86C161.673 273.42 161.08 273.2 160.32 273.2ZM165.645 282L167.965 272H169.365L169.125 273.44C169.472 272.893 169.945 272.487 170.545 272.22C171.145 271.94 171.792 271.8 172.485 271.8C173.218 271.8 173.845 271.98 174.365 272.34C174.898 272.687 175.258 273.187 175.445 273.84C175.872 273.16 176.425 272.653 177.105 272.32C177.785 271.973 178.505 271.8 179.265 271.8C179.985 271.8 180.598 271.967 181.105 272.3C181.625 272.633 181.992 273.113 182.205 273.74C182.418 274.367 182.418 275.127 182.205 276.02L180.825 282H179.225L180.605 276C180.805 275.12 180.738 274.433 180.405 273.94C180.072 273.447 179.538 273.2 178.805 273.2C177.938 273.2 177.218 273.467 176.645 274C176.072 274.533 175.645 275.3 175.365 276.3L174.025 282H172.425L173.825 276C174.038 275.12 173.972 274.433 173.625 273.94C173.292 273.447 172.758 273.2 172.025 273.2C171.092 273.2 170.332 273.507 169.745 274.12C169.158 274.72 168.732 275.593 168.465 276.74L167.245 282H165.645ZM190.737 271.84C191.457 271.84 192.104 272.013 192.677 272.36C193.25 272.707 193.697 273.213 194.017 273.88C194.35 274.533 194.517 275.333 194.517 276.28C194.517 277.387 194.29 278.393 193.837 279.3C193.397 280.193 192.79 280.9 192.017 281.42C191.257 281.94 190.39 282.2 189.417 282.2C188.484 282.2 187.724 281.96 187.137 281.48C186.55 281 186.184 280.42 186.037 279.74L185.517 282H183.917L187.297 267.4H188.897L187.457 273.6C187.764 273.093 188.21 272.673 188.797 272.34C189.384 272.007 190.03 271.84 190.737 271.84ZM189.397 280.82C190.05 280.82 190.644 280.627 191.177 280.24C191.71 279.84 192.137 279.293 192.457 278.6C192.777 277.907 192.937 277.12 192.937 276.24C192.937 275.227 192.684 274.473 192.177 273.98C191.67 273.473 191.037 273.22 190.277 273.22C189.57 273.22 188.944 273.42 188.397 273.82C187.864 274.22 187.444 274.773 187.137 275.48C186.83 276.187 186.677 276.993 186.677 277.9C186.677 278.767 186.904 279.473 187.357 280.02C187.824 280.553 188.504 280.82 189.397 280.82ZM200.741 282.18C199.821 282.18 199.028 281.98 198.361 281.58C197.708 281.18 197.208 280.64 196.861 279.96C196.514 279.28 196.341 278.52 196.341 277.68C196.341 276.64 196.548 275.673 196.961 274.78C197.374 273.887 197.974 273.173 198.761 272.64C199.561 272.093 200.528 271.82 201.661 271.82C202.474 271.82 203.168 271.987 203.741 272.32C204.328 272.653 204.774 273.113 205.081 273.7C205.388 274.273 205.541 274.927 205.541 275.66C205.541 276.18 205.448 276.753 205.261 277.38H197.961C197.961 277.5 197.961 277.62 197.961 277.74C197.961 278.633 198.228 279.367 198.761 279.94C199.308 280.513 200.028 280.8 200.921 280.8C201.601 280.787 202.161 280.64 202.601 280.36C203.041 280.08 203.401 279.713 203.681 279.26L204.941 280.1C204.501 280.74 203.928 281.247 203.221 281.62C202.514 281.993 201.688 282.18 200.741 282.18ZM201.561 273.2C200.601 273.2 199.848 273.473 199.301 274.02C198.768 274.567 198.394 275.22 198.181 275.98H203.961C203.974 275.847 203.981 275.72 203.981 275.6C203.981 274.88 203.768 274.3 203.341 273.86C202.914 273.42 202.321 273.2 201.561 273.2ZM206.886 282L209.206 272H210.506L210.346 273.58C210.72 273.02 211.2 272.587 211.786 272.28C212.386 271.96 212.993 271.8 213.606 271.8C214.033 271.8 214.373 271.86 214.626 271.98L214.146 273.5C214.013 273.433 213.86 273.387 213.686 273.36C213.526 273.32 213.333 273.3 213.106 273.3C212.346 273.3 211.66 273.567 211.046 274.1C210.446 274.62 210.013 275.447 209.746 276.58L208.486 282H206.886ZM218.231 282.22C217.071 282.22 216.091 281.953 215.291 281.42C214.491 280.887 213.917 280.173 213.571 279.28L215.091 278.62C215.597 280.087 216.671 280.82 218.311 280.82C219.017 280.82 219.551 280.667 219.911 280.36C220.284 280.04 220.471 279.653 220.471 279.2C220.471 278.853 220.371 278.58 220.171 278.38C219.971 278.18 219.657 278.02 219.231 277.9L217.451 277.4C216.624 277.173 216.004 276.833 215.591 276.38C215.177 275.913 214.971 275.38 214.971 274.78C214.971 274.22 215.124 273.72 215.431 273.28C215.737 272.827 216.177 272.467 216.751 272.2C217.324 271.933 218.004 271.8 218.791 271.8C219.737 271.8 220.571 272.013 221.291 272.44C222.011 272.867 222.524 273.487 222.831 274.3L221.371 275C221.184 274.44 220.857 274 220.391 273.68C219.924 273.347 219.357 273.18 218.691 273.18C217.957 273.18 217.411 273.313 217.051 273.58C216.704 273.847 216.531 274.2 216.531 274.64C216.531 275.013 216.657 275.313 216.911 275.54C217.177 275.753 217.504 275.913 217.891 276.02L219.851 276.58C220.531 276.767 221.064 277.073 221.451 277.5C221.851 277.927 222.051 278.42 222.051 278.98C222.051 279.647 221.884 280.227 221.551 280.72C221.217 281.2 220.764 281.573 220.191 281.84C219.617 282.093 218.964 282.22 218.231 282.22ZM223.645 282L227.025 267.4H228.625L227.285 273.22C227.658 272.74 228.132 272.387 228.705 272.16C229.278 271.92 229.885 271.8 230.525 271.8C231.272 271.8 231.912 271.967 232.445 272.3C232.992 272.633 233.378 273.113 233.605 273.74C233.832 274.353 233.845 275.1 233.645 275.98L232.245 282H230.645L232.045 275.96C232.245 275.093 232.158 274.42 231.785 273.94C231.425 273.447 230.852 273.2 230.065 273.2C229.132 273.2 228.365 273.507 227.765 274.12C227.165 274.72 226.732 275.593 226.465 276.74L225.245 282H223.645ZM238.977 270.08C238.657 270.08 238.397 269.987 238.197 269.8C237.997 269.6 237.897 269.347 237.897 269.04C237.897 268.627 238.017 268.3 238.257 268.06C238.511 267.807 238.811 267.68 239.157 267.68C239.477 267.68 239.737 267.78 239.937 267.98C240.137 268.167 240.237 268.413 240.237 268.72C240.237 269.133 240.111 269.467 239.857 269.72C239.617 269.96 239.324 270.08 238.977 270.08ZM239.157 272L236.837 282H235.237L237.557 272H239.157ZM239.033 286.2L242.313 272H243.713L243.393 273.74C243.74 273.14 244.22 272.673 244.833 272.34C245.447 272.007 246.127 271.84 246.873 271.84C247.58 271.84 248.213 272.013 248.773 272.36C249.333 272.707 249.773 273.207 250.093 273.86C250.427 274.513 250.593 275.293 250.593 276.2C250.593 277.347 250.367 278.373 249.913 279.28C249.46 280.187 248.847 280.9 248.073 281.42C247.3 281.94 246.427 282.2 245.453 282.2C244.6 282.2 243.873 281.98 243.273 281.54C242.687 281.087 242.3 280.487 242.113 279.74L240.633 286.2H239.033ZM245.473 280.82C246.127 280.82 246.72 280.62 247.253 280.22C247.787 279.82 248.213 279.273 248.533 278.58C248.853 277.873 249.013 277.08 249.013 276.2C249.013 275.24 248.76 274.507 248.253 274C247.76 273.48 247.12 273.22 246.333 273.22C245.653 273.22 245.04 273.42 244.493 273.82C243.96 274.22 243.533 274.773 243.213 275.48C242.907 276.187 242.753 276.993 242.753 277.9C242.753 278.767 242.98 279.473 243.433 280.02C243.9 280.553 244.58 280.82 245.473 280.82ZM28.36 305.14C27.44 305.14 26.8 304.867 26.44 304.32C26.08 303.76 26.0067 303.033 26.22 302.14L28.94 290.4H30.54L27.8 302.2C27.6667 302.747 27.7067 303.14 27.92 303.38C28.1333 303.62 28.5 303.74 29.02 303.74C29.42 303.74 29.7333 303.713 29.96 303.66L29.56 304.94C29.3467 305.02 29.1533 305.073 28.98 305.1C28.8067 305.127 28.6 305.14 28.36 305.14ZM35.9794 305.18C35.0594 305.18 34.266 304.98 33.5994 304.58C32.946 304.18 32.446 303.64 32.0994 302.96C31.7527 302.28 31.5794 301.52 31.5794 300.68C31.5794 299.64 31.786 298.673 32.1994 297.78C32.6127 296.887 33.2127 296.173 33.9994 295.64C34.7994 295.093 35.766 294.82 36.8994 294.82C37.7127 294.82 38.406 294.987 38.9794 295.32C39.566 295.653 40.0127 296.113 40.3194 296.7C40.626 297.273 40.7794 297.927 40.7794 298.66C40.7794 299.18 40.686 299.753 40.4994 300.38H33.1994C33.1994 300.5 33.1994 300.62 33.1994 300.74C33.1994 301.633 33.466 302.367 33.9994 302.94C34.546 303.513 35.266 303.8 36.1594 303.8C36.8394 303.787 37.3994 303.64 37.8394 303.36C38.2794 303.08 38.6394 302.713 38.9194 302.26L40.1794 303.1C39.7394 303.74 39.166 304.247 38.4594 304.62C37.7527 304.993 36.926 305.18 35.9794 305.18ZM36.7994 296.2C35.8394 296.2 35.086 296.473 34.5394 297.02C34.006 297.567 33.6327 298.22 33.4194 298.98H39.1994C39.2127 298.847 39.2194 298.72 39.2194 298.6C39.2194 297.88 39.006 297.3 38.5794 296.86C38.1527 296.42 37.5594 296.2 36.7994 296.2ZM50.3513 295H52.1313L45.8713 305H44.2513L42.5113 295H44.0913L45.3913 303.22L50.3513 295ZM56.6052 305.18C55.6852 305.18 54.8918 304.98 54.2252 304.58C53.5718 304.18 53.0718 303.64 52.7252 302.96C52.3785 302.28 52.2052 301.52 52.2052 300.68C52.2052 299.64 52.4118 298.673 52.8252 297.78C53.2385 296.887 53.8385 296.173 54.6252 295.64C55.4252 295.093 56.3918 294.82 57.5252 294.82C58.3385 294.82 59.0318 294.987 59.6052 295.32C60.1918 295.653 60.6385 296.113 60.9452 296.7C61.2518 297.273 61.4052 297.927 61.4052 298.66C61.4052 299.18 61.3118 299.753 61.1252 300.38H53.8252C53.8252 300.5 53.8252 300.62 53.8252 300.74C53.8252 301.633 54.0918 302.367 54.6252 302.94C55.1718 303.513 55.8918 303.8 56.7852 303.8C57.4652 303.787 58.0252 303.64 58.4652 303.36C58.9052 303.08 59.2652 302.713 59.5452 302.26L60.8052 303.1C60.3652 303.74 59.7918 304.247 59.0852 304.62C58.3785 304.993 57.5518 305.18 56.6052 305.18ZM57.4252 296.2C56.4652 296.2 55.7118 296.473 55.1652 297.02C54.6318 297.567 54.2585 298.22 54.0452 298.98H59.8252C59.8385 298.847 59.8452 298.72 59.8452 298.6C59.8452 297.88 59.6318 297.3 59.2052 296.86C58.7785 296.42 58.1852 296.2 57.4252 296.2ZM65.4905 305.14C64.5705 305.14 63.9305 304.867 63.5705 304.32C63.2105 303.76 63.1371 303.033 63.3505 302.14L66.0705 290.4H67.6705L64.9305 302.2C64.7971 302.747 64.8371 303.14 65.0505 303.38C65.2638 303.62 65.6305 303.74 66.1505 303.74C66.5505 303.74 66.8638 303.713 67.0905 303.66L66.6905 304.94C66.4771 305.02 66.2838 305.073 66.1105 305.1C65.9371 305.127 65.7305 305.14 65.4905 305.14ZM72.8252 305.22C71.6652 305.22 70.6852 304.953 69.8852 304.42C69.0852 303.887 68.5118 303.173 68.1652 302.28L69.6852 301.62C70.1918 303.087 71.2652 303.82 72.9052 303.82C73.6118 303.82 74.1452 303.667 74.5052 303.36C74.8785 303.04 75.0652 302.653 75.0652 302.2C75.0652 301.853 74.9652 301.58 74.7652 301.38C74.5652 301.18 74.2518 301.02 73.8252 300.9L72.0452 300.4C71.2185 300.173 70.5985 299.833 70.1852 299.38C69.7718 298.913 69.5652 298.38 69.5652 297.78C69.5652 297.22 69.7185 296.72 70.0252 296.28C70.3318 295.827 70.7718 295.467 71.3452 295.2C71.9185 294.933 72.5985 294.8 73.3852 294.8C74.3318 294.8 75.1652 295.013 75.8852 295.44C76.6052 295.867 77.1185 296.487 77.4252 297.3L75.9652 298C75.7785 297.44 75.4518 297 74.9852 296.68C74.5185 296.347 73.9518 296.18 73.2852 296.18C72.5518 296.18 72.0052 296.313 71.6452 296.58C71.2985 296.847 71.1252 297.2 71.1252 297.64C71.1252 298.013 71.2518 298.313 71.5052 298.54C71.7718 298.753 72.0985 298.913 72.4852 299.02L74.4452 299.58C75.1252 299.767 75.6585 300.073 76.0452 300.5C76.4452 300.927 76.6452 301.42 76.6452 301.98C76.6452 302.647 76.4785 303.227 76.1452 303.72C75.8118 304.2 75.3585 304.573 74.7852 304.84C74.2118 305.093 73.5585 305.22 72.8252 305.22ZM79.6302 305.2C79.2968 305.2 79.0168 305.1 78.7902 304.9C78.5768 304.687 78.4702 304.413 78.4702 304.08C78.4702 303.627 78.6035 303.267 78.8702 303C79.1368 302.733 79.4568 302.6 79.8302 302.6C80.1635 302.6 80.4368 302.707 80.6502 302.92C80.8768 303.12 80.9902 303.387 80.9902 303.72C80.9902 304.173 80.8568 304.533 80.5902 304.8C80.3368 305.067 80.0168 305.2 79.6302 305.2Z" fill="black"/>
<defs>
<filter id="filter0_d" x="4" y="0" width="278" height="444" filterUnits="userSpaceOnUse" color-interpolation-filters="sRGB">
<feFlood flood-opacity="0" result="BackgroundImageFix"/>
<feColorMatrix in="SourceAlpha" type="matrix" values="0 0 0 0 0 0 0 0 0 0 0 0 0 0 0 0 0 0 127 0"/>
<feOffset dx="4" dy="2"/>
<feGaussianBlur stdDeviation="1"/>
<feColorMatrix type="matrix" values="0 0 0 0 0 0 0 0 0 0 0 0 0 0 0 0 0 0 0.1 0"/>
<feBlend mode="normal" in2="BackgroundImageFix" result="effect1_dropShadow"/>
<feBlend mode="normal" in="SourceGraphic" in2="effect1_dropShadow" result="shape"/>
</filter>
<filter id="filter1_bd" x="0" y="-4" width="280" height="452" filterUnits="userSpaceOnUse" color-interpolation-filters="sRGB">
<feFlood flood-opacity="0" result="BackgroundImageFix"/>
<feGaussianBlur in="BackgroundImage" stdDeviation="2"/>
<feComposite in2="SourceAlpha" operator="in" result="effect1_backgroundBlur"/>
<feColorMatrix in="SourceAlpha" type="matrix" values="0 0 0 0 0 0 0 0 0 0 0 0 0 0 0 0 0 0 127 0"/>
<feOffset dy="4"/>
<feGaussianBlur stdDeviation="2"/>
<feColorMatrix type="matrix" values="0 0 0 0 0 0 0 0 0 0 0 0 0 0 0 0 0 0 0.1 0"/>
<feBlend mode="normal" in2="effect1_backgroundBlur" result="effect2_dropShadow"/>
<feBlend mode="normal" in="SourceGraphic" in2="effect2_dropShadow" result="shape"/>
</filter>
</defs>
</svg>
