<svg width="282" height="448" viewBox="0 0 282 448" fill="none" xmlns="http://www.w3.org/2000/svg">
<g filter="url(#filter0_d)">
<g filter="url(#filter1_bd)">
<rect x="5" y="1" width="270" height="438" rx="5" fill="white" fill-opacity="0.46"/>
<rect x="4.5" y="0.5" width="271" height="439" rx="5.5" stroke="#FDFBFB"/>
</g>
</g>
<path d="M240.324 115.621C240.292 116.988 240.145 118.209 239.885 119.283C239.624 120.39 239.25 121.415 238.762 122.359C238.273 123.336 237.671 124.247 236.955 125.094C236.239 125.973 235.425 126.868 234.514 127.779L230.51 125.924C230.77 125.631 231.031 125.289 231.291 124.898C231.519 124.54 231.763 124.101 232.023 123.58C232.284 123.059 232.512 122.473 232.707 121.822C231.958 121.692 231.258 121.432 230.607 121.041C229.956 120.683 229.403 120.227 228.947 119.674C228.459 119.12 228.085 118.502 227.824 117.818C227.531 117.135 227.385 116.402 227.385 115.621C227.385 114.71 227.564 113.847 227.922 113.033C228.247 112.252 228.703 111.568 229.289 110.982C229.875 110.396 230.575 109.924 231.389 109.566C232.17 109.241 233 109.078 233.879 109.078C234.758 109.078 235.588 109.241 236.369 109.566C237.15 109.924 237.834 110.396 238.42 110.982C239.006 111.568 239.478 112.252 239.836 113.033C240.161 113.847 240.324 114.71 240.324 115.621ZM255.803 115.621C255.77 116.988 255.624 118.209 255.363 119.283C255.103 120.39 254.729 121.415 254.24 122.359C253.752 123.336 253.166 124.247 252.482 125.094C251.766 125.973 250.936 126.868 249.992 127.779L245.988 125.924C246.281 125.631 246.558 125.289 246.818 124.898C247.046 124.54 247.29 124.101 247.551 123.58C247.779 123.059 247.99 122.473 248.186 121.822C247.437 121.692 246.753 121.432 246.135 121.041C245.484 120.683 244.93 120.227 244.475 119.674C243.986 119.12 243.612 118.502 243.352 117.818C243.059 117.135 242.912 116.402 242.912 115.621C242.912 114.71 243.091 113.847 243.449 113.033C243.775 112.252 244.23 111.568 244.816 110.982C245.402 110.396 246.086 109.924 246.867 109.566C247.648 109.241 248.495 109.078 249.406 109.078C250.285 109.078 251.115 109.241 251.896 109.566C252.678 109.924 253.361 110.396 253.947 110.982C254.501 111.568 254.956 112.252 255.314 113.033C255.64 113.847 255.803 114.71 255.803 115.621Z" fill="#1298D0"/>
<path d="M39.6758 40.3789C39.7083 39.0117 39.8548 37.791 40.1152 36.7168C40.3757 35.61 40.75 34.5846 41.2383 33.6406C41.7266 32.6641 42.3288 31.7526 43.0449 30.9062C43.7611 30.0273 44.5749 29.1322 45.4863 28.2207L49.4902 30.0762C49.2298 30.3691 48.9694 30.7109 48.709 31.1016C48.4811 31.4596 48.237 31.8991 47.9766 32.4199C47.7161 32.9408 47.4883 33.5267 47.293 34.1777C48.0417 34.3079 48.7415 34.5684 49.3926 34.959C50.0436 35.3171 50.597 35.7728 51.0527 36.3262C51.541 36.8796 51.9154 37.498 52.1758 38.1816C52.4688 38.8652 52.6152 39.5977 52.6152 40.3789C52.6152 41.2904 52.4362 42.153 52.0781 42.9668C51.7526 43.748 51.2969 44.4316 50.7109 45.0176C50.125 45.6035 49.4251 46.0755 48.6113 46.4336C47.8301 46.7591 47 46.9219 46.1211 46.9219C45.2422 46.9219 44.4121 46.7591 43.6309 46.4336C42.8496 46.0755 42.166 45.6035 41.5801 45.0176C40.9941 44.4316 40.5221 43.748 40.1641 42.9668C39.8385 42.153 39.6758 41.2904 39.6758 40.3789ZM24.1973 40.3789C24.2298 39.0117 24.3763 37.791 24.6367 36.7168C24.8971 35.61 25.2715 34.5846 25.7598 33.6406C26.248 32.6641 26.834 31.7526 27.5176 30.9062C28.2337 30.0273 29.0638 29.1322 30.0078 28.2207L34.0117 30.0762C33.7188 30.3691 33.4421 30.7109 33.1816 31.1016C32.9538 31.4596 32.7096 31.8991 32.4492 32.4199C32.2214 32.9408 32.0098 33.5267 31.8145 34.1777C32.5632 34.3079 33.2467 34.5684 33.8652 34.959C34.5163 35.3171 35.0697 35.7728 35.5254 36.3262C36.0137 36.8796 36.388 37.498 36.6484 38.1816C36.9414 38.8652 37.0879 39.5977 37.0879 40.3789C37.0879 41.2904 36.9089 42.153 36.5508 42.9668C36.2253 43.748 35.7695 44.4316 35.1836 45.0176C34.5977 45.6035 33.9141 46.0755 33.1328 46.4336C32.3516 46.7591 31.5052 46.9219 30.5938 46.9219C29.7148 46.9219 28.8848 46.7591 28.1035 46.4336C27.3223 46.0755 26.6387 45.6035 26.0527 45.0176C25.4993 44.4316 25.0436 43.748 24.6855 42.9668C24.36 42.153 24.1973 41.2904 24.1973 40.3789Z" fill="#1298D0"/>
<path d="M77.6053 63.22C77.2186 64.6067 76.5053 65.62 75.4653 66.26C74.4386 66.8867 73.2253 67.2 71.8253 67.2C70.4786 67.2 69.3186 66.9333 68.3453 66.4C67.3853 65.8533 66.6453 65.0733 66.1253 64.06C65.6053 63.0467 65.3453 61.8267 65.3453 60.4C65.3453 58.9733 65.6053 57.7533 66.1253 56.74C66.6453 55.7267 67.3853 54.9533 68.3453 54.42C69.3186 53.8733 70.472 53.6 71.8053 53.6C73.1786 53.6 74.3786 53.8933 75.4053 54.48C76.432 55.0667 77.112 55.9867 77.4453 57.24L74.4253 58.46C74.2386 57.6467 73.932 57.0867 73.5053 56.78C73.092 56.46 72.5653 56.3 71.9253 56.3C70.9653 56.3 70.212 56.6467 69.6653 57.34C69.132 58.0333 68.8653 59.0533 68.8653 60.4C68.8653 61.7467 69.1186 62.7667 69.6253 63.46C70.1453 64.1533 70.9186 64.5 71.9453 64.5C72.5853 64.5 73.1253 64.3267 73.5653 63.98C74.0186 63.62 74.3253 63.0733 74.4853 62.34L77.6053 63.22ZM84.4586 60.66C84.4586 60.1933 84.3253 59.8267 84.0586 59.56C83.8053 59.28 83.4586 59.14 83.0186 59.14C82.5786 59.14 82.1986 59.2533 81.8786 59.48C81.5719 59.6933 81.3586 60.08 81.2386 60.64L78.3586 59.96C78.5453 59 79.0386 58.2333 79.8386 57.66C80.6386 57.0867 81.7653 56.8 83.2186 56.8C84.6853 56.8 85.8186 57.1267 86.6186 57.78C87.4319 58.42 87.8386 59.36 87.8386 60.6V64.26C87.8386 64.78 88.0719 65.04 88.5386 65.04C88.7786 65.04 88.9719 65.0133 89.1186 64.96L88.9186 66.9C88.5186 67.0867 88.0319 67.18 87.4586 67.18C86.8319 67.18 86.2919 67.06 85.8386 66.82C85.3853 66.5667 85.0786 66.1867 84.9186 65.68C84.6386 66.2 84.1919 66.5867 83.5786 66.84C82.9786 67.08 82.3386 67.2 81.6586 67.2C80.6319 67.2 79.8119 66.9667 79.1986 66.5C78.5986 66.02 78.2986 65.3333 78.2986 64.44C78.2986 63.72 78.5119 63.1267 78.9386 62.66C79.3786 62.18 80.0653 61.8467 80.9986 61.66L84.4586 60.94V60.66ZM81.6586 64.12C81.6586 64.4133 81.7653 64.6333 81.9786 64.78C82.1919 64.9267 82.4453 65 82.7386 65C83.1919 65 83.5919 64.8667 83.9386 64.6C84.2853 64.32 84.4586 63.8867 84.4586 63.3V62.74L82.8386 63.08C82.4386 63.16 82.1386 63.28 81.9386 63.44C81.7519 63.5867 81.6586 63.8133 81.6586 64.12ZM90.0606 67V57H93.1006L93.2006 59.02C93.5073 58.2867 93.954 57.7333 94.5406 57.36C95.1273 56.9867 95.8206 56.8 96.6206 56.8C97.6473 56.8 98.4806 57.1 99.1206 57.7C99.7606 58.3 100.081 59.18 100.081 60.34V67H96.6806V61.24C96.6806 60.5467 96.5473 60.0667 96.2806 59.8C96.014 59.5333 95.674 59.4 95.2606 59.4C94.7673 59.4 94.3406 59.5733 93.9806 59.92C93.634 60.2667 93.4606 60.86 93.4606 61.7V67H90.0606ZM111.066 53.8V67H107.626V53.8H111.066ZM122.355 53.8V67H118.915V53.8H122.355ZM124.604 67V57H127.644L127.744 58.94C128.064 58.2333 128.51 57.7 129.084 57.34C129.67 56.98 130.344 56.8 131.104 56.8C131.837 56.8 132.477 56.9667 133.024 57.3C133.584 57.6333 133.997 58.1267 134.264 58.78C134.57 58.1267 135.024 57.6333 135.624 57.3C136.237 56.9667 136.904 56.8 137.624 56.8C138.61 56.8 139.424 57.1 140.064 57.7C140.717 58.2867 141.044 59.1667 141.044 60.34V67H137.644V61.12C137.644 60.48 137.517 60.0333 137.264 59.78C137.01 59.5267 136.684 59.4 136.284 59.4C135.777 59.4 135.357 59.5933 135.024 59.98C134.69 60.3533 134.524 60.9133 134.524 61.66V67H131.124V61.12C131.124 60.48 130.997 60.0333 130.744 59.78C130.49 59.5267 130.164 59.4 129.764 59.4C129.297 59.4 128.884 59.58 128.524 59.94C128.177 60.3 128.004 60.8933 128.004 61.72V67H124.604ZM143.032 71.2V57H146.092L146.192 59.02C146.472 58.3533 146.892 57.82 147.452 57.42C148.025 57.0067 148.698 56.8 149.472 56.8C150.698 56.8 151.685 57.2533 152.432 58.16C153.192 59.0667 153.572 60.3333 153.572 61.96C153.572 63.6133 153.185 64.9 152.412 65.82C151.652 66.74 150.658 67.2 149.432 67.2C148.712 67.2 148.098 67.0267 147.592 66.68C147.085 66.32 146.698 65.8533 146.432 65.28V71.2H143.032ZM148.272 64.7C148.858 64.7 149.318 64.4867 149.652 64.06C149.985 63.62 150.152 62.9333 150.152 62C150.152 61.0667 149.985 60.3867 149.652 59.96C149.332 59.52 148.878 59.3 148.292 59.3C147.718 59.3 147.265 59.5333 146.932 60C146.598 60.4533 146.432 61.12 146.432 62C146.432 62.84 146.592 63.5 146.912 63.98C147.232 64.46 147.685 64.7 148.272 64.7ZM159.931 56.8C160.984 56.8 161.904 57.0067 162.691 57.42C163.491 57.8333 164.111 58.4267 164.551 59.2C165.004 59.9733 165.231 60.9067 165.231 62C165.231 63.0933 165.004 64.0267 164.551 64.8C164.111 65.5733 163.491 66.1667 162.691 66.58C161.904 66.9933 160.984 67.2 159.931 67.2C158.891 67.2 157.971 66.9933 157.171 66.58C156.384 66.1667 155.764 65.5733 155.311 64.8C154.871 64.0267 154.651 63.0933 154.651 62C154.651 60.9067 154.871 59.9733 155.311 59.2C155.764 58.4267 156.384 57.8333 157.171 57.42C157.971 57.0067 158.891 56.8 159.931 56.8ZM159.931 59.22C159.344 59.22 158.884 59.44 158.551 59.88C158.231 60.3067 158.071 61.0133 158.071 62C158.071 62.9733 158.231 63.68 158.551 64.12C158.884 64.56 159.344 64.78 159.931 64.78C160.531 64.78 160.991 64.56 161.311 64.12C161.644 63.68 161.811 62.9733 161.811 62C161.811 61.0133 161.644 60.3067 161.311 59.88C160.991 59.44 160.531 59.22 159.931 59.22ZM166.743 67V57H169.743L169.883 59.16C170.123 58.4267 170.49 57.8533 170.983 57.44C171.49 57.0133 172.137 56.8 172.923 56.8C173.177 56.8 173.39 56.8267 173.563 56.88C173.75 56.92 173.897 56.9667 174.003 57.02L173.663 59.82C173.53 59.78 173.357 59.74 173.143 59.7C172.943 59.66 172.697 59.64 172.403 59.64C171.79 59.64 171.257 59.8333 170.803 60.22C170.363 60.6067 170.143 61.1867 170.143 61.96V67H166.743ZM181.863 57V59.42H178.883V63.44C178.883 63.92 178.996 64.2667 179.223 64.48C179.463 64.68 179.789 64.78 180.203 64.78C180.523 64.78 180.796 64.7467 181.023 64.68C181.249 64.6 181.463 64.4867 181.663 64.34L182.023 66.44C181.689 66.6667 181.263 66.8533 180.743 67C180.236 67.1333 179.723 67.2 179.203 67.2C178.056 67.2 177.149 66.96 176.483 66.48C175.829 65.9867 175.496 65.16 175.483 64V59.42H173.763V57H175.483V54.76L178.883 53.82V57H181.863ZM188.356 67V57H191.396L191.496 58.94C191.816 58.2333 192.263 57.7 192.836 57.34C193.423 56.98 194.096 56.8 194.856 56.8C195.589 56.8 196.229 56.9667 196.776 57.3C197.336 57.6333 197.749 58.1267 198.016 58.78C198.323 58.1267 198.776 57.6333 199.376 57.3C199.989 56.9667 200.656 56.8 201.376 56.8C202.363 56.8 203.176 57.1 203.816 57.7C204.469 58.2867 204.796 59.1667 204.796 60.34V67H201.396V61.12C201.396 60.48 201.269 60.0333 201.016 59.78C200.763 59.5267 200.436 59.4 200.036 59.4C199.529 59.4 199.109 59.5933 198.776 59.98C198.443 60.3533 198.276 60.9133 198.276 61.66V67H194.876V61.12C194.876 60.48 194.749 60.0333 194.496 59.78C194.243 59.5267 193.916 59.4 193.516 59.4C193.049 59.4 192.636 59.58 192.276 59.94C191.929 60.3 191.756 60.8933 191.756 61.72V67H188.356ZM216.414 57L212.774 67C212.401 68.0533 211.994 68.8933 211.554 69.52C211.114 70.16 210.594 70.6133 209.994 70.88C209.394 71.16 208.674 71.3 207.834 71.3C207.261 71.3 206.741 71.24 206.274 71.12C205.821 71 205.421 70.8333 205.074 70.62L205.754 68.32C205.994 68.4933 206.248 68.6133 206.514 68.68C206.781 68.76 207.121 68.8 207.534 68.8C207.921 68.8 208.234 68.7333 208.474 68.6C208.728 68.48 208.928 68.2267 209.074 67.84L209.334 67.22L208.174 64.5L205.174 57H208.914L210.454 62.7L210.934 64.82L211.494 62.62L213.034 57H216.414ZM89.4 90.2C88.16 90.2 87.16 89.7467 86.4 88.84C85.6533 87.9333 85.28 86.6667 85.28 85.04C85.28 83.92 85.4533 82.9733 85.8 82.2C86.16 81.4133 86.6533 80.82 87.28 80.42C87.92 80.0067 88.6533 79.8 89.48 79.8C90.1867 79.8 90.7867 79.9733 91.28 80.32C91.7867 80.6667 92.1667 81.1267 92.42 81.7V75.76H95.82V90H92.78L92.66 88.04C92.38 88.7067 91.9533 89.2333 91.38 89.62C90.82 90.0067 90.16 90.2 89.4 90.2ZM90.58 87.7C91.14 87.7 91.5867 87.4667 91.92 87C92.2533 86.5333 92.42 85.8467 92.42 84.94C92.42 84.1 92.26 83.4533 91.94 83C91.62 82.5333 91.1733 82.3 90.6 82.3C90.0133 82.3 89.5467 82.52 89.2 82.96C88.8667 83.3867 88.7 84.0667 88.7 85C88.7 85.9333 88.8667 86.62 89.2 87.06C89.5333 87.4867 89.9933 87.7 90.58 87.7ZM97.8591 90V80H100.899L100.999 82.02C101.306 81.2867 101.752 80.7333 102.339 80.36C102.926 79.9867 103.619 79.8 104.419 79.8C105.446 79.8 106.279 80.1 106.919 80.7C107.559 81.3 107.879 82.18 107.879 83.34V90H104.479V84.24C104.479 83.5467 104.346 83.0667 104.079 82.8C103.812 82.5333 103.472 82.4 103.059 82.4C102.566 82.4 102.139 82.5733 101.779 82.92C101.432 83.2667 101.259 83.86 101.259 84.7V90H97.8591ZM113.541 90.2C112.301 90.2 111.301 89.7467 110.541 88.84C109.795 87.9333 109.421 86.6667 109.421 85.04C109.421 83.92 109.595 82.9733 109.941 82.2C110.301 81.4133 110.795 80.82 111.421 80.42C112.061 80.0067 112.795 79.8 113.621 79.8C114.328 79.8 114.928 79.9733 115.421 80.32C115.928 80.6667 116.308 81.1267 116.561 81.7V75.76H119.961V90H116.921L116.801 88.04C116.521 88.7067 116.095 89.2333 115.521 89.62C114.961 90.0067 114.301 90.2 113.541 90.2ZM114.721 87.7C115.281 87.7 115.728 87.4667 116.061 87C116.395 86.5333 116.561 85.8467 116.561 84.94C116.561 84.1 116.401 83.4533 116.081 83C115.761 82.5333 115.315 82.3 114.741 82.3C114.155 82.3 113.688 82.52 113.341 82.96C113.008 83.3867 112.841 84.0667 112.841 85C112.841 85.9333 113.008 86.62 113.341 87.06C113.675 87.4867 114.135 87.7 114.721 87.7ZM133.743 90.2C132.93 90.2 132.236 89.98 131.663 89.54C131.09 89.1 130.676 88.52 130.423 87.8L130.303 90H127.323V75.76H130.723V81.72C130.99 81.1467 131.383 80.6867 131.903 80.34C132.436 79.98 133.09 79.8 133.863 79.8C134.636 79.8 135.323 80.0067 135.923 80.42C136.523 80.8333 136.996 81.4333 137.343 82.22C137.69 82.9933 137.863 83.9333 137.863 85.04C137.863 86.6667 137.483 87.9333 136.723 88.84C135.963 89.7467 134.97 90.2 133.743 90.2ZM132.563 87.7C133.15 87.7 133.61 87.4867 133.943 87.06C134.276 86.62 134.443 85.9333 134.443 85C134.443 84.0667 134.276 83.3867 133.943 82.96C133.61 82.52 133.15 82.3 132.563 82.3C131.99 82.3 131.536 82.54 131.203 83.02C130.883 83.5 130.723 84.1667 130.723 85.02C130.723 85.8867 130.89 86.5533 131.223 87.02C131.556 87.4733 132.003 87.7 132.563 87.7ZM144.342 90.2C142.676 90.2 141.356 89.7467 140.382 88.84C139.422 87.9333 138.942 86.6533 138.942 85C138.942 83.9067 139.162 82.9733 139.602 82.2C140.056 81.4133 140.669 80.82 141.442 80.42C142.229 80.0067 143.142 79.8 144.182 79.8C145.236 79.8 146.129 80.0067 146.862 80.42C147.609 80.82 148.176 81.38 148.562 82.1C148.949 82.8067 149.142 83.62 149.142 84.54C149.142 84.7933 149.129 85.04 149.102 85.28C149.089 85.5067 149.076 85.7 149.062 85.86H142.242C142.336 86.5533 142.562 87.0533 142.922 87.36C143.282 87.6533 143.756 87.8 144.342 87.8C144.849 87.8 145.249 87.7 145.542 87.5C145.849 87.3 146.076 87.02 146.222 86.66L148.942 87.56C148.756 88.1333 148.429 88.62 147.962 89.02C147.509 89.4067 146.962 89.7 146.322 89.9C145.696 90.1 145.036 90.2 144.342 90.2ZM144.182 82.18C143.102 82.18 142.462 82.8 142.262 84.04H145.922C145.776 82.8 145.196 82.18 144.182 82.18ZM160.372 80L156.732 90C156.359 91.0533 155.952 91.8933 155.512 92.52C155.072 93.16 154.552 93.6133 153.952 93.88C153.352 94.16 152.632 94.3 151.792 94.3C151.219 94.3 150.699 94.24 150.232 94.12C149.779 94 149.379 93.8333 149.032 93.62L149.712 91.32C149.952 91.4933 150.206 91.6133 150.472 91.68C150.739 91.76 151.079 91.8 151.492 91.8C151.879 91.8 152.192 91.7333 152.432 91.6C152.686 91.48 152.886 91.2267 153.032 90.84L153.292 90.22L152.132 87.5L149.132 80H152.872L154.412 85.7L154.892 87.82L155.452 85.62L156.992 80H160.372ZM165.766 79.8C166.819 79.8 167.739 80.0067 168.526 80.42C169.326 80.8333 169.946 81.4267 170.386 82.2C170.839 82.9733 171.066 83.9067 171.066 85C171.066 86.0933 170.839 87.0267 170.386 87.8C169.946 88.5733 169.326 89.1667 168.526 89.58C167.739 89.9933 166.819 90.2 165.766 90.2C164.726 90.2 163.806 89.9933 163.006 89.58C162.219 89.1667 161.599 88.5733 161.146 87.8C160.706 87.0267 160.486 86.0933 160.486 85C160.486 83.9067 160.706 82.9733 161.146 82.2C161.599 81.4267 162.219 80.8333 163.006 80.42C163.806 80.0067 164.726 79.8 165.766 79.8ZM165.766 82.22C165.179 82.22 164.719 82.44 164.386 82.88C164.066 83.3067 163.906 84.0133 163.906 85C163.906 85.9733 164.066 86.68 164.386 87.12C164.719 87.56 165.179 87.78 165.766 87.78C166.366 87.78 166.826 87.56 167.146 87.12C167.479 86.68 167.646 85.9733 167.646 85C167.646 84.0133 167.479 83.3067 167.146 82.88C166.826 82.44 166.366 82.22 165.766 82.22ZM172.579 90V80H175.619L175.719 82.02C176.025 81.2867 176.472 80.7333 177.059 80.36C177.645 79.9867 178.339 79.8 179.139 79.8C180.165 79.8 180.999 80.1 181.639 80.7C182.279 81.3 182.599 82.18 182.599 83.34V90H179.199V84.24C179.199 83.5467 179.065 83.0667 178.799 82.8C178.532 82.5333 178.192 82.4 177.779 82.4C177.285 82.4 176.859 82.5733 176.499 82.92C176.152 83.2667 175.979 83.86 175.979 84.7V90H172.579ZM188.261 90.2C187.021 90.2 186.021 89.7467 185.261 88.84C184.514 87.9333 184.141 86.6667 184.141 85.04C184.141 83.92 184.314 82.9733 184.661 82.2C185.021 81.4133 185.514 80.82 186.141 80.42C186.781 80.0067 187.514 79.8 188.341 79.8C189.048 79.8 189.648 79.9733 190.141 80.32C190.648 80.6667 191.028 81.1267 191.281 81.7V75.76H194.681V90H191.641L191.521 88.04C191.241 88.7067 190.814 89.2333 190.241 89.62C189.681 90.0067 189.021 90.2 188.261 90.2ZM189.441 87.7C190.001 87.7 190.448 87.4667 190.781 87C191.114 86.5333 191.281 85.8467 191.281 84.94C191.281 84.1 191.121 83.4533 190.801 83C190.481 82.5333 190.034 82.3 189.461 82.3C188.874 82.3 188.408 82.52 188.061 82.96C187.728 83.3867 187.561 84.0667 187.561 85C187.561 85.9333 187.728 86.62 188.061 87.06C188.394 87.4867 188.854 87.7 189.441 87.7ZM60.1561 102.8C61.1694 102.8 62.0094 102.947 62.6761 103.24C63.3561 103.533 63.8828 103.913 64.2561 104.38C64.6294 104.847 64.8694 105.353 64.9761 105.9L61.8361 106.94C61.7561 106.367 61.5894 105.94 61.3361 105.66C61.0828 105.367 60.7228 105.22 60.2561 105.22C59.6161 105.22 59.1294 105.447 58.7961 105.9C58.4761 106.353 58.3161 107.067 58.3161 108.04C58.3161 109.027 58.4894 109.733 58.8361 110.16C59.1961 110.573 59.6761 110.78 60.2761 110.78C61.2228 110.78 61.7761 110.24 61.9361 109.16L64.9961 110.14C64.8494 111.007 64.3628 111.733 63.5361 112.32C62.7228 112.907 61.6428 113.2 60.2961 113.2C58.6561 113.2 57.3428 112.747 56.3561 111.84C55.3828 110.92 54.8961 109.64 54.8961 108C54.8961 106.907 55.1161 105.973 55.5561 105.2C56.0094 104.427 56.6294 103.833 57.4161 103.42C58.2028 103.007 59.1161 102.8 60.1561 102.8ZM66.3637 113V98.76H69.7637V104.82C70.0571 104.153 70.4771 103.653 71.0237 103.32C71.5704 102.973 72.2037 102.8 72.9237 102.8C73.9504 102.8 74.7837 103.1 75.4237 103.7C76.0637 104.3 76.3837 105.18 76.3837 106.34V113H72.9837V107.28C72.9837 106.56 72.8504 106.067 72.5837 105.8C72.3304 105.52 71.9904 105.38 71.5637 105.38C71.0837 105.38 70.6637 105.567 70.3037 105.94C69.9437 106.3 69.7637 106.9 69.7637 107.74V113H66.3637ZM83.9461 106.66C83.9461 106.193 83.8128 105.827 83.5461 105.56C83.2928 105.28 82.9461 105.14 82.5061 105.14C82.0661 105.14 81.6861 105.253 81.3661 105.48C81.0594 105.693 80.8461 106.08 80.7261 106.64L77.8461 105.96C78.0328 105 78.5261 104.233 79.3261 103.66C80.1261 103.087 81.2528 102.8 82.7061 102.8C84.1728 102.8 85.3061 103.127 86.1061 103.78C86.9194 104.42 87.3261 105.36 87.3261 106.6V110.26C87.3261 110.78 87.5594 111.04 88.0261 111.04C88.2661 111.04 88.4594 111.013 88.6061 110.96L88.4061 112.9C88.0061 113.087 87.5194 113.18 86.9461 113.18C86.3194 113.18 85.7794 113.06 85.3261 112.82C84.8728 112.567 84.5661 112.187 84.4061 111.68C84.1261 112.2 83.6794 112.587 83.0661 112.84C82.4661 113.08 81.8261 113.2 81.1461 113.2C80.1194 113.2 79.2994 112.967 78.6861 112.5C78.0861 112.02 77.7861 111.333 77.7861 110.44C77.7861 109.72 77.9994 109.127 78.4261 108.66C78.8661 108.18 79.5528 107.847 80.4861 107.66L83.9461 106.94V106.66ZM81.1461 110.12C81.1461 110.413 81.2528 110.633 81.4661 110.78C81.6794 110.927 81.9328 111 82.2261 111C82.6794 111 83.0794 110.867 83.4261 110.6C83.7728 110.32 83.9461 109.887 83.9461 109.3V108.74L82.3261 109.08C81.9261 109.16 81.6261 109.28 81.4261 109.44C81.2394 109.587 81.1461 109.813 81.1461 110.12ZM89.5481 113V103H92.5481L92.6881 105.16C92.9281 104.427 93.2948 103.853 93.7881 103.44C94.2948 103.013 94.9415 102.8 95.7281 102.8C95.9815 102.8 96.1948 102.827 96.3681 102.88C96.5548 102.92 96.7015 102.967 96.8081 103.02L96.4681 105.82C96.3348 105.78 96.1615 105.74 95.9481 105.7C95.7481 105.66 95.5015 105.64 95.2081 105.64C94.5948 105.64 94.0615 105.833 93.6081 106.22C93.1681 106.607 92.9481 107.187 92.9481 107.96V113H89.5481ZM103.205 106.66C103.205 106.193 103.071 105.827 102.805 105.56C102.551 105.28 102.205 105.14 101.765 105.14C101.325 105.14 100.945 105.253 100.625 105.48C100.318 105.693 100.105 106.08 99.9847 106.64L97.1047 105.96C97.2914 105 97.7847 104.233 98.5847 103.66C99.3847 103.087 100.511 102.8 101.965 102.8C103.431 102.8 104.565 103.127 105.365 103.78C106.178 104.42 106.585 105.36 106.585 106.6V110.26C106.585 110.78 106.818 111.04 107.285 111.04C107.525 111.04 107.718 111.013 107.865 110.96L107.665 112.9C107.265 113.087 106.778 113.18 106.205 113.18C105.578 113.18 105.038 113.06 104.585 112.82C104.131 112.567 103.825 112.187 103.665 111.68C103.385 112.2 102.938 112.587 102.325 112.84C101.725 113.08 101.085 113.2 100.405 113.2C99.378 113.2 98.558 112.967 97.9447 112.5C97.3447 112.02 97.0447 111.333 97.0447 110.44C97.0447 109.72 97.258 109.127 97.6847 108.66C98.1247 108.18 98.8114 107.847 99.7447 107.66L103.205 106.94V106.66ZM100.405 110.12C100.405 110.413 100.511 110.633 100.725 110.78C100.938 110.927 101.191 111 101.485 111C101.938 111 102.338 110.867 102.685 110.6C103.031 110.32 103.205 109.887 103.205 109.3V108.74L101.585 109.08C101.185 109.16 100.885 109.28 100.685 109.44C100.498 109.587 100.405 109.813 100.405 110.12ZM113.469 102.8C114.482 102.8 115.322 102.947 115.989 103.24C116.669 103.533 117.195 103.913 117.569 104.38C117.942 104.847 118.182 105.353 118.289 105.9L115.149 106.94C115.069 106.367 114.902 105.94 114.649 105.66C114.395 105.367 114.035 105.22 113.569 105.22C112.929 105.22 112.442 105.447 112.109 105.9C111.789 106.353 111.629 107.067 111.629 108.04C111.629 109.027 111.802 109.733 112.149 110.16C112.509 110.573 112.989 110.78 113.589 110.78C114.535 110.78 115.089 110.24 115.249 109.16L118.309 110.14C118.162 111.007 117.675 111.733 116.849 112.32C116.035 112.907 114.955 113.2 113.609 113.2C111.969 113.2 110.655 112.747 109.669 111.84C108.695 110.92 108.209 109.64 108.209 108C108.209 106.907 108.429 105.973 108.869 105.2C109.322 104.427 109.942 103.833 110.729 103.42C111.515 103.007 112.429 102.8 113.469 102.8ZM126.836 103V105.42H123.856V109.44C123.856 109.92 123.97 110.267 124.196 110.48C124.436 110.68 124.763 110.78 125.176 110.78C125.496 110.78 125.77 110.747 125.996 110.68C126.223 110.6 126.436 110.487 126.636 110.34L126.996 112.44C126.663 112.667 126.236 112.853 125.716 113C125.21 113.133 124.696 113.2 124.176 113.2C123.03 113.2 122.123 112.96 121.456 112.48C120.803 111.987 120.47 111.16 120.456 110V105.42H118.736V103H120.456V100.76L123.856 99.82V103H126.836ZM132.887 113.2C131.22 113.2 129.9 112.747 128.927 111.84C127.967 110.933 127.487 109.653 127.487 108C127.487 106.907 127.707 105.973 128.147 105.2C128.6 104.413 129.213 103.82 129.987 103.42C130.773 103.007 131.687 102.8 132.727 102.8C133.78 102.8 134.673 103.007 135.407 103.42C136.153 103.82 136.72 104.38 137.107 105.1C137.493 105.807 137.687 106.62 137.687 107.54C137.687 107.793 137.673 108.04 137.647 108.28C137.633 108.507 137.62 108.7 137.607 108.86H130.787C130.88 109.553 131.107 110.053 131.467 110.36C131.827 110.653 132.3 110.8 132.887 110.8C133.393 110.8 133.793 110.7 134.087 110.5C134.393 110.3 134.62 110.02 134.767 109.66L137.487 110.56C137.3 111.133 136.973 111.62 136.507 112.02C136.053 112.407 135.507 112.7 134.867 112.9C134.24 113.1 133.58 113.2 132.887 113.2ZM132.727 105.18C131.647 105.18 131.007 105.8 130.807 107.04H134.467C134.32 105.8 133.74 105.18 132.727 105.18ZM139.189 113V103H142.189L142.329 105.16C142.569 104.427 142.935 103.853 143.429 103.44C143.935 103.013 144.582 102.8 145.369 102.8C145.622 102.8 145.835 102.827 146.009 102.88C146.195 102.92 146.342 102.967 146.449 103.02L146.109 105.82C145.975 105.78 145.802 105.74 145.589 105.7C145.389 105.66 145.142 105.64 144.849 105.64C144.235 105.64 143.702 105.833 143.249 106.22C142.809 106.607 142.589 107.187 142.589 107.96V113H139.189ZM156.612 113.2C155.612 113.2 154.686 113.04 153.832 112.72C152.979 112.387 152.266 111.913 151.692 111.3L153.292 109.42C153.626 109.847 154.066 110.207 154.612 110.5C155.172 110.78 155.792 110.92 156.472 110.92C156.886 110.92 157.226 110.86 157.492 110.74C157.759 110.62 157.892 110.433 157.892 110.18C157.892 110.007 157.826 109.86 157.692 109.74C157.559 109.62 157.292 109.52 156.892 109.44L155.492 109.16C154.239 108.907 153.346 108.533 152.812 108.04C152.292 107.533 152.032 106.873 152.032 106.06C152.032 105.513 152.199 104.993 152.532 104.5C152.866 104.007 153.379 103.6 154.072 103.28C154.766 102.96 155.652 102.8 156.732 102.8C158.799 102.8 160.306 103.373 161.252 104.52L159.632 106.36C159.312 105.96 158.899 105.647 158.392 105.42C157.886 105.193 157.379 105.08 156.872 105.08C155.899 105.08 155.412 105.327 155.412 105.82C155.412 105.993 155.492 106.147 155.652 106.28C155.826 106.413 156.139 106.52 156.592 106.6L158.412 106.96C159.439 107.16 160.179 107.507 160.632 108C161.086 108.48 161.312 109.067 161.312 109.76C161.312 110.733 160.919 111.553 160.132 112.22C159.359 112.873 158.186 113.2 156.612 113.2ZM162.676 113V98.76H166.076V104.82C166.37 104.153 166.79 103.653 167.336 103.32C167.883 102.973 168.516 102.8 169.236 102.8C170.263 102.8 171.096 103.1 171.736 103.7C172.376 104.3 172.696 105.18 172.696 106.34V113H169.296V107.28C169.296 106.56 169.163 106.067 168.896 105.8C168.643 105.52 168.303 105.38 167.876 105.38C167.396 105.38 166.976 105.567 166.616 105.94C166.256 106.3 166.076 106.9 166.076 107.74V113H162.676ZM179.559 113.2C177.892 113.2 176.572 112.747 175.599 111.84C174.639 110.933 174.159 109.653 174.159 108C174.159 106.907 174.379 105.973 174.819 105.2C175.272 104.413 175.885 103.82 176.659 103.42C177.445 103.007 178.359 102.8 179.399 102.8C180.452 102.8 181.345 103.007 182.079 103.42C182.825 103.82 183.392 104.38 183.779 105.1C184.165 105.807 184.359 106.62 184.359 107.54C184.359 107.793 184.345 108.04 184.319 108.28C184.305 108.507 184.292 108.7 184.279 108.86H177.459C177.552 109.553 177.779 110.053 178.139 110.36C178.499 110.653 178.972 110.8 179.559 110.8C180.065 110.8 180.465 110.7 180.759 110.5C181.065 110.3 181.292 110.02 181.439 109.66L184.159 110.56C183.972 111.133 183.645 111.62 183.179 112.02C182.725 112.407 182.179 112.7 181.539 112.9C180.912 113.1 180.252 113.2 179.559 113.2ZM179.399 105.18C178.319 105.18 177.679 105.8 177.479 107.04H181.139C180.992 105.8 180.412 105.18 179.399 105.18ZM190.741 113.2C189.074 113.2 187.754 112.747 186.781 111.84C185.821 110.933 185.341 109.653 185.341 108C185.341 106.907 185.561 105.973 186.001 105.2C186.454 104.413 187.067 103.82 187.841 103.42C188.627 103.007 189.541 102.8 190.581 102.8C191.634 102.8 192.527 103.007 193.261 103.42C194.007 103.82 194.574 104.38 194.961 105.1C195.347 105.807 195.541 106.62 195.541 107.54C195.541 107.793 195.527 108.04 195.501 108.28C195.487 108.507 195.474 108.7 195.461 108.86H188.641C188.734 109.553 188.961 110.053 189.321 110.36C189.681 110.653 190.154 110.8 190.741 110.8C191.247 110.8 191.647 110.7 191.941 110.5C192.247 110.3 192.474 110.02 192.621 109.66L195.341 110.56C195.154 111.133 194.827 111.62 194.361 112.02C193.907 112.407 193.361 112.7 192.721 112.9C192.094 113.1 191.434 113.2 190.741 113.2ZM190.581 105.18C189.501 105.18 188.861 105.8 188.661 107.04H192.321C192.174 105.8 191.594 105.18 190.581 105.18ZM204.085 103V105.42H201.105V109.44C201.105 109.92 201.219 110.267 201.445 110.48C201.685 110.68 202.012 110.78 202.425 110.78C202.745 110.78 203.019 110.747 203.245 110.68C203.472 110.6 203.685 110.487 203.885 110.34L204.245 112.44C203.912 112.667 203.485 112.853 202.965 113C202.459 113.133 201.945 113.2 201.425 113.2C200.279 113.2 199.372 112.96 198.705 112.48C198.052 111.987 197.719 111.16 197.705 110V105.42H195.985V103H197.705V100.76L201.105 99.82V103H204.085ZM209.456 113.2C208.456 113.2 207.529 113.04 206.676 112.72C205.823 112.387 205.109 111.913 204.536 111.3L206.136 109.42C206.469 109.847 206.909 110.207 207.456 110.5C208.016 110.78 208.636 110.92 209.316 110.92C209.729 110.92 210.069 110.86 210.336 110.74C210.603 110.62 210.736 110.433 210.736 110.18C210.736 110.007 210.669 109.86 210.536 109.74C210.403 109.62 210.136 109.52 209.736 109.44L208.336 109.16C207.083 108.907 206.189 108.533 205.656 108.04C205.136 107.533 204.876 106.873 204.876 106.06C204.876 105.513 205.043 104.993 205.376 104.5C205.709 104.007 206.223 103.6 206.916 103.28C207.609 102.96 208.496 102.8 209.576 102.8C211.643 102.8 213.149 103.373 214.096 104.52L212.476 106.36C212.156 105.96 211.743 105.647 211.236 105.42C210.729 105.193 210.223 105.08 209.716 105.08C208.743 105.08 208.256 105.327 208.256 105.82C208.256 105.993 208.336 106.147 208.496 106.28C208.669 106.413 208.983 106.52 209.436 106.6L211.256 106.96C212.283 107.16 213.023 107.507 213.476 108C213.929 108.48 214.156 109.067 214.156 109.76C214.156 110.733 213.763 111.553 212.976 112.22C212.203 112.873 211.029 113.2 209.456 113.2ZM219.815 99.6C220.789 99.6 221.662 99.74 222.435 100.02C223.222 100.287 223.835 100.693 224.275 101.24C224.729 101.787 224.955 102.467 224.955 103.28C224.955 104.107 224.782 104.78 224.435 105.3C224.102 105.82 223.642 106.213 223.055 106.48C222.482 106.747 221.849 106.92 221.155 107L220.955 108.72H217.955L217.975 105.68C219.189 105.573 220.042 105.36 220.535 105.04C221.042 104.707 221.295 104.273 221.295 103.74C221.295 103.313 221.155 102.98 220.875 102.74C220.595 102.487 220.162 102.36 219.575 102.36C218.415 102.36 217.749 103.033 217.575 104.38L214.295 103.24C214.455 102.547 214.755 101.927 215.195 101.38C215.635 100.833 216.235 100.4 216.995 100.08C217.755 99.76 218.695 99.6 219.815 99.6ZM219.515 109.78C220.115 109.78 220.582 109.933 220.915 110.24C221.262 110.533 221.435 110.94 221.435 111.46C221.435 111.993 221.262 112.413 220.915 112.72C220.582 113.013 220.115 113.16 219.515 113.16C218.902 113.16 218.422 113.013 218.075 112.72C217.742 112.413 217.575 111.993 217.575 111.46C217.575 110.94 217.742 110.533 218.075 110.24C218.422 109.933 218.902 109.78 219.515 109.78Z" fill="black"/>
<path d="M45.94 181L49 167.8H50.92L54.2 176.6L55.06 179.24H55.08L55.5 177.12L57.66 167.8H59.18L56.12 181H54.22L50.88 172.16L50.06 169.56H50.04L49.62 171.68L47.46 181H45.94ZM64.4392 181.18C63.4792 181.18 62.6592 180.98 61.9792 180.58C61.3126 180.167 60.7992 179.62 60.4392 178.94C60.0926 178.247 59.9192 177.493 59.9192 176.68C59.9192 175.533 60.1392 174.52 60.5792 173.64C61.0192 172.76 61.6259 172.073 62.3992 171.58C63.1726 171.073 64.0659 170.82 65.0792 170.82C66.0526 170.82 66.8726 171.027 67.5392 171.44C68.2059 171.84 68.7126 172.38 69.0592 173.06C69.4059 173.727 69.5792 174.473 69.5792 175.3C69.5792 176.433 69.3592 177.447 68.9192 178.34C68.4926 179.22 67.8926 179.913 67.1192 180.42C66.3459 180.927 65.4526 181.18 64.4392 181.18ZM64.4992 179.8C65.1526 179.8 65.7392 179.62 66.2592 179.26C66.7792 178.887 67.1926 178.367 67.4992 177.7C67.8059 177.033 67.9592 176.253 67.9592 175.36C67.9592 174.773 67.8526 174.247 67.6392 173.78C67.4392 173.3 67.1192 172.92 66.6792 172.64C66.2526 172.347 65.6992 172.2 65.0192 172.2C64.3792 172.2 63.7926 172.387 63.2592 172.76C62.7392 173.12 62.3192 173.633 61.9992 174.3C61.6926 174.953 61.5392 175.727 61.5392 176.62C61.5392 177.193 61.6459 177.727 61.8592 178.22C62.0726 178.7 62.3992 179.087 62.8392 179.38C63.2792 179.66 63.8326 179.8 64.4992 179.8ZM74.6227 181.16C73.6627 181.16 72.9227 180.88 72.4027 180.32C71.8827 179.76 71.736 178.973 71.9627 177.96L73.2427 172.38H71.2227L71.5427 171H73.5627L74.0627 168.8L75.8027 168.3L75.1627 171H78.2627L77.9427 172.38H74.8427L73.5227 178.04C73.3893 178.653 73.4693 179.093 73.7627 179.36C74.0693 179.613 74.4493 179.74 74.9027 179.74C75.236 179.74 75.5293 179.693 75.7827 179.6C76.036 179.507 76.256 179.387 76.4427 179.24L76.7627 180.56C76.4293 180.787 76.0893 180.94 75.7427 181.02C75.396 181.113 75.0227 181.16 74.6227 181.16ZM88.9083 181.16C88.1349 181.16 87.4549 180.973 86.8683 180.6C86.2816 180.227 85.8216 179.713 85.4883 179.06C85.1549 178.393 84.9883 177.627 84.9883 176.76C84.9883 175.653 85.2083 174.653 85.6483 173.76C86.0883 172.853 86.6883 172.133 87.4483 171.6C88.2216 171.067 89.1016 170.8 90.0883 170.8C90.9683 170.8 91.7083 171.027 92.3083 171.48C92.9083 171.92 93.2949 172.513 93.4683 173.26L93.9883 171H95.5883L93.2683 181H91.8683L92.2083 179.14C91.8883 179.753 91.4283 180.247 90.8283 180.62C90.2416 180.98 89.6016 181.16 88.9083 181.16ZM89.3283 179.8C89.9549 179.8 90.5349 179.593 91.0683 179.18C91.6016 178.767 92.0283 178.207 92.3483 177.5C92.6683 176.793 92.8283 176.007 92.8283 175.14C92.8283 174.233 92.5883 173.513 92.1083 172.98C91.6283 172.447 90.9883 172.18 90.1883 172.18C89.4816 172.18 88.8549 172.387 88.3083 172.8C87.7616 173.2 87.3349 173.747 87.0283 174.44C86.7216 175.12 86.5683 175.887 86.5683 176.74C86.5683 177.713 86.8016 178.467 87.2683 179C87.7483 179.533 88.4349 179.8 89.3283 179.8ZM100.513 181.16C99.5525 181.16 98.8125 180.88 98.2925 180.32C97.7725 179.76 97.6258 178.973 97.8525 177.96L99.1325 172.38H97.1125L97.4325 171H99.4525L99.9525 168.8L101.692 168.3L101.053 171H104.153L103.833 172.38H100.733L99.4125 178.04C99.2792 178.653 99.3592 179.093 99.6525 179.36C99.9592 179.613 100.339 179.74 100.793 179.74C101.126 179.74 101.419 179.693 101.673 179.6C101.926 179.507 102.146 179.387 102.333 179.24L102.653 180.56C102.319 180.787 101.979 180.94 101.633 181.02C101.286 181.113 100.913 181.16 100.513 181.16ZM114.087 181.16C113.127 181.16 112.387 180.88 111.867 180.32C111.347 179.76 111.201 178.973 111.427 177.96L112.707 172.38H110.687L111.007 171H113.027L113.527 168.8L115.267 168.3L114.627 171H117.727L117.407 172.38H114.307L112.987 178.04C112.854 178.653 112.934 179.093 113.227 179.36C113.534 179.613 113.914 179.74 114.367 179.74C114.701 179.74 114.994 179.693 115.247 179.6C115.501 179.507 115.721 179.387 115.907 179.24L116.227 180.56C115.894 180.787 115.554 180.94 115.207 181.02C114.861 181.113 114.487 181.16 114.087 181.16ZM117.654 181L121.034 166.4H122.634L121.294 172.22C121.668 171.74 122.141 171.387 122.714 171.16C123.288 170.92 123.894 170.8 124.534 170.8C125.281 170.8 125.921 170.967 126.454 171.3C127.001 171.633 127.388 172.113 127.614 172.74C127.841 173.353 127.854 174.1 127.654 174.98L126.254 181H124.654L126.054 174.96C126.254 174.093 126.168 173.42 125.794 172.94C125.434 172.447 124.861 172.2 124.074 172.2C123.141 172.2 122.374 172.507 121.774 173.12C121.174 173.72 120.741 174.593 120.474 175.74L119.254 181H117.654ZM132.987 169.08C132.667 169.08 132.407 168.987 132.207 168.8C132.007 168.6 131.907 168.347 131.907 168.04C131.907 167.627 132.027 167.3 132.267 167.06C132.52 166.807 132.82 166.68 133.167 166.68C133.487 166.68 133.747 166.78 133.947 166.98C134.147 167.167 134.247 167.413 134.247 167.72C134.247 168.133 134.12 168.467 133.867 168.72C133.627 168.96 133.333 169.08 132.987 169.08ZM133.167 171L130.847 181H129.247L131.567 171H133.167ZM138.423 181.22C137.263 181.22 136.283 180.953 135.483 180.42C134.683 179.887 134.109 179.173 133.763 178.28L135.283 177.62C135.789 179.087 136.863 179.82 138.503 179.82C139.209 179.82 139.743 179.667 140.103 179.36C140.476 179.04 140.663 178.653 140.663 178.2C140.663 177.853 140.563 177.58 140.363 177.38C140.163 177.18 139.849 177.02 139.423 176.9L137.643 176.4C136.816 176.173 136.196 175.833 135.783 175.38C135.369 174.913 135.163 174.38 135.163 173.78C135.163 173.22 135.316 172.72 135.623 172.28C135.929 171.827 136.369 171.467 136.943 171.2C137.516 170.933 138.196 170.8 138.983 170.8C139.929 170.8 140.763 171.013 141.483 171.44C142.203 171.867 142.716 172.487 143.023 173.3L141.563 174C141.376 173.44 141.049 173 140.583 172.68C140.116 172.347 139.549 172.18 138.883 172.18C138.149 172.18 137.603 172.313 137.243 172.58C136.896 172.847 136.723 173.2 136.723 173.64C136.723 174.013 136.849 174.313 137.103 174.54C137.369 174.753 137.696 174.913 138.083 175.02L140.043 175.58C140.723 175.767 141.256 176.073 141.643 176.5C142.043 176.927 142.243 177.42 142.243 177.98C142.243 178.647 142.076 179.227 141.743 179.72C141.409 180.2 140.956 180.573 140.383 180.84C139.809 181.093 139.156 181.22 138.423 181.22ZM153.845 181.16C152.885 181.16 152.145 180.88 151.625 180.32C151.105 179.76 150.959 178.973 151.185 177.96L152.465 172.38H150.445L150.765 171H152.785L153.285 168.8L155.025 168.3L154.385 171H157.485L157.165 172.38H154.065L152.745 178.04C152.612 178.653 152.692 179.093 152.985 179.36C153.292 179.613 153.672 179.74 154.125 179.74C154.459 179.74 154.752 179.693 155.005 179.6C155.259 179.507 155.479 179.387 155.665 179.24L155.985 180.56C155.652 180.787 155.312 180.94 154.965 181.02C154.619 181.113 154.245 181.16 153.845 181.16ZM161.152 169.08C160.832 169.08 160.572 168.987 160.372 168.8C160.172 168.6 160.072 168.347 160.072 168.04C160.072 167.627 160.192 167.3 160.432 167.06C160.686 166.807 160.986 166.68 161.332 166.68C161.652 166.68 161.912 166.78 162.112 166.98C162.312 167.167 162.412 167.413 162.412 167.72C162.412 168.133 162.286 168.467 162.032 168.72C161.792 168.96 161.499 169.08 161.152 169.08ZM161.332 171L159.012 181H157.412L159.732 171H161.332ZM162.168 181L164.488 171H165.888L165.648 172.44C165.995 171.893 166.468 171.487 167.068 171.22C167.668 170.94 168.315 170.8 169.008 170.8C169.742 170.8 170.368 170.98 170.888 171.34C171.422 171.687 171.782 172.187 171.968 172.84C172.395 172.16 172.948 171.653 173.628 171.32C174.308 170.973 175.028 170.8 175.788 170.8C176.508 170.8 177.122 170.967 177.628 171.3C178.148 171.633 178.515 172.113 178.728 172.74C178.942 173.367 178.942 174.127 178.728 175.02L177.348 181H175.748L177.128 175C177.328 174.12 177.262 173.433 176.928 172.94C176.595 172.447 176.062 172.2 175.328 172.2C174.462 172.2 173.742 172.467 173.168 173C172.595 173.533 172.168 174.3 171.888 175.3L170.548 181H168.948L170.348 175C170.562 174.12 170.495 173.433 170.148 172.94C169.815 172.447 169.282 172.2 168.548 172.2C167.615 172.2 166.855 172.507 166.268 173.12C165.682 173.72 165.255 174.593 164.988 175.74L163.768 181H162.168ZM185.243 181.18C184.323 181.18 183.529 180.98 182.863 180.58C182.209 180.18 181.709 179.64 181.363 178.96C181.016 178.28 180.843 177.52 180.843 176.68C180.843 175.64 181.049 174.673 181.463 173.78C181.876 172.887 182.476 172.173 183.263 171.64C184.063 171.093 185.029 170.82 186.163 170.82C186.976 170.82 187.669 170.987 188.243 171.32C188.829 171.653 189.276 172.113 189.583 172.7C189.889 173.273 190.043 173.927 190.043 174.66C190.043 175.18 189.949 175.753 189.763 176.38H182.463C182.463 176.5 182.463 176.62 182.463 176.74C182.463 177.633 182.729 178.367 183.263 178.94C183.809 179.513 184.529 179.8 185.423 179.8C186.103 179.787 186.663 179.64 187.103 179.36C187.543 179.08 187.903 178.713 188.183 178.26L189.443 179.1C189.003 179.74 188.429 180.247 187.723 180.62C187.016 180.993 186.189 181.18 185.243 181.18ZM186.063 172.2C185.103 172.2 184.349 172.473 183.803 173.02C183.269 173.567 182.896 174.22 182.683 174.98H188.463C188.476 174.847 188.483 174.72 188.483 174.6C188.483 173.88 188.269 173.3 187.843 172.86C187.416 172.42 186.823 172.2 186.063 172.2ZM192.388 181.2C192.055 181.2 191.775 181.1 191.548 180.9C191.335 180.687 191.228 180.413 191.228 180.08C191.228 179.627 191.361 179.267 191.628 179C191.895 178.733 192.215 178.6 192.588 178.6C192.921 178.6 193.195 178.707 193.408 178.92C193.635 179.12 193.748 179.387 193.748 179.72C193.748 180.173 193.615 180.533 193.348 180.8C193.095 181.067 192.775 181.2 192.388 181.2ZM50.6 190.8L49.26 196.56H56.24L57.58 190.8H59.18L56.12 204H54.52L55.9 198.06H48.92L47.54 204H45.94L49 190.8H50.6ZM64.4392 204.18C63.4792 204.18 62.6592 203.98 61.9792 203.58C61.3126 203.167 60.7992 202.62 60.4392 201.94C60.0926 201.247 59.9192 200.493 59.9192 199.68C59.9192 198.533 60.1392 197.52 60.5792 196.64C61.0192 195.76 61.6259 195.073 62.3992 194.58C63.1726 194.073 64.0659 193.82 65.0792 193.82C66.0526 193.82 66.8726 194.027 67.5392 194.44C68.2059 194.84 68.7126 195.38 69.0592 196.06C69.4059 196.727 69.5792 197.473 69.5792 198.3C69.5792 199.433 69.3592 200.447 68.9192 201.34C68.4926 202.22 67.8926 202.913 67.1192 203.42C66.3459 203.927 65.4526 204.18 64.4392 204.18ZM64.4992 202.8C65.1526 202.8 65.7392 202.62 66.2592 202.26C66.7792 201.887 67.1926 201.367 67.4992 200.7C67.8059 200.033 67.9592 199.253 67.9592 198.36C67.9592 197.773 67.8526 197.247 67.6392 196.78C67.4392 196.3 67.1192 195.92 66.6792 195.64C66.2526 195.347 65.6992 195.2 65.0192 195.2C64.3792 195.2 63.7926 195.387 63.2592 195.76C62.7392 196.12 62.3192 196.633 61.9992 197.3C61.6926 197.953 61.5392 198.727 61.5392 199.62C61.5392 200.193 61.6459 200.727 61.8592 201.22C62.0726 201.7 62.3992 202.087 62.8392 202.38C63.2792 202.66 63.8326 202.8 64.4992 202.8ZM72.0734 204L70.9934 194H72.5334L73.2934 202L77.5134 194H79.1134L80.1334 202.12L84.4534 194H86.1534L80.6334 204H79.0334L77.9334 196.06L73.6934 204H72.0734ZM90.6286 204.18C89.7086 204.18 88.9153 203.98 88.2486 203.58C87.5953 203.18 87.0953 202.64 86.7486 201.96C86.4019 201.28 86.2286 200.52 86.2286 199.68C86.2286 198.64 86.4353 197.673 86.8486 196.78C87.2619 195.887 87.8619 195.173 88.6486 194.64C89.4486 194.093 90.4153 193.82 91.5486 193.82C92.3619 193.82 93.0553 193.987 93.6286 194.32C94.2153 194.653 94.6619 195.113 94.9686 195.7C95.2753 196.273 95.4286 196.927 95.4286 197.66C95.4286 198.18 95.3353 198.753 95.1486 199.38H87.8486C87.8486 199.5 87.8486 199.62 87.8486 199.74C87.8486 200.633 88.1153 201.367 88.6486 201.94C89.1953 202.513 89.9153 202.8 90.8086 202.8C91.4886 202.787 92.0486 202.64 92.4886 202.36C92.9286 202.08 93.2886 201.713 93.5686 201.26L94.8286 202.1C94.3886 202.74 93.8153 203.247 93.1086 203.62C92.4019 203.993 91.5753 204.18 90.6286 204.18ZM91.4486 195.2C90.4886 195.2 89.7353 195.473 89.1886 196.02C88.6553 196.567 88.2819 197.22 88.0686 197.98H93.8486C93.8619 197.847 93.8686 197.72 93.8686 197.6C93.8686 196.88 93.6553 196.3 93.2286 195.86C92.8019 195.42 92.2086 195.2 91.4486 195.2ZM105 194H106.78L100.52 204H98.9005L97.1605 194H98.7405L100.04 202.22L105 194ZM111.254 204.18C110.334 204.18 109.541 203.98 108.874 203.58C108.221 203.18 107.721 202.64 107.374 201.96C107.028 201.28 106.854 200.52 106.854 199.68C106.854 198.64 107.061 197.673 107.474 196.78C107.888 195.887 108.488 195.173 109.274 194.64C110.074 194.093 111.041 193.82 112.174 193.82C112.988 193.82 113.681 193.987 114.254 194.32C114.841 194.653 115.288 195.113 115.594 195.7C115.901 196.273 116.054 196.927 116.054 197.66C116.054 198.18 115.961 198.753 115.774 199.38H108.474C108.474 199.5 108.474 199.62 108.474 199.74C108.474 200.633 108.741 201.367 109.274 201.94C109.821 202.513 110.541 202.8 111.434 202.8C112.114 202.787 112.674 202.64 113.114 202.36C113.554 202.08 113.914 201.713 114.194 201.26L115.454 202.1C115.014 202.74 114.441 203.247 113.734 203.62C113.028 203.993 112.201 204.18 111.254 204.18ZM112.074 195.2C111.114 195.2 110.361 195.473 109.814 196.02C109.281 196.567 108.908 197.22 108.694 197.98H114.474C114.488 197.847 114.494 197.72 114.494 197.6C114.494 196.88 114.281 196.3 113.854 195.86C113.428 195.42 112.834 195.2 112.074 195.2ZM117.4 204L119.72 194H121.02L120.86 195.58C121.233 195.02 121.713 194.587 122.3 194.28C122.9 193.96 123.506 193.8 124.12 193.8C124.546 193.8 124.886 193.86 125.14 193.98L124.66 195.5C124.526 195.433 124.373 195.387 124.2 195.36C124.04 195.32 123.846 195.3 123.62 195.3C122.86 195.3 122.173 195.567 121.56 196.1C120.96 196.62 120.526 197.447 120.26 198.58L119 204H117.4ZM134.344 192.08C134.024 192.08 133.764 191.987 133.564 191.8C133.364 191.6 133.264 191.347 133.264 191.04C133.264 190.627 133.384 190.3 133.624 190.06C133.877 189.807 134.177 189.68 134.524 189.68C134.844 189.68 135.104 189.78 135.304 189.98C135.504 190.167 135.604 190.413 135.604 190.72C135.604 191.133 135.477 191.467 135.224 191.72C134.984 191.96 134.69 192.08 134.344 192.08ZM134.524 194L132.204 204H130.604L132.924 194H134.524ZM135.36 204L137.68 194H139.08L138.84 195.46C139.187 194.9 139.667 194.487 140.28 194.22C140.893 193.94 141.547 193.8 142.24 193.8C143.013 193.8 143.667 193.967 144.2 194.3C144.733 194.633 145.107 195.113 145.32 195.74C145.547 196.353 145.56 197.1 145.36 197.98L143.96 204H142.36L143.76 197.96C143.96 197.093 143.873 196.42 143.5 195.94C143.14 195.447 142.567 195.2 141.78 195.2C140.847 195.2 140.08 195.507 139.48 196.12C138.88 196.72 138.447 197.593 138.18 198.74L136.96 204H135.36ZM156.96 204.16C156 204.16 155.26 203.88 154.74 203.32C154.22 202.76 154.073 201.973 154.3 200.96L155.58 195.38H153.56L153.88 194H155.9L156.4 191.8L158.14 191.3L157.5 194H160.6L160.28 195.38H157.18L155.86 201.04C155.727 201.653 155.807 202.093 156.1 202.36C156.407 202.613 156.787 202.74 157.24 202.74C157.573 202.74 157.867 202.693 158.12 202.6C158.373 202.507 158.593 202.387 158.78 202.24L159.1 203.56C158.767 203.787 158.427 203.94 158.08 204.02C157.733 204.113 157.36 204.16 156.96 204.16ZM160.527 204L163.907 189.4H165.507L164.167 195.22C164.54 194.74 165.014 194.387 165.587 194.16C166.16 193.92 166.767 193.8 167.407 193.8C168.154 193.8 168.794 193.967 169.327 194.3C169.874 194.633 170.26 195.113 170.487 195.74C170.714 196.353 170.727 197.1 170.527 197.98L169.127 204H167.527L168.927 197.96C169.127 197.093 169.04 196.42 168.667 195.94C168.307 195.447 167.734 195.2 166.947 195.2C166.014 195.2 165.247 195.507 164.647 196.12C164.047 196.72 163.614 197.593 163.347 198.74L162.127 204H160.527ZM176.922 204.18C176.002 204.18 175.208 203.98 174.542 203.58C173.888 203.18 173.388 202.64 173.042 201.96C172.695 201.28 172.522 200.52 172.522 199.68C172.522 198.64 172.728 197.673 173.142 196.78C173.555 195.887 174.155 195.173 174.942 194.64C175.742 194.093 176.708 193.82 177.842 193.82C178.655 193.82 179.348 193.987 179.922 194.32C180.508 194.653 180.955 195.113 181.262 195.7C181.568 196.273 181.722 196.927 181.722 197.66C181.722 198.18 181.628 198.753 181.442 199.38H174.142C174.142 199.5 174.142 199.62 174.142 199.74C174.142 200.633 174.408 201.367 174.942 201.94C175.488 202.513 176.208 202.8 177.102 202.8C177.782 202.787 178.342 202.64 178.782 202.36C179.222 202.08 179.582 201.713 179.862 201.26L181.122 202.1C180.682 202.74 180.108 203.247 179.402 203.62C178.695 203.993 177.868 204.18 176.922 204.18ZM177.742 195.2C176.782 195.2 176.028 195.473 175.482 196.02C174.948 196.567 174.575 197.22 174.362 197.98H180.142C180.155 197.847 180.162 197.72 180.162 197.6C180.162 196.88 179.948 196.3 179.522 195.86C179.095 195.42 178.502 195.2 177.742 195.2ZM189.795 204L191.795 195.38H189.755L190.075 194H192.115L192.535 192.14C192.761 191.153 193.161 190.433 193.735 189.98C194.321 189.527 195.075 189.3 195.995 189.3C196.368 189.3 196.715 189.347 197.035 189.44C197.355 189.52 197.601 189.633 197.775 189.78L197.235 191.08C197.115 190.987 196.941 190.907 196.715 190.84C196.488 190.773 196.248 190.74 195.995 190.74C195.435 190.74 195.001 190.873 194.695 191.14C194.388 191.407 194.161 191.88 194.015 192.56L193.695 194H196.795L196.475 195.38H193.395L191.395 204H189.795ZM200.25 204.16C199.53 204.16 198.89 204 198.33 203.68C197.783 203.347 197.383 202.873 197.13 202.26C196.89 201.633 196.87 200.887 197.07 200.02L198.47 194H200.07L198.69 199.98C198.477 200.873 198.557 201.56 198.93 202.04C199.317 202.52 199.897 202.76 200.67 202.76C202.483 202.76 203.663 201.593 204.21 199.26L205.43 194H207.03L204.71 204H203.31L203.55 202.56C203.203 203.107 202.737 203.513 202.15 203.78C201.563 204.033 200.93 204.16 200.25 204.16ZM211.943 204.16C210.983 204.16 210.243 203.88 209.723 203.32C209.203 202.76 209.056 201.973 209.283 200.96L210.563 195.38H208.543L208.863 194H210.883L211.383 191.8L213.123 191.3L212.483 194H215.583L215.263 195.38H212.163L210.843 201.04C210.71 201.653 210.79 202.093 211.083 202.36C211.39 202.613 211.77 202.74 212.223 202.74C212.556 202.74 212.85 202.693 213.103 202.6C213.356 202.507 213.576 202.387 213.763 202.24L214.083 203.56C213.75 203.787 213.41 203.94 213.063 204.02C212.716 204.113 212.343 204.16 211.943 204.16ZM219.45 204.16C218.73 204.16 218.09 204 217.53 203.68C216.983 203.347 216.583 202.873 216.33 202.26C216.09 201.633 216.07 200.887 216.27 200.02L217.67 194H219.27L217.89 199.98C217.677 200.873 217.757 201.56 218.13 202.04C218.517 202.52 219.097 202.76 219.87 202.76C221.683 202.76 222.863 201.593 223.41 199.26L224.63 194H226.23L223.91 204H222.51L222.75 202.56C222.403 203.107 221.937 203.513 221.35 203.78C220.763 204.033 220.13 204.16 219.45 204.16ZM227.063 204L229.383 194H230.683L230.523 195.58C230.896 195.02 231.376 194.587 231.963 194.28C232.563 193.96 233.17 193.8 233.783 193.8C234.21 193.8 234.55 193.86 234.803 193.98L234.323 195.5C234.19 195.433 234.036 195.387 233.863 195.36C233.703 195.32 233.51 195.3 233.283 195.3C232.523 195.3 231.836 195.567 231.223 196.1C230.623 196.62 230.19 197.447 229.923 198.58L228.663 204H227.063ZM239.004 204.18C238.084 204.18 237.291 203.98 236.624 203.58C235.971 203.18 235.471 202.64 235.124 201.96C234.778 201.28 234.604 200.52 234.604 199.68C234.604 198.64 234.811 197.673 235.224 196.78C235.638 195.887 236.238 195.173 237.024 194.64C237.824 194.093 238.791 193.82 239.924 193.82C240.738 193.82 241.431 193.987 242.004 194.32C242.591 194.653 243.038 195.113 243.344 195.7C243.651 196.273 243.804 196.927 243.804 197.66C243.804 198.18 243.711 198.753 243.524 199.38H236.224C236.224 199.5 236.224 199.62 236.224 199.74C236.224 200.633 236.491 201.367 237.024 201.94C237.571 202.513 238.291 202.8 239.184 202.8C239.864 202.787 240.424 202.64 240.864 202.36C241.304 202.08 241.664 201.713 241.944 201.26L243.204 202.1C242.764 202.74 242.191 203.247 241.484 203.62C240.778 203.993 239.951 204.18 239.004 204.18ZM239.824 195.2C238.864 195.2 238.111 195.473 237.564 196.02C237.031 196.567 236.658 197.22 236.444 197.98H242.224C242.238 197.847 242.244 197.72 242.244 197.6C242.244 196.88 242.031 196.3 241.604 195.86C241.178 195.42 240.584 195.2 239.824 195.2ZM47.6 227L46.52 217H48.06L48.82 225L53.04 217H54.64L55.66 225.12L59.98 217H61.68L56.16 227H54.56L53.46 219.06L49.22 227H47.6ZM66.1552 227.18C65.2352 227.18 64.4418 226.98 63.7752 226.58C63.1218 226.18 62.6218 225.64 62.2752 224.96C61.9285 224.28 61.7552 223.52 61.7552 222.68C61.7552 221.64 61.9618 220.673 62.3752 219.78C62.7885 218.887 63.3885 218.173 64.1752 217.64C64.9752 217.093 65.9418 216.82 67.0752 216.82C67.8885 216.82 68.5818 216.987 69.1552 217.32C69.7418 217.653 70.1885 218.113 70.4952 218.7C70.8018 219.273 70.9552 219.927 70.9552 220.66C70.9552 221.18 70.8618 221.753 70.6752 222.38H63.3752C63.3752 222.5 63.3752 222.62 63.3752 222.74C63.3752 223.633 63.6418 224.367 64.1752 224.94C64.7218 225.513 65.4418 225.8 66.3352 225.8C67.0152 225.787 67.5752 225.64 68.0152 225.36C68.4552 225.08 68.8152 224.713 69.0952 224.26L70.3552 225.1C69.9152 225.74 69.3418 226.247 68.6352 226.62C67.9285 226.993 67.1018 227.18 66.1552 227.18ZM66.9752 218.2C66.0152 218.2 65.2618 218.473 64.7152 219.02C64.1818 219.567 63.8085 220.22 63.5952 220.98H69.3752C69.3885 220.847 69.3952 220.72 69.3952 220.6C69.3952 219.88 69.1818 219.3 68.7552 218.86C68.3285 218.42 67.7352 218.2 66.9752 218.2ZM80.15 227L79.07 217H80.61L81.37 225L85.59 217H87.19L88.21 225.12L92.53 217H94.23L88.71 227H87.11L86.01 219.06L81.77 227H80.15ZM98.8252 227.18C97.8652 227.18 97.0452 226.98 96.3652 226.58C95.6985 226.167 95.1852 225.62 94.8252 224.94C94.4785 224.247 94.3052 223.493 94.3052 222.68C94.3052 221.533 94.5252 220.52 94.9652 219.64C95.4052 218.76 96.0118 218.073 96.7852 217.58C97.5585 217.073 98.4518 216.82 99.4652 216.82C100.438 216.82 101.258 217.027 101.925 217.44C102.592 217.84 103.098 218.38 103.445 219.06C103.792 219.727 103.965 220.473 103.965 221.3C103.965 222.433 103.745 223.447 103.305 224.34C102.878 225.22 102.278 225.913 101.505 226.42C100.732 226.927 99.8385 227.18 98.8252 227.18ZM98.8852 225.8C99.5385 225.8 100.125 225.62 100.645 225.26C101.165 224.887 101.578 224.367 101.885 223.7C102.192 223.033 102.345 222.253 102.345 221.36C102.345 220.773 102.238 220.247 102.025 219.78C101.825 219.3 101.505 218.92 101.065 218.64C100.638 218.347 100.085 218.2 99.4052 218.2C98.7652 218.2 98.1785 218.387 97.6452 218.76C97.1252 219.12 96.7052 219.633 96.3852 220.3C96.0785 220.953 95.9252 221.727 95.9252 222.62C95.9252 223.193 96.0318 223.727 96.2452 224.22C96.4585 224.7 96.7852 225.087 97.2252 225.38C97.6652 225.66 98.2185 225.8 98.8852 225.8ZM109.142 227.16C108.422 227.16 107.782 227 107.222 226.68C106.675 226.347 106.275 225.873 106.022 225.26C105.782 224.633 105.762 223.887 105.962 223.02L107.362 217H108.962L107.582 222.98C107.369 223.873 107.449 224.56 107.822 225.04C108.209 225.52 108.789 225.76 109.562 225.76C111.375 225.76 112.555 224.593 113.102 222.26L114.322 217H115.922L113.602 227H112.202L112.442 225.56C112.095 226.107 111.629 226.513 111.042 226.78C110.455 227.033 109.822 227.16 109.142 227.16ZM119.495 227.14C118.575 227.14 117.935 226.867 117.575 226.32C117.215 225.76 117.142 225.033 117.355 224.14L120.075 212.4H121.675L118.935 224.2C118.802 224.747 118.842 225.14 119.055 225.38C119.268 225.62 119.635 225.74 120.155 225.74C120.555 225.74 120.868 225.713 121.095 225.66L120.695 226.94C120.482 227.02 120.288 227.073 120.115 227.1C119.942 227.127 119.735 227.14 119.495 227.14ZM126.615 227.16C125.841 227.16 125.161 226.973 124.575 226.6C123.988 226.227 123.528 225.713 123.195 225.06C122.861 224.393 122.695 223.627 122.695 222.76C122.695 221.653 122.915 220.653 123.355 219.76C123.795 218.853 124.395 218.133 125.155 217.6C125.928 217.067 126.808 216.8 127.795 216.8C128.675 216.8 129.415 217.027 130.015 217.48C130.615 217.92 131.001 218.513 131.175 219.26L132.755 212.4H134.355L130.975 227H129.575L129.915 225.14C129.595 225.753 129.135 226.247 128.535 226.62C127.948 226.98 127.308 227.16 126.615 227.16ZM127.015 225.8C127.655 225.8 128.241 225.593 128.775 225.18C129.308 224.767 129.735 224.207 130.055 223.5C130.375 222.793 130.535 222.007 130.535 221.14C130.535 220.233 130.295 219.513 129.815 218.98C129.335 218.447 128.695 218.18 127.895 218.18C127.188 218.18 126.561 218.387 126.015 218.8C125.468 219.2 125.041 219.747 124.735 220.44C124.428 221.12 124.275 221.887 124.275 222.74C124.275 223.713 124.508 224.467 124.975 225C125.455 225.533 126.135 225.8 127.015 225.8ZM48.36 250.14C47.44 250.14 46.8 249.867 46.44 249.32C46.08 248.76 46.0067 248.033 46.22 247.14L48.94 235.4H50.54L47.8 247.2C47.6667 247.747 47.7067 248.14 47.92 248.38C48.1333 248.62 48.5 248.74 49.02 248.74C49.42 248.74 49.7333 248.713 49.96 248.66L49.56 249.94C49.3467 250.02 49.1533 250.073 48.98 250.1C48.8067 250.127 48.6 250.14 48.36 250.14ZM55.0147 238.08C54.6947 238.08 54.4347 237.987 54.2347 237.8C54.0347 237.6 53.9347 237.347 53.9347 237.04C53.9347 236.627 54.0547 236.3 54.2947 236.06C54.548 235.807 54.848 235.68 55.1947 235.68C55.5147 235.68 55.7747 235.78 55.9747 235.98C56.1747 236.167 56.2747 236.413 56.2747 236.72C56.2747 237.133 56.148 237.467 55.8947 237.72C55.6547 237.96 55.3614 238.08 55.0147 238.08ZM55.1947 240L52.8747 250H51.2747L53.5947 240H55.1947ZM66.7709 240L62.0309 243.94L64.6909 250H62.9509L60.7909 244.92L58.3309 246.96L57.6309 250H56.0309L59.4109 235.4H61.0109L58.8509 244.74L64.5309 240H66.7709ZM70.9606 250.18C70.0406 250.18 69.2473 249.98 68.5806 249.58C67.9273 249.18 67.4273 248.64 67.0806 247.96C66.734 247.28 66.5606 246.52 66.5606 245.68C66.5606 244.64 66.7673 243.673 67.1806 242.78C67.594 241.887 68.194 241.173 68.9806 240.64C69.7806 240.093 70.7473 239.82 71.8806 239.82C72.694 239.82 73.3873 239.987 73.9606 240.32C74.5473 240.653 74.994 241.113 75.3006 241.7C75.6073 242.273 75.7606 242.927 75.7606 243.66C75.7606 244.18 75.6673 244.753 75.4806 245.38H68.1806C68.1806 245.5 68.1806 245.62 68.1806 245.74C68.1806 246.633 68.4473 247.367 68.9806 247.94C69.5273 248.513 70.2473 248.8 71.1406 248.8C71.8206 248.787 72.3806 248.64 72.8206 248.36C73.2606 248.08 73.6206 247.713 73.9006 247.26L75.1606 248.1C74.7206 248.74 74.1473 249.247 73.4406 249.62C72.734 249.993 71.9073 250.18 70.9606 250.18ZM71.7806 241.2C70.8206 241.2 70.0673 241.473 69.5206 242.02C68.9873 242.567 68.614 243.22 68.4006 243.98H74.1806C74.194 243.847 74.2006 243.72 74.2006 243.6C74.2006 242.88 73.9873 242.3 73.5606 241.86C73.134 241.42 72.5406 241.2 71.7806 241.2ZM87.1141 250.16C86.1541 250.16 85.4141 249.88 84.8941 249.32C84.3741 248.76 84.2274 247.973 84.4541 246.96L85.7341 241.38H83.7141L84.0341 240H86.0541L86.5541 237.8L88.2941 237.3L87.6541 240H90.7541L90.4341 241.38H87.3341L86.0141 247.04C85.8807 247.653 85.9607 248.093 86.2541 248.36C86.5607 248.613 86.9407 248.74 87.3941 248.74C87.7274 248.74 88.0207 248.693 88.2741 248.6C88.5274 248.507 88.7474 248.387 88.9341 248.24L89.2541 249.56C88.9207 249.787 88.5807 249.94 88.2341 250.02C87.8874 250.113 87.5141 250.16 87.1141 250.16ZM95.7009 250.18C94.7409 250.18 93.9209 249.98 93.2409 249.58C92.5743 249.167 92.0609 248.62 91.7009 247.94C91.3543 247.247 91.1809 246.493 91.1809 245.68C91.1809 244.533 91.4009 243.52 91.8409 242.64C92.2809 241.76 92.8876 241.073 93.6609 240.58C94.4343 240.073 95.3276 239.82 96.3409 239.82C97.3143 239.82 98.1343 240.027 98.8009 240.44C99.4676 240.84 99.9743 241.38 100.321 242.06C100.668 242.727 100.841 243.473 100.841 244.3C100.841 245.433 100.621 246.447 100.181 247.34C99.7543 248.22 99.1543 248.913 98.3809 249.42C97.6076 249.927 96.7143 250.18 95.7009 250.18ZM95.7609 248.8C96.4143 248.8 97.0009 248.62 97.5209 248.26C98.0409 247.887 98.4543 247.367 98.7609 246.7C99.0676 246.033 99.2209 245.253 99.2209 244.36C99.2209 243.773 99.1143 243.247 98.9009 242.78C98.7009 242.3 98.3809 241.92 97.9409 241.64C97.5143 241.347 96.9609 241.2 96.2809 241.2C95.6409 241.2 95.0543 241.387 94.5209 241.76C94.0009 242.12 93.5809 242.633 93.2609 243.3C92.9543 243.953 92.8009 244.727 92.8009 245.62C92.8009 246.193 92.9076 246.727 93.1209 247.22C93.3343 247.7 93.6609 248.087 94.1009 248.38C94.5409 248.66 95.0943 248.8 95.7609 248.8ZM112.914 250.22C111.754 250.22 110.774 249.953 109.974 249.42C109.174 248.887 108.601 248.173 108.254 247.28L109.774 246.62C110.281 248.087 111.354 248.82 112.994 248.82C113.701 248.82 114.234 248.667 114.594 248.36C114.968 248.04 115.154 247.653 115.154 247.2C115.154 246.853 115.054 246.58 114.854 246.38C114.654 246.18 114.341 246.02 113.914 245.9L112.134 245.4C111.308 245.173 110.688 244.833 110.274 244.38C109.861 243.913 109.654 243.38 109.654 242.78C109.654 242.22 109.808 241.72 110.114 241.28C110.421 240.827 110.861 240.467 111.434 240.2C112.008 239.933 112.688 239.8 113.474 239.8C114.421 239.8 115.254 240.013 115.974 240.44C116.694 240.867 117.208 241.487 117.514 242.3L116.054 243C115.868 242.44 115.541 242 115.074 241.68C114.608 241.347 114.041 241.18 113.374 241.18C112.641 241.18 112.094 241.313 111.734 241.58C111.388 241.847 111.214 242.2 111.214 242.64C111.214 243.013 111.341 243.313 111.594 243.54C111.861 243.753 112.188 243.913 112.574 244.02L114.534 244.58C115.214 244.767 115.748 245.073 116.134 245.5C116.534 245.927 116.734 246.42 116.734 246.98C116.734 247.647 116.568 248.227 116.234 248.72C115.901 249.2 115.448 249.573 114.874 249.84C114.301 250.093 113.648 250.22 112.914 250.22ZM123.033 250.18C122.113 250.18 121.32 249.98 120.653 249.58C120 249.18 119.5 248.64 119.153 247.96C118.807 247.28 118.633 246.52 118.633 245.68C118.633 244.64 118.84 243.673 119.253 242.78C119.667 241.887 120.267 241.173 121.053 240.64C121.853 240.093 122.82 239.82 123.953 239.82C124.767 239.82 125.46 239.987 126.033 240.32C126.62 240.653 127.067 241.113 127.373 241.7C127.68 242.273 127.833 242.927 127.833 243.66C127.833 244.18 127.74 244.753 127.553 245.38H120.253C120.253 245.5 120.253 245.62 120.253 245.74C120.253 246.633 120.52 247.367 121.053 247.94C121.6 248.513 122.32 248.8 123.213 248.8C123.893 248.787 124.453 248.64 124.893 248.36C125.333 248.08 125.693 247.713 125.973 247.26L127.233 248.1C126.793 248.74 126.22 249.247 125.513 249.62C124.807 249.993 123.98 250.18 123.033 250.18ZM123.853 241.2C122.893 241.2 122.14 241.473 121.593 242.02C121.06 242.567 120.687 243.22 120.473 243.98H126.253C126.267 243.847 126.273 243.72 126.273 243.6C126.273 242.88 126.06 242.3 125.633 241.86C125.207 241.42 124.613 241.2 123.853 241.2ZM133.981 250.18C133.061 250.18 132.268 249.98 131.601 249.58C130.948 249.18 130.448 248.64 130.101 247.96C129.754 247.28 129.581 246.52 129.581 245.68C129.581 244.64 129.788 243.673 130.201 242.78C130.614 241.887 131.214 241.173 132.001 240.64C132.801 240.093 133.768 239.82 134.901 239.82C135.714 239.82 136.408 239.987 136.981 240.32C137.568 240.653 138.014 241.113 138.321 241.7C138.628 242.273 138.781 242.927 138.781 243.66C138.781 244.18 138.688 244.753 138.501 245.38H131.201C131.201 245.5 131.201 245.62 131.201 245.74C131.201 246.633 131.468 247.367 132.001 247.94C132.548 248.513 133.268 248.8 134.161 248.8C134.841 248.787 135.401 248.64 135.841 248.36C136.281 248.08 136.641 247.713 136.921 247.26L138.181 248.1C137.741 248.74 137.168 249.247 136.461 249.62C135.754 249.993 134.928 250.18 133.981 250.18ZM134.801 241.2C133.841 241.2 133.088 241.473 132.541 242.02C132.008 242.567 131.634 243.22 131.421 243.98H137.201C137.214 243.847 137.221 243.72 137.221 243.6C137.221 242.88 137.008 242.3 136.581 241.86C136.154 241.42 135.561 241.2 134.801 241.2ZM150.865 250.22C149.705 250.22 148.725 249.953 147.925 249.42C147.125 248.887 146.552 248.173 146.205 247.28L147.725 246.62C148.232 248.087 149.305 248.82 150.945 248.82C151.652 248.82 152.185 248.667 152.545 248.36C152.918 248.04 153.105 247.653 153.105 247.2C153.105 246.853 153.005 246.58 152.805 246.38C152.605 246.18 152.292 246.02 151.865 245.9L150.085 245.4C149.258 245.173 148.638 244.833 148.225 244.38C147.812 243.913 147.605 243.38 147.605 242.78C147.605 242.22 147.758 241.72 148.065 241.28C148.372 240.827 148.812 240.467 149.385 240.2C149.958 239.933 150.638 239.8 151.425 239.8C152.372 239.8 153.205 240.013 153.925 240.44C154.645 240.867 155.158 241.487 155.465 242.3L154.005 243C153.818 242.44 153.492 242 153.025 241.68C152.558 241.347 151.992 241.18 151.325 241.18C150.592 241.18 150.045 241.313 149.685 241.58C149.338 241.847 149.165 242.2 149.165 242.64C149.165 243.013 149.292 243.313 149.545 243.54C149.812 243.753 150.138 243.913 150.525 244.02L152.485 244.58C153.165 244.767 153.698 245.073 154.085 245.5C154.485 245.927 154.685 246.42 154.685 246.98C154.685 247.647 154.518 248.227 154.185 248.72C153.852 249.2 153.398 249.573 152.825 249.84C152.252 250.093 151.598 250.22 150.865 250.22ZM161.104 250.18C160.144 250.18 159.324 249.98 158.644 249.58C157.977 249.167 157.464 248.62 157.104 247.94C156.757 247.247 156.584 246.493 156.584 245.68C156.584 244.533 156.804 243.52 157.244 242.64C157.684 241.76 158.291 241.073 159.064 240.58C159.837 240.073 160.731 239.82 161.744 239.82C162.717 239.82 163.537 240.027 164.204 240.44C164.871 240.84 165.377 241.38 165.724 242.06C166.071 242.727 166.244 243.473 166.244 244.3C166.244 245.433 166.024 246.447 165.584 247.34C165.157 248.22 164.557 248.913 163.784 249.42C163.011 249.927 162.117 250.18 161.104 250.18ZM161.164 248.8C161.817 248.8 162.404 248.62 162.924 248.26C163.444 247.887 163.857 247.367 164.164 246.7C164.471 246.033 164.624 245.253 164.624 244.36C164.624 243.773 164.517 243.247 164.304 242.78C164.104 242.3 163.784 241.92 163.344 241.64C162.917 241.347 162.364 241.2 161.684 241.2C161.044 241.2 160.457 241.387 159.924 241.76C159.404 242.12 158.984 242.633 158.664 243.3C158.357 243.953 158.204 244.727 158.204 245.62C158.204 246.193 158.311 246.727 158.524 247.22C158.737 247.7 159.064 248.087 159.504 248.38C159.944 248.66 160.497 248.8 161.164 248.8ZM167.579 250L169.899 240H171.299L171.059 241.44C171.405 240.893 171.879 240.487 172.479 240.22C173.079 239.94 173.725 239.8 174.419 239.8C175.152 239.8 175.779 239.98 176.299 240.34C176.832 240.687 177.192 241.187 177.379 241.84C177.805 241.16 178.359 240.653 179.039 240.32C179.719 239.973 180.439 239.8 181.199 239.8C181.919 239.8 182.532 239.967 183.039 240.3C183.559 240.633 183.925 241.113 184.139 241.74C184.352 242.367 184.352 243.127 184.139 244.02L182.759 250H181.159L182.539 244C182.739 243.12 182.672 242.433 182.339 241.94C182.005 241.447 181.472 241.2 180.739 241.2C179.872 241.2 179.152 241.467 178.579 242C178.005 242.533 177.579 243.3 177.299 244.3L175.959 250H174.359L175.759 244C175.972 243.12 175.905 242.433 175.559 241.94C175.225 241.447 174.692 241.2 173.959 241.2C173.025 241.2 172.265 241.507 171.679 242.12C171.092 242.72 170.665 243.593 170.399 244.74L169.179 250H167.579ZM190.653 250.18C189.733 250.18 188.939 249.98 188.273 249.58C187.619 249.18 187.119 248.64 186.773 247.96C186.426 247.28 186.253 246.52 186.253 245.68C186.253 244.64 186.459 243.673 186.873 242.78C187.286 241.887 187.886 241.173 188.673 240.64C189.473 240.093 190.439 239.82 191.573 239.82C192.386 239.82 193.079 239.987 193.653 240.32C194.239 240.653 194.686 241.113 194.993 241.7C195.299 242.273 195.453 242.927 195.453 243.66C195.453 244.18 195.359 244.753 195.173 245.38H187.873C187.873 245.5 187.873 245.62 187.873 245.74C187.873 246.633 188.139 247.367 188.673 247.94C189.219 248.513 189.939 248.8 190.833 248.8C191.513 248.787 192.073 248.64 192.513 248.36C192.953 248.08 193.313 247.713 193.593 247.26L194.853 248.1C194.413 248.74 193.839 249.247 193.133 249.62C192.426 249.993 191.599 250.18 190.653 250.18ZM191.473 241.2C190.513 241.2 189.759 241.473 189.213 242.02C188.679 242.567 188.306 243.22 188.093 243.98H193.873C193.886 243.847 193.893 243.72 193.893 243.6C193.893 242.88 193.679 242.3 193.253 241.86C192.826 241.42 192.233 241.2 191.473 241.2ZM49.36 261.08C49.04 261.08 48.78 260.987 48.58 260.8C48.38 260.6 48.28 260.347 48.28 260.04C48.28 259.627 48.4 259.3 48.64 259.06C48.8933 258.807 49.1933 258.68 49.54 258.68C49.86 258.68 50.12 258.78 50.32 258.98C50.52 259.167 50.62 259.413 50.62 259.72C50.62 260.133 50.4933 260.467 50.24 260.72C50 260.96 49.7067 261.08 49.36 261.08ZM49.54 263L47.22 273H45.62L47.94 263H49.54ZM50.3762 273L52.6962 263H54.0963L53.8563 264.46C54.2029 263.9 54.6829 263.487 55.2963 263.22C55.9096 262.94 56.5629 262.8 57.2563 262.8C58.0296 262.8 58.6829 262.967 59.2163 263.3C59.7496 263.633 60.1229 264.113 60.3363 264.74C60.5629 265.353 60.5763 266.1 60.3763 266.98L58.9763 273H57.3763L58.7763 266.96C58.9763 266.093 58.8896 265.42 58.5163 264.94C58.1563 264.447 57.5829 264.2 56.7963 264.2C55.8629 264.2 55.0963 264.507 54.4963 265.12C53.8963 265.72 53.4629 266.593 53.1963 267.74L51.9763 273H50.3762ZM65.9117 273.16C64.9517 273.16 64.2117 272.88 63.6917 272.32C63.1717 271.76 63.0251 270.973 63.2517 269.96L64.5317 264.38H62.5117L62.8317 263H64.8517L65.3517 260.8L67.0917 260.3L66.4517 263H69.5517L69.2317 264.38H66.1317L64.8117 270.04C64.6784 270.653 64.7584 271.093 65.0517 271.36C65.3584 271.613 65.7384 271.74 66.1917 271.74C66.5251 271.74 66.8184 271.693 67.0717 271.6C67.3251 271.507 67.5451 271.387 67.7317 271.24L68.0517 272.56C67.7184 272.787 67.3784 272.94 67.0317 273.02C66.6851 273.113 66.3117 273.16 65.9117 273.16ZM74.3786 273.18C73.4586 273.18 72.6653 272.98 71.9986 272.58C71.3453 272.18 70.8453 271.64 70.4986 270.96C70.1519 270.28 69.9786 269.52 69.9786 268.68C69.9786 267.64 70.1853 266.673 70.5986 265.78C71.0119 264.887 71.6119 264.173 72.3986 263.64C73.1986 263.093 74.1653 262.82 75.2986 262.82C76.1119 262.82 76.8053 262.987 77.3786 263.32C77.9653 263.653 78.4119 264.113 78.7186 264.7C79.0253 265.273 79.1786 265.927 79.1786 266.66C79.1786 267.18 79.0853 267.753 78.8986 268.38H71.5986C71.5986 268.5 71.5986 268.62 71.5986 268.74C71.5986 269.633 71.8653 270.367 72.3986 270.94C72.9453 271.513 73.6653 271.8 74.5586 271.8C75.2386 271.787 75.7986 271.64 76.2386 271.36C76.6786 271.08 77.0386 270.713 77.3186 270.26L78.5786 271.1C78.1386 271.74 77.5653 272.247 76.8586 272.62C76.1519 272.993 75.3253 273.18 74.3786 273.18ZM75.1986 264.2C74.2386 264.2 73.4853 264.473 72.9386 265.02C72.4053 265.567 72.0319 266.22 71.8186 266.98H77.5986C77.6119 266.847 77.6186 266.72 77.6186 266.6C77.6186 265.88 77.4053 265.3 76.9786 264.86C76.5519 264.42 75.9586 264.2 75.1986 264.2ZM84.1639 277.3C83.0039 277.3 82.0306 277.007 81.2439 276.42C80.4572 275.833 79.9706 275.053 79.7839 274.08L81.3839 273.52C81.5306 274.267 81.8172 274.847 82.2439 275.26C82.6839 275.687 83.3639 275.9 84.2839 275.9C84.7906 275.9 85.2706 275.807 85.7239 275.62C86.1772 275.447 86.5772 275.133 86.9239 274.68C87.2706 274.24 87.5306 273.613 87.7039 272.8L88.0639 271.22C87.7439 271.7 87.3106 272.08 86.7639 272.36C86.2306 272.64 85.6372 272.78 84.9839 272.78C84.2106 272.78 83.5172 272.587 82.9039 272.2C82.2906 271.813 81.8106 271.293 81.4639 270.64C81.1172 269.973 80.9439 269.247 80.9439 268.46C80.9439 267.34 81.1639 266.36 81.6039 265.52C82.0439 264.667 82.6439 264 83.4039 263.52C84.1772 263.04 85.0439 262.8 86.0039 262.8C86.8839 262.8 87.6239 263.027 88.2239 263.48C88.8372 263.92 89.2372 264.513 89.4239 265.26L89.9439 263H91.5439L89.2039 272.98C88.8439 274.513 88.2172 275.613 87.3239 276.28C86.4306 276.96 85.3772 277.3 84.1639 277.3ZM85.4039 271.4C86.0306 271.4 86.5972 271.213 87.1039 270.84C87.6106 270.467 88.0106 269.96 88.3039 269.32C88.6106 268.667 88.7639 267.927 88.7639 267.1C88.7639 266.207 88.5239 265.5 88.0439 264.98C87.5772 264.447 86.9306 264.18 86.1039 264.18C85.4106 264.18 84.7972 264.36 84.2639 264.72C83.7306 265.067 83.3106 265.56 83.0039 266.2C82.6972 266.827 82.5439 267.567 82.5439 268.42C82.5439 269.287 82.7972 270 83.3039 270.56C83.8106 271.12 84.5106 271.4 85.4039 271.4ZM92.3895 273L94.7095 263H96.0095L95.8495 264.58C96.2229 264.02 96.7029 263.587 97.2895 263.28C97.8895 262.96 98.4962 262.8 99.1095 262.8C99.5362 262.8 99.8762 262.86 100.13 262.98L99.6495 264.5C99.5162 264.433 99.3629 264.387 99.1895 264.36C99.0295 264.32 98.8362 264.3 98.6095 264.3C97.8495 264.3 97.1629 264.567 96.5495 265.1C95.9495 265.62 95.5162 266.447 95.2495 267.58L93.9895 273H92.3895ZM103.831 273.16C103.058 273.16 102.378 272.973 101.791 272.6C101.204 272.227 100.744 271.713 100.411 271.06C100.078 270.393 99.9109 269.627 99.9109 268.76C99.9109 267.653 100.131 266.653 100.571 265.76C101.011 264.853 101.611 264.133 102.371 263.6C103.144 263.067 104.024 262.8 105.011 262.8C105.891 262.8 106.631 263.027 107.231 263.48C107.831 263.92 108.218 264.513 108.391 265.26L108.911 263H110.511L108.191 273H106.791L107.131 271.14C106.811 271.753 106.351 272.247 105.751 272.62C105.164 272.98 104.524 273.16 103.831 273.16ZM104.251 271.8C104.878 271.8 105.458 271.593 105.991 271.18C106.524 270.767 106.951 270.207 107.271 269.5C107.591 268.793 107.751 268.007 107.751 267.14C107.751 266.233 107.511 265.513 107.031 264.98C106.551 264.447 105.911 264.18 105.111 264.18C104.404 264.18 103.778 264.387 103.231 264.8C102.684 265.2 102.258 265.747 101.951 266.44C101.644 267.12 101.491 267.887 101.491 268.74C101.491 269.713 101.724 270.467 102.191 271C102.671 271.533 103.358 271.8 104.251 271.8ZM115.435 273.16C114.475 273.16 113.735 272.88 113.215 272.32C112.695 271.76 112.548 270.973 112.775 269.96L114.055 264.38H112.035L112.355 263H114.375L114.875 260.8L116.615 260.3L115.975 263H119.075L118.755 264.38H115.655L114.335 270.04C114.202 270.653 114.282 271.093 114.575 271.36C114.882 271.613 115.262 271.74 115.715 271.74C116.048 271.74 116.342 271.693 116.595 271.6C116.848 271.507 117.068 271.387 117.255 271.24L117.575 272.56C117.242 272.787 116.902 272.94 116.555 273.02C116.208 273.113 115.835 273.16 115.435 273.16ZM122.742 261.08C122.422 261.08 122.162 260.987 121.962 260.8C121.762 260.6 121.662 260.347 121.662 260.04C121.662 259.627 121.782 259.3 122.022 259.06C122.275 258.807 122.575 258.68 122.922 258.68C123.242 258.68 123.502 258.78 123.702 258.98C123.902 259.167 124.002 259.413 124.002 259.72C124.002 260.133 123.875 260.467 123.622 260.72C123.382 260.96 123.089 261.08 122.742 261.08ZM122.922 263L120.602 273H119.002L121.322 263H122.922ZM128.778 273.18C127.818 273.18 126.998 272.98 126.318 272.58C125.652 272.167 125.138 271.62 124.778 270.94C124.432 270.247 124.258 269.493 124.258 268.68C124.258 267.533 124.478 266.52 124.918 265.64C125.358 264.76 125.965 264.073 126.738 263.58C127.512 263.073 128.405 262.82 129.418 262.82C130.392 262.82 131.212 263.027 131.878 263.44C132.545 263.84 133.052 264.38 133.398 265.06C133.745 265.727 133.918 266.473 133.918 267.3C133.918 268.433 133.698 269.447 133.258 270.34C132.832 271.22 132.232 271.913 131.458 272.42C130.685 272.927 129.792 273.18 128.778 273.18ZM128.838 271.8C129.492 271.8 130.078 271.62 130.598 271.26C131.118 270.887 131.532 270.367 131.838 269.7C132.145 269.033 132.298 268.253 132.298 267.36C132.298 266.773 132.192 266.247 131.978 265.78C131.778 265.3 131.458 264.92 131.018 264.64C130.592 264.347 130.038 264.2 129.358 264.2C128.718 264.2 128.132 264.387 127.598 264.76C127.078 265.12 126.658 265.633 126.338 266.3C126.032 266.953 125.878 267.727 125.878 268.62C125.878 269.193 125.985 269.727 126.198 270.22C126.412 270.7 126.738 271.087 127.178 271.38C127.618 271.66 128.172 271.8 128.838 271.8ZM135.253 273L137.573 263H138.973L138.733 264.46C139.079 263.9 139.559 263.487 140.173 263.22C140.786 262.94 141.439 262.8 142.133 262.8C142.906 262.8 143.559 262.967 144.093 263.3C144.626 263.633 144.999 264.113 145.213 264.74C145.439 265.353 145.453 266.1 145.253 266.98L143.853 273H142.253L143.653 266.96C143.853 266.093 143.766 265.42 143.393 264.94C143.033 264.447 142.459 264.2 141.673 264.2C140.739 264.2 139.973 264.507 139.373 265.12C138.773 265.72 138.339 266.593 138.073 267.74L136.853 273H135.253ZM147.845 273.2C147.512 273.2 147.232 273.1 147.005 272.9C146.792 272.687 146.685 272.413 146.685 272.08C146.685 271.627 146.818 271.267 147.085 271C147.352 270.733 147.672 270.6 148.045 270.6C148.378 270.6 148.652 270.707 148.865 270.92C149.092 271.12 149.205 271.387 149.205 271.72C149.205 272.173 149.072 272.533 148.805 272.8C148.552 273.067 148.232 273.2 147.845 273.2Z" fill="black"/>
<defs>
<filter id="filter0_d" x="4" y="0" width="278" height="444" filterUnits="userSpaceOnUse" color-interpolation-filters="sRGB">
<feFlood flood-opacity="0" result="BackgroundImageFix"/>
<feColorMatrix in="SourceAlpha" type="matrix" values="0 0 0 0 0 0 0 0 0 0 0 0 0 0 0 0 0 0 127 0"/>
<feOffset dx="4" dy="2"/>
<feGaussianBlur stdDeviation="1"/>
<feColorMatrix type="matrix" values="0 0 0 0 0 0 0 0 0 0 0 0 0 0 0 0 0 0 0.1 0"/>
<feBlend mode="normal" in2="BackgroundImageFix" result="effect1_dropShadow"/>
<feBlend mode="normal" in="SourceGraphic" in2="effect1_dropShadow" result="shape"/>
</filter>
<filter id="filter1_bd" x="0" y="-4" width="280" height="452" filterUnits="userSpaceOnUse" color-interpolation-filters="sRGB">
<feFlood flood-opacity="0" result="BackgroundImageFix"/>
<feGaussianBlur in="BackgroundImage" stdDeviation="2"/>
<feComposite in2="SourceAlpha" operator="in" result="effect1_backgroundBlur"/>
<feColorMatrix in="SourceAlpha" type="matrix" values="0 0 0 0 0 0 0 0 0 0 0 0 0 0 0 0 0 0 127 0"/>
<feOffset dy="4"/>
<feGaussianBlur stdDeviation="2"/>
<feColorMatrix type="matrix" values="0 0 0 0 0 0 0 0 0 0 0 0 0 0 0 0 0 0 0.1 0"/>
<feBlend mode="normal" in2="effect1_backgroundBlur" result="effect2_dropShadow"/>
<feBlend mode="normal" in="SourceGraphic" in2="effect2_dropShadow" result="shape"/>
</filter>
</defs>
</svg>
