<svg width="282" height="448" viewBox="0 0 282 448" fill="none" xmlns="http://www.w3.org/2000/svg">
<g filter="url(#filter0_d)">
<g filter="url(#filter1_bd)">
<rect x="5" y="1" width="270" height="438" rx="5" fill="white" fill-opacity="0.46"/>
<rect x="4.5" y="0.5" width="271" height="439" rx="5.5" stroke="#FDFBFB"/>
</g>
</g>
<path d="M246.324 108.621C246.292 109.988 246.145 111.209 245.885 112.283C245.624 113.39 245.25 114.415 244.762 115.359C244.273 116.336 243.671 117.247 242.955 118.094C242.239 118.973 241.425 119.868 240.514 120.779L236.51 118.924C236.77 118.631 237.031 118.289 237.291 117.898C237.519 117.54 237.763 117.101 238.023 116.58C238.284 116.059 238.512 115.473 238.707 114.822C237.958 114.692 237.258 114.432 236.607 114.041C235.956 113.683 235.403 113.227 234.947 112.674C234.459 112.12 234.085 111.502 233.824 110.818C233.531 110.135 233.385 109.402 233.385 108.621C233.385 107.71 233.564 106.847 233.922 106.033C234.247 105.252 234.703 104.568 235.289 103.982C235.875 103.396 236.575 102.924 237.389 102.566C238.17 102.241 239 102.078 239.879 102.078C240.758 102.078 241.588 102.241 242.369 102.566C243.15 102.924 243.834 103.396 244.42 103.982C245.006 104.568 245.478 105.252 245.836 106.033C246.161 106.847 246.324 107.71 246.324 108.621ZM261.803 108.621C261.77 109.988 261.624 111.209 261.363 112.283C261.103 113.39 260.729 114.415 260.24 115.359C259.752 116.336 259.166 117.247 258.482 118.094C257.766 118.973 256.936 119.868 255.992 120.779L251.988 118.924C252.281 118.631 252.558 118.289 252.818 117.898C253.046 117.54 253.29 117.101 253.551 116.58C253.779 116.059 253.99 115.473 254.186 114.822C253.437 114.692 252.753 114.432 252.135 114.041C251.484 113.683 250.93 113.227 250.475 112.674C249.986 112.12 249.612 111.502 249.352 110.818C249.059 110.135 248.912 109.402 248.912 108.621C248.912 107.71 249.091 106.847 249.449 106.033C249.775 105.252 250.23 104.568 250.816 103.982C251.402 103.396 252.086 102.924 252.867 102.566C253.648 102.241 254.495 102.078 255.406 102.078C256.285 102.078 257.115 102.241 257.896 102.566C258.678 102.924 259.361 103.396 259.947 103.982C260.501 104.568 260.956 105.252 261.314 106.033C261.64 106.847 261.803 107.71 261.803 108.621Z" fill="#1298D0"/>
<path d="M42.6758 45.3789C42.7083 44.0117 42.8548 42.791 43.1152 41.7168C43.3757 40.61 43.75 39.5846 44.2383 38.6406C44.7266 37.6641 45.3288 36.7526 46.0449 35.9062C46.7611 35.0273 47.5749 34.1322 48.4863 33.2207L52.4902 35.0762C52.2298 35.3691 51.9694 35.7109 51.709 36.1016C51.4811 36.4596 51.237 36.8991 50.9766 37.4199C50.7161 37.9408 50.4883 38.5267 50.293 39.1777C51.0417 39.3079 51.7415 39.5684 52.3926 39.959C53.0436 40.3171 53.597 40.7728 54.0527 41.3262C54.541 41.8796 54.9154 42.498 55.1758 43.1816C55.4688 43.8652 55.6152 44.5977 55.6152 45.3789C55.6152 46.2904 55.4362 47.153 55.0781 47.9668C54.7526 48.748 54.2969 49.4316 53.7109 50.0176C53.125 50.6035 52.4251 51.0755 51.6113 51.4336C50.8301 51.7591 50 51.9219 49.1211 51.9219C48.2422 51.9219 47.4121 51.7591 46.6309 51.4336C45.8496 51.0755 45.166 50.6035 44.5801 50.0176C43.9941 49.4316 43.5221 48.748 43.1641 47.9668C42.8385 47.153 42.6758 46.2904 42.6758 45.3789ZM27.1973 45.3789C27.2298 44.0117 27.3763 42.791 27.6367 41.7168C27.8971 40.61 28.2715 39.5846 28.7598 38.6406C29.248 37.6641 29.834 36.7526 30.5176 35.9062C31.2337 35.0273 32.0638 34.1322 33.0078 33.2207L37.0117 35.0762C36.7188 35.3691 36.4421 35.7109 36.1816 36.1016C35.9538 36.4596 35.7096 36.8991 35.4492 37.4199C35.2214 37.9408 35.0098 38.5267 34.8145 39.1777C35.5632 39.3079 36.2467 39.5684 36.8652 39.959C37.5163 40.3171 38.0697 40.7728 38.5254 41.3262C39.0137 41.8796 39.388 42.498 39.6484 43.1816C39.9414 43.8652 40.0879 44.5977 40.0879 45.3789C40.0879 46.2904 39.9089 47.153 39.5508 47.9668C39.2253 48.748 38.7695 49.4316 38.1836 50.0176C37.5977 50.6035 36.9141 51.0755 36.1328 51.4336C35.3516 51.7591 34.5052 51.9219 33.5938 51.9219C32.7148 51.9219 31.8848 51.7591 31.1035 51.4336C30.3223 51.0755 29.6387 50.6035 29.0527 50.0176C28.4993 49.4316 28.0436 48.748 27.6855 47.9668C27.36 47.153 27.1973 46.2904 27.1973 45.3789Z" fill="#1298D0"/>
<path d="M35.66 181L36.86 175.84L34.2 167.8H35.92L37.36 172.38L37.9 174.34L39.4 172.26L42.92 167.8H44.84L38.44 175.98L37.26 181H35.66ZM47.3153 181.18C46.3953 181.18 45.602 180.98 44.9353 180.58C44.282 180.18 43.782 179.64 43.4353 178.96C43.0886 178.28 42.9153 177.52 42.9153 176.68C42.9153 175.64 43.122 174.673 43.5353 173.78C43.9486 172.887 44.5486 172.173 45.3353 171.64C46.1353 171.093 47.102 170.82 48.2353 170.82C49.0486 170.82 49.742 170.987 50.3153 171.32C50.902 171.653 51.3486 172.113 51.6553 172.7C51.962 173.273 52.1153 173.927 52.1153 174.66C52.1153 175.18 52.022 175.753 51.8353 176.38H44.5353C44.5353 176.5 44.5353 176.62 44.5353 176.74C44.5353 177.633 44.802 178.367 45.3353 178.94C45.882 179.513 46.602 179.8 47.4953 179.8C48.1753 179.787 48.7353 179.64 49.1753 179.36C49.6153 179.08 49.9753 178.713 50.2553 178.26L51.5153 179.1C51.0753 179.74 50.502 180.247 49.7953 180.62C49.0886 180.993 48.262 181.18 47.3153 181.18ZM48.1353 172.2C47.1753 172.2 46.422 172.473 45.8753 173.02C45.342 173.567 44.9686 174.22 44.7553 174.98H50.5353C50.5486 174.847 50.5553 174.72 50.5553 174.6C50.5553 173.88 50.342 173.3 49.9153 172.86C49.4886 172.42 48.8953 172.2 48.1353 172.2ZM57.8806 181.22C56.7206 181.22 55.7406 180.953 54.9406 180.42C54.1406 179.887 53.5673 179.173 53.2206 178.28L54.7406 177.62C55.2473 179.087 56.3206 179.82 57.9606 179.82C58.6673 179.82 59.2006 179.667 59.5606 179.36C59.934 179.04 60.1206 178.653 60.1206 178.2C60.1206 177.853 60.0206 177.58 59.8206 177.38C59.6206 177.18 59.3073 177.02 58.8806 176.9L57.1006 176.4C56.274 176.173 55.654 175.833 55.2406 175.38C54.8273 174.913 54.6206 174.38 54.6206 173.78C54.6206 173.22 54.774 172.72 55.0806 172.28C55.3873 171.827 55.8273 171.467 56.4006 171.2C56.974 170.933 57.654 170.8 58.4406 170.8C59.3873 170.8 60.2206 171.013 60.9406 171.44C61.6606 171.867 62.174 172.487 62.4806 173.3L61.0206 174C60.834 173.44 60.5073 173 60.0406 172.68C59.574 172.347 59.0073 172.18 58.3406 172.18C57.6073 172.18 57.0606 172.313 56.7006 172.58C56.354 172.847 56.1806 173.2 56.1806 173.64C56.1806 174.013 56.3073 174.313 56.5606 174.54C56.8273 174.753 57.154 174.913 57.5406 175.02L59.5006 175.58C60.1806 175.767 60.714 176.073 61.1006 176.5C61.5006 176.927 61.7006 177.42 61.7006 177.98C61.7006 178.647 61.534 179.227 61.2006 179.72C60.8673 180.2 60.414 180.573 59.8406 180.84C59.2673 181.093 58.614 181.22 57.8806 181.22ZM64.515 176.84L64.995 173.52L66.315 167.8H68.035L66.715 173.52L65.675 176.84H64.515ZM64.355 181.2C64.0217 181.2 63.7417 181.1 63.515 180.9C63.3017 180.687 63.195 180.413 63.195 180.08C63.195 179.627 63.3283 179.267 63.595 179C63.8617 178.733 64.1817 178.6 64.555 178.6C64.8883 178.6 65.1617 178.707 65.375 178.92C65.6017 179.12 65.715 179.387 65.715 179.72C65.715 180.173 65.5817 180.533 65.315 180.8C65.0617 181.067 64.7417 181.2 64.355 181.2ZM76.8253 179.5H84.2453L83.8853 181H74.8853L77.9453 167.8H79.5453L76.8253 179.5ZM90.5134 181.18C89.5534 181.18 88.7334 180.98 88.0534 180.58C87.3868 180.167 86.8734 179.62 86.5134 178.94C86.1668 178.247 85.9934 177.493 85.9934 176.68C85.9934 175.533 86.2134 174.52 86.6534 173.64C87.0934 172.76 87.7001 172.073 88.4734 171.58C89.2468 171.073 90.1401 170.82 91.1534 170.82C92.1268 170.82 92.9468 171.027 93.6134 171.44C94.2801 171.84 94.7868 172.38 95.1334 173.06C95.4801 173.727 95.6534 174.473 95.6534 175.3C95.6534 176.433 95.4334 177.447 94.9934 178.34C94.5668 179.22 93.9668 179.913 93.1934 180.42C92.4201 180.927 91.5268 181.18 90.5134 181.18ZM90.5734 179.8C91.2268 179.8 91.8134 179.62 92.3334 179.26C92.8534 178.887 93.2668 178.367 93.5734 177.7C93.8801 177.033 94.0334 176.253 94.0334 175.36C94.0334 174.773 93.9268 174.247 93.7134 173.78C93.5134 173.3 93.1934 172.92 92.7534 172.64C92.3268 172.347 91.7734 172.2 91.0934 172.2C90.4534 172.2 89.8668 172.387 89.3334 172.76C88.8134 173.12 88.3934 173.633 88.0734 174.3C87.7668 174.953 87.6134 175.727 87.6134 176.62C87.6134 177.193 87.7201 177.727 87.9334 178.22C88.1468 178.7 88.4734 179.087 88.9134 179.38C89.3534 179.66 89.9068 179.8 90.5734 179.8ZM96.988 181L99.308 171H100.608L100.448 172.58C100.821 172.02 101.301 171.587 101.888 171.28C102.488 170.96 103.095 170.8 103.708 170.8C104.135 170.8 104.475 170.86 104.728 170.98L104.248 172.5C104.115 172.433 103.961 172.387 103.788 172.36C103.628 172.32 103.435 172.3 103.208 172.3C102.448 172.3 101.761 172.567 101.148 173.1C100.548 173.62 100.115 174.447 99.848 175.58L98.588 181H96.988ZM108.929 181.18C108.009 181.18 107.216 180.98 106.549 180.58C105.896 180.18 105.396 179.64 105.049 178.96C104.703 178.28 104.529 177.52 104.529 176.68C104.529 175.64 104.736 174.673 105.149 173.78C105.563 172.887 106.163 172.173 106.949 171.64C107.749 171.093 108.716 170.82 109.849 170.82C110.663 170.82 111.356 170.987 111.929 171.32C112.516 171.653 112.963 172.113 113.269 172.7C113.576 173.273 113.729 173.927 113.729 174.66C113.729 175.18 113.636 175.753 113.449 176.38H106.149C106.149 176.5 106.149 176.62 106.149 176.74C106.149 177.633 106.416 178.367 106.949 178.94C107.496 179.513 108.216 179.8 109.109 179.8C109.789 179.787 110.349 179.64 110.789 179.36C111.229 179.08 111.589 178.713 111.869 178.26L113.129 179.1C112.689 179.74 112.116 180.247 111.409 180.62C110.703 180.993 109.876 181.18 108.929 181.18ZM109.749 172.2C108.789 172.2 108.036 172.473 107.489 173.02C106.956 173.567 106.583 174.22 106.369 174.98H112.149C112.163 174.847 112.169 174.72 112.169 174.6C112.169 173.88 111.956 173.3 111.529 172.86C111.103 172.42 110.509 172.2 109.749 172.2ZM126.313 181.18C125.393 181.18 124.6 180.98 123.933 180.58C123.28 180.167 122.78 179.62 122.433 178.94C122.087 178.247 121.913 177.487 121.913 176.66C121.913 175.513 122.133 174.507 122.573 173.64C123.013 172.76 123.627 172.073 124.413 171.58C125.2 171.073 126.113 170.82 127.153 170.82C128.287 170.82 129.207 171.113 129.913 171.7C130.62 172.287 131.06 173.02 131.233 173.9L129.553 174.3C129.5 173.713 129.267 173.22 128.853 172.82C128.453 172.407 127.86 172.2 127.073 172.2C126.393 172.2 125.787 172.387 125.253 172.76C124.72 173.133 124.3 173.653 123.993 174.32C123.687 174.973 123.533 175.747 123.533 176.64C123.533 177.52 123.78 178.267 124.273 178.88C124.78 179.493 125.513 179.8 126.473 179.8C126.993 179.8 127.48 179.667 127.933 179.4C128.4 179.133 128.727 178.74 128.913 178.22L130.473 178.78C130.127 179.553 129.58 180.147 128.833 180.56C128.1 180.973 127.26 181.18 126.313 181.18ZM136.057 181.16C135.284 181.16 134.604 180.973 134.017 180.6C133.431 180.227 132.971 179.713 132.637 179.06C132.304 178.393 132.137 177.627 132.137 176.76C132.137 175.653 132.357 174.653 132.797 173.76C133.237 172.853 133.837 172.133 134.597 171.6C135.371 171.067 136.251 170.8 137.237 170.8C138.117 170.8 138.857 171.027 139.457 171.48C140.057 171.92 140.444 172.513 140.617 173.26L141.137 171H142.737L140.417 181H139.017L139.357 179.14C139.037 179.753 138.577 180.247 137.977 180.62C137.391 180.98 136.751 181.16 136.057 181.16ZM136.477 179.8C137.104 179.8 137.684 179.593 138.217 179.18C138.751 178.767 139.177 178.207 139.497 177.5C139.817 176.793 139.977 176.007 139.977 175.14C139.977 174.233 139.737 173.513 139.257 172.98C138.777 172.447 138.137 172.18 137.337 172.18C136.631 172.18 136.004 172.387 135.457 172.8C134.911 173.2 134.484 173.747 134.177 174.44C133.871 175.12 133.717 175.887 133.717 176.74C133.717 177.713 133.951 178.467 134.417 179C134.897 179.533 135.584 179.8 136.477 179.8ZM143.582 181L145.902 171H147.302L147.062 172.46C147.408 171.9 147.888 171.487 148.502 171.22C149.115 170.94 149.768 170.8 150.462 170.8C151.235 170.8 151.888 170.967 152.422 171.3C152.955 171.633 153.328 172.113 153.542 172.74C153.768 173.353 153.782 174.1 153.582 174.98L152.182 181H150.582L151.982 174.96C152.182 174.093 152.095 173.42 151.722 172.94C151.362 172.447 150.788 172.2 150.002 172.2C149.068 172.2 148.302 172.507 147.702 173.12C147.102 173.72 146.668 174.593 146.402 175.74L145.182 181H143.582ZM168.313 170.84C169.033 170.84 169.679 171.013 170.253 171.36C170.826 171.707 171.273 172.213 171.593 172.88C171.926 173.533 172.093 174.333 172.093 175.28C172.093 176.387 171.866 177.393 171.413 178.3C170.973 179.193 170.366 179.9 169.593 180.42C168.833 180.94 167.966 181.2 166.993 181.2C166.059 181.2 165.299 180.96 164.713 180.48C164.126 180 163.759 179.42 163.613 178.74L163.093 181H161.493L164.873 166.4H166.473L165.033 172.6C165.339 172.093 165.786 171.673 166.373 171.34C166.959 171.007 167.606 170.84 168.313 170.84ZM166.973 179.82C167.626 179.82 168.219 179.627 168.753 179.24C169.286 178.84 169.713 178.293 170.033 177.6C170.353 176.907 170.513 176.12 170.513 175.24C170.513 174.227 170.259 173.473 169.753 172.98C169.246 172.473 168.613 172.22 167.853 172.22C167.146 172.22 166.519 172.42 165.973 172.82C165.439 173.22 165.019 173.773 164.713 174.48C164.406 175.187 164.253 175.993 164.253 176.9C164.253 177.767 164.479 178.473 164.933 179.02C165.399 179.553 166.079 179.82 166.973 179.82ZM178.317 181.18C177.397 181.18 176.604 180.98 175.937 180.58C175.284 180.18 174.784 179.64 174.437 178.96C174.09 178.28 173.917 177.52 173.917 176.68C173.917 175.64 174.124 174.673 174.537 173.78C174.95 172.887 175.55 172.173 176.337 171.64C177.137 171.093 178.104 170.82 179.237 170.82C180.05 170.82 180.744 170.987 181.317 171.32C181.904 171.653 182.35 172.113 182.657 172.7C182.964 173.273 183.117 173.927 183.117 174.66C183.117 175.18 183.024 175.753 182.837 176.38H175.537C175.537 176.5 175.537 176.62 175.537 176.74C175.537 177.633 175.804 178.367 176.337 178.94C176.884 179.513 177.604 179.8 178.497 179.8C179.177 179.787 179.737 179.64 180.177 179.36C180.617 179.08 180.977 178.713 181.257 178.26L182.517 179.1C182.077 179.74 181.504 180.247 180.797 180.62C180.09 180.993 179.264 181.18 178.317 181.18ZM179.137 172.2C178.177 172.2 177.424 172.473 176.877 173.02C176.344 173.567 175.97 174.22 175.757 174.98H181.537C181.55 174.847 181.557 174.72 181.557 174.6C181.557 173.88 181.344 173.3 180.917 172.86C180.49 172.42 179.897 172.2 179.137 172.2ZM194.721 181.16C194.001 181.16 193.361 181 192.801 180.68C192.254 180.347 191.854 179.873 191.601 179.26C191.361 178.633 191.341 177.887 191.541 177.02L192.941 171H194.541L193.161 176.98C192.948 177.873 193.028 178.56 193.401 179.04C193.788 179.52 194.368 179.76 195.141 179.76C196.954 179.76 198.134 178.593 198.681 176.26L199.901 171H201.501L199.181 181H197.781L198.021 179.56C197.674 180.107 197.208 180.513 196.621 180.78C196.034 181.033 195.401 181.16 194.721 181.16ZM206.754 181.22C205.594 181.22 204.614 180.953 203.814 180.42C203.014 179.887 202.441 179.173 202.094 178.28L203.614 177.62C204.121 179.087 205.194 179.82 206.834 179.82C207.541 179.82 208.074 179.667 208.434 179.36C208.807 179.04 208.994 178.653 208.994 178.2C208.994 177.853 208.894 177.58 208.694 177.38C208.494 177.18 208.181 177.02 207.754 176.9L205.974 176.4C205.147 176.173 204.527 175.833 204.114 175.38C203.701 174.913 203.494 174.38 203.494 173.78C203.494 173.22 203.647 172.72 203.954 172.28C204.261 171.827 204.701 171.467 205.274 171.2C205.847 170.933 206.527 170.8 207.314 170.8C208.261 170.8 209.094 171.013 209.814 171.44C210.534 171.867 211.047 172.487 211.354 173.3L209.894 174C209.707 173.44 209.381 173 208.914 172.68C208.447 172.347 207.881 172.18 207.214 172.18C206.481 172.18 205.934 172.313 205.574 172.58C205.227 172.847 205.054 173.2 205.054 173.64C205.054 174.013 205.181 174.313 205.434 174.54C205.701 174.753 206.027 174.913 206.414 175.02L208.374 175.58C209.054 175.767 209.587 176.073 209.974 176.5C210.374 176.927 210.574 177.42 210.574 177.98C210.574 178.647 210.407 179.227 210.074 179.72C209.741 180.2 209.287 180.573 208.714 180.84C208.141 181.093 207.487 181.22 206.754 181.22ZM216.873 181.18C215.953 181.18 215.16 180.98 214.493 180.58C213.84 180.18 213.34 179.64 212.993 178.96C212.646 178.28 212.473 177.52 212.473 176.68C212.473 175.64 212.68 174.673 213.093 173.78C213.506 172.887 214.106 172.173 214.893 171.64C215.693 171.093 216.66 170.82 217.793 170.82C218.606 170.82 219.3 170.987 219.873 171.32C220.46 171.653 220.906 172.113 221.213 172.7C221.52 173.273 221.673 173.927 221.673 174.66C221.673 175.18 221.58 175.753 221.393 176.38H214.093C214.093 176.5 214.093 176.62 214.093 176.74C214.093 177.633 214.36 178.367 214.893 178.94C215.44 179.513 216.16 179.8 217.053 179.8C217.733 179.787 218.293 179.64 218.733 179.36C219.173 179.08 219.533 178.713 219.813 178.26L221.073 179.1C220.633 179.74 220.06 180.247 219.353 180.62C218.646 180.993 217.82 181.18 216.873 181.18ZM217.693 172.2C216.733 172.2 215.98 172.473 215.433 173.02C214.9 173.567 214.526 174.22 214.313 174.98H220.093C220.106 174.847 220.113 174.72 220.113 174.6C220.113 173.88 219.9 173.3 219.473 172.86C219.046 172.42 218.453 172.2 217.693 172.2ZM227.321 181.16C226.547 181.16 225.867 180.973 225.281 180.6C224.694 180.227 224.234 179.713 223.901 179.06C223.567 178.393 223.401 177.627 223.401 176.76C223.401 175.653 223.621 174.653 224.061 173.76C224.501 172.853 225.101 172.133 225.861 171.6C226.634 171.067 227.514 170.8 228.501 170.8C229.381 170.8 230.121 171.027 230.721 171.48C231.321 171.92 231.707 172.513 231.881 173.26L233.461 166.4H235.061L231.681 181H230.281L230.621 179.14C230.301 179.753 229.841 180.247 229.241 180.62C228.654 180.98 228.014 181.16 227.321 181.16ZM227.721 179.8C228.361 179.8 228.947 179.593 229.481 179.18C230.014 178.767 230.441 178.207 230.761 177.5C231.081 176.793 231.241 176.007 231.241 175.14C231.241 174.233 231.001 173.513 230.521 172.98C230.041 172.447 229.401 172.18 228.601 172.18C227.894 172.18 227.267 172.387 226.721 172.8C226.174 173.2 225.747 173.747 225.441 174.44C225.134 175.12 224.981 175.887 224.981 176.74C224.981 177.713 225.214 178.467 225.681 179C226.161 179.533 226.841 179.8 227.721 179.8ZM244.853 181.16C243.893 181.16 243.153 180.88 242.633 180.32C242.113 179.76 241.966 178.973 242.193 177.96L243.473 172.38H241.453L241.773 171H243.793L244.293 168.8L246.033 168.3L245.393 171H248.493L248.173 172.38H245.073L243.753 178.04C243.62 178.653 243.7 179.093 243.993 179.36C244.3 179.613 244.68 179.74 245.133 179.74C245.466 179.74 245.76 179.693 246.013 179.6C246.266 179.507 246.486 179.387 246.673 179.24L246.993 180.56C246.66 180.787 246.32 180.94 245.973 181.02C245.626 181.113 245.253 181.16 244.853 181.16ZM253.44 181.18C252.48 181.18 251.66 180.98 250.98 180.58C250.313 180.167 249.8 179.62 249.44 178.94C249.093 178.247 248.92 177.493 248.92 176.68C248.92 175.533 249.14 174.52 249.58 173.64C250.02 172.76 250.627 172.073 251.4 171.58C252.173 171.073 253.067 170.82 254.08 170.82C255.053 170.82 255.873 171.027 256.54 171.44C257.207 171.84 257.713 172.38 258.06 173.06C258.407 173.727 258.58 174.473 258.58 175.3C258.58 176.433 258.36 177.447 257.92 178.34C257.493 179.22 256.893 179.913 256.12 180.42C255.347 180.927 254.453 181.18 253.44 181.18ZM253.5 179.8C254.153 179.8 254.74 179.62 255.26 179.26C255.78 178.887 256.193 178.367 256.5 177.7C256.807 177.033 256.96 176.253 256.96 175.36C256.96 174.773 256.853 174.247 256.64 173.78C256.44 173.3 256.12 172.92 255.68 172.64C255.253 172.347 254.7 172.2 254.02 172.2C253.38 172.2 252.793 172.387 252.26 172.76C251.74 173.12 251.32 173.633 251 174.3C250.693 174.953 250.54 175.727 250.54 176.62C250.54 177.193 250.647 177.727 250.86 178.22C251.073 178.7 251.4 179.087 251.84 179.38C252.28 179.66 252.833 179.8 253.5 179.8ZM31.66 208.2L34.94 194H36.34L36.02 195.74C36.3667 195.14 36.8467 194.673 37.46 194.34C38.0733 194.007 38.7533 193.84 39.5 193.84C40.2067 193.84 40.84 194.013 41.4 194.36C41.96 194.707 42.4 195.207 42.72 195.86C43.0533 196.513 43.22 197.293 43.22 198.2C43.22 199.347 42.9933 200.373 42.54 201.28C42.0867 202.187 41.4733 202.9 40.7 203.42C39.9267 203.94 39.0533 204.2 38.08 204.2C37.2267 204.2 36.5 203.98 35.9 203.54C35.3133 203.087 34.9267 202.487 34.74 201.74L33.26 208.2H31.66ZM38.1 202.82C38.7533 202.82 39.3467 202.62 39.88 202.22C40.4133 201.82 40.84 201.273 41.16 200.58C41.48 199.873 41.64 199.08 41.64 198.2C41.64 197.24 41.3867 196.507 40.88 196C40.3867 195.48 39.7467 195.22 38.96 195.22C38.28 195.22 37.6667 195.42 37.12 195.82C36.5867 196.22 36.16 196.773 35.84 197.48C35.5333 198.187 35.38 198.993 35.38 199.9C35.38 200.767 35.6067 201.473 36.06 202.02C36.5267 202.553 37.2067 202.82 38.1 202.82ZM47.2842 204.14C46.3642 204.14 45.7242 203.867 45.3642 203.32C45.0042 202.76 44.9309 202.033 45.1442 201.14L47.8642 189.4H49.4642L46.7242 201.2C46.5909 201.747 46.6309 202.14 46.8442 202.38C47.0576 202.62 47.4242 202.74 47.9442 202.74C48.3442 202.74 48.6576 202.713 48.8842 202.66L48.4842 203.94C48.2709 204.02 48.0776 204.073 47.9042 204.1C47.7309 204.127 47.5242 204.14 47.2842 204.14ZM54.4036 204.16C53.6303 204.16 52.9503 203.973 52.3636 203.6C51.7769 203.227 51.3169 202.713 50.9836 202.06C50.6503 201.393 50.4836 200.627 50.4836 199.76C50.4836 198.653 50.7036 197.653 51.1436 196.76C51.5836 195.853 52.1836 195.133 52.9436 194.6C53.7169 194.067 54.5969 193.8 55.5836 193.8C56.4636 193.8 57.2036 194.027 57.8036 194.48C58.4036 194.92 58.7903 195.513 58.9636 196.26L59.4836 194H61.0836L58.7636 204H57.3636L57.7036 202.14C57.3836 202.753 56.9236 203.247 56.3236 203.62C55.7369 203.98 55.0969 204.16 54.4036 204.16ZM54.8236 202.8C55.4503 202.8 56.0303 202.593 56.5636 202.18C57.0969 201.767 57.5236 201.207 57.8436 200.5C58.1636 199.793 58.3236 199.007 58.3236 198.14C58.3236 197.233 58.0836 196.513 57.6036 195.98C57.1236 195.447 56.4836 195.18 55.6836 195.18C54.9769 195.18 54.3503 195.387 53.8036 195.8C53.2569 196.2 52.8303 196.747 52.5236 197.44C52.2169 198.12 52.0636 198.887 52.0636 199.74C52.0636 200.713 52.2969 201.467 52.7636 202C53.2436 202.533 53.9303 202.8 54.8236 202.8ZM61.5478 208.3C61.0411 208.3 60.6078 208.24 60.2478 208.12C59.8745 208 59.5678 207.833 59.3278 207.62L59.9678 206.28C60.4211 206.693 60.9278 206.9 61.4878 206.9C61.9145 206.9 62.2878 206.78 62.6078 206.54C62.9411 206.3 63.2678 205.927 63.5878 205.42L64.5278 203.92L62.7678 194H64.3478L65.2678 199.72L65.6678 202.22L67.0678 199.88L70.6078 194H72.4278L64.8678 205.96C64.3478 206.773 63.8078 207.367 63.2478 207.74C62.7011 208.113 62.1345 208.3 61.5478 208.3ZM81.8169 204.16C81.0435 204.16 80.3635 203.973 79.7769 203.6C79.1902 203.227 78.7302 202.713 78.3969 202.06C78.0635 201.393 77.8969 200.627 77.8969 199.76C77.8969 198.653 78.1169 197.653 78.5569 196.76C78.9969 195.853 79.5969 195.133 80.3569 194.6C81.1302 194.067 82.0102 193.8 82.9969 193.8C83.8769 193.8 84.6169 194.027 85.2169 194.48C85.8169 194.92 86.2035 195.513 86.3769 196.26L86.8969 194H88.4969L86.1769 204H84.7769L85.1169 202.14C84.7969 202.753 84.3369 203.247 83.7369 203.62C83.1502 203.98 82.5102 204.16 81.8169 204.16ZM82.2369 202.8C82.8635 202.8 83.4435 202.593 83.9769 202.18C84.5102 201.767 84.9369 201.207 85.2569 200.5C85.5769 199.793 85.7369 199.007 85.7369 198.14C85.7369 197.233 85.4969 196.513 85.0169 195.98C84.5369 195.447 83.8969 195.18 83.0969 195.18C82.3902 195.18 81.7635 195.387 81.2169 195.8C80.6702 196.2 80.2435 196.747 79.9369 197.44C79.6302 198.12 79.4769 198.887 79.4769 199.74C79.4769 200.713 79.7102 201.467 80.1769 202C80.6569 202.533 81.3435 202.8 82.2369 202.8ZM97.1906 204L96.1106 194H97.6506L98.4106 202L102.631 194H104.231L105.251 202.12L109.571 194H111.271L105.751 204H104.151L103.051 196.06L98.8106 204H97.1906ZM114.605 192.08C114.285 192.08 114.025 191.987 113.825 191.8C113.625 191.6 113.525 191.347 113.525 191.04C113.525 190.627 113.645 190.3 113.885 190.06C114.139 189.807 114.439 189.68 114.785 189.68C115.105 189.68 115.365 189.78 115.565 189.98C115.765 190.167 115.865 190.413 115.865 190.72C115.865 191.133 115.739 191.467 115.485 191.72C115.245 191.96 114.952 192.08 114.605 192.08ZM114.785 194L112.465 204H110.865L113.185 194H114.785ZM120.022 204.16C119.248 204.16 118.568 203.973 117.982 203.6C117.395 203.227 116.935 202.713 116.602 202.06C116.268 201.393 116.102 200.627 116.102 199.76C116.102 198.653 116.322 197.653 116.762 196.76C117.202 195.853 117.802 195.133 118.562 194.6C119.335 194.067 120.215 193.8 121.202 193.8C122.082 193.8 122.822 194.027 123.422 194.48C124.022 194.92 124.408 195.513 124.582 196.26L126.162 189.4H127.762L124.382 204H122.982L123.322 202.14C123.002 202.753 122.542 203.247 121.942 203.62C121.355 203.98 120.715 204.16 120.022 204.16ZM120.422 202.8C121.062 202.8 121.648 202.593 122.182 202.18C122.715 201.767 123.142 201.207 123.462 200.5C123.782 199.793 123.942 199.007 123.942 198.14C123.942 197.233 123.702 196.513 123.222 195.98C122.742 195.447 122.102 195.18 121.302 195.18C120.595 195.18 119.968 195.387 119.422 195.8C118.875 196.2 118.448 196.747 118.142 197.44C117.835 198.12 117.682 198.887 117.682 199.74C117.682 200.713 117.915 201.467 118.382 202C118.862 202.533 119.542 202.8 120.422 202.8ZM132.446 204.18C131.526 204.18 130.732 203.98 130.066 203.58C129.412 203.18 128.912 202.64 128.566 201.96C128.219 201.28 128.046 200.52 128.046 199.68C128.046 198.64 128.252 197.673 128.666 196.78C129.079 195.887 129.679 195.173 130.466 194.64C131.266 194.093 132.232 193.82 133.366 193.82C134.179 193.82 134.872 193.987 135.446 194.32C136.032 194.653 136.479 195.113 136.786 195.7C137.092 196.273 137.246 196.927 137.246 197.66C137.246 198.18 137.152 198.753 136.966 199.38H129.666C129.666 199.5 129.666 199.62 129.666 199.74C129.666 200.633 129.932 201.367 130.466 201.94C131.012 202.513 131.732 202.8 132.626 202.8C133.306 202.787 133.866 202.64 134.306 202.36C134.746 202.08 135.106 201.713 135.386 201.26L136.646 202.1C136.206 202.74 135.632 203.247 134.926 203.62C134.219 203.993 133.392 204.18 132.446 204.18ZM133.266 195.2C132.306 195.2 131.552 195.473 131.006 196.02C130.472 196.567 130.099 197.22 129.886 197.98H135.666C135.679 197.847 135.686 197.72 135.686 197.6C135.686 196.88 135.472 196.3 135.046 195.86C134.619 195.42 134.026 195.2 133.266 195.2ZM152.902 194H154.682L148.422 204H146.802L145.062 194H146.642L147.942 202.22L152.902 194ZM158.656 204.16C157.883 204.16 157.203 203.973 156.616 203.6C156.029 203.227 155.569 202.713 155.236 202.06C154.903 201.393 154.736 200.627 154.736 199.76C154.736 198.653 154.956 197.653 155.396 196.76C155.836 195.853 156.436 195.133 157.196 194.6C157.969 194.067 158.849 193.8 159.836 193.8C160.716 193.8 161.456 194.027 162.056 194.48C162.656 194.92 163.043 195.513 163.216 196.26L163.736 194H165.336L163.016 204H161.616L161.956 202.14C161.636 202.753 161.176 203.247 160.576 203.62C159.989 203.98 159.349 204.16 158.656 204.16ZM159.076 202.8C159.703 202.8 160.283 202.593 160.816 202.18C161.349 201.767 161.776 201.207 162.096 200.5C162.416 199.793 162.576 199.007 162.576 198.14C162.576 197.233 162.336 196.513 161.856 195.98C161.376 195.447 160.736 195.18 159.936 195.18C159.229 195.18 158.603 195.387 158.056 195.8C157.509 196.2 157.083 196.747 156.776 197.44C156.469 198.12 156.316 198.887 156.316 199.74C156.316 200.713 156.549 201.467 157.016 202C157.496 202.533 158.183 202.8 159.076 202.8ZM166.18 204L168.5 194H169.8L169.64 195.58C170.013 195.02 170.493 194.587 171.08 194.28C171.68 193.96 172.287 193.8 172.9 193.8C173.327 193.8 173.667 193.86 173.92 193.98L173.44 195.5C173.307 195.433 173.153 195.387 172.98 195.36C172.82 195.32 172.627 195.3 172.4 195.3C171.64 195.3 170.953 195.567 170.34 196.1C169.74 196.62 169.307 197.447 169.04 198.58L167.78 204H166.18ZM177.274 192.08C176.954 192.08 176.694 191.987 176.494 191.8C176.294 191.6 176.194 191.347 176.194 191.04C176.194 190.627 176.314 190.3 176.554 190.06C176.807 189.807 177.107 189.68 177.454 189.68C177.774 189.68 178.034 189.78 178.234 189.98C178.434 190.167 178.534 190.413 178.534 190.72C178.534 191.133 178.407 191.467 178.154 191.72C177.914 191.96 177.621 192.08 177.274 192.08ZM177.454 194L175.134 204H173.534L175.854 194H177.454ZM183.19 204.18C182.27 204.18 181.477 203.98 180.81 203.58C180.157 203.18 179.657 202.64 179.31 201.96C178.964 201.28 178.79 200.52 178.79 199.68C178.79 198.64 178.997 197.673 179.41 196.78C179.824 195.887 180.424 195.173 181.21 194.64C182.01 194.093 182.977 193.82 184.11 193.82C184.924 193.82 185.617 193.987 186.19 194.32C186.777 194.653 187.224 195.113 187.53 195.7C187.837 196.273 187.99 196.927 187.99 197.66C187.99 198.18 187.897 198.753 187.71 199.38H180.41C180.41 199.5 180.41 199.62 180.41 199.74C180.41 200.633 180.677 201.367 181.21 201.94C181.757 202.513 182.477 202.8 183.37 202.8C184.05 202.787 184.61 202.64 185.05 202.36C185.49 202.08 185.85 201.713 186.13 201.26L187.39 202.1C186.95 202.74 186.377 203.247 185.67 203.62C184.964 203.993 184.137 204.18 183.19 204.18ZM184.01 195.2C183.05 195.2 182.297 195.473 181.75 196.02C181.217 196.567 180.844 197.22 180.63 197.98H186.41C186.424 197.847 186.43 197.72 186.43 197.6C186.43 196.88 186.217 196.3 185.79 195.86C185.364 195.42 184.77 195.2 184.01 195.2ZM192.908 204.16C191.948 204.16 191.208 203.88 190.688 203.32C190.168 202.76 190.021 201.973 190.248 200.96L191.528 195.38H189.508L189.828 194H191.848L192.348 191.8L194.088 191.3L193.448 194H196.548L196.228 195.38H193.128L191.808 201.04C191.674 201.653 191.754 202.093 192.048 202.36C192.354 202.613 192.734 202.74 193.188 202.74C193.521 202.74 193.814 202.693 194.068 202.6C194.321 202.507 194.541 202.387 194.728 202.24L195.048 203.56C194.714 203.787 194.374 203.94 194.028 204.02C193.681 204.113 193.308 204.16 192.908 204.16ZM196.095 208.3C195.588 208.3 195.155 208.24 194.795 208.12C194.421 208 194.115 207.833 193.875 207.62L194.515 206.28C194.968 206.693 195.475 206.9 196.035 206.9C196.461 206.9 196.835 206.78 197.155 206.54C197.488 206.3 197.815 205.927 198.135 205.42L199.075 203.92L197.315 194H198.895L199.815 199.72L200.215 202.22L201.615 199.88L205.155 194H206.975L199.415 205.96C198.895 206.773 198.355 207.367 197.795 207.74C197.248 208.113 196.681 208.3 196.095 208.3ZM216.984 204.18C216.024 204.18 215.204 203.98 214.524 203.58C213.857 203.167 213.344 202.62 212.984 201.94C212.637 201.247 212.464 200.493 212.464 199.68C212.464 198.533 212.684 197.52 213.124 196.64C213.564 195.76 214.17 195.073 214.944 194.58C215.717 194.073 216.61 193.82 217.624 193.82C218.597 193.82 219.417 194.027 220.084 194.44C220.75 194.84 221.257 195.38 221.604 196.06C221.95 196.727 222.124 197.473 222.124 198.3C222.124 199.433 221.904 200.447 221.464 201.34C221.037 202.22 220.437 202.913 219.664 203.42C218.89 203.927 217.997 204.18 216.984 204.18ZM217.044 202.8C217.697 202.8 218.284 202.62 218.804 202.26C219.324 201.887 219.737 201.367 220.044 200.7C220.35 200.033 220.504 199.253 220.504 198.36C220.504 197.773 220.397 197.247 220.184 196.78C219.984 196.3 219.664 195.92 219.224 195.64C218.797 195.347 218.244 195.2 217.564 195.2C216.924 195.2 216.337 195.387 215.804 195.76C215.284 196.12 214.864 196.633 214.544 197.3C214.237 197.953 214.084 198.727 214.084 199.62C214.084 200.193 214.19 200.727 214.404 201.22C214.617 201.7 214.944 202.087 215.384 202.38C215.824 202.66 216.377 202.8 217.044 202.8ZM223.555 204L225.555 195.38H223.515L223.835 194H225.875L226.295 192.14C226.521 191.153 226.921 190.433 227.495 189.98C228.081 189.527 228.835 189.3 229.755 189.3C230.128 189.3 230.475 189.347 230.795 189.44C231.115 189.52 231.361 189.633 231.535 189.78L230.995 191.08C230.875 190.987 230.701 190.907 230.475 190.84C230.248 190.773 230.008 190.74 229.755 190.74C229.195 190.74 228.761 190.873 228.455 191.14C228.148 191.407 227.921 191.88 227.775 192.56L227.455 194H230.555L230.235 195.38H227.155L225.155 204H223.555ZM36.26 231.3C35.1 231.3 34.1267 231.007 33.34 230.42C32.5533 229.833 32.0667 229.053 31.88 228.08L33.48 227.52C33.6267 228.267 33.9133 228.847 34.34 229.26C34.78 229.687 35.46 229.9 36.38 229.9C36.8867 229.9 37.3667 229.807 37.82 229.62C38.2733 229.447 38.6733 229.133 39.02 228.68C39.3667 228.24 39.6267 227.613 39.8 226.8L40.16 225.22C39.84 225.7 39.4067 226.08 38.86 226.36C38.3267 226.64 37.7333 226.78 37.08 226.78C36.3067 226.78 35.6133 226.587 35 226.2C34.3867 225.813 33.9067 225.293 33.56 224.64C33.2133 223.973 33.04 223.247 33.04 222.46C33.04 221.34 33.26 220.36 33.7 219.52C34.14 218.667 34.74 218 35.5 217.52C36.2733 217.04 37.14 216.8 38.1 216.8C38.98 216.8 39.72 217.027 40.32 217.48C40.9333 217.92 41.3333 218.513 41.52 219.26L42.04 217H43.64L41.3 226.98C40.94 228.513 40.3133 229.613 39.42 230.28C38.5267 230.96 37.4733 231.3 36.26 231.3ZM37.5 225.4C38.1267 225.4 38.6933 225.213 39.2 224.84C39.7067 224.467 40.1067 223.96 40.4 223.32C40.7067 222.667 40.86 221.927 40.86 221.1C40.86 220.207 40.62 219.5 40.14 218.98C39.6733 218.447 39.0267 218.18 38.2 218.18C37.5067 218.18 36.8933 218.36 36.36 218.72C35.8267 219.067 35.4067 219.56 35.1 220.2C34.7933 220.827 34.64 221.567 34.64 222.42C34.64 223.287 34.8933 224 35.4 224.56C35.9067 225.12 36.6067 225.4 37.5 225.4ZM48.8856 227.16C48.1123 227.16 47.4323 226.973 46.8456 226.6C46.259 226.227 45.799 225.713 45.4656 225.06C45.1323 224.393 44.9656 223.627 44.9656 222.76C44.9656 221.653 45.1856 220.653 45.6256 219.76C46.0656 218.853 46.6656 218.133 47.4256 217.6C48.199 217.067 49.079 216.8 50.0656 216.8C50.9456 216.8 51.6856 217.027 52.2856 217.48C52.8856 217.92 53.2723 218.513 53.4456 219.26L53.9656 217H55.5656L53.2456 227H51.8456L52.1856 225.14C51.8656 225.753 51.4056 226.247 50.8056 226.62C50.219 226.98 49.579 227.16 48.8856 227.16ZM49.3056 225.8C49.9323 225.8 50.5123 225.593 51.0456 225.18C51.579 224.767 52.0056 224.207 52.3256 223.5C52.6456 222.793 52.8056 222.007 52.8056 221.14C52.8056 220.233 52.5656 219.513 52.0856 218.98C51.6056 218.447 50.9656 218.18 50.1656 218.18C49.459 218.18 48.8323 218.387 48.2856 218.8C47.739 219.2 47.3123 219.747 47.0056 220.44C46.699 221.12 46.5456 221.887 46.5456 222.74C46.5456 223.713 46.779 224.467 47.2456 225C47.7256 225.533 48.4123 225.8 49.3056 225.8ZM56.4098 227L58.7298 217H60.1298L59.8898 218.44C60.2365 217.893 60.7098 217.487 61.3098 217.22C61.9098 216.94 62.5565 216.8 63.2498 216.8C63.9832 216.8 64.6098 216.98 65.1298 217.34C65.6632 217.687 66.0232 218.187 66.2098 218.84C66.6365 218.16 67.1898 217.653 67.8698 217.32C68.5498 216.973 69.2698 216.8 70.0298 216.8C70.7498 216.8 71.3632 216.967 71.8698 217.3C72.3898 217.633 72.7565 218.113 72.9698 218.74C73.1832 219.367 73.1832 220.127 72.9698 221.02L71.5898 227H69.9898L71.3698 221C71.5698 220.12 71.5032 219.433 71.1698 218.94C70.8365 218.447 70.3032 218.2 69.5698 218.2C68.7032 218.2 67.9832 218.467 67.4098 219C66.8365 219.533 66.4098 220.3 66.1298 221.3L64.7898 227H63.1898L64.5898 221C64.8032 220.12 64.7365 219.433 64.3898 218.94C64.0565 218.447 63.5232 218.2 62.7898 218.2C61.8565 218.2 61.0965 218.507 60.5098 219.12C59.9232 219.72 59.4965 220.593 59.2298 221.74L58.0098 227H56.4098ZM79.4841 227.18C78.5641 227.18 77.7707 226.98 77.1041 226.58C76.4507 226.18 75.9507 225.64 75.6041 224.96C75.2574 224.28 75.0841 223.52 75.0841 222.68C75.0841 221.64 75.2907 220.673 75.7041 219.78C76.1174 218.887 76.7174 218.173 77.5041 217.64C78.3041 217.093 79.2707 216.82 80.4041 216.82C81.2174 216.82 81.9107 216.987 82.4841 217.32C83.0707 217.653 83.5174 218.113 83.8241 218.7C84.1307 219.273 84.2841 219.927 84.2841 220.66C84.2841 221.18 84.1907 221.753 84.0041 222.38H76.7041C76.7041 222.5 76.7041 222.62 76.7041 222.74C76.7041 223.633 76.9707 224.367 77.5041 224.94C78.0507 225.513 78.7707 225.8 79.6641 225.8C80.3441 225.787 80.9041 225.64 81.3441 225.36C81.7841 225.08 82.1441 224.713 82.4241 224.26L83.6841 225.1C83.2441 225.74 82.6707 226.247 81.9641 226.62C81.2574 226.993 80.4307 227.18 79.4841 227.18ZM80.3041 218.2C79.3441 218.2 78.5907 218.473 78.0441 219.02C77.5107 219.567 77.1374 220.22 76.9241 220.98H82.7041C82.7174 220.847 82.7241 220.72 82.7241 220.6C82.7241 219.88 82.5107 219.3 82.0841 218.86C81.6574 218.42 81.0641 218.2 80.3041 218.2ZM90.0494 227.22C88.8894 227.22 87.9094 226.953 87.1094 226.42C86.3094 225.887 85.736 225.173 85.3894 224.28L86.9094 223.62C87.416 225.087 88.4894 225.82 90.1294 225.82C90.836 225.82 91.3694 225.667 91.7294 225.36C92.1027 225.04 92.2894 224.653 92.2894 224.2C92.2894 223.853 92.1894 223.58 91.9894 223.38C91.7894 223.18 91.476 223.02 91.0494 222.9L89.2694 222.4C88.4427 222.173 87.8227 221.833 87.4094 221.38C86.996 220.913 86.7894 220.38 86.7894 219.78C86.7894 219.22 86.9427 218.72 87.2494 218.28C87.556 217.827 87.996 217.467 88.5694 217.2C89.1427 216.933 89.8227 216.8 90.6094 216.8C91.556 216.8 92.3894 217.013 93.1094 217.44C93.8294 217.867 94.3427 218.487 94.6494 219.3L93.1894 220C93.0027 219.44 92.676 219 92.2094 218.68C91.7427 218.347 91.176 218.18 90.5094 218.18C89.776 218.18 89.2294 218.313 88.8694 218.58C88.5227 218.847 88.3494 219.2 88.3494 219.64C88.3494 220.013 88.476 220.313 88.7294 220.54C88.996 220.753 89.3227 220.913 89.7094 221.02L91.6694 221.58C92.3494 221.767 92.8827 222.073 93.2694 222.5C93.6694 222.927 93.8694 223.42 93.8694 223.98C93.8694 224.647 93.7027 225.227 93.3694 225.72C93.036 226.2 92.5827 226.573 92.0094 226.84C91.436 227.093 90.7827 227.22 90.0494 227.22ZM97.1144 224.6C97.5144 224.6 97.8344 224.753 98.0744 225.06C98.3144 225.353 98.4344 225.74 98.4344 226.22C98.4344 226.727 98.301 227.24 98.0344 227.76C97.781 228.293 97.4077 228.76 96.9144 229.16C96.421 229.56 95.8277 229.833 95.1344 229.98L94.6344 229.02C95.421 228.913 96.021 228.673 96.4344 228.3C96.8477 227.94 97.121 227.52 97.2544 227.04L97.2344 227.02C97.1677 227.073 97.0944 227.107 97.0144 227.12C96.9477 227.147 96.841 227.16 96.6944 227.16C96.3744 227.16 96.1277 227.047 95.9544 226.82C95.7944 226.58 95.7144 226.32 95.7144 226.04C95.7144 225.613 95.8477 225.267 96.1144 225C96.3944 224.733 96.7277 224.6 97.1144 224.6ZM110.552 215.08C110.232 215.08 109.972 214.987 109.772 214.8C109.572 214.6 109.472 214.347 109.472 214.04C109.472 213.627 109.592 213.3 109.832 213.06C110.086 212.807 110.386 212.68 110.732 212.68C111.052 212.68 111.312 212.78 111.512 212.98C111.712 213.167 111.812 213.413 111.812 213.72C111.812 214.133 111.686 214.467 111.432 214.72C111.192 214.96 110.899 215.08 110.552 215.08ZM105.132 231.3C104.732 231.3 104.339 231.24 103.952 231.12C103.552 231 103.239 230.82 103.012 230.58L103.572 229.14C103.759 229.3 103.986 229.433 104.252 229.54C104.506 229.647 104.759 229.7 105.012 229.7C105.386 229.7 105.699 229.593 105.952 229.38C106.192 229.167 106.379 228.753 106.512 228.14L109.132 217H110.732L108.052 228.56C107.839 229.507 107.452 230.2 106.892 230.64C106.346 231.08 105.759 231.3 105.132 231.3ZM115.508 227.16C114.788 227.16 114.148 227 113.588 226.68C113.042 226.347 112.642 225.873 112.388 225.26C112.148 224.633 112.128 223.887 112.328 223.02L113.728 217H115.328L113.948 222.98C113.735 223.873 113.815 224.56 114.188 225.04C114.575 225.52 115.155 225.76 115.928 225.76C117.742 225.76 118.922 224.593 119.468 222.26L120.688 217H122.288L119.968 227H118.568L118.808 225.56C118.462 226.107 117.995 226.513 117.408 226.78C116.822 227.033 116.188 227.16 115.508 227.16ZM127.542 227.22C126.382 227.22 125.402 226.953 124.602 226.42C123.802 225.887 123.228 225.173 122.882 224.28L124.402 223.62C124.908 225.087 125.982 225.82 127.622 225.82C128.328 225.82 128.862 225.667 129.222 225.36C129.595 225.04 129.782 224.653 129.782 224.2C129.782 223.853 129.682 223.58 129.482 223.38C129.282 223.18 128.968 223.02 128.542 222.9L126.762 222.4C125.935 222.173 125.315 221.833 124.902 221.38C124.488 220.913 124.282 220.38 124.282 219.78C124.282 219.22 124.435 218.72 124.742 218.28C125.048 217.827 125.488 217.467 126.062 217.2C126.635 216.933 127.315 216.8 128.102 216.8C129.048 216.8 129.882 217.013 130.602 217.44C131.322 217.867 131.835 218.487 132.142 219.3L130.682 220C130.495 219.44 130.168 219 129.702 218.68C129.235 218.347 128.668 218.18 128.002 218.18C127.268 218.18 126.722 218.313 126.362 218.58C126.015 218.847 125.842 219.2 125.842 219.64C125.842 220.013 125.968 220.313 126.222 220.54C126.488 220.753 126.815 220.913 127.202 221.02L129.162 221.58C129.842 221.767 130.375 222.073 130.762 222.5C131.162 222.927 131.362 223.42 131.362 223.98C131.362 224.647 131.195 225.227 130.862 225.72C130.528 226.2 130.075 226.573 129.502 226.84C128.928 227.093 128.275 227.22 127.542 227.22ZM136.938 227.16C135.978 227.16 135.238 226.88 134.718 226.32C134.198 225.76 134.052 224.973 134.278 223.96L135.558 218.38H133.538L133.858 217H135.878L136.378 214.8L138.118 214.3L137.478 217H140.578L140.258 218.38H137.158L135.838 224.04C135.705 224.653 135.785 225.093 136.078 225.36C136.385 225.613 136.765 225.74 137.218 225.74C137.552 225.74 137.845 225.693 138.098 225.6C138.352 225.507 138.572 225.387 138.758 225.24L139.078 226.56C138.745 226.787 138.405 226.94 138.058 227.02C137.712 227.113 137.338 227.16 136.938 227.16ZM146.824 227L149.144 217H150.544L150.304 218.44C150.651 217.893 151.124 217.487 151.724 217.22C152.324 216.94 152.971 216.8 153.664 216.8C154.397 216.8 155.024 216.98 155.544 217.34C156.077 217.687 156.437 218.187 156.624 218.84C157.051 218.16 157.604 217.653 158.284 217.32C158.964 216.973 159.684 216.8 160.444 216.8C161.164 216.8 161.777 216.967 162.284 217.3C162.804 217.633 163.171 218.113 163.384 218.74C163.597 219.367 163.597 220.127 163.384 221.02L162.004 227H160.404L161.784 221C161.984 220.12 161.917 219.433 161.584 218.94C161.251 218.447 160.717 218.2 159.984 218.2C159.117 218.2 158.397 218.467 157.824 219C157.251 219.533 156.824 220.3 156.544 221.3L155.204 227H153.604L155.004 221C155.217 220.12 155.151 219.433 154.804 218.94C154.471 218.447 153.937 218.2 153.204 218.2C152.271 218.2 151.511 218.507 150.924 219.12C150.337 219.72 149.911 220.593 149.644 221.74L148.424 227H146.824ZM169.398 227.16C168.625 227.16 167.945 226.973 167.358 226.6C166.771 226.227 166.311 225.713 165.978 225.06C165.645 224.393 165.478 223.627 165.478 222.76C165.478 221.653 165.698 220.653 166.138 219.76C166.578 218.853 167.178 218.133 167.938 217.6C168.711 217.067 169.591 216.8 170.578 216.8C171.458 216.8 172.198 217.027 172.798 217.48C173.398 217.92 173.785 218.513 173.958 219.26L174.478 217H176.078L173.758 227H172.358L172.698 225.14C172.378 225.753 171.918 226.247 171.318 226.62C170.731 226.98 170.091 227.16 169.398 227.16ZM169.818 225.8C170.445 225.8 171.025 225.593 171.558 225.18C172.091 224.767 172.518 224.207 172.838 223.5C173.158 222.793 173.318 222.007 173.318 221.14C173.318 220.233 173.078 219.513 172.598 218.98C172.118 218.447 171.478 218.18 170.678 218.18C169.971 218.18 169.345 218.387 168.798 218.8C168.251 219.2 167.825 219.747 167.518 220.44C167.211 221.12 167.058 221.887 167.058 222.74C167.058 223.713 167.291 224.467 167.758 225C168.238 225.533 168.925 225.8 169.818 225.8ZM187.662 217L182.922 220.94L185.582 227H183.842L181.682 221.92L179.222 223.96L178.522 227H176.922L180.302 212.4H181.902L179.742 221.74L185.422 217H187.662ZM191.852 227.18C190.932 227.18 190.139 226.98 189.472 226.58C188.819 226.18 188.319 225.64 187.972 224.96C187.625 224.28 187.452 223.52 187.452 222.68C187.452 221.64 187.659 220.673 188.072 219.78C188.485 218.887 189.085 218.173 189.872 217.64C190.672 217.093 191.639 216.82 192.772 216.82C193.585 216.82 194.279 216.987 194.852 217.32C195.439 217.653 195.885 218.113 196.192 218.7C196.499 219.273 196.652 219.927 196.652 220.66C196.652 221.18 196.559 221.753 196.372 222.38H189.072C189.072 222.5 189.072 222.62 189.072 222.74C189.072 223.633 189.339 224.367 189.872 224.94C190.419 225.513 191.139 225.8 192.032 225.8C192.712 225.787 193.272 225.64 193.712 225.36C194.152 225.08 194.512 224.713 194.792 224.26L196.052 225.1C195.612 225.74 195.039 226.247 194.332 226.62C193.625 226.993 192.799 227.18 191.852 227.18ZM192.672 218.2C191.712 218.2 190.959 218.473 190.412 219.02C189.879 219.567 189.505 220.22 189.292 220.98H195.072C195.085 220.847 195.092 220.72 195.092 220.6C195.092 219.88 194.879 219.3 194.452 218.86C194.025 218.42 193.432 218.2 192.672 218.2ZM203.428 231.3C202.922 231.3 202.488 231.24 202.128 231.12C201.755 231 201.448 230.833 201.208 230.62L201.848 229.28C202.302 229.693 202.808 229.9 203.368 229.9C203.795 229.9 204.168 229.78 204.488 229.54C204.822 229.3 205.148 228.927 205.468 228.42L206.408 226.92L204.648 217H206.228L207.148 222.72L207.548 225.22L208.948 222.88L212.488 217H214.308L206.748 228.96C206.228 229.773 205.688 230.367 205.128 230.74C204.582 231.113 204.015 231.3 203.428 231.3ZM218.897 227.18C217.937 227.18 217.117 226.98 216.437 226.58C215.77 226.167 215.257 225.62 214.897 224.94C214.55 224.247 214.377 223.493 214.377 222.68C214.377 221.533 214.597 220.52 215.037 219.64C215.477 218.76 216.084 218.073 216.857 217.58C217.63 217.073 218.524 216.82 219.537 216.82C220.51 216.82 221.33 217.027 221.997 217.44C222.664 217.84 223.17 218.38 223.517 219.06C223.864 219.727 224.037 220.473 224.037 221.3C224.037 222.433 223.817 223.447 223.377 224.34C222.95 225.22 222.35 225.913 221.577 226.42C220.804 226.927 219.91 227.18 218.897 227.18ZM218.957 225.8C219.61 225.8 220.197 225.62 220.717 225.26C221.237 224.887 221.65 224.367 221.957 223.7C222.264 223.033 222.417 222.253 222.417 221.36C222.417 220.773 222.31 220.247 222.097 219.78C221.897 219.3 221.577 218.92 221.137 218.64C220.71 218.347 220.157 218.2 219.477 218.2C218.837 218.2 218.25 218.387 217.717 218.76C217.197 219.12 216.777 219.633 216.457 220.3C216.15 220.953 215.997 221.727 215.997 222.62C215.997 223.193 216.104 223.727 216.317 224.22C216.53 224.7 216.857 225.087 217.297 225.38C217.737 225.66 218.29 225.8 218.957 225.8ZM229.214 227.16C228.494 227.16 227.854 227 227.294 226.68C226.747 226.347 226.347 225.873 226.094 225.26C225.854 224.633 225.834 223.887 226.034 223.02L227.434 217H229.034L227.654 222.98C227.441 223.873 227.521 224.56 227.894 225.04C228.281 225.52 228.861 225.76 229.634 225.76C231.447 225.76 232.627 224.593 233.174 222.26L234.394 217H235.994L233.674 227H232.274L232.514 225.56C232.167 226.107 231.701 226.513 231.114 226.78C230.527 227.033 229.894 227.16 229.214 227.16ZM236.827 227L239.147 217H240.447L240.287 218.58C240.66 218.02 241.14 217.587 241.727 217.28C242.327 216.96 242.934 216.8 243.547 216.8C243.974 216.8 244.314 216.86 244.567 216.98L244.087 218.5C243.954 218.433 243.8 218.387 243.627 218.36C243.467 218.32 243.274 218.3 243.047 218.3C242.287 218.3 241.6 218.567 240.987 219.1C240.387 219.62 239.954 220.447 239.687 221.58L238.427 227H236.827ZM37.04 250.22C35.88 250.22 34.9 249.953 34.1 249.42C33.3 248.887 32.7267 248.173 32.38 247.28L33.9 246.62C34.4067 248.087 35.48 248.82 37.12 248.82C37.8267 248.82 38.36 248.667 38.72 248.36C39.0933 248.04 39.28 247.653 39.28 247.2C39.28 246.853 39.18 246.58 38.98 246.38C38.78 246.18 38.4667 246.02 38.04 245.9L36.26 245.4C35.4333 245.173 34.8133 244.833 34.4 244.38C33.9867 243.913 33.78 243.38 33.78 242.78C33.78 242.22 33.9333 241.72 34.24 241.28C34.5467 240.827 34.9867 240.467 35.56 240.2C36.1333 239.933 36.8133 239.8 37.6 239.8C38.5467 239.8 39.38 240.013 40.1 240.44C40.82 240.867 41.3333 241.487 41.64 242.3L40.18 243C39.9933 242.44 39.6667 242 39.2 241.68C38.7333 241.347 38.1667 241.18 37.5 241.18C36.7667 241.18 36.22 241.313 35.86 241.58C35.5133 241.847 35.34 242.2 35.34 242.64C35.34 243.013 35.4667 243.313 35.72 243.54C35.9867 243.753 36.3133 243.913 36.7 244.02L38.66 244.58C39.34 244.767 39.8733 245.073 40.26 245.5C40.66 245.927 40.86 246.42 40.86 246.98C40.86 247.647 40.6933 248.227 40.36 248.72C40.0267 249.2 39.5733 249.573 39 249.84C38.4267 250.093 37.7733 250.22 37.04 250.22ZM47.1591 250.18C46.2391 250.18 45.4457 249.98 44.7791 249.58C44.1257 249.18 43.6257 248.64 43.2791 247.96C42.9324 247.28 42.7591 246.52 42.7591 245.68C42.7591 244.64 42.9657 243.673 43.3791 242.78C43.7924 241.887 44.3924 241.173 45.1791 240.64C45.9791 240.093 46.9457 239.82 48.0791 239.82C48.8924 239.82 49.5857 239.987 50.1591 240.32C50.7457 240.653 51.1924 241.113 51.4991 241.7C51.8057 242.273 51.9591 242.927 51.9591 243.66C51.9591 244.18 51.8657 244.753 51.6791 245.38H44.3791C44.3791 245.5 44.3791 245.62 44.3791 245.74C44.3791 246.633 44.6457 247.367 45.1791 247.94C45.7257 248.513 46.4457 248.8 47.3391 248.8C48.0191 248.787 48.5791 248.64 49.0191 248.36C49.4591 248.08 49.8191 247.713 50.0991 247.26L51.3591 248.1C50.9191 248.74 50.3457 249.247 49.6391 249.62C48.9324 249.993 48.1057 250.18 47.1591 250.18ZM47.9791 241.2C47.0191 241.2 46.2657 241.473 45.7191 242.02C45.1857 242.567 44.8124 243.22 44.5991 243.98H50.3791C50.3924 243.847 50.3991 243.72 50.3991 243.6C50.3991 242.88 50.1857 242.3 49.7591 241.86C49.3324 241.42 48.7391 241.2 47.9791 241.2ZM56.0444 250.14C55.1244 250.14 54.4844 249.867 54.1244 249.32C53.7644 248.76 53.691 248.033 53.9044 247.14L56.6244 235.4H58.2244L55.4844 247.2C55.351 247.747 55.391 248.14 55.6044 248.38C55.8177 248.62 56.1844 248.74 56.7044 248.74C57.1044 248.74 57.4177 248.713 57.6444 248.66L57.2444 249.94C57.031 250.02 56.8377 250.073 56.6644 250.1C56.491 250.127 56.2844 250.14 56.0444 250.14ZM63.6637 250.18C62.7437 250.18 61.9504 249.98 61.2837 249.58C60.6304 249.18 60.1304 248.64 59.7837 247.96C59.4371 247.28 59.2637 246.52 59.2637 245.68C59.2637 244.64 59.4704 243.673 59.8837 242.78C60.2971 241.887 60.8971 241.173 61.6837 240.64C62.4837 240.093 63.4504 239.82 64.5837 239.82C65.3971 239.82 66.0904 239.987 66.6637 240.32C67.2504 240.653 67.6971 241.113 68.0037 241.7C68.3104 242.273 68.4637 242.927 68.4637 243.66C68.4637 244.18 68.3704 244.753 68.1837 245.38H60.8837C60.8837 245.5 60.8837 245.62 60.8837 245.74C60.8837 246.633 61.1504 247.367 61.6837 247.94C62.2304 248.513 62.9504 248.8 63.8437 248.8C64.5237 248.787 65.0837 248.64 65.5237 248.36C65.9637 248.08 66.3237 247.713 66.6037 247.26L67.8637 248.1C67.4237 248.74 66.8504 249.247 66.1437 249.62C65.4371 249.993 64.6104 250.18 63.6637 250.18ZM64.4837 241.2C63.5237 241.2 62.7704 241.473 62.2237 242.02C61.6904 242.567 61.3171 243.22 61.1037 243.98H66.8837C66.8971 243.847 66.9037 243.72 66.9037 243.6C66.9037 242.88 66.6904 242.3 66.2637 241.86C65.8371 241.42 65.2437 241.2 64.4837 241.2ZM74.6314 250.18C73.7114 250.18 72.9181 249.98 72.2514 249.58C71.5981 249.167 71.0981 248.62 70.7514 247.94C70.4047 247.247 70.2314 246.487 70.2314 245.66C70.2314 244.513 70.4514 243.507 70.8914 242.64C71.3314 241.76 71.9447 241.073 72.7314 240.58C73.5181 240.073 74.4314 239.82 75.4714 239.82C76.6047 239.82 77.5247 240.113 78.2314 240.7C78.9381 241.287 79.3781 242.02 79.5514 242.9L77.8714 243.3C77.8181 242.713 77.5847 242.22 77.1714 241.82C76.7714 241.407 76.1781 241.2 75.3914 241.2C74.7114 241.2 74.1047 241.387 73.5714 241.76C73.0381 242.133 72.6181 242.653 72.3114 243.32C72.0047 243.973 71.8514 244.747 71.8514 245.64C71.8514 246.52 72.0981 247.267 72.5914 247.88C73.0981 248.493 73.8314 248.8 74.7914 248.8C75.3114 248.8 75.7981 248.667 76.2514 248.4C76.7181 248.133 77.0447 247.74 77.2314 247.22L78.7914 247.78C78.4447 248.553 77.8981 249.147 77.1514 249.56C76.4181 249.973 75.5781 250.18 74.6314 250.18ZM84.1531 250.16C83.1931 250.16 82.4531 249.88 81.9331 249.32C81.4131 248.76 81.2665 247.973 81.4931 246.96L82.7731 241.38H80.7531L81.0731 240H83.0931L83.5931 237.8L85.3331 237.3L84.6931 240H87.7931L87.4731 241.38H84.3731L83.0531 247.04C82.9198 247.653 82.9998 248.093 83.2931 248.36C83.5998 248.613 83.9798 248.74 84.4331 248.74C84.7665 248.74 85.0598 248.693 85.3131 248.6C85.5665 248.507 85.7865 248.387 85.9731 248.24L86.2931 249.56C85.9598 249.787 85.6198 249.94 85.2731 250.02C84.9265 250.113 84.5531 250.16 84.1531 250.16ZM91.46 238.08C91.14 238.08 90.88 237.987 90.68 237.8C90.48 237.6 90.38 237.347 90.38 237.04C90.38 236.627 90.5 236.3 90.74 236.06C90.9933 235.807 91.2933 235.68 91.64 235.68C91.96 235.68 92.22 235.78 92.42 235.98C92.62 236.167 92.72 236.413 92.72 236.72C92.72 237.133 92.5933 237.467 92.34 237.72C92.1 237.96 91.8067 238.08 91.46 238.08ZM91.64 240L89.32 250H87.72L90.04 240H91.64ZM97.4963 250.18C96.5363 250.18 95.7163 249.98 95.0363 249.58C94.3696 249.167 93.8563 248.62 93.4963 247.94C93.1496 247.247 92.9763 246.493 92.9763 245.68C92.9763 244.533 93.1963 243.52 93.6363 242.64C94.0763 241.76 94.6829 241.073 95.4563 240.58C96.2296 240.073 97.1229 239.82 98.1363 239.82C99.1096 239.82 99.9296 240.027 100.596 240.44C101.263 240.84 101.77 241.38 102.116 242.06C102.463 242.727 102.636 243.473 102.636 244.3C102.636 245.433 102.416 246.447 101.976 247.34C101.55 248.22 100.95 248.913 100.176 249.42C99.4029 249.927 98.5096 250.18 97.4963 250.18ZM97.5563 248.8C98.2096 248.8 98.7963 248.62 99.3163 248.26C99.8363 247.887 100.25 247.367 100.556 246.7C100.863 246.033 101.016 245.253 101.016 244.36C101.016 243.773 100.91 243.247 100.696 242.78C100.496 242.3 100.176 241.92 99.7363 241.64C99.3096 241.347 98.7563 241.2 98.0763 241.2C97.4363 241.2 96.8496 241.387 96.3163 241.76C95.7963 242.12 95.3763 242.633 95.0563 243.3C94.7496 243.953 94.5963 244.727 94.5963 245.62C94.5963 246.193 94.7029 246.727 94.9163 247.22C95.1296 247.7 95.4563 248.087 95.8963 248.38C96.3363 248.66 96.8896 248.8 97.5563 248.8ZM103.971 250L106.291 240H107.691L107.451 241.46C107.797 240.9 108.277 240.487 108.891 240.22C109.504 239.94 110.157 239.8 110.851 239.8C111.624 239.8 112.277 239.967 112.811 240.3C113.344 240.633 113.717 241.113 113.931 241.74C114.157 242.353 114.171 243.1 113.971 243.98L112.571 250H110.971L112.371 243.96C112.571 243.093 112.484 242.42 112.111 241.94C111.751 241.447 111.177 241.2 110.391 241.2C109.457 241.2 108.691 241.507 108.091 242.12C107.491 242.72 107.057 243.593 106.791 244.74L105.571 250H103.971ZM125.622 238.08C125.302 238.08 125.042 237.987 124.842 237.8C124.642 237.6 124.542 237.347 124.542 237.04C124.542 236.627 124.662 236.3 124.902 236.06C125.155 235.807 125.455 235.68 125.802 235.68C126.122 235.68 126.382 235.78 126.582 235.98C126.782 236.167 126.882 236.413 126.882 236.72C126.882 237.133 126.755 237.467 126.502 237.72C126.262 237.96 125.968 238.08 125.622 238.08ZM125.802 240L123.482 250H121.882L124.202 240H125.802ZM126.638 250L128.958 240H130.358L130.118 241.46C130.465 240.9 130.945 240.487 131.558 240.22C132.171 239.94 132.825 239.8 133.518 239.8C134.291 239.8 134.945 239.967 135.478 240.3C136.011 240.633 136.385 241.113 136.598 241.74C136.825 242.353 136.838 243.1 136.638 243.98L135.238 250H133.638L135.038 243.96C135.238 243.093 135.151 242.42 134.778 241.94C134.418 241.447 133.845 241.2 133.058 241.2C132.125 241.2 131.358 241.507 130.758 242.12C130.158 242.72 129.725 243.593 129.458 244.74L128.238 250H126.638ZM148.238 250.16C147.278 250.16 146.538 249.88 146.018 249.32C145.498 248.76 145.352 247.973 145.578 246.96L146.858 241.38H144.838L145.158 240H147.178L147.678 237.8L149.418 237.3L148.778 240H151.878L151.558 241.38H148.458L147.138 247.04C147.005 247.653 147.085 248.093 147.378 248.36C147.685 248.613 148.065 248.74 148.518 248.74C148.852 248.74 149.145 248.693 149.398 248.6C149.652 248.507 149.872 248.387 150.058 248.24L150.378 249.56C150.045 249.787 149.705 249.94 149.358 250.02C149.012 250.113 148.638 250.16 148.238 250.16ZM151.805 250L155.185 235.4H156.785L155.445 241.22C155.818 240.74 156.292 240.387 156.865 240.16C157.438 239.92 158.045 239.8 158.685 239.8C159.432 239.8 160.072 239.967 160.605 240.3C161.152 240.633 161.538 241.113 161.765 241.74C161.992 242.353 162.005 243.1 161.805 243.98L160.405 250H158.805L160.205 243.96C160.405 243.093 160.318 242.42 159.945 241.94C159.585 241.447 159.012 241.2 158.225 241.2C157.292 241.2 156.525 241.507 155.925 242.12C155.325 242.72 154.892 243.593 154.625 244.74L153.405 250H151.805ZM168.2 250.18C167.28 250.18 166.486 249.98 165.82 249.58C165.166 249.18 164.666 248.64 164.32 247.96C163.973 247.28 163.8 246.52 163.8 245.68C163.8 244.64 164.006 243.673 164.42 242.78C164.833 241.887 165.433 241.173 166.22 240.64C167.02 240.093 167.986 239.82 169.12 239.82C169.933 239.82 170.626 239.987 171.2 240.32C171.786 240.653 172.233 241.113 172.54 241.7C172.846 242.273 173 242.927 173 243.66C173 244.18 172.906 244.753 172.72 245.38H165.42C165.42 245.5 165.42 245.62 165.42 245.74C165.42 246.633 165.686 247.367 166.22 247.94C166.766 248.513 167.486 248.8 168.38 248.8C169.06 248.787 169.62 248.64 170.06 248.36C170.5 248.08 170.86 247.713 171.14 247.26L172.4 248.1C171.96 248.74 171.386 249.247 170.68 249.62C169.973 249.993 169.146 250.18 168.2 250.18ZM169.02 241.2C168.06 241.2 167.306 241.473 166.76 242.02C166.226 242.567 165.853 243.22 165.64 243.98H171.42C171.433 243.847 171.44 243.72 171.44 243.6C171.44 242.88 171.226 242.3 170.8 241.86C170.373 241.42 169.78 241.2 169.02 241.2ZM37.54 273.18C36.62 273.18 35.8267 272.98 35.16 272.58C34.5067 272.167 34.0067 271.62 33.66 270.94C33.3133 270.247 33.14 269.487 33.14 268.66C33.14 267.513 33.36 266.507 33.8 265.64C34.24 264.76 34.8533 264.073 35.64 263.58C36.4267 263.073 37.34 262.82 38.38 262.82C39.5133 262.82 40.4333 263.113 41.14 263.7C41.8467 264.287 42.2867 265.02 42.46 265.9L40.78 266.3C40.7267 265.713 40.4933 265.22 40.08 264.82C39.68 264.407 39.0867 264.2 38.3 264.2C37.62 264.2 37.0133 264.387 36.48 264.76C35.9467 265.133 35.5267 265.653 35.22 266.32C34.9133 266.973 34.76 267.747 34.76 268.64C34.76 269.52 35.0067 270.267 35.5 270.88C36.0067 271.493 36.74 271.8 37.7 271.8C38.22 271.8 38.7067 271.667 39.16 271.4C39.6267 271.133 39.9533 270.74 40.14 270.22L41.7 270.78C41.3533 271.553 40.8067 272.147 40.06 272.56C39.3267 272.973 38.4867 273.18 37.54 273.18ZM47.2841 273.16C46.5107 273.16 45.8307 272.973 45.2441 272.6C44.6574 272.227 44.1974 271.713 43.8641 271.06C43.5307 270.393 43.3641 269.627 43.3641 268.76C43.3641 267.653 43.5841 266.653 44.0241 265.76C44.4641 264.853 45.0641 264.133 45.8241 263.6C46.5974 263.067 47.4774 262.8 48.4641 262.8C49.3441 262.8 50.0841 263.027 50.6841 263.48C51.2841 263.92 51.6707 264.513 51.8441 265.26L52.3641 263H53.9641L51.6441 273H50.2441L50.5841 271.14C50.2641 271.753 49.8041 272.247 49.2041 272.62C48.6174 272.98 47.9774 273.16 47.2841 273.16ZM47.7041 271.8C48.3307 271.8 48.9107 271.593 49.4441 271.18C49.9774 270.767 50.4041 270.207 50.7241 269.5C51.0441 268.793 51.2041 268.007 51.2041 267.14C51.2041 266.233 50.9641 265.513 50.4841 264.98C50.0041 264.447 49.3641 264.18 48.5641 264.18C47.8574 264.18 47.2307 264.387 46.6841 264.8C46.1374 265.2 45.7107 265.747 45.4041 266.44C45.0974 267.12 44.9441 267.887 44.9441 268.74C44.9441 269.713 45.1774 270.467 45.6441 271C46.1241 271.533 46.8107 271.8 47.7041 271.8ZM54.8083 273L57.1283 263H58.5283L58.2883 264.44C58.6349 263.893 59.1083 263.487 59.7083 263.22C60.3083 262.94 60.9549 262.8 61.6483 262.8C62.3816 262.8 63.0083 262.98 63.5283 263.34C64.0616 263.687 64.4216 264.187 64.6083 264.84C65.0349 264.16 65.5883 263.653 66.2683 263.32C66.9483 262.973 67.6683 262.8 68.4283 262.8C69.1483 262.8 69.7616 262.967 70.2683 263.3C70.7883 263.633 71.1549 264.113 71.3683 264.74C71.5816 265.367 71.5816 266.127 71.3683 267.02L69.9883 273H68.3883L69.7683 267C69.9683 266.12 69.9016 265.433 69.5683 264.94C69.2349 264.447 68.7016 264.2 67.9683 264.2C67.1016 264.2 66.3816 264.467 65.8083 265C65.2349 265.533 64.8083 266.3 64.5283 267.3L63.1883 273H61.5883L62.9883 267C63.2016 266.12 63.1349 265.433 62.7883 264.94C62.4549 264.447 61.9216 264.2 61.1883 264.2C60.2549 264.2 59.4949 264.507 58.9083 265.12C58.3216 265.72 57.8949 266.593 57.6283 267.74L56.4083 273H54.8083ZM72.1202 277.2L75.4002 263H76.8002L76.4802 264.74C76.8268 264.14 77.3068 263.673 77.9202 263.34C78.5335 263.007 79.2135 262.84 79.9602 262.84C80.6668 262.84 81.3002 263.013 81.8602 263.36C82.4202 263.707 82.8602 264.207 83.1802 264.86C83.5135 265.513 83.6802 266.293 83.6802 267.2C83.6802 268.347 83.4535 269.373 83.0002 270.28C82.5468 271.187 81.9335 271.9 81.1602 272.42C80.3868 272.94 79.5135 273.2 78.5402 273.2C77.6868 273.2 76.9602 272.98 76.3602 272.54C75.7735 272.087 75.3868 271.487 75.2002 270.74L73.7202 277.2H72.1202ZM78.5602 271.82C79.2135 271.82 79.8068 271.62 80.3402 271.22C80.8735 270.82 81.3002 270.273 81.6202 269.58C81.9402 268.873 82.1002 268.08 82.1002 267.2C82.1002 266.24 81.8468 265.507 81.3402 265C80.8468 264.48 80.2068 264.22 79.4202 264.22C78.7402 264.22 78.1268 264.42 77.5802 264.82C77.0468 265.22 76.6202 265.773 76.3002 266.48C75.9935 267.187 75.8402 267.993 75.8402 268.9C75.8402 269.767 76.0668 270.473 76.5202 271.02C76.9868 271.553 77.6668 271.82 78.5602 271.82ZM89.4044 273.16C88.631 273.16 87.951 272.973 87.3644 272.6C86.7777 272.227 86.3177 271.713 85.9844 271.06C85.651 270.393 85.4844 269.627 85.4844 268.76C85.4844 267.653 85.7044 266.653 86.1444 265.76C86.5844 264.853 87.1844 264.133 87.9444 263.6C88.7177 263.067 89.5977 262.8 90.5844 262.8C91.4644 262.8 92.2044 263.027 92.8044 263.48C93.4044 263.92 93.791 264.513 93.9644 265.26L94.4844 263H96.0844L93.7644 273H92.3644L92.7044 271.14C92.3844 271.753 91.9244 272.247 91.3244 272.62C90.7377 272.98 90.0977 273.16 89.4044 273.16ZM89.8244 271.8C90.451 271.8 91.031 271.593 91.5644 271.18C92.0977 270.767 92.5244 270.207 92.8444 269.5C93.1644 268.793 93.3244 268.007 93.3244 267.14C93.3244 266.233 93.0844 265.513 92.6044 264.98C92.1244 264.447 91.4844 264.18 90.6844 264.18C89.9777 264.18 89.351 264.387 88.8044 264.8C88.2577 265.2 87.831 265.747 87.5244 266.44C87.2177 267.12 87.0644 267.887 87.0644 268.74C87.0644 269.713 87.2977 270.467 87.7644 271C88.2444 271.533 88.931 271.8 89.8244 271.8ZM100.669 261.08C100.349 261.08 100.089 260.987 99.8886 260.8C99.6886 260.6 99.5886 260.347 99.5886 260.04C99.5886 259.627 99.7086 259.3 99.9486 259.06C100.202 258.807 100.502 258.68 100.849 258.68C101.169 258.68 101.429 258.78 101.629 258.98C101.829 259.167 101.929 259.413 101.929 259.72C101.929 260.133 101.802 260.467 101.549 260.72C101.309 260.96 101.015 261.08 100.669 261.08ZM100.849 263L98.5286 273H96.9286L99.2486 263H100.849ZM105.325 277.3C104.165 277.3 103.192 277.007 102.405 276.42C101.618 275.833 101.132 275.053 100.945 274.08L102.545 273.52C102.692 274.267 102.978 274.847 103.405 275.26C103.845 275.687 104.525 275.9 105.445 275.9C105.952 275.9 106.432 275.807 106.885 275.62C107.338 275.447 107.738 275.133 108.085 274.68C108.432 274.24 108.692 273.613 108.865 272.8L109.225 271.22C108.905 271.7 108.472 272.08 107.925 272.36C107.392 272.64 106.798 272.78 106.145 272.78C105.372 272.78 104.678 272.587 104.065 272.2C103.452 271.813 102.972 271.293 102.625 270.64C102.278 269.973 102.105 269.247 102.105 268.46C102.105 267.34 102.325 266.36 102.765 265.52C103.205 264.667 103.805 264 104.565 263.52C105.338 263.04 106.205 262.8 107.165 262.8C108.045 262.8 108.785 263.027 109.385 263.48C109.998 263.92 110.398 264.513 110.585 265.26L111.105 263H112.705L110.365 272.98C110.005 274.513 109.378 275.613 108.485 276.28C107.592 276.96 106.538 277.3 105.325 277.3ZM106.565 271.4C107.192 271.4 107.758 271.213 108.265 270.84C108.772 270.467 109.172 269.96 109.465 269.32C109.772 268.667 109.925 267.927 109.925 267.1C109.925 266.207 109.685 265.5 109.205 264.98C108.738 264.447 108.092 264.18 107.265 264.18C106.572 264.18 105.958 264.36 105.425 264.72C104.892 265.067 104.472 265.56 104.165 266.2C103.858 266.827 103.705 267.567 103.705 268.42C103.705 269.287 103.958 270 104.465 270.56C104.972 271.12 105.672 271.4 106.565 271.4ZM113.55 273L115.87 263H117.27L117.03 264.46C117.377 263.9 117.857 263.487 118.47 263.22C119.084 262.94 119.737 262.8 120.43 262.8C121.204 262.8 121.857 262.967 122.39 263.3C122.924 263.633 123.297 264.113 123.51 264.74C123.737 265.353 123.75 266.1 123.55 266.98L122.15 273H120.55L121.95 266.96C122.15 266.093 122.064 265.42 121.69 264.94C121.33 264.447 120.757 264.2 119.97 264.2C119.037 264.2 118.27 264.507 117.67 265.12C117.07 265.72 116.637 266.593 116.37 267.74L115.15 273H113.55ZM136.381 273.18C135.461 273.18 134.668 272.98 134.001 272.58C133.348 272.167 132.848 271.62 132.501 270.94C132.155 270.247 131.981 269.487 131.981 268.66C131.981 267.513 132.201 266.507 132.641 265.64C133.081 264.76 133.695 264.073 134.481 263.58C135.268 263.073 136.181 262.82 137.221 262.82C138.355 262.82 139.275 263.113 139.981 263.7C140.688 264.287 141.128 265.02 141.301 265.9L139.621 266.3C139.568 265.713 139.335 265.22 138.921 264.82C138.521 264.407 137.928 264.2 137.141 264.2C136.461 264.2 135.855 264.387 135.321 264.76C134.788 265.133 134.368 265.653 134.061 266.32C133.755 266.973 133.601 267.747 133.601 268.64C133.601 269.52 133.848 270.267 134.341 270.88C134.848 271.493 135.581 271.8 136.541 271.8C137.061 271.8 137.548 271.667 138.001 271.4C138.468 271.133 138.795 270.74 138.981 270.22L140.541 270.78C140.195 271.553 139.648 272.147 138.901 272.56C138.168 272.973 137.328 273.18 136.381 273.18ZM141.823 273L144.143 263H145.443L145.283 264.58C145.656 264.02 146.136 263.587 146.723 263.28C147.323 262.96 147.93 262.8 148.543 262.8C148.97 262.8 149.31 262.86 149.563 262.98L149.083 264.5C148.95 264.433 148.796 264.387 148.623 264.36C148.463 264.32 148.27 264.3 148.043 264.3C147.283 264.3 146.596 264.567 145.983 265.1C145.383 265.62 144.95 266.447 144.683 267.58L143.423 273H141.823ZM153.765 273.18C152.845 273.18 152.051 272.98 151.385 272.58C150.731 272.18 150.231 271.64 149.885 270.96C149.538 270.28 149.365 269.52 149.365 268.68C149.365 267.64 149.571 266.673 149.985 265.78C150.398 264.887 150.998 264.173 151.785 263.64C152.585 263.093 153.551 262.82 154.685 262.82C155.498 262.82 156.191 262.987 156.765 263.32C157.351 263.653 157.798 264.113 158.105 264.7C158.411 265.273 158.565 265.927 158.565 266.66C158.565 267.18 158.471 267.753 158.285 268.38H150.985C150.985 268.5 150.985 268.62 150.985 268.74C150.985 269.633 151.251 270.367 151.785 270.94C152.331 271.513 153.051 271.8 153.945 271.8C154.625 271.787 155.185 271.64 155.625 271.36C156.065 271.08 156.425 270.713 156.705 270.26L157.965 271.1C157.525 271.74 156.951 272.247 156.245 272.62C155.538 272.993 154.711 273.18 153.765 273.18ZM154.585 264.2C153.625 264.2 152.871 264.473 152.325 265.02C151.791 265.567 151.418 266.22 151.205 266.98H156.985C156.998 266.847 157.005 266.72 157.005 266.6C157.005 265.88 156.791 265.3 156.365 264.86C155.938 264.42 155.345 264.2 154.585 264.2ZM164.212 273.16C163.439 273.16 162.759 272.973 162.172 272.6C161.586 272.227 161.126 271.713 160.792 271.06C160.459 270.393 160.292 269.627 160.292 268.76C160.292 267.653 160.512 266.653 160.952 265.76C161.392 264.853 161.992 264.133 162.752 263.6C163.526 263.067 164.406 262.8 165.392 262.8C166.272 262.8 167.012 263.027 167.612 263.48C168.212 263.92 168.599 264.513 168.772 265.26L169.292 263H170.892L168.572 273H167.172L167.512 271.14C167.192 271.753 166.732 272.247 166.132 272.62C165.546 272.98 164.906 273.16 164.212 273.16ZM164.632 271.8C165.259 271.8 165.839 271.593 166.372 271.18C166.906 270.767 167.332 270.207 167.652 269.5C167.972 268.793 168.132 268.007 168.132 267.14C168.132 266.233 167.892 265.513 167.412 264.98C166.932 264.447 166.292 264.18 165.492 264.18C164.786 264.18 164.159 264.387 163.612 264.8C163.066 265.2 162.639 265.747 162.332 266.44C162.026 267.12 161.872 267.887 161.872 268.74C161.872 269.713 162.106 270.467 162.572 271C163.052 271.533 163.739 271.8 164.632 271.8ZM175.816 273.16C174.856 273.16 174.116 272.88 173.596 272.32C173.076 271.76 172.93 270.973 173.156 269.96L174.436 264.38H172.416L172.736 263H174.756L175.256 260.8L176.996 260.3L176.356 263H179.456L179.136 264.38H176.036L174.716 270.04C174.583 270.653 174.663 271.093 174.956 271.36C175.263 271.613 175.643 271.74 176.096 271.74C176.43 271.74 176.723 271.693 176.976 271.6C177.23 271.507 177.45 271.387 177.636 271.24L177.956 272.56C177.623 272.787 177.283 272.94 176.936 273.02C176.59 273.113 176.216 273.16 175.816 273.16ZM184.403 273.18C183.443 273.18 182.623 272.98 181.943 272.58C181.277 272.167 180.763 271.62 180.403 270.94C180.057 270.247 179.883 269.493 179.883 268.68C179.883 267.533 180.103 266.52 180.543 265.64C180.983 264.76 181.59 264.073 182.363 263.58C183.137 263.073 184.03 262.82 185.043 262.82C186.017 262.82 186.837 263.027 187.503 263.44C188.17 263.84 188.677 264.38 189.023 265.06C189.37 265.727 189.543 266.473 189.543 267.3C189.543 268.433 189.323 269.447 188.883 270.34C188.457 271.22 187.857 271.913 187.083 272.42C186.31 272.927 185.417 273.18 184.403 273.18ZM184.463 271.8C185.117 271.8 185.703 271.62 186.223 271.26C186.743 270.887 187.157 270.367 187.463 269.7C187.77 269.033 187.923 268.253 187.923 267.36C187.923 266.773 187.817 266.247 187.603 265.78C187.403 265.3 187.083 264.92 186.643 264.64C186.217 264.347 185.663 264.2 184.983 264.2C184.343 264.2 183.757 264.387 183.223 264.76C182.703 265.12 182.283 265.633 181.963 266.3C181.657 266.953 181.503 267.727 181.503 268.62C181.503 269.193 181.61 269.727 181.823 270.22C182.037 270.7 182.363 271.087 182.803 271.38C183.243 271.66 183.797 271.8 184.463 271.8ZM190.878 273L193.198 263H194.498L194.338 264.58C194.711 264.02 195.191 263.587 195.778 263.28C196.378 262.96 196.984 262.8 197.598 262.8C198.024 262.8 198.364 262.86 198.618 262.98L198.138 264.5C198.004 264.433 197.851 264.387 197.678 264.36C197.518 264.32 197.324 264.3 197.098 264.3C196.338 264.3 195.651 264.567 195.038 265.1C194.438 265.62 194.004 266.447 193.738 267.58L192.478 273H190.878ZM197.63 273.2C197.297 273.2 197.017 273.1 196.79 272.9C196.577 272.687 196.47 272.413 196.47 272.08C196.47 271.627 196.603 271.267 196.87 271C197.137 270.733 197.457 270.6 197.83 270.6C198.163 270.6 198.437 270.707 198.65 270.92C198.877 271.12 198.99 271.387 198.99 271.72C198.99 272.173 198.857 272.533 198.59 272.8C198.337 273.067 198.017 273.2 197.63 273.2Z" fill="black"/>
<path d="M82.4166 75.22C82.03 76.6067 81.3166 77.62 80.2766 78.26C79.25 78.8867 78.0366 79.2 76.6366 79.2C75.29 79.2 74.13 78.9333 73.1566 78.4C72.1966 77.8533 71.4566 77.0733 70.9366 76.06C70.4166 75.0467 70.1566 73.8267 70.1566 72.4C70.1566 70.9733 70.4166 69.7533 70.9366 68.74C71.4566 67.7267 72.1966 66.9533 73.1566 66.42C74.13 65.8733 75.2833 65.6 76.6166 65.6C77.99 65.6 79.19 65.8933 80.2166 66.48C81.2433 67.0667 81.9233 67.9867 82.2566 69.24L79.2366 70.46C79.05 69.6467 78.7433 69.0867 78.3166 68.78C77.9033 68.46 77.3766 68.3 76.7366 68.3C75.7766 68.3 75.0233 68.6467 74.4766 69.34C73.9433 70.0333 73.6766 71.0533 73.6766 72.4C73.6766 73.7467 73.93 74.7667 74.4366 75.46C74.9566 76.1533 75.73 76.5 76.7566 76.5C77.3966 76.5 77.9366 76.3267 78.3766 75.98C78.83 75.62 79.1366 75.0733 79.2966 74.34L82.4166 75.22ZM89.2699 72.66C89.2699 72.1933 89.1366 71.8267 88.8699 71.56C88.6166 71.28 88.2699 71.14 87.8299 71.14C87.3899 71.14 87.0099 71.2533 86.6899 71.48C86.3833 71.6933 86.1699 72.08 86.0499 72.64L83.1699 71.96C83.3566 71 83.8499 70.2333 84.6499 69.66C85.4499 69.0867 86.5766 68.8 88.0299 68.8C89.4966 68.8 90.6299 69.1267 91.4299 69.78C92.2433 70.42 92.6499 71.36 92.6499 72.6V76.26C92.6499 76.78 92.8833 77.04 93.3499 77.04C93.5899 77.04 93.7833 77.0133 93.9299 76.96L93.7299 78.9C93.3299 79.0867 92.8433 79.18 92.2699 79.18C91.6433 79.18 91.1033 79.06 90.6499 78.82C90.1966 78.5667 89.8899 78.1867 89.7299 77.68C89.4499 78.2 89.0033 78.5867 88.3899 78.84C87.7899 79.08 87.1499 79.2 86.4699 79.2C85.4433 79.2 84.6233 78.9667 84.0099 78.5C83.4099 78.02 83.1099 77.3333 83.1099 76.44C83.1099 75.72 83.3233 75.1267 83.7499 74.66C84.1899 74.18 84.8766 73.8467 85.8099 73.66L89.2699 72.94V72.66ZM86.4699 76.12C86.4699 76.4133 86.5766 76.6333 86.7899 76.78C87.0033 76.9267 87.2566 77 87.5499 77C88.0033 77 88.4033 76.8667 88.7499 76.6C89.0966 76.32 89.2699 75.8867 89.2699 75.3V74.74L87.6499 75.08C87.2499 75.16 86.9499 75.28 86.7499 75.44C86.5633 75.5867 86.4699 75.8133 86.4699 76.12ZM94.872 79V69H97.912L98.012 71.02C98.3186 70.2867 98.7653 69.7333 99.352 69.36C99.9386 68.9867 100.632 68.8 101.432 68.8C102.459 68.8 103.292 69.1 103.932 69.7C104.572 70.3 104.892 71.18 104.892 72.34V79H101.492V73.24C101.492 72.5467 101.359 72.0667 101.092 71.8C100.825 71.5333 100.485 71.4 100.072 71.4C99.5786 71.4 99.152 71.5733 98.792 71.92C98.4453 72.2667 98.272 72.86 98.272 73.7V79H94.872ZM117.777 72.66C117.777 72.1933 117.644 71.8267 117.377 71.56C117.124 71.28 116.777 71.14 116.337 71.14C115.897 71.14 115.517 71.2533 115.197 71.48C114.89 71.6933 114.677 72.08 114.557 72.64L111.677 71.96C111.864 71 112.357 70.2333 113.157 69.66C113.957 69.0867 115.084 68.8 116.537 68.8C118.004 68.8 119.137 69.1267 119.937 69.78C120.75 70.42 121.157 71.36 121.157 72.6V76.26C121.157 76.78 121.39 77.04 121.857 77.04C122.097 77.04 122.29 77.0133 122.437 76.96L122.237 78.9C121.837 79.0867 121.35 79.18 120.777 79.18C120.15 79.18 119.61 79.06 119.157 78.82C118.704 78.5667 118.397 78.1867 118.237 77.68C117.957 78.2 117.51 78.5867 116.897 78.84C116.297 79.08 115.657 79.2 114.977 79.2C113.95 79.2 113.13 78.9667 112.517 78.5C111.917 78.02 111.617 77.3333 111.617 76.44C111.617 75.72 111.83 75.1267 112.257 74.66C112.697 74.18 113.384 73.8467 114.317 73.66L117.777 72.94V72.66ZM114.977 76.12C114.977 76.4133 115.084 76.6333 115.297 76.78C115.51 76.9267 115.764 77 116.057 77C116.51 77 116.91 76.8667 117.257 76.6C117.604 76.32 117.777 75.8867 117.777 75.3V74.74L116.157 75.08C115.757 75.16 115.457 75.28 115.257 75.44C115.07 75.5867 114.977 75.8133 114.977 76.12ZM123.379 79V69H126.419L126.519 71.02C126.826 70.2867 127.272 69.7333 127.859 69.36C128.446 68.9867 129.139 68.8 129.939 68.8C130.966 68.8 131.799 69.1 132.439 69.7C133.079 70.3 133.399 71.18 133.399 72.34V79H129.999V73.24C129.999 72.5467 129.866 72.0667 129.599 71.8C129.332 71.5333 128.992 71.4 128.579 71.4C128.086 71.4 127.659 71.5733 127.299 71.92C126.952 72.2667 126.779 72.86 126.779 73.7V79H123.379ZM145.012 69L141.372 79C140.998 80.0533 140.592 80.8933 140.152 81.52C139.712 82.16 139.192 82.6133 138.592 82.88C137.992 83.16 137.272 83.3 136.432 83.3C135.858 83.3 135.338 83.24 134.872 83.12C134.418 83 134.018 82.8333 133.672 82.62L134.352 80.32C134.592 80.4933 134.845 80.6133 135.112 80.68C135.378 80.76 135.718 80.8 136.132 80.8C136.518 80.8 136.832 80.7333 137.072 80.6C137.325 80.48 137.525 80.2267 137.672 79.84L137.932 79.22L136.772 76.5L133.772 69H137.512L139.052 74.7L139.532 76.82L140.092 74.62L141.632 69H145.012ZM150.695 79V69H153.695L153.835 71.16C154.075 70.4267 154.441 69.8533 154.935 69.44C155.441 69.0133 156.088 68.8 156.875 68.8C157.128 68.8 157.341 68.8267 157.515 68.88C157.701 68.92 157.848 68.9667 157.955 69.02L157.615 71.82C157.481 71.78 157.308 71.74 157.095 71.7C156.895 71.66 156.648 71.64 156.355 71.64C155.741 71.64 155.208 71.8333 154.755 72.22C154.315 72.6067 154.095 73.1867 154.095 73.96V79H150.695ZM162.268 79.2C161.255 79.2 160.428 78.9267 159.788 78.38C159.148 77.8333 158.828 76.9333 158.828 75.68V69H162.228V74.88C162.228 75.52 162.355 75.9667 162.608 76.22C162.862 76.4733 163.222 76.6 163.688 76.6C164.168 76.6 164.575 76.4267 164.908 76.08C165.255 75.72 165.428 75.1467 165.428 74.36V69H168.828V79H165.788L165.688 77.12C165.368 77.8267 164.922 78.3533 164.348 78.7C163.775 79.0333 163.082 79.2 162.268 79.2ZM174.231 64.76V75.6C174.231 76.04 174.305 76.3533 174.451 76.54C174.598 76.7267 174.845 76.82 175.191 76.82C175.391 76.82 175.558 76.8067 175.691 76.78C175.825 76.7533 175.985 76.7133 176.171 76.66L175.951 78.7C175.711 78.8467 175.398 78.9667 175.011 79.06C174.625 79.1533 174.245 79.2 173.871 79.2C172.805 79.2 172.031 78.9533 171.551 78.46C171.071 77.9667 170.831 77.16 170.831 76.04V64.76H174.231ZM181.894 79.2C180.227 79.2 178.907 78.7467 177.934 77.84C176.974 76.9333 176.494 75.6533 176.494 74C176.494 72.9067 176.714 71.9733 177.154 71.2C177.607 70.4133 178.221 69.82 178.994 69.42C179.781 69.0067 180.694 68.8 181.734 68.8C182.787 68.8 183.681 69.0067 184.414 69.42C185.161 69.82 185.727 70.38 186.114 71.1C186.501 71.8067 186.694 72.62 186.694 73.54C186.694 73.7933 186.681 74.04 186.654 74.28C186.641 74.5067 186.627 74.7 186.614 74.86H179.794C179.887 75.5533 180.114 76.0533 180.474 76.36C180.834 76.6533 181.307 76.8 181.894 76.8C182.401 76.8 182.801 76.7 183.094 76.5C183.401 76.3 183.627 76.02 183.774 75.66L186.494 76.56C186.307 77.1333 185.981 77.62 185.514 78.02C185.061 78.4067 184.514 78.7 183.874 78.9C183.247 79.1 182.587 79.2 181.894 79.2ZM181.734 71.18C180.654 71.18 180.014 71.8 179.814 73.04H183.474C183.327 71.8 182.747 71.18 181.734 71.18ZM195.916 72.26V75.04H188.596V72.26H195.916ZM202.563 79.2C201.563 79.2 200.636 79.04 199.783 78.72C198.929 78.3867 198.216 77.9133 197.643 77.3L199.243 75.42C199.576 75.8467 200.016 76.2067 200.563 76.5C201.123 76.78 201.743 76.92 202.423 76.92C202.836 76.92 203.176 76.86 203.443 76.74C203.709 76.62 203.843 76.4333 203.843 76.18C203.843 76.0067 203.776 75.86 203.643 75.74C203.509 75.62 203.243 75.52 202.843 75.44L201.443 75.16C200.189 74.9067 199.296 74.5333 198.763 74.04C198.243 73.5333 197.983 72.8733 197.983 72.06C197.983 71.5133 198.149 70.9933 198.483 70.5C198.816 70.0067 199.329 69.6 200.023 69.28C200.716 68.96 201.603 68.8 202.683 68.8C204.749 68.8 206.256 69.3733 207.203 70.52L205.583 72.36C205.263 71.96 204.849 71.6467 204.343 71.42C203.836 71.1933 203.329 71.08 202.823 71.08C201.849 71.08 201.363 71.3267 201.363 71.82C201.363 71.9933 201.443 72.1467 201.603 72.28C201.776 72.4133 202.089 72.52 202.543 72.6L204.363 72.96C205.389 73.16 206.129 73.5067 206.583 74C207.036 74.48 207.263 75.0667 207.263 75.76C207.263 76.7333 206.869 77.5533 206.083 78.22C205.309 78.8733 204.136 79.2 202.563 79.2ZM213.448 79.2C211.781 79.2 210.461 78.7467 209.488 77.84C208.528 76.9333 208.048 75.6533 208.048 74C208.048 72.9067 208.268 71.9733 208.708 71.2C209.161 70.4133 209.775 69.82 210.548 69.42C211.335 69.0067 212.248 68.8 213.288 68.8C214.341 68.8 215.235 69.0067 215.968 69.42C216.715 69.82 217.281 70.38 217.668 71.1C218.055 71.8067 218.248 72.62 218.248 73.54C218.248 73.7933 218.235 74.04 218.208 74.28C218.195 74.5067 218.181 74.7 218.168 74.86H211.348C211.441 75.5533 211.668 76.0533 212.028 76.36C212.388 76.6533 212.861 76.8 213.448 76.8C213.955 76.8 214.355 76.7 214.648 76.5C214.955 76.3 215.181 76.02 215.328 75.66L218.048 76.56C217.861 77.1333 217.535 77.62 217.068 78.02C216.615 78.4067 216.068 78.7 215.428 78.9C214.801 79.1 214.141 79.2 213.448 79.2ZM213.288 71.18C212.208 71.18 211.568 71.8 211.368 73.04H215.028C214.881 71.8 214.301 71.18 213.288 71.18ZM226.793 69V71.42H223.813V75.44C223.813 75.92 223.926 76.2667 224.153 76.48C224.393 76.68 224.72 76.78 225.133 76.78C225.453 76.78 225.726 76.7467 225.953 76.68C226.18 76.6 226.393 76.4867 226.593 76.34L226.953 78.44C226.62 78.6667 226.193 78.8533 225.673 79C225.166 79.1333 224.653 79.2 224.133 79.2C222.986 79.2 222.08 78.96 221.413 78.48C220.76 77.9867 220.426 77.16 220.413 76V71.42H218.693V69H220.413V66.76L223.813 65.82V69H226.793ZM112.489 102.2C111.676 102.2 110.983 101.98 110.409 101.54C109.836 101.1 109.423 100.52 109.169 99.8L109.049 102H106.069V87.76H109.469V93.72C109.736 93.1467 110.129 92.6867 110.649 92.34C111.183 91.98 111.836 91.8 112.609 91.8C113.383 91.8 114.069 92.0067 114.669 92.42C115.269 92.8333 115.743 93.4333 116.089 94.22C116.436 94.9933 116.609 95.9333 116.609 97.04C116.609 98.6667 116.229 99.9333 115.469 100.84C114.709 101.747 113.716 102.2 112.489 102.2ZM111.309 99.7C111.896 99.7 112.356 99.4867 112.689 99.06C113.023 98.62 113.189 97.9333 113.189 97C113.189 96.0667 113.023 95.3867 112.689 94.96C112.356 94.52 111.896 94.3 111.309 94.3C110.736 94.3 110.283 94.54 109.949 95.02C109.629 95.5 109.469 96.1667 109.469 97.02C109.469 97.8867 109.636 98.5533 109.969 99.02C110.303 99.4733 110.749 99.7 111.309 99.7ZM123.088 102.2C121.422 102.2 120.102 101.747 119.128 100.84C118.168 99.9333 117.688 98.6533 117.688 97C117.688 95.9067 117.908 94.9733 118.348 94.2C118.802 93.4133 119.415 92.82 120.188 92.42C120.975 92.0067 121.888 91.8 122.928 91.8C123.982 91.8 124.875 92.0067 125.608 92.42C126.355 92.82 126.922 93.38 127.308 94.1C127.695 94.8067 127.888 95.62 127.888 96.54C127.888 96.7933 127.875 97.04 127.848 97.28C127.835 97.5067 127.822 97.7 127.808 97.86H120.988C121.082 98.5533 121.308 99.0533 121.668 99.36C122.028 99.6533 122.502 99.8 123.088 99.8C123.595 99.8 123.995 99.7 124.288 99.5C124.595 99.3 124.822 99.02 124.968 98.66L127.688 99.56C127.502 100.133 127.175 100.62 126.708 101.02C126.255 101.407 125.708 101.7 125.068 101.9C124.442 102.1 123.782 102.2 123.088 102.2ZM122.928 94.18C121.848 94.18 121.208 94.8 121.008 96.04H124.668C124.522 94.8 123.942 94.18 122.928 94.18ZM138.093 102.2C137.08 102.2 136.253 101.927 135.613 101.38C134.973 100.833 134.653 99.9333 134.653 98.68V92H138.053V97.88C138.053 98.52 138.18 98.9667 138.433 99.22C138.686 99.4733 139.046 99.6 139.513 99.6C139.993 99.6 140.4 99.4267 140.733 99.08C141.08 98.72 141.253 98.1467 141.253 97.36V92H144.653V102H141.613L141.513 100.12C141.193 100.827 140.746 101.353 140.173 101.7C139.6 102.033 138.906 102.2 138.093 102.2ZM150.896 102.2C149.896 102.2 148.969 102.04 148.116 101.72C147.262 101.387 146.549 100.913 145.976 100.3L147.576 98.42C147.909 98.8467 148.349 99.2067 148.896 99.5C149.456 99.78 150.076 99.92 150.756 99.92C151.169 99.92 151.509 99.86 151.776 99.74C152.042 99.62 152.176 99.4333 152.176 99.18C152.176 99.0067 152.109 98.86 151.976 98.74C151.842 98.62 151.576 98.52 151.176 98.44L149.776 98.16C148.522 97.9067 147.629 97.5333 147.096 97.04C146.576 96.5333 146.316 95.8733 146.316 95.06C146.316 94.5133 146.482 93.9933 146.816 93.5C147.149 93.0067 147.662 92.6 148.356 92.28C149.049 91.96 149.936 91.8 151.016 91.8C153.082 91.8 154.589 92.3733 155.536 93.52L153.916 95.36C153.596 94.96 153.182 94.6467 152.676 94.42C152.169 94.1933 151.662 94.08 151.156 94.08C150.182 94.08 149.696 94.3267 149.696 94.82C149.696 94.9933 149.776 95.1467 149.936 95.28C150.109 95.4133 150.422 95.52 150.876 95.6L152.696 95.96C153.722 96.16 154.462 96.5067 154.916 97C155.369 97.48 155.596 98.0667 155.596 98.76C155.596 99.7333 155.202 100.553 154.416 101.22C153.642 101.873 152.469 102.2 150.896 102.2ZM161.781 102.2C160.115 102.2 158.795 101.747 157.821 100.84C156.861 99.9333 156.381 98.6533 156.381 97C156.381 95.9067 156.601 94.9733 157.041 94.2C157.495 93.4133 158.108 92.82 158.881 92.42C159.668 92.0067 160.581 91.8 161.621 91.8C162.675 91.8 163.568 92.0067 164.301 92.42C165.048 92.82 165.615 93.38 166.001 94.1C166.388 94.8067 166.581 95.62 166.581 96.54C166.581 96.7933 166.568 97.04 166.541 97.28C166.528 97.5067 166.515 97.7 166.501 97.86H159.681C159.775 98.5533 160.001 99.0533 160.361 99.36C160.721 99.6533 161.195 99.8 161.781 99.8C162.288 99.8 162.688 99.7 162.981 99.5C163.288 99.3 163.515 99.02 163.661 98.66L166.381 99.56C166.195 100.133 165.868 100.62 165.401 101.02C164.948 101.407 164.401 101.7 163.761 101.9C163.135 102.1 162.475 102.2 161.781 102.2ZM161.621 94.18C160.541 94.18 159.901 94.8 159.701 96.04H163.361C163.215 94.8 162.635 94.18 161.621 94.18ZM171.763 102.2C170.523 102.2 169.523 101.747 168.763 100.84C168.017 99.9333 167.643 98.6667 167.643 97.04C167.643 95.92 167.817 94.9733 168.163 94.2C168.523 93.4133 169.017 92.82 169.643 92.42C170.283 92.0067 171.017 91.8 171.843 91.8C172.55 91.8 173.15 91.9733 173.643 92.32C174.15 92.6667 174.53 93.1267 174.783 93.7V87.76H178.183V102H175.143L175.023 100.04C174.743 100.707 174.317 101.233 173.743 101.62C173.183 102.007 172.523 102.2 171.763 102.2ZM172.943 99.7C173.503 99.7 173.95 99.4667 174.283 99C174.617 98.5333 174.783 97.8467 174.783 96.94C174.783 96.1 174.623 95.4533 174.303 95C173.983 94.5333 173.537 94.3 172.963 94.3C172.377 94.3 171.91 94.52 171.563 94.96C171.23 95.3867 171.063 96.0667 171.063 97C171.063 97.9333 171.23 98.62 171.563 99.06C171.897 99.4867 172.357 99.7 172.943 99.7ZM185.162 88.6C186.136 88.6 187.009 88.74 187.782 89.02C188.569 89.2867 189.182 89.6933 189.622 90.24C190.076 90.7867 190.302 91.4667 190.302 92.28C190.302 93.1067 190.129 93.78 189.782 94.3C189.449 94.82 188.989 95.2133 188.402 95.48C187.829 95.7467 187.196 95.92 186.502 96L186.302 97.72H183.302L183.322 94.68C184.536 94.5733 185.389 94.36 185.882 94.04C186.389 93.7067 186.642 93.2733 186.642 92.74C186.642 92.3133 186.502 91.98 186.222 91.74C185.942 91.4867 185.509 91.36 184.922 91.36C183.762 91.36 183.096 92.0333 182.922 93.38L179.642 92.24C179.802 91.5467 180.102 90.9267 180.542 90.38C180.982 89.8333 181.582 89.4 182.342 89.08C183.102 88.76 184.042 88.6 185.162 88.6ZM184.862 98.78C185.462 98.78 185.929 98.9333 186.262 99.24C186.609 99.5333 186.782 99.94 186.782 100.46C186.782 100.993 186.609 101.413 186.262 101.72C185.929 102.013 185.462 102.16 184.862 102.16C184.249 102.16 183.769 102.013 183.422 101.72C183.089 101.413 182.922 100.993 182.922 100.46C182.922 99.94 183.089 99.5333 183.422 99.24C183.769 98.9333 184.249 98.78 184.862 98.78Z" fill="black"/>
<defs>
<filter id="filter0_d" x="4" y="0" width="278" height="444" filterUnits="userSpaceOnUse" color-interpolation-filters="sRGB">
<feFlood flood-opacity="0" result="BackgroundImageFix"/>
<feColorMatrix in="SourceAlpha" type="matrix" values="0 0 0 0 0 0 0 0 0 0 0 0 0 0 0 0 0 0 127 0"/>
<feOffset dx="4" dy="2"/>
<feGaussianBlur stdDeviation="1"/>
<feColorMatrix type="matrix" values="0 0 0 0 0 0 0 0 0 0 0 0 0 0 0 0 0 0 0.1 0"/>
<feBlend mode="normal" in2="BackgroundImageFix" result="effect1_dropShadow"/>
<feBlend mode="normal" in="SourceGraphic" in2="effect1_dropShadow" result="shape"/>
</filter>
<filter id="filter1_bd" x="0" y="-4" width="280" height="452" filterUnits="userSpaceOnUse" color-interpolation-filters="sRGB">
<feFlood flood-opacity="0" result="BackgroundImageFix"/>
<feGaussianBlur in="BackgroundImage" stdDeviation="2"/>
<feComposite in2="SourceAlpha" operator="in" result="effect1_backgroundBlur"/>
<feColorMatrix in="SourceAlpha" type="matrix" values="0 0 0 0 0 0 0 0 0 0 0 0 0 0 0 0 0 0 127 0"/>
<feOffset dy="4"/>
<feGaussianBlur stdDeviation="2"/>
<feColorMatrix type="matrix" values="0 0 0 0 0 0 0 0 0 0 0 0 0 0 0 0 0 0 0.1 0"/>
<feBlend mode="normal" in2="effect1_backgroundBlur" result="effect2_dropShadow"/>
<feBlend mode="normal" in="SourceGraphic" in2="effect2_dropShadow" result="shape"/>
</filter>
</defs>
</svg>
