<svg width="155" height="56" viewBox="0 0 155 56" fill="none" xmlns="http://www.w3.org/2000/svg">
<g filter="url(#filter0_d)">
<rect width="147" height="48" transform="translate(4)" fill="white"/>
<rect width="147" height="48" transform="translate(4)" fill="#F9F8F8"/>
<rect x="4" width="147" height="48" rx="8" fill="#F9F8F8"/>
<path d="M51.7734 34.4141L51.9922 35.9141L52.3125 34.5625L54.5625 26.625H55.8281L58.0234 34.5625L58.3359 35.9375L58.5781 34.4062L60.3438 26.625H61.8516L59.0938 38H57.7266L55.3828 29.7109L55.2031 28.8438L55.0234 29.7109L52.5938 38H51.2266L48.4766 26.625H49.9766L51.7734 34.4141ZM66.7547 38.1562C65.6089 38.1562 64.6766 37.7812 63.9578 37.0312C63.2391 36.276 62.8797 35.2682 62.8797 34.0078V33.7422C62.8797 32.9036 63.0385 32.1562 63.3562 31.5C63.6792 30.8385 64.1271 30.3229 64.7 29.9531C65.2781 29.5781 65.9031 29.3906 66.575 29.3906C67.674 29.3906 68.5281 29.7526 69.1375 30.4766C69.7469 31.2005 70.0516 32.237 70.0516 33.5859V34.1875H64.325C64.3458 35.0208 64.588 35.6953 65.0516 36.2109C65.5203 36.7214 66.1141 36.9766 66.8328 36.9766C67.3432 36.9766 67.7755 36.8724 68.1297 36.6641C68.4839 36.4557 68.7937 36.1797 69.0594 35.8359L69.9422 36.5234C69.2339 37.612 68.1714 38.1562 66.7547 38.1562ZM66.575 30.5781C65.9917 30.5781 65.5021 30.7917 65.1062 31.2188C64.7104 31.6406 64.4656 32.2344 64.3719 33H68.6062V32.8906C68.5646 32.1562 68.3667 31.5885 68.0125 31.1875C67.6583 30.7812 67.1792 30.5781 66.575 30.5781ZM79.0875 33.8672C79.0875 35.1589 78.7906 36.1979 78.1969 36.9844C77.6031 37.7656 76.8062 38.1562 75.8062 38.1562C74.7385 38.1562 73.913 37.7786 73.3297 37.0234L73.2594 38H71.9312V26H73.3766V30.4766C73.9599 29.7526 74.7646 29.3906 75.7906 29.3906C76.8167 29.3906 77.6214 29.7786 78.2047 30.5547C78.7932 31.3307 79.0875 32.3932 79.0875 33.7422V33.8672ZM77.6422 33.7031C77.6422 32.7188 77.4521 31.9583 77.0719 31.4219C76.6917 30.8854 76.1448 30.6172 75.4312 30.6172C74.4781 30.6172 73.7932 31.0599 73.3766 31.9453V35.6016C73.8193 36.487 74.5094 36.9297 75.4469 36.9297C76.1396 36.9297 76.6786 36.6615 77.0641 36.125C77.4495 35.5885 77.6422 34.7812 77.6422 33.7031ZM91.7922 35.0312H87.0266L85.9562 38H84.4094L88.7531 26.625H90.0656L94.4172 38H92.8781L91.7922 35.0312ZM87.4797 33.7969H91.3469L89.4094 28.4766L87.4797 33.7969ZM103.062 33.8672C103.062 35.1536 102.768 36.1901 102.18 36.9766C101.591 37.763 100.794 38.1562 99.7891 38.1562C98.763 38.1562 97.9557 37.8307 97.3672 37.1797V41.25H95.9219V29.5469H97.2422L97.3125 30.4844C97.901 29.7552 98.7188 29.3906 99.7656 29.3906C100.781 29.3906 101.583 29.7734 102.172 30.5391C102.766 31.3047 103.062 32.3698 103.062 33.7344V33.8672ZM101.617 33.7031C101.617 32.75 101.414 31.9974 101.008 31.4453C100.602 30.8932 100.044 30.6172 99.3359 30.6172C98.4609 30.6172 97.8047 31.0052 97.3672 31.7812V35.8203C97.7995 36.5911 98.4609 36.9766 99.3516 36.9766C100.044 36.9766 100.594 36.7031 101 36.1562C101.411 35.6042 101.617 34.7865 101.617 33.7031ZM112.247 33.8672C112.247 35.1536 111.953 36.1901 111.364 36.9766C110.776 37.763 109.979 38.1562 108.973 38.1562C107.947 38.1562 107.14 37.8307 106.552 37.1797V41.25H105.106V29.5469H106.427L106.497 30.4844C107.085 29.7552 107.903 29.3906 108.95 29.3906C109.966 29.3906 110.768 29.7734 111.356 30.5391C111.95 31.3047 112.247 32.3698 112.247 33.7344V33.8672ZM110.802 33.7031C110.802 32.75 110.598 31.9974 110.192 31.4453C109.786 30.8932 109.229 30.6172 108.52 30.6172C107.645 30.6172 106.989 31.0052 106.552 31.7812V35.8203C106.984 36.5911 107.645 36.9766 108.536 36.9766C109.229 36.9766 109.778 36.7031 110.184 36.1562C110.596 35.6042 110.802 34.7865 110.802 33.7031Z" fill="#111B47"/>
<path d="M56.6133 14.5635C56.6133 15.4795 56.4538 16.2839 56.1348 16.9766C55.8203 17.6693 55.3691 18.2025 54.7812 18.5762C54.1934 18.9499 53.5143 19.1367 52.7441 19.1367C51.582 19.1367 50.6432 18.722 49.9277 17.8926C49.2122 17.0586 48.8545 15.9352 48.8545 14.5225V13.4971C48.8545 12.5902 49.014 11.7881 49.333 11.0908C49.6566 10.389 50.1123 9.85124 50.7002 9.47754C51.2881 9.09928 51.9648 8.91016 52.7305 8.91016C53.4961 8.91016 54.1706 9.09473 54.7539 9.46387C55.3418 9.83301 55.7952 10.3548 56.1143 11.0293C56.4333 11.7038 56.5996 12.4854 56.6133 13.374V14.5635ZM55.7725 13.4834C55.7725 12.2848 55.5013 11.346 54.959 10.667C54.4167 9.98796 53.6738 9.64844 52.7305 9.64844C51.8053 9.64844 51.0671 9.99023 50.5156 10.6738C49.9688 11.3529 49.6953 12.3031 49.6953 13.5244V14.5635C49.6953 15.7438 49.9688 16.6803 50.5156 17.373C51.0625 18.0612 51.8053 18.4053 52.7441 18.4053C53.6966 18.4053 54.4395 18.0658 54.9727 17.3867C55.5059 16.7031 55.7725 15.7529 55.7725 14.5361V13.4834ZM64.7383 15.377C64.7383 16.5299 64.4831 17.446 63.9727 18.125C63.4622 18.7995 62.7786 19.1367 61.9219 19.1367C60.9102 19.1367 60.1354 18.7812 59.5977 18.0703V21.8438H58.7842V11.6035H59.543L59.584 12.6494C60.1172 11.861 60.8896 11.4668 61.9014 11.4668C62.7855 11.4668 63.4782 11.8018 63.9795 12.4717C64.4854 13.1416 64.7383 14.0713 64.7383 15.2607V15.377ZM63.918 15.2334C63.918 14.29 63.7243 13.5449 63.3369 12.998C62.9495 12.4512 62.4095 12.1777 61.7168 12.1777C61.2155 12.1777 60.7848 12.2985 60.4248 12.54C60.0648 12.7816 59.7891 13.1325 59.5977 13.5928V17.1406C59.7936 17.5645 60.0739 17.888 60.4385 18.1113C60.8031 18.3346 61.2337 18.4463 61.7305 18.4463C62.4186 18.4463 62.9541 18.1729 63.3369 17.626C63.7243 17.0745 63.918 16.277 63.918 15.2334ZM69.6709 19.1367C69.042 19.1367 68.4723 18.9818 67.9619 18.6719C67.4561 18.362 67.0618 17.9313 66.7793 17.3799C66.4967 16.8239 66.3555 16.2018 66.3555 15.5137V15.2197C66.3555 14.5088 66.4922 13.8685 66.7656 13.2988C67.0436 12.7292 67.4287 12.2826 67.9209 11.959C68.4131 11.6309 68.9463 11.4668 69.5205 11.4668C70.4183 11.4668 71.1292 11.7744 71.6533 12.3896C72.182 13.0003 72.4463 13.8366 72.4463 14.8984V15.3564H67.1689V15.5137C67.1689 16.3522 67.4082 17.0518 67.8867 17.6123C68.3698 18.1683 68.9759 18.4463 69.7051 18.4463C70.1426 18.4463 70.5277 18.3665 70.8604 18.207C71.1976 18.0475 71.5029 17.7923 71.7764 17.4414L72.2891 17.8311C71.6875 18.7015 70.8148 19.1367 69.6709 19.1367ZM69.5205 12.1641C68.9053 12.1641 68.3857 12.3896 67.9619 12.8408C67.5426 13.292 67.2874 13.8981 67.1963 14.6592H71.6328V14.5703C71.61 13.8594 71.4072 13.2806 71.0244 12.834C70.6416 12.3874 70.1403 12.1641 69.5205 12.1641ZM75.0684 11.6035L75.0957 12.8682C75.3737 12.4124 75.7201 12.0661 76.1348 11.8291C76.5495 11.5876 77.0075 11.4668 77.5088 11.4668C78.3018 11.4668 78.8919 11.6901 79.2793 12.1367C79.6667 12.5833 79.8626 13.2533 79.8672 14.1465V19H79.0537V14.1396C79.0492 13.4788 78.9079 12.9867 78.6299 12.6631C78.3564 12.3395 77.9167 12.1777 77.3105 12.1777C76.8047 12.1777 76.3558 12.3372 75.9639 12.6562C75.5765 12.9707 75.2894 13.3968 75.1025 13.9346V19H74.2891V11.6035H75.0684ZM85.4395 15.1924C85.4395 14.4814 85.5762 13.8411 85.8496 13.2715C86.1276 12.7018 86.5173 12.2598 87.0186 11.9453C87.5244 11.6263 88.0964 11.4668 88.7344 11.4668C89.7188 11.4668 90.5163 11.8132 91.127 12.5059C91.7376 13.194 92.043 14.1077 92.043 15.2471V15.418C92.043 16.1335 91.904 16.7783 91.626 17.3525C91.3525 17.9222 90.9652 18.362 90.4639 18.6719C89.9626 18.9818 89.3906 19.1367 88.748 19.1367C87.7682 19.1367 86.9707 18.7926 86.3555 18.1045C85.7448 17.4118 85.4395 16.4958 85.4395 15.3564V15.1924ZM86.2598 15.418C86.2598 16.3021 86.4876 17.029 86.9434 17.5986C87.4036 18.1637 88.0052 18.4463 88.748 18.4463C89.4863 18.4463 90.0833 18.1637 90.5391 17.5986C90.9993 17.029 91.2295 16.2793 91.2295 15.3496V15.1924C91.2295 14.6273 91.1247 14.11 90.915 13.6406C90.7054 13.1712 90.4115 12.8089 90.0332 12.5537C89.6549 12.2939 89.222 12.1641 88.7344 12.1641C88.0052 12.1641 87.4105 12.4512 86.9502 13.0254C86.4899 13.5951 86.2598 14.3424 86.2598 15.2676V15.418ZM98.7461 18.0635C98.2539 18.779 97.4678 19.1367 96.3877 19.1367C95.5993 19.1367 95 18.9089 94.5898 18.4531C94.1797 17.9928 93.9701 17.3138 93.9609 16.416V11.6035H94.7744V16.3135C94.7744 17.7217 95.3441 18.4258 96.4834 18.4258C97.6683 18.4258 98.418 17.9359 98.7324 16.9561V11.6035H99.5527V19H98.7598L98.7461 18.0635ZM105.354 12.3008C105.18 12.2689 104.996 12.2529 104.8 12.2529C104.289 12.2529 103.856 12.3965 103.501 12.6836C103.15 12.9661 102.899 13.3786 102.749 13.9209V19H101.936V11.6035H102.735L102.749 12.7793C103.182 11.9043 103.877 11.4668 104.834 11.4668C105.062 11.4668 105.242 11.4964 105.374 11.5557L105.354 12.3008Z" fill="#111B47"/>
<path d="M36.4 13.2002H19.6C18.2745 13.2002 17.2 14.2747 17.2 15.6002V32.4002C17.2 33.7257 18.2745 34.8002 19.6 34.8002H36.4C37.7254 34.8002 38.8 33.7257 38.8 32.4002V15.6002C38.8 14.2747 37.7254 13.2002 36.4 13.2002Z" stroke="#EB1C23" stroke-opacity="0.99" stroke-width="2" stroke-linecap="round" stroke-linejoin="round"/>
<path d="M17.2 20.3999H38.8" stroke="#EB1C23" stroke-opacity="0.99" stroke-width="2" stroke-linecap="round" stroke-linejoin="round"/>
<path d="M24.4 34.7999V20.3999" stroke="#EB1C23" stroke-opacity="0.99" stroke-width="2" stroke-linecap="round" stroke-linejoin="round"/>
</g>
<defs>
<filter id="filter0_d" x="0" y="0" width="155" height="56" filterUnits="userSpaceOnUse" color-interpolation-filters="sRGB">
<feFlood flood-opacity="0" result="BackgroundImageFix"/>
<feColorMatrix in="SourceAlpha" type="matrix" values="0 0 0 0 0 0 0 0 0 0 0 0 0 0 0 0 0 0 127 0"/>
<feOffset dy="4"/>
<feGaussianBlur stdDeviation="2"/>
<feColorMatrix type="matrix" values="0 0 0 0 0 0 0 0 0 0 0 0 0 0 0 0 0 0 0.12 0"/>
<feBlend mode="normal" in2="BackgroundImageFix" result="effect1_dropShadow"/>
<feBlend mode="normal" in="SourceGraphic" in2="effect1_dropShadow" result="shape"/>
</filter>
</defs>
</svg>
