<svg width="41" height="41" viewBox="0 0 41 41" fill="none" xmlns="http://www.w3.org/2000/svg">
<path d="M16.892 17.1995C15.7235 17.1995 14.801 18.2245 14.801 19.475C14.801 20.7255 15.744 21.7505 16.892 21.7505C18.0605 21.7505 18.983 20.7255 18.983 19.475C19.0035 18.2245 18.0605 17.1995 16.892 17.1995ZM24.3745 17.1995C23.206 17.1995 22.2835 18.2245 22.2835 19.475C22.2835 20.7255 23.2265 21.7505 24.3745 21.7505C25.543 21.7505 26.4655 20.7255 26.4655 19.475C26.4655 18.2245 25.543 17.1995 24.3745 17.1995Z" fill="#111B47" fill-opacity="0.58"/>
<path d="M34.3375 0H6.86748C4.55098 0 2.66498 1.886 2.66498 4.223V31.939C2.66498 34.276 4.55098 36.162 6.86748 36.162H30.1145L29.028 32.3695L31.652 34.809L34.1325 37.105L38.54 41V4.223C38.54 1.886 36.654 0 34.3375 0ZM26.4245 26.773C26.4245 26.773 25.6865 25.8915 25.0715 25.1125C27.757 24.354 28.782 22.673 28.782 22.673C27.9415 23.2265 27.142 23.616 26.4245 23.8825C25.3995 24.313 24.4155 24.6 23.452 24.764C21.484 25.133 19.68 25.0305 18.1425 24.7435C16.974 24.518 15.9695 24.19 15.129 23.862C14.6575 23.6775 14.145 23.452 13.6325 23.165C13.571 23.124 13.5095 23.1035 13.448 23.0625C13.407 23.042 13.3865 23.0215 13.366 23.001C12.997 22.796 12.792 22.6525 12.792 22.6525C12.792 22.6525 13.776 24.2925 16.3795 25.0715C15.7645 25.8505 15.006 26.773 15.006 26.773C10.4755 26.6295 8.75348 23.657 8.75348 23.657C8.75348 17.056 11.7055 11.7055 11.7055 11.7055C14.6575 9.4915 17.466 9.553 17.466 9.553L17.671 9.799C13.981 10.865 12.2795 12.4845 12.2795 12.4845C12.2795 12.4845 12.7305 12.2385 13.489 11.89C15.6825 10.9265 17.425 10.66 18.1425 10.5985C18.2655 10.578 18.368 10.5575 18.491 10.5575C19.7415 10.3935 21.156 10.3525 22.632 10.5165C24.5795 10.742 26.6705 11.316 28.8025 12.4845C28.8025 12.4845 27.183 10.947 23.698 9.881L23.985 9.553C23.985 9.553 26.7935 9.4915 29.7455 11.7055C29.7455 11.7055 32.6975 17.056 32.6975 23.657C32.6975 23.657 30.955 26.6295 26.4245 26.773Z" fill="#111B47" fill-opacity="0.58"/>
</svg>
