<svg width="41" height="41" viewBox="0 0 41 41" fill="none" xmlns="http://www.w3.org/2000/svg">
<path d="M20.5 3.6916C25.9773 3.6916 26.626 3.71562 28.7801 3.81172C30.782 3.8998 31.8631 4.23613 32.5838 4.51641C33.5367 4.88477 34.2254 5.3332 34.9381 6.0459C35.6588 6.7666 36.0992 7.44727 36.4676 8.4002C36.7479 9.1209 37.0842 10.21 37.1723 12.2039C37.2684 14.366 37.2924 15.0146 37.2924 20.484C37.2924 25.9613 37.2684 26.61 37.1723 28.7641C37.0842 30.766 36.7479 31.8471 36.4676 32.5678C36.0992 33.5207 35.6508 34.2094 34.9381 34.9221C34.2174 35.6428 33.5367 36.0832 32.5838 36.4516C31.8631 36.7318 30.774 37.0682 28.7801 37.1562C26.618 37.2523 25.9693 37.2764 20.5 37.2764C15.0227 37.2764 14.374 37.2523 12.2199 37.1562C10.218 37.0682 9.13692 36.7318 8.41621 36.4516C7.46328 36.0832 6.77461 35.6348 6.06191 34.9221C5.34121 34.2014 4.90078 33.5207 4.53242 32.5678C4.25215 31.8471 3.91582 30.758 3.82773 28.7641C3.73164 26.602 3.70762 25.9533 3.70762 20.484C3.70762 15.0066 3.73164 14.358 3.82773 12.2039C3.91582 10.202 4.25215 9.1209 4.53242 8.4002C4.90078 7.44727 5.34922 6.75859 6.06191 6.0459C6.78262 5.3252 7.46328 4.88477 8.41621 4.51641C9.13692 4.23613 10.226 3.8998 12.2199 3.81172C14.374 3.71562 15.0227 3.6916 20.5 3.6916ZM20.5 0C14.9346 0 14.2379 0.0240234 12.0518 0.120117C9.87363 0.216211 8.37617 0.568555 7.07891 1.07305C5.72559 1.60156 4.58047 2.29824 3.44336 3.44336C2.29824 4.58047 1.60156 5.72559 1.07305 7.0709C0.568555 8.37617 0.216211 9.86562 0.120117 12.0437C0.0240234 14.2379 0 14.9346 0 20.5C0 26.0654 0.0240234 26.7621 0.120117 28.9482C0.216211 31.1264 0.568555 32.6238 1.07305 33.9211C1.60156 35.2744 2.29824 36.4195 3.44336 37.5566C4.58047 38.6938 5.72559 39.3984 7.0709 39.9189C8.37617 40.4234 9.86563 40.7758 12.0438 40.8719C14.2299 40.968 14.9266 40.992 20.492 40.992C26.0574 40.992 26.7541 40.968 28.9402 40.8719C31.1184 40.7758 32.6158 40.4234 33.9131 39.9189C35.2584 39.3984 36.4035 38.6938 37.5406 37.5566C38.6777 36.4195 39.3824 35.2744 39.9029 33.9291C40.4074 32.6238 40.7598 31.1344 40.8559 28.9563C40.952 26.7701 40.976 26.0734 40.976 20.508C40.976 14.9426 40.952 14.2459 40.8559 12.0598C40.7598 9.88164 40.4074 8.38418 39.9029 7.08691C39.3984 5.72559 38.7018 4.58047 37.5566 3.44336C36.4195 2.30625 35.2744 1.60156 33.9291 1.08105C32.6238 0.576562 31.1344 0.224219 28.9563 0.128125C26.7621 0.0240234 26.0654 0 20.5 0Z" fill="#111B47" fill-opacity="0.58"/>
<path d="M20.5 9.96973C14.6863 9.96973 9.96973 14.6863 9.96973 20.5C9.96973 26.3137 14.6863 31.0303 20.5 31.0303C26.3137 31.0303 31.0303 26.3137 31.0303 20.5C31.0303 14.6863 26.3137 9.96973 20.5 9.96973ZM20.5 27.3307C16.7283 27.3307 13.6693 24.2717 13.6693 20.5C13.6693 16.7283 16.7283 13.6693 20.5 13.6693C24.2717 13.6693 27.3307 16.7283 27.3307 20.5C27.3307 24.2717 24.2717 27.3307 20.5 27.3307Z" fill="#111B47" fill-opacity="0.58"/>
<path d="M33.9051 9.55313C33.9051 10.9145 32.8 12.0115 31.4467 12.0115C30.0854 12.0115 28.9883 10.9065 28.9883 9.55313C28.9883 8.1918 30.0934 7.09473 31.4467 7.09473C32.8 7.09473 33.9051 8.19981 33.9051 9.55313Z" fill="#111B47" fill-opacity="0.58"/>
</svg>
