<svg width="41" height="31" viewBox="0 0 41 31" fill="none" xmlns="http://www.w3.org/2000/svg">
<path d="M12.8982 30.0537C28.3661 30.0537 36.8287 18.49 36.8287 8.46496C36.8287 8.13987 36.8207 7.80756 36.8047 7.48247C38.451 6.40844 39.8716 5.0781 41 3.55396C39.4668 4.16935 37.839 4.57125 36.1721 4.74595C37.9272 3.79686 39.2413 2.30589 39.8709 0.549422C38.2198 1.43218 36.4141 2.0549 34.5313 2.39087C33.2627 1.17482 31.5854 0.369645 29.7586 0.0998416C27.9319 -0.169962 26.0575 0.110629 24.4253 0.898232C22.7931 1.68584 21.4939 2.93658 20.7287 4.4571C19.9634 5.97762 19.7747 7.68321 20.1917 9.31019C16.8484 9.15884 13.5777 8.37533 10.5916 7.01047C7.60555 5.64561 4.97073 3.72987 2.85799 1.38743C1.78418 3.05762 1.4556 5.03401 1.93901 6.91491C2.42243 8.79581 3.68157 10.4401 5.46053 11.5136C4.12499 11.4753 2.81871 11.1509 1.64961 10.5672V10.6611C1.64841 12.4139 2.32008 14.1129 3.55045 15.4694C4.78081 16.8259 6.49393 17.7561 8.39859 18.102C7.16143 18.4074 5.86297 18.4519 4.60369 18.2321C5.14115 19.7394 6.18685 21.0578 7.59486 22.0032C9.00286 22.9486 10.7029 23.4739 12.4578 23.5057C9.47856 25.6169 5.79838 26.762 2.00996 26.7566C1.33812 26.7557 0.666932 26.7185 0 26.6453C3.84863 28.8728 8.32562 30.0559 12.8982 30.0537Z" fill="#111B47" fill-opacity="0.58"/>
</svg>
