<svg width="41" height="41" viewBox="0 0 41 41" fill="none" xmlns="http://www.w3.org/2000/svg">
<path d="M40.5916 12.3002C40.5916 12.3002 40.1912 9.47344 38.958 8.23223C37.3965 6.59863 35.6508 6.59062 34.85 6.49453C29.1164 6.07812 20.508 6.07812 20.508 6.07812H20.492C20.492 6.07812 11.8836 6.07812 6.15 6.49453C5.34922 6.59062 3.60352 6.59863 2.04199 8.23223C0.808789 9.47344 0.416406 12.3002 0.416406 12.3002C0.416406 12.3002 0 15.6234 0 18.9387V22.0457C0 25.3609 0.408398 28.6842 0.408398 28.6842C0.408398 28.6842 0.808789 31.5109 2.03398 32.7521C3.59551 34.3857 5.64551 34.3297 6.5584 34.5059C9.8416 34.8182 20.5 34.9143 20.5 34.9143C20.5 34.9143 29.1164 34.8982 34.85 34.4898C35.6508 34.3938 37.3965 34.3857 38.958 32.7521C40.1912 31.5109 40.5916 28.6842 40.5916 28.6842C40.5916 28.6842 41 25.3689 41 22.0457V18.9387C41 15.6234 40.5916 12.3002 40.5916 12.3002ZM16.2639 25.8174V14.2941L27.3387 20.0758L16.2639 25.8174Z" fill="#111B47" fill-opacity="0.58"/>
</svg>
